<?xml version="1.0" encoding="utf-8"?>
<!-- Generator: Adobe Illustrator 23.0.2, SVG Export Plug-In . SVG Version: 6.00 Build 0)  -->
<svg version="1.1" xmlns="http://www.w3.org/2000/svg" xmlns:xlink="http://www.w3.org/1999/xlink" x="0px" y="0px"
	 viewBox="0 0 124.4 124.6" style="enable-background:new 0 0 124.4 124.6;" xml:space="preserve">
<style type="text/css">
	.st0{display:none;}
	.st1{display:inline;}
	.st2{fill:#CB2026;}
	.st3{fill:url(#SVGID_1_);}
	.st4{fill:url(#SVGID_2_);}
	.st5{clip-path:url(#SVGID_5_);}
	.st6{clip-path:url(#SVGID_7_);}
	.st7{fill:url(#bkdrop_1_);}
	.st8{fill:url(#SVGID_8_);}
	.st9{fill:url(#SVGID_9_);}
	.st10{fill:none;stroke:#000000;stroke-miterlimit:10;}
	.st11{fill:#FCFAFB;}
	.st12{clip-path:url(#SVGID_11_);}
	.st13{fill:#FFFFFF;}
	.st14{fill:#ED1F24;}
</style>
<g id="Button_Template" class="st0">
	<g id="Button_4_" class="st1">
		<path d="M698.1-75.2h-94.5c-7.9,0-14.3-6.4-14.3-14.3V-184c0-7.9,6.4-14.3,14.3-14.3h94.5c7.9,0,14.3,6.4,14.3,14.3v94.5
			C712.4-81.6,706-75.2,698.1-75.2z"/>
		<path class="st2" d="M699.5-77.8H606c-7.9,0-14.3-6.4-14.3-14.3v-93.4c0-7.9,6.4-14.3,14.3-14.3h93.4c7.9,0,14.3,6.4,14.3,14.3
			v93.4C713.8-84.2,707.4-77.8,699.5-77.8z"/>
	</g>
</g>
<g id="Bass">
	<g id="Base_Head">
		<g id="Button">
			<g id="Button_2_">
				<path d="M108.8,124.6H14.3c-7.9,0-14.3-6.4-14.3-14.3V15.8C0,7.9,6.4,1.5,14.3,1.5h94.5c7.9,0,14.3,6.4,14.3,14.3v94.5
					C123.1,118.2,116.7,124.6,108.8,124.6z"/>
				<radialGradient id="SVGID_1_" cx="63.4061" cy="61.0169" r="74.2678" gradientUnits="userSpaceOnUse">
					<stop  offset="0.1723" style="stop-color:#3068AC"/>
					<stop  offset="0.325" style="stop-color:#2A64A4"/>
					<stop  offset="0.6286" style="stop-color:#1B5B92"/>
					<stop  offset="1" style="stop-color:#004975"/>
				</radialGradient>
				<path class="st3" d="M110.1,122H16.7c-7.9,0-14.3-6.4-14.3-14.3V14.3C2.4,6.4,8.8,0,16.7,0h93.4c7.9,0,14.3,6.4,14.3,14.3v93.4
					C124.4,115.6,118,122,110.1,122z"/>
			</g>
		</g>
		<g id="Layer_7">
		</g>
		<g id="Head">
			<path d="M61.6,19.6c1.2,1.4,3.2,1.7,5,1.3c1.8-0.3,3.6-1.1,5.3-2c1.7-0.9,3.3-1.9,4.9-3.1c0.8-0.6,1.5-1.1,2.3-1.7
				c0.7-0.6,1.5-1.2,2.1-2l0,0l1.2-1.1l-0.3,1.6l-0.9,4.3l-0.5,2.1c-0.1,0.7-0.2,1.4-0.3,2.2l-0.6,4.3l-0.3,4.4l-0.1,2.2l0,2.2
				c0,1.5,0,2.9,0,4.4l0.3,4.4c0.1,1.5,0.3,2.9,0.4,4.3c0.7,5.8,1.8,11.5,3.4,17.1c1.6,5.6,3.5,11.2,5.9,16.3l0,0l0.4,0.9L89,82.4
				l-19.5,18.4l0,0l0.1-0.4v15.1l0,0l0,0.5l-0.5,0l-18.5-0.2l0,0l-0.3,0l0-0.3L50,100.3l0,0l0,0.2L37,65.2l-0.1-0.2l0.1-0.2
				c3.5-6.1,6.2-12.7,8.3-19.5c0.3-0.8,0.5-1.7,0.7-2.5l0.7-2.6c0.3-1.7,0.8-3.4,1-5.2l0.4-2.6l0.3-2.6l0.1-1.3c0-0.4,0-0.9,0.1-1.3
				l0.1-2.6c0-1.8-0.1-3.5-0.2-5.3c-0.1-1.8,0-3.7,0.3-5.5c0.3-1.8,0.9-3.6,1.9-5.2c1-1.6,2.6-2.9,4.4-3.5c0.9-0.3,1.9-0.4,2.9-0.3
				c1,0.1,1.9,0.4,2.8,0.8c0.9,0.5,1.6,1.1,2.2,1.8c0.6,0.8,1,1.6,1.3,2.5c0.5,1.8,0.3,3.7-0.3,5.5c-0.1,0.4-0.3,0.9-0.5,1.3
				c-0.2,0.4-0.4,0.8-0.6,1.2c-0.2,0.4-0.4,0.8-0.7,1.2c-0.3,0.4-0.5,0.8-0.9,1c0.1-0.5,0.4-0.8,0.6-1.2c0.2-0.4,0.4-0.8,0.6-1.2
				c0.2-0.4,0.4-0.8,0.5-1.2c0.2-0.4,0.3-0.8,0.4-1.2c0.5-1.7,0.5-3.5,0-5.1c-0.3-0.8-0.7-1.5-1.2-2.1c-0.6-0.6-1.2-1.1-1.9-1.5
				C59.6,6,58.8,5.8,58,5.7c-0.8,0-1.6,0.1-2.4,0.3c-1.5,0.5-2.8,1.7-3.7,3.1c-0.9,1.4-1.4,3-1.7,4.7c-0.3,1.7-0.4,3.4-0.2,5.2
				c0.1,1.8,0.2,3.6,0.2,5.4c-0.1,7.2-1.3,14.4-3.5,21.2c-1,3.4-2.3,6.8-3.8,10.1c-1.5,3.3-3,6.5-4.9,9.6l0-0.5l13.2,35.3l0,0.1v0.1
				l0,0l-0.4,15.2l-0.3-0.3l0,0l18.5-0.2l-0.5,0.5l0,0v-15.1v-0.2l0.1-0.1l0,0l18.4-19.5L86.9,82l0,0c-2.4-5.5-4.2-11.2-5.7-16.9
				c-1.4-5.8-2.4-11.6-3-17.5c-0.1-1.5-0.3-2.9-0.3-4.4l-0.2-4.4c0-1.5,0.1-3,0.1-4.4l0.1-2.2l0.2-2.2l0.4-4.4l0.7-4.4
				c0.1-0.7,0.2-1.5,0.4-2.2l0.5-2.2l1.1-4.3l0.8,0.5l0,0c-0.9,0.5-1.6,1.1-2.4,1.7c-0.8,0.6-1.5,1.2-2.3,1.8
				c-1.6,1.1-3.2,2.2-4.9,3.1c-1.7,0.9-3.5,1.7-5.5,2.1c-1,0.2-2,0.2-3,0c-1-0.2-2-0.7-2.7-1.5L61.6,19.6z"/>
		</g>
		<g id="Tuner">
			<g>
				<path d="M51.7,54.1c-0.2-1.5,1-3.2,2.6-3.4c0.8-0.1,1.7,0.1,2.4,0.6c0.7,0.5,1.2,1.4,1.3,2.3c0.1,0.9-0.2,1.8-0.8,2.5
					c-0.6,0.6-1.5,1-2.3,1C53.2,57.1,51.8,55.6,51.7,54.1z M51.7,54.1c0.1,0.8,0.5,1.5,1.1,1.9c0.6,0.4,1.4,0.6,2.1,0.5
					c1.4-0.2,2.3-1.6,2.2-2.9c-0.1-1.3-1.2-2.5-2.7-2.5c-0.7,0-1.4,0.3-2,0.8C51.9,52.6,51.6,53.3,51.7,54.1z"/>
			</g>
			<g>
				<path d="M67.3,70.4c-1.4-0.6-2.3-2.4-1.7-4c0.3-0.8,0.9-1.5,1.7-1.8c0.8-0.4,1.8-0.4,2.6,0c0.8,0.4,1.5,1.1,1.7,1.9
					c0.3,0.8,0.2,1.8-0.2,2.5C70.6,70.5,68.7,71.1,67.3,70.4z M67.3,70.4c0.7,0.3,1.5,0.3,2.2,0c0.7-0.3,1.2-0.9,1.4-1.6
					c0.5-1.4-0.3-2.8-1.4-3.3c-1.1-0.5-2.7-0.1-3.4,1.1c-0.3,0.6-0.5,1.4-0.2,2.1C66,69.5,66.6,70.1,67.3,70.4z"/>
			</g>
			<g>
				<path d="M60.5,34.1c0,1.5-1.2,3.1-2.9,3.2c-0.8,0.1-1.7-0.2-2.4-0.8c-0.7-0.6-1.1-1.5-1.1-2.4c0-0.9,0.4-1.8,1.1-2.4
					c0.7-0.6,1.5-0.9,2.4-0.8C59.3,31.1,60.5,32.6,60.5,34.1z M60.5,34.1c0-0.8-0.3-1.5-0.9-2c-0.6-0.5-1.3-0.7-2-0.7
					c-1.4,0.1-2.5,1.4-2.4,2.7c0,1.3,1,2.6,2.4,2.7c0.7,0.1,1.5-0.2,2-0.7C60.1,35.7,60.5,34.9,60.5,34.1z"/>
			</g>
			<g>
				<path d="M73.5,50.1c-1.1,1.1-3,1.3-4.3,0.2c-0.6-0.5-1.1-1.4-1.1-2.2c-0.1-0.9,0.3-1.8,0.9-2.4c0.6-0.6,1.5-1,2.4-0.9
					c0.9,0,1.7,0.5,2.3,1.1C74.8,47,74.6,49,73.5,50.1z M73.5,50.1c0.5-0.5,0.8-1.3,0.8-2.1c0-0.8-0.4-1.4-1-1.9
					c-1.1-0.9-2.7-0.7-3.6,0.2c-0.9,0.9-1.1,2.5-0.2,3.6c0.5,0.5,1.1,0.9,1.9,1C72.2,50.9,72.9,50.6,73.5,50.1z"/>
			</g>
		</g>
		<g id="Keys">
			<g>
				<path d="M41.9,49.9c-0.9,0.3-1.6,0-2.1-0.4c-0.6-0.4-1-0.9-1.3-1.5c-0.3-0.6-0.5-1-0.8-1.2c-0.1-0.1-0.2-0.1-0.4-0.1
					c-0.2,0-0.4,0.1-0.6,0.2c-0.8,0.5-1.5,1.3-1.7,2.3c-0.1,0.5-0.2,1.1,0.1,1.3c0.4,0.2,1,0,1.5-0.1c-0.2,0.2-0.5,0.3-0.8,0.4
					c-0.3,0.1-0.6,0.2-1,0.1c-0.4-0.1-0.6-0.5-0.6-0.9c-0.1-0.3-0.1-0.6-0.1-1c0.1-1.3,0.8-2.5,1.9-3.3c0.3-0.2,0.6-0.4,1-0.4
					c0.4-0.1,0.9,0,1.3,0.2c0.7,0.5,1,1.2,1.2,1.6c0.3,0.4,0.6,0.9,0.9,1.2c0.3,0.3,0.8,0.5,1.1,0.5L41.9,49.9z"/>
			</g>
			<g>
				<path d="M47.1,33.7c-0.9,0.3-1.7-0.1-2.3-0.5c-0.6-0.5-1-1-1.3-1.6c-0.3-0.6-0.5-0.9-0.8-0.9c-0.2-0.1-0.8,0.1-1.2,0.5
					c-0.4,0.3-0.8,0.8-1,1.3c-0.1,0.2-0.2,0.5-0.3,0.8c0,0.1-0.1,0.3-0.1,0.3c0,0,0,0,0.1,0.1c0.4,0.2,1.1,0,1.7-0.1
					c0.6-0.1,1.2-0.3,1.8-0.6c-0.5,0.4-1.1,0.7-1.7,0.9c-0.6,0.2-1.2,0.5-2,0.4c-0.2,0-0.5-0.2-0.6-0.5c-0.1-0.3,0-0.4,0-0.6
					c0-0.3,0.1-0.7,0.2-1c0.2-0.7,0.6-1.3,1.1-1.8c0.3-0.2,0.5-0.5,0.9-0.7c0.3-0.2,0.8-0.3,1.3-0.3c1.1,0.2,1.5,1.1,1.8,1.6
					c0.3,0.5,0.6,1,0.9,1.3c0.3,0.4,0.8,0.6,1.1,0.6L47.1,33.7z"/>
			</g>
			<g>
				<path d="M81.1,47.7c0.7-0.8,1.6-0.8,2.4-0.7c0.8,0.1,1.4,0.5,2,0.9c0.2,0.1,0.5,0.3,0.6,0.3c0.2,0,0.3,0,0.4-0.1
					c0.3-0.2,0.6-0.8,0.8-1.3c0.1-0.6,0.2-1.2,0.1-1.7c0-0.1-0.1-0.3-0.1-0.4c0-0.1,0-0.1,0-0.1c0,0,0,0-0.1-0.1
					c-0.2-0.1-0.5-0.1-0.8-0.1c-0.6,0.1-1.2,0.2-1.8,0.6c-0.5,0.3-1,0.8-1.1,1.5c0-0.7,0.4-1.3,1-1.8c0.5-0.4,1.2-0.7,1.9-0.9
					c0.4-0.1,0.7-0.1,1.2,0c0.1,0,0.2,0.1,0.3,0.2c0.1,0.1,0.2,0.3,0.2,0.3c0.1,0.2,0.2,0.3,0.2,0.5c0.3,0.7,0.4,1.5,0.3,2.2
					c-0.1,0.7-0.3,1.5-1,2.1c-0.4,0.3-1,0.5-1.4,0.4c-0.5-0.1-0.9-0.3-1.2-0.5c-0.5-0.3-1-0.6-1.6-0.8c-0.3-0.1-0.5-0.1-0.8-0.1
					c-0.2,0-0.5,0.1-0.6,0.1L81.1,47.7z"/>
			</g>
			<g>
				<path d="M85,65.2c0.8-0.4,1.5-0.3,2.1,0c0.6,0.3,1.1,0.7,1.5,1.1c0.4,0.5,0.7,0.9,1.1,1c0.4,0.2,0.8,0,1.1-0.4
					c0.7-0.7,1.2-1.8,1.1-2.9c0-0.5-0.1-1.2-0.6-1.3c-0.5-0.1-1,0.3-1.5,0.6c0.4-0.4,0.8-0.9,1.5-0.8c0.3,0.1,0.6,0.3,0.7,0.6
					c0.1,0.3,0.2,0.6,0.3,0.9c0.2,1.2-0.2,2.5-1,3.4c-0.2,0.2-0.5,0.5-0.8,0.6c-0.3,0.2-0.8,0.2-1.1,0.1c-0.7-0.2-1.1-0.8-1.5-1.2
					c-0.4-0.4-0.8-0.7-1.3-0.9c-0.2-0.1-0.4-0.1-0.7-0.2c-0.2,0-0.5,0-0.5,0.1L85,65.2z"/>
			</g>
		</g>
	</g>
</g>
<g id="Drum">
	<g id="Button_3_">
		<path d="M104.2,267.9H9.6c-7.9,0-14.3-6.4-14.3-14.3v-94.5c0-7.9,6.4-14.3,14.3-14.3h94.5c7.9,0,14.3,6.4,14.3,14.3v94.5
			C118.4,261.5,112,267.9,104.2,267.9z"/>
		<g>
			<radialGradient id="SVGID_2_" cx="58.7416" cy="204.2688" r="61.0169" gradientUnits="userSpaceOnUse">
				<stop  offset="0.421" style="stop-color:#F78E1E"/>
				<stop  offset="0.5255" style="stop-color:#E98F25"/>
				<stop  offset="0.7174" style="stop-color:#CD9138"/>
				<stop  offset="0.8881" style="stop-color:#B08E47"/>
			</radialGradient>
			<path class="st4" d="M105.5,265.3H12c-7.9,0-14.3-6.4-14.3-14.3v-93.4c0-7.9,6.4-14.3,14.3-14.3h93.4c7.9,0,14.3,6.4,14.3,14.3
				V251C119.8,258.9,113.4,265.3,105.5,265.3z"/>
		</g>
	</g>
	<g>
		<defs>
			<path id="SVGID_3_" d="M105.5,265.3H12c-7.9,0-14.3-6.4-14.3-14.3v-93.4c0-7.9,6.4-14.3,14.3-14.3h93.4c7.9,0,14.3,6.4,14.3,14.3
				V251C119.8,258.9,113.4,265.3,105.5,265.3z"/>
		</defs>
		<radialGradient id="SVGID_4_" cx="58.7416" cy="204.2688" r="82.2474" gradientUnits="userSpaceOnUse">
			<stop  offset="0.3713" style="stop-color:#F78E1E"/>
			<stop  offset="0.5932" style="stop-color:#F38E1F"/>
			<stop  offset="0.6731" style="stop-color:#EB8F1F"/>
			<stop  offset="0.7299" style="stop-color:#E0921F"/>
			<stop  offset="0.7535" style="stop-color:#D99420"/>
		</radialGradient>
		<use xlink:href="#SVGID_3_"  style="overflow:visible;fill:url(#SVGID_4_);"/>
		<clipPath id="SVGID_5_">
			<use xlink:href="#SVGID_3_"  style="overflow:visible;"/>
		</clipPath>
		<g id="Drum_1_" class="st5">
			<path id="Base_Drum" d="M42,245.2c0-29,23.5-52.6,52.6-52.6c16,0,30.3,7.2,40,18.4c-9.7-13.2-25.3-21.7-42.9-21.7
				c-29.4,0-53.2,23.8-53.2,53.2c0,19.6,10.6,36.7,26.4,46C51.1,279.1,42,263.2,42,245.2z"/>
			<g id="Bottom">
				<g id="Hat_1_">
					<path d="M4.3,179.2c4.8-0.1,9.3,0,13.8,0.1l13.3,0.4c2.2,0.1,4.4,0.1,6.6,0.1c1.1,0,2.2,0,3.3,0c1.1,0,2.2,0,3.3,0
						c4.5,0.2,8.9,0,13.8,0.4c-4.4,1.4-8.8,2.6-13.4,3.1l-1.7,0.2l-1.7,0.1l-3.4,0.2c-2.3,0-4.6,0.2-6.9,0.1
						c-4.6-0.2-9.2-0.6-13.7-1.4C13.1,181.9,8.6,180.9,4.3,179.2z"/>
				</g>
				
					<ellipse id="Cap_of_Hat_1_" transform="matrix(1.795984e-02 -0.9998 0.9998 1.795984e-02 -152.1947 212.7436)" cx="32.2" cy="183.8" rx="1.6" ry="5.2"/>
			</g>
			<g id="Stand_1_">
				<polygon points="32,169.4 34.7,275.1 28.9,275.1 31.6,169.4 				"/>
			</g>
			<g id="Top">
				<g id="Stand" class="st0">
					<polygon class="st1" points="51.2,167.7 49.1,177.6 49.1,177.8 48.9,178 6.6,221.7 7.1,220.3 5.6,289.8 4.6,289.8 3.1,220.3 
						3.1,219.4 3.7,218.8 47.4,176.5 47.1,176.9 					"/>
				</g>
				<g>
					<g id="Hat">
						<path d="M58.7,179c-4.8,0-9.3-0.2-13.8-0.4c-4.5-0.2-8.9-0.4-13.3-0.5c-2.2-0.1-4.4-0.1-6.6-0.2c-1.1,0-2.2,0-3.3,0
							c-1.1,0-2.2,0-3.3-0.1c-4.5-0.1-8.9,0.1-13.8-0.3c4.4-1.4,8.8-2.5,13.4-3l1.7-0.2l1.7-0.1l3.4-0.2c2.3,0,4.6-0.1,6.9,0
							c4.6,0.2,9.2,0.6,13.7,1.5C49.9,176.3,54.4,177.4,58.7,179z"/>
					</g>
					
						<ellipse id="Cap_of_Hat" transform="matrix(2.448537e-02 -0.9997 0.9997 2.448537e-02 -143.1918 201.7876)" cx="31.8" cy="174.3" rx="1.6" ry="5.2"/>
				</g>
			</g>
		</g>
	</g>
</g>
<g id="Trump_1_">
	<g id="Button_1_">
		<path d="M108.8-12.8H14.3C6.4-12.8,0-19.2,0-27.1v-94.5c0-7.9,6.4-14.3,14.3-14.3h94.5c7.9,0,14.3,6.4,14.3,14.3v94.5
			C123.1-19.2,116.7-12.8,108.8-12.8z"/>
	</g>
	<g>
		<defs>
			<path id="SVGID_6_" d="M110.1-15.4H16.7c-7.9,0-14.3-6.4-14.3-14.3v-93.4c0-7.9,6.4-14.3,14.3-14.3h93.4
				c7.9,0,14.3,6.4,14.3,14.3v93.4C124.4-21.9,118-15.4,110.1-15.4z"/>
		</defs>
		<clipPath id="SVGID_7_">
			<use xlink:href="#SVGID_6_"  style="overflow:visible;"/>
		</clipPath>
		<g class="st6">
			<radialGradient id="bkdrop_1_" cx="66.6795" cy="-71.2771" r="91.8105" gradientUnits="userSpaceOnUse">
				<stop  offset="0.1723" style="stop-color:#F6EC1D"/>
				<stop  offset="0.3757" style="stop-color:#E3DB1B"/>
				<stop  offset="0.7779" style="stop-color:#B9B814"/>
				<stop  offset="1" style="stop-color:#A0A20F"/>
			</radialGradient>
			<rect id="bkdrop" x="-33" y="-154.5" class="st7" width="199.4" height="166.4"/>
		</g>
		<g id="TrumpHead" class="st6">
			<path d="M64.2-116.9c7.6,8.7,12.6,24.1,12.6,41.7c0,27.2-12.1,49.3-26.9,49.3c-4.1,0-7.9-1.7-11.4-4.6c4.2,4.8,9.1,7.6,14.4,7.6
				c14.9,0,26.9-22.1,26.9-49.3C79.7-92,73.4-109.1,64.2-116.9z"/>
			<path d="M24.5-73.6c0-27.2,12.1-49.3,26.9-49.3c4.1,0,8.1,1.7,11.6,4.8c-4.1-4.7-9-7.4-14.2-7.4c-14.9,0-26.9,22.1-26.9,49.3
				c0,19.7,6.3,36.6,15.4,44.5C29.6-40.3,24.5-55.9,24.5-73.6z"/>
			<ellipse cx="56.3" cy="-72.9" rx="7.7" ry="17.3"/>
		</g>
		<g id="Body" class="st6">
			<g>
				<path d="M80-91.8c1.7,1,3.5,1.4,5.4,1.9c0.9,0.2,1.8,0.5,2.8,0.7c0.9,0.2,1.8,0.5,2.8,0.6c1.9,0.4,3.7,0.9,5.6,1.2l2.8,0.6
					c0.9,0.2,1.9,0.3,2.8,0.5c7.5,1.3,15.1,2.2,22.7,3l5.7,0.6c1.9,0.2,3.8,0.3,5.7,0.5c3.8,0.3,7.6,0.6,11.5,0.9
					c3.8,0.2,7.7,0.6,11.5,0.8c3.8,0.2,7.7,0.5,11.5,0.7c-7.7,0.1-15.4,0.1-23-0.1c-3.8-0.1-7.7-0.2-11.5-0.4
					c-3.8-0.2-7.7-0.4-11.5-0.7c-3.8-0.2-7.7-0.7-11.5-1.1c-3.8-0.5-7.7-0.9-11.5-1.6c-1-0.2-1.9-0.3-2.9-0.5l-2.8-0.6
					c-1.9-0.3-3.8-0.8-5.7-1.4c-1.9-0.6-3.7-1.2-5.5-2.1c-0.9-0.4-1.7-0.9-2.6-1.5C81.4-90.3,80.6-90.9,80-91.8z"/>
			</g>
			<g>
				<path d="M78.4-50.9c0.6-0.8,1.4-1.4,2.3-1.9c0.9-0.5,1.7-1,2.6-1.3c1.8-0.8,3.7-1.4,5.6-1.9c1.9-0.4,3.8-0.9,5.7-1.1l2.9-0.4
					c1-0.1,1.9-0.2,2.9-0.4c3.8-0.5,7.7-0.8,11.5-1.1c3.8-0.2,7.7-0.5,11.5-0.6c3.8-0.1,7.7-0.2,11.5-0.2c3.8,0,7.7,0,11.5,0.1
					c7.7,0.1,15.4,0.5,23,0.9c-3.8,0.1-7.7,0.2-11.5,0.2c-3.8,0-7.7,0.2-11.5,0.3c-3.8,0.1-7.7,0.2-11.5,0.4
					c-1.9,0.1-3.8,0.1-5.7,0.2l-5.7,0.3c-7.6,0.4-15.3,1-22.8,2c-0.9,0.1-1.9,0.2-2.8,0.4L95-54.6c-1.9,0.3-3.7,0.7-5.6,1
					c-0.9,0.1-1.9,0.4-2.8,0.5c-0.9,0.1-1.8,0.4-2.8,0.6C82-52.1,80.1-51.8,78.4-50.9z"/>
			</g>
		</g>
	</g>
	<g id="Trump">
	</g>
</g>
<g id="Sax">
	<g id="Button_5_">
		<path d="M249.5-12.1H155c-7.9,0-14.3-6.4-14.3-14.3v-94.5c0-7.9,6.4-14.3,14.3-14.3h94.5c7.9,0,14.3,6.4,14.3,14.3v94.5
			C263.8-18.5,257.4-12.1,249.5-12.1z"/>
		<radialGradient id="SVGID_8_" cx="204.1314" cy="-75.7014" r="61.0169" gradientUnits="userSpaceOnUse">
			<stop  offset="0.1723" style="stop-color:#C9D5DB"/>
			<stop  offset="0.3978" style="stop-color:#BAC6CE"/>
			<stop  offset="0.844" style="stop-color:#92A1AA"/>
			<stop  offset="1" style="stop-color:#84949D"/>
		</radialGradient>
		<path class="st8" d="M250.9-14.7h-93.4c-7.9,0-14.3-6.4-14.3-14.3v-93.4c0-7.9,6.4-14.3,14.3-14.3h93.4c7.9,0,14.3,6.4,14.3,14.3
			V-29C265.1-21.1,258.7-14.7,250.9-14.7z"/>
	</g>
	<g id="Sax_1_">
		<g id="Bellow">
			<g>
				<path d="M181.5-60.9c1.7-0.9,3.9-1.1,5.8,0c1.8,1.1,2.9,3.1,3.5,5c0.6,1.9,1,3.9,1.2,5.9l0.3,2.9c0.1,0.9,0.1,1.9,0.3,2.8
					c0.5,3.7,1.5,7.3,3.2,10.4c1.7,3.2,4,5.9,6.8,8c5.6,4.1,13.3,4.8,19.1,1.6c2.8-1.7,5.3-4,6.9-6.9c1.7-2.9,2.8-6.3,3.3-9.8
					l0.2-1.3c0.1-0.4,0.1-0.9,0.1-1.3c0.1-0.9,0.2-1.8,0.2-2.8c0.1-1.9,0.2-3.9,0.3-5.8l0.6-11.6l1.4-23.1
					c0.5-7.7,1.1-15.4,1.7-23.1l1-11.5l0.6-5.8l0.3-2.9c0.1-0.9,0.2-1.9,0.5-2.8c-0.3,0.9-0.2,1.9-0.3,2.9l-0.2,2.9l-0.3,5.8
					l-0.4,11.6c-0.2,7.7-0.3,15.4-0.4,23.1c-0.1,7.7-0.1,15.4,0,23.1c0,3.9,0.1,7.7,0.3,11.5l0.2,5.8c0,0.9,0,2,0,3c0,0.5,0,1,0,1.5
					l-0.1,1.5c-0.4,4.1-1.6,8.3-3.7,12.1c-2.2,3.8-5.5,7-9.4,9c-2,0.9-4.1,1.7-6.3,2c-2.2,0.3-4.4,0.4-6.5,0.1
					c-1.1-0.1-2.1-0.4-3.2-0.6c-1-0.4-2.1-0.6-3-1.1c-2-0.8-3.8-2-5.5-3.3c-3.3-2.7-5.8-6.2-7.4-10c-1.6-3.8-2.4-7.9-2.5-11.8
					c0-1,0-2,0-3c0-1,0-1.9,0.1-2.8c0-1.9-0.1-3.7-0.5-5.5c-0.4-1.8-1.1-3.5-2.5-4.7c-0.7-0.5-1.5-0.9-2.5-1
					C183.3-61.4,182.4-61.3,181.5-60.9z"/>
			</g>
			<g>
				<path d="M198.1-100.8c3.4,2.6,6.1,6.1,8.5,9.7c2.3,3.7,4.1,7.7,5.5,11.8c0.6,2.1,1.3,4.1,1.7,6.3c0.2,1.1,0.5,2.1,0.6,3.2
					l0.4,3.2c0.1,0.5,0.2,1.1,0.2,1.6l0.1,1.6l0.2,3.2c0,2.1-0.1,4.3-0.2,6.4c-0.3-2.1-0.4-4.3-0.7-6.4l-0.5-3.2l-0.2-1.6l-0.3-1.6
					l-0.6-3.1c-0.2-1-0.5-2-0.8-3.1c-0.3-1-0.5-2-0.9-3l-0.9-3c-1.4-4-3.1-7.8-5.1-11.5C203.1-93.9,200.9-97.5,198.1-100.8z"/>
			</g>
			<g>
				<path d="M218.9-131.5c0.1,4.6-0.1,9.1-0.3,13.6c-0.2,4.5-0.5,9-0.8,13.5c-0.3,4.5-0.7,9-1.1,13.5c-0.4,4.5-0.9,9-1.6,13.5
					c-0.4-4.5-0.5-9.1-0.5-13.6c0-4.5,0.2-9.1,0.5-13.6c0.3-4.5,0.7-9,1.3-13.5C217.1-122.5,217.8-127,218.9-131.5z"/>
			</g>
		</g>
		<g id="outer_Bell">
			<path d="M163.4-91.8c5.7-15.3,17.3-25.1,26.1-21.8c2,0.7,3.7,2.1,5,3.9c-1.4-3-3.6-5.1-6.3-6.1c-8.7-3.2-20.4,6.5-26.1,21.8
				c-4.4,11.8-3.9,23.4,0.6,29.6C159.5-71,159.5-81.3,163.4-91.8z"/>
			<path d="M194.1-110.2c3.5,6.4,3.6,17.1-0.4,27.9c-5.7,15.2-17.4,24.9-26.1,21.7c-2-0.7-3.7-2.1-5-4c1.4,2.6,3.4,4.5,6,5.5
				c8.7,3.2,20.4-6.5,26.1-21.7C199-92.5,198.5-104,194.1-110.2z"/>
		</g>
		
			<ellipse id="Inner_Bell" transform="matrix(0.4281 -0.9037 0.9037 0.4281 181.1339 115.7116)" cx="182" cy="-85.3" rx="18" ry="5.4"/>
		<g id="Slides">
			<g>
				<path d="M229.9-115.3c-0.8,1.2-2.2,2.1-3.6,2.4c-1.5,0.3-3,0-4.3-0.8c-1.3-0.8-2.3-2.2-2.6-3.8c-0.3-1.5,0-3.2,1-4.5
					c0.9-1.3,2.4-2.2,4-2.4c1.6-0.2,3.2,0.2,4.4,1.2c1.2,0.9,2,2.3,2.2,3.8C231.1-118,230.8-116.5,229.9-115.3z M229.9-115.3
					c0.8-1.2,1.2-2.7,0.9-4.2c-0.3-1.4-1.2-2.7-2.4-3.4c-1.2-0.8-2.6-1-4-0.7c-1.3,0.3-2.5,1.1-3.3,2.2c-0.8,1.1-1.1,2.5-0.9,3.8
					c0.2,1.3,0.9,2.6,2,3.5c1.1,0.9,2.6,1.3,4,1.1C227.7-113.3,229.1-114.1,229.9-115.3z"/>
			</g>
			<g>
				<path d="M224.1-69.6c-0.6,0.8-1.4,1.6-2.5,1.9c-1.1,0.3-2.3,0.1-3.2-0.6c-0.9-0.7-1.4-1.8-1.5-2.8c-0.1-1,0-2.2,0.6-3.1
					c0.5-1,1.5-1.7,2.7-1.9c1.1-0.2,2.4,0,3.3,0.7c0.9,0.7,1.6,1.8,1.6,2.9C225.1-71.5,224.7-70.5,224.1-69.6z M224-69.7
					c0.6-0.8,0.7-1.9,0.4-2.8c-0.3-0.9-0.8-1.6-1.6-2.1c-0.7-0.5-1.6-0.7-2.5-0.6c-0.9,0.1-1.8,0.6-2.4,1.3
					c-0.6,0.7-0.9,1.8-0.7,2.7c0.2,1,0.9,1.8,1.7,2.2c0.8,0.5,1.7,0.7,2.6,0.7C222.4-68.4,223.5-68.8,224-69.7z"/>
			</g>
			<g>
				<path d="M225.7-79.6c-0.7,0.9-1.7,1.6-2.9,1.7c-1.1,0.2-2.3-0.1-3.2-0.8c-0.9-0.7-1.5-1.7-1.7-2.8c-0.2-1.1,0.1-2.2,0.8-3.1
					c0.6-0.9,1.6-1.5,2.7-1.6c1.1-0.2,2.2,0.1,3,0.7c0.9,0.6,1.4,1.6,1.6,2.6c0.2,1-0.1,2.1-0.7,2.9L225.7-79.6z M225.3-79.9
					c0.6-0.8,0.8-1.9,0.6-2.9c-0.2-1-0.8-1.9-1.6-2.4c-0.8-0.6-1.9-0.8-2.8-0.6c-1,0.2-1.8,0.8-2.4,1.6c-0.5,0.8-0.7,1.8-0.6,2.7
					c0.2,0.9,0.7,1.8,1.5,2.3c0.8,0.5,1.7,0.7,2.6,0.5c0.9-0.2,1.7-0.7,2.2-1.5L225.3-79.9z"/>
			</g>
			<g>
				<path d="M226.4-90c-1.1,1.7-3.7,2.5-5.8,1.3c-1-0.6-1.8-1.6-2.1-2.8c-0.3-1.2,0-2.5,0.7-3.6c0.7-1,1.9-1.7,3.1-1.8
					c1.2-0.1,2.4,0.3,3.3,1C227.5-94.4,227.6-91.7,226.4-90z M226.3-90.1c0.6-0.8,0.8-1.9,0.6-2.9c-0.2-1-0.8-1.9-1.6-2.5
					c-0.8-0.6-1.9-0.8-2.9-0.6c-1,0.2-1.9,0.7-2.5,1.6c-0.6,0.8-0.8,1.9-0.7,2.8c0.2,1,0.7,1.9,1.6,2.5c0.8,0.6,1.9,0.8,2.9,0.7
					C224.8-88.7,225.7-89.3,226.3-90.1z"/>
			</g>
			<g>
				<path d="M230.2-104.4c0,1.5-0.4,3-1.5,4.2c-1,1.2-2.6,1.9-4.2,1.8c-1.6-0.1-3-0.9-4.1-1.9c-1-1.1-1.7-2.5-1.8-4.1
					c-0.1-1.5,0.5-3.2,1.6-4.3c1.1-1.2,2.7-1.9,4.3-1.8c1.6,0,3.2,0.7,4.2,1.9C229.7-107.4,230.2-105.8,230.2-104.4z M230.1-104.4
					c0-1.5-0.8-2.9-1.8-3.7c-1.1-0.9-2.4-1.4-3.7-1.3c-1.3,0-2.6,0.5-3.6,1.4c-1,0.9-1.6,2.2-1.7,3.6c-0.1,1.4,0.4,2.9,1.5,3.8
					c1,1,2.5,1.4,3.8,1.3c1.4-0.1,2.7-0.6,3.7-1.4C229.3-101.5,230.1-102.9,230.1-104.4z"/>
			</g>
		</g>
	</g>
</g>
<g id="_x36__String">
	<g id="Button_6_">
		<path d="M245.2,125.4h-94.5c-7.9,0-14.3-6.4-14.3-14.3V16.6c0-7.9,6.4-14.3,14.3-14.3h94.5c7.9,0,14.3,6.4,14.3,14.3v94.5
			C259.5,119,253.1,125.4,245.2,125.4z"/>
		
			<radialGradient id="SVGID_9_" cx="199.7875" cy="61.7824" r="89.5412" gradientTransform="matrix(1 0 0 1.0069 0 -0.4243)" gradientUnits="userSpaceOnUse">
			<stop  offset="0" style="stop-color:#ED1C24"/>
			<stop  offset="0.1699" style="stop-color:#E91D25"/>
			<stop  offset="0.3145" style="stop-color:#E01F27"/>
			<stop  offset="0.4499" style="stop-color:#D3222C"/>
			<stop  offset="0.5796" style="stop-color:#C12432"/>
			<stop  offset="0.7055" style="stop-color:#AA2337"/>
			<stop  offset="0.8282" style="stop-color:#8F2039"/>
			<stop  offset="0.9465" style="stop-color:#721837"/>
			<stop  offset="0.9699" style="stop-color:#6C1536"/>
			<stop  offset="1" style="stop-color:#631133"/>
		</radialGradient>
		<path class="st9" d="M246.5,122.8h-93.4c-7.9,0-14.3-6.4-14.3-14.3V15.1c0-7.9,6.4-14.3,14.3-14.3h93.4c7.9,0,14.3,6.4,14.3,14.3
			v93.4C260.8,116.4,254.4,122.8,246.5,122.8z"/>
	</g>
	<g id="Head_3_">
		<g>
			<path d="M172.9,82.5l-14.4,17.6l0-0.4c2.9,2.4,6,4.8,8.9,7.2l4.5,3.5c1.5,1.2,3,2.4,4.6,3.5l-1.3,0.1L189.7,96l0.7,0.6
				l-13.8,18.7l-0.6,0.8l-0.7-0.7c-1.4-1.3-2.8-2.6-4.2-3.9l-4.3-3.8c-2.9-2.5-5.7-5.1-8.7-7.6l-0.2-0.2l0.2-0.2l14.6-17.4
				L172.9,82.5z"/>
		</g>
		<g id="Head_1_">
			<path d="M242.2,16.6L242.2,16.6c-3-0.2-6-0.3-9-0.3c-3,0-5.9,0.1-8.9,0.3c-2.9,0.2-5.9,0.5-8.8,1.1c-2.9,0.6-5.7,1.3-8.3,2.5l0,0
				l0.4-0.3c-5.8,6.5-11.2,13.3-16.6,20l-16.4,20.2c-1.2,1.6-2.2,3.4-3,5.4c-0.8,1.9-1.1,4-1.2,6.1c-0.1,2.1,0.2,4.2,0.8,6.2
				c0.6,1.9,1.7,3.8,2.9,5.6c2.4,3.6,5.4,6.7,9,9.1c3.6,2.4,7.6,4.1,11.8,4.9c2.1,0.4,4.3,0.5,6.4,0.5c0.5,0,1.1-0.1,1.6-0.1
				l1.6-0.2c1-0.3,2.1-0.5,3-1c1.9-0.9,3.6-2.2,4.9-3.7c1.2-1.6,2.1-3.5,2.7-5.4c0.3-1,0.5-2,0.7-3c0.1-1,0.3-2,0.4-3.1l0.2-3.1
				c0-1.1,0-2.1,0.1-3.2c0-4.4,0.6-8.8,1.3-13.1c0.7-4.3,1.6-8.6,2.9-12.8c1.3-4.2,3-8.2,5.1-12.1c2-3.9,4.4-7.5,7.1-10.9l2.1-2.5
				c0.7-0.8,1.4-1.6,2.2-2.4c0.7-0.8,1.5-1.6,2.2-2.4l1.1-1.2l0.6-0.6c0.1-0.1,0.1-0.2,0.2-0.2c0.1,0,0.2,0,0.3,0L242.2,16.6z
				 M242.4,16.6c-0.1,0.1-0.1,0.3-0.2,0.4c-0.1,0.2-0.3,0.3-0.4,0.4l-0.6,0.6l-1.1,1.2c-0.8,0.8-1.5,1.6-2.2,2.3
				c-0.7,0.8-1.5,1.6-2.2,2.4l-2.1,2.5c-2.7,3.4-5.1,7-7.1,10.8c-2,3.8-3.6,7.8-4.9,12c-1.2,4.1-2.2,8.4-2.5,12.7
				c-0.4,4.3-0.1,8.6,0.2,12.9c0.1,1.1,0.1,2.2,0.1,3.3c0,1.1-0.1,2.2-0.2,3.4c-0.1,1.1-0.4,2.2-0.6,3.4c-0.1,0.6-0.3,1.1-0.5,1.7
				c-0.2,0.5-0.3,1.1-0.6,1.6c-0.9,2.1-2.2,4.1-3.9,5.7c-1.7,1.6-3.8,2.7-5.9,3.4c-2.1,0.7-4.3,1-6.5,1c-2.2,0.1-4.4-0.1-6.5-0.5
				c-2.2-0.4-4.3-1-6.3-1.8c-2-0.8-4-1.8-5.9-3c-3.7-2.4-7-5.4-9.6-9c-1.3-1.8-2.5-3.7-3.3-5.8c-0.7-2.1-1.1-4.4-1.1-6.7
				c0-2.3,0.3-4.5,1-6.7c0.7-2.2,1.7-4.3,3.1-6.1c5.6-6.8,11.2-13.4,16.7-20.1C195,32,200.7,25.4,206,18.5l0.2-0.2l0.2-0.1l0,0
				c2.9-1.1,5.9-1.7,8.9-2.1c3-0.4,6-0.5,9-0.6c3,0,6,0.1,9,0.2c3,0.2,5.9,0.4,8.9,0.8L242.4,16.6z"/>
		</g>
	</g>
	<g id="Tabs">
		<g>
			<path d="M202.3,43.4c0.2,0.8,0.2,1.8-0.2,2.6c-0.4,0.9-1.3,1.5-2.2,1.6c-1,0.1-1.9-0.2-2.6-0.7c-0.7-0.5-1.3-1.2-1.6-2.1
				c-0.7-1.8,0.7-4.1,2.7-4.4c1-0.2,2,0.1,2.7,0.7C201.8,41.7,202.1,42.6,202.3,43.4z M202.2,43.4c-0.2-0.8-0.8-1.5-1.5-1.8
				c-0.7-0.3-1.5-0.4-2.2-0.2c-0.7,0.2-1.3,0.5-1.8,1.1c-0.4,0.6-0.6,1.3-0.6,2.1c0.1,0.8,0.5,1.6,1.2,2c0.7,0.4,1.6,0.4,2.3,0.2
				c0.7-0.2,1.3-0.6,1.9-1.2C202.1,45.1,202.4,44.3,202.2,43.4z"/>
		</g>
		<g>
			<path d="M207.8,36.7c0.2,0.8,0.2,1.8-0.2,2.6c-0.4,0.9-1.3,1.5-2.2,1.6c-1,0.1-1.9-0.2-2.6-0.7c-0.7-0.5-1.3-1.2-1.6-2.1
				c-0.7-1.8,0.7-4.1,2.7-4.4c1-0.2,2,0.1,2.7,0.7C207.2,35,207.6,35.8,207.8,36.7z M207.7,36.7c-0.2-0.8-0.8-1.5-1.5-1.8
				c-0.7-0.3-1.5-0.4-2.2-0.2c-0.7,0.2-1.3,0.5-1.8,1.1c-0.4,0.6-0.6,1.3-0.6,2.1c0.1,0.8,0.5,1.6,1.2,2c0.7,0.4,1.6,0.4,2.3,0.2
				c0.7-0.2,1.3-0.6,1.9-1.2C207.5,38.4,207.9,37.5,207.7,36.7z"/>
		</g>
		<g>
			<path d="M213,29.9c0.2,0.8,0.2,1.8-0.2,2.6c-0.4,0.9-1.3,1.5-2.2,1.6c-1,0.1-1.9-0.2-2.6-0.7c-0.7-0.5-1.3-1.2-1.6-2.1
				c-0.7-1.8,0.7-4.1,2.7-4.4c1-0.2,2,0.1,2.7,0.7C212.4,28.2,212.8,29.1,213,29.9z M212.9,29.9c-0.2-0.8-0.8-1.5-1.5-1.8
				c-0.7-0.3-1.5-0.4-2.2-0.2c-0.7,0.2-1.3,0.5-1.8,1.1c-0.4,0.6-0.6,1.3-0.6,2.1c0.1,0.8,0.5,1.6,1.2,2c0.7,0.4,1.6,0.4,2.3,0.2
				c0.7-0.2,1.3-0.6,1.9-1.2C212.8,31.6,213.1,30.8,212.9,29.9z"/>
		</g>
		<g>
			<path d="M186.3,63.6c0.2,0.8,0.2,1.8-0.2,2.6c-0.4,0.9-1.3,1.5-2.2,1.6c-1,0.1-1.9-0.2-2.6-0.7c-0.7-0.5-1.3-1.2-1.6-2.1
				c-0.7-1.8,0.7-4.1,2.7-4.4c1-0.2,2,0.1,2.7,0.7C185.7,62,186.1,62.8,186.3,63.6z M186.2,63.7c-0.2-0.8-0.8-1.5-1.5-1.8
				c-0.7-0.3-1.5-0.4-2.2-0.2c-0.7,0.2-1.3,0.5-1.8,1.1c-0.4,0.6-0.6,1.3-0.6,2.1c0.1,0.8,0.5,1.6,1.2,2c0.7,0.4,1.6,0.4,2.3,0.2
				c0.7-0.2,1.3-0.6,1.9-1.2C186,65.4,186.4,64.5,186.2,63.7z"/>
		</g>
		<g>
			<path d="M191.7,56.9c0.2,0.8,0.2,1.8-0.2,2.6c-0.4,0.9-1.3,1.5-2.2,1.6c-1,0.1-1.9-0.2-2.6-0.7c-0.7-0.5-1.3-1.2-1.6-2.1
				c-0.7-1.8,0.7-4.1,2.7-4.4c1-0.2,2,0.1,2.7,0.7C191.2,55.2,191.5,56.1,191.7,56.9z M191.6,56.9c-0.2-0.8-0.8-1.5-1.5-1.8
				c-0.7-0.3-1.5-0.4-2.2-0.2c-0.7,0.2-1.3,0.5-1.8,1.1c-0.4,0.6-0.6,1.3-0.6,2.1c0.1,0.8,0.5,1.6,1.2,2c0.7,0.4,1.6,0.4,2.3,0.2
				c0.7-0.2,1.3-0.6,1.9-1.2C191.5,58.6,191.8,57.8,191.6,56.9z"/>
		</g>
		<g>
			<path d="M197,50.2c0.2,0.8,0.2,1.8-0.2,2.6c-0.4,0.9-1.3,1.5-2.2,1.6c-1,0.1-1.9-0.2-2.6-0.7c-0.7-0.5-1.3-1.2-1.6-2.1
				c-0.7-1.8,0.7-4.1,2.7-4.4c1-0.2,2,0.1,2.7,0.7C196.4,48.5,196.8,49.3,197,50.2z M196.9,50.2c-0.2-0.8-0.8-1.5-1.5-1.8
				c-0.7-0.3-1.5-0.4-2.2-0.2c-0.7,0.2-1.3,0.5-1.8,1.1c-0.4,0.6-0.6,1.3-0.6,2.1c0.1,0.8,0.5,1.6,1.2,2c0.7,0.4,1.6,0.4,2.3,0.2
				c0.7-0.2,1.3-0.6,1.9-1.2C196.7,51.9,197.1,51,196.9,50.2z"/>
		</g>
	</g>
	<g id="Keys_1_">
		<g>
			<path d="M174.1,52.1c-1.3,1.7-2.8,3.6-4.4,5.5l-0.3,0.3l-0.3-0.3c-1-0.8-1.9-1.6-2.8-2.5l-0.4-0.3l0.3-0.4
				c1.6-1.7,3.2-3.4,4.8-5.1l0.2-0.2l0.2,0.2C172.5,50.3,173.3,51.3,174.1,52.1z M174.1,52.1c-1.1-0.8-2.1-1.5-3-2.3l0.4,0
				c-1.5,1.8-3,3.6-4.6,5.3l0-0.7c0.9,0.8,1.8,1.7,2.7,2.6l-0.6,0C170.6,55.4,172.3,53.9,174.1,52.1z"/>
		</g>
		<g>
			<path d="M185.5,40.4c-1.2,1.5-2.6,3.2-4.1,4.8l-0.3,0.3l-0.3-0.3c-0.7-0.6-1.4-1.2-2.1-1.8l-0.3-0.3l0.3-0.4
				c1.2-1.7,2.5-3.4,3.8-5.1l0.2-0.3l0.2,0.2C183.8,38.5,184.7,39.5,185.5,40.4z M185.5,40.4c-1.1-0.8-2.1-1.5-3-2.3l0.5-0.1
				c-1.1,1.8-2.3,3.6-3.5,5.3l-0.1-0.7c0.7,0.6,1.4,1.2,2,1.9l-0.6,0C182.1,43.2,183.7,41.9,185.5,40.4z"/>
		</g>
		<g>
			<path d="M190.8,34.1c-0.9,0.9-2,1.9-3.2,2.9l-0.3,0.2l-0.3-0.2c-0.7-0.6-1.4-1.2-2.1-1.8l-0.4-0.4l0.4-0.4
				c1.2-1.1,2.5-2.1,3.8-3.1l0.3-0.2l0.2,0.3C189.9,32.4,190.3,33.3,190.8,34.1z M190.8,34.1c-0.7-0.9-1.4-1.6-2-2.3l0.5,0.1
				c-1.1,1.2-2.3,2.3-3.6,3.3l0-0.7c0.7,0.6,1.4,1.2,2,1.9l-0.6,0C188.2,35.6,189.4,34.9,190.8,34.1z"/>
		</g>
		<g>
			<path d="M195.4,29.1c-1-1-1.9-1.7-2.6-2.5l0.6,0.1c-0.9,0.7-1.8,1.3-2.7,1.9l0.1-0.7c0.9,1.2,1.7,2.3,2.4,3.6l-0.5,0
				C193.5,30.7,194.4,29.9,195.4,29.1z M195.4,29.1c-0.7,0.8-1.4,1.8-2.3,2.7l-0.2,0.2l-0.3-0.3c-1-1.1-1.9-2.2-2.7-3.4l-0.3-0.4
				l0.4-0.3c0.9-0.6,1.8-1.2,2.8-1.8l0.4-0.2l0.2,0.3C194.2,27.1,194.9,28.2,195.4,29.1z"/>
		</g>
		<g>
			<path d="M195.2,23.3c1.4-1.4,2.9-2.9,4.6-4.3l0.3-0.3l0.3,0.3c0.6,0.7,1.2,1.4,1.9,2l0.3,0.3l-0.3,0.3c-1.4,1.6-2.9,3.1-4.4,4.6
				l-0.3,0.3l-0.2-0.3C196.6,25.3,195.9,24.3,195.2,23.3z M195.2,23.3c1,1,1.9,1.8,2.7,2.6l-0.5,0c1.3-1.7,2.7-3.3,4.1-4.9l0,0.7
				c-0.6-0.7-1.2-1.4-1.8-2.1l0.6,0.1C198.8,20.9,197.1,22,195.2,23.3z"/>
		</g>
		<g>
			<path d="M174,48.7l1.9-3.9l0.1-0.3l0.3,0.2l2.9,2.3l0,0.5c-0.1-0.1-0.1,0-0.1,0l0,0l-0.1,0.1l-0.2,0.2l-0.4,0.3l-0.8,0.7
				c-0.5,0.4-1.1,0.9-1.6,1.4l-0.1,0.1l-0.1-0.1L174,48.7z M174,48.7c0.7,0.4,1.4,0.8,2,1.2l-0.3,0c0.5-0.5,1-0.9,1.5-1.4l0.8-0.7
				l0.4-0.4l0.2-0.2l0.1-0.1l0,0c0,0,0.1,0,0-0.1l0,0.5l-2.8-2.4l0.4-0.1C175.6,46.2,174.8,47.4,174,48.7z"/>
		</g>
	</g>
	<g id="Top_Nut">
		<g>
			<path d="M176.2,78.5c1.3,1.4,2.7,2.7,4,4c1.4,1.3,2.8,2.5,4.2,3.8c1.4,1.2,2.9,2.5,4.3,3.6l2.2,1.8c0.8,0.6,1.5,1.1,2.3,1.7
				l-0.7,0.8l-17.1-14.9L176.2,78.5z"/>
		</g>
		<line class="st10" x1="178.8" y1="82.4" x2="189.2" y2="91.4"/>
	</g>
	
		<rect id="spliter" x="209.1" y="56.4" transform="matrix(-0.2777 0.9607 -0.9607 -0.2777 326.2776 -126.4875)" width="3.2" height="6"/>
</g>
<g id="piano">
	<path class="st11" d="M244.1,269.4h-94.5c-7.9,0-14.3-6.4-14.3-14.3v-94.5c0-7.9,6.4-14.3,14.3-14.3h94.5c7.9,0,14.3,6.4,14.3,14.3
		v94.5C258.4,263,252,269.4,244.1,269.4z"/>
	<g>
		<defs>
			<path id="SVGID_10_" d="M245.6,266.4h-93.4c-7.9,0-14.3-6.4-14.3-14.3v-93.4c0-7.9,6.4-14.3,14.3-14.3h93.4
				c7.9,0,14.3,6.4,14.3,14.3v93.4C259.9,260,253.5,266.4,245.6,266.4z"/>
		</defs>
		<clipPath id="SVGID_11_">
			<use xlink:href="#SVGID_10_"  style="overflow:visible;"/>
		</clipPath>
		<g id="keyboard" class="st12">
			<rect id="Base_2_" x="97.7" y="139.4" width="167.7" height="127.2"/>
			<g id="Vol">
				<circle class="st13" cx="243.7" cy="159.4" r="10.5"/>
				<circle class="st13" cx="226.3" cy="170.1" r="4.9"/>
			</g>
			<g id="White_Keys">
				<rect x="239.2" y="203" class="st13" width="16.3" height="63.6"/>
				<rect x="220.6" y="203" class="st13" width="16.3" height="63.6"/>
				<rect x="201.9" y="203" class="st13" width="16.3" height="63.6"/>
				<rect x="183.3" y="203" class="st13" width="16.3" height="63.6"/>
				<rect x="164.6" y="203" class="st13" width="16.3" height="63.6"/>
				<rect x="146" y="203" class="st13" width="16.3" height="63.6"/>
				<rect x="127.3" y="203" class="st13" width="16.3" height="63.6"/>
				<rect x="108.7" y="203" class="st13" width="16.3" height="63.6"/>
			</g>
			<rect id="power" x="257.7" y="146" class="st14" width="7.7" height="2.9"/>
			<g id="Black_keys">
				<rect x="120.7" y="203" width="10.5" height="42.7"/>
				<rect x="139.4" y="203" width="10.5" height="42.7"/>
				<rect x="214.1" y="203" width="10.5" height="42.7"/>
				<rect x="195.5" y="203" width="10.5" height="42.7"/>
				<rect x="176.8" y="203" width="10.5" height="42.7"/>
			</g>
		</g>
	</g>
</g>
</svg>
