<?xml version="1.0" encoding="utf-8"?>
<!-- Generator: Adobe Illustrator 23.0.2, SVG Export Plug-In . SVG Version: 6.00 Build 0)  -->
<svg version="1.1" xmlns="http://www.w3.org/2000/svg" xmlns:xlink="http://www.w3.org/1999/xlink" x="0px" y="0px"
	 viewBox="0 0 124.4 124.6" style="enable-background:new 0 0 124.4 124.6;" xml:space="preserve">
<style type="text/css">
	.st0{display:none;}
	.st1{display:inline;}
	.st2{fill:#CB2026;}
	.st3{fill:url(#SVGID_1_);}
	.st4{fill:url(#SVGID_2_);}
	.st5{clip-path:url(#SVGID_5_);}
	.st6{clip-path:url(#SVGID_7_);}
	.st7{fill:url(#bkdrop_1_);}
	.st8{fill:url(#SVGID_8_);}
	.st9{fill:url(#SVGID_9_);}
	.st10{fill:none;stroke:#000000;stroke-miterlimit:10;}
	.st11{fill:#FCFAFB;}
	.st12{clip-path:url(#SVGID_11_);}
	.st13{fill:#FFFFFF;}
	.st14{fill:#ED1F24;}
</style>
<g id="Button_Template" class="st0">
	<g id="Button_4_" class="st1">
		<path d="M702.8-218.4h-94.5c-7.9,0-14.3-6.4-14.3-14.3v-94.5c0-7.9,6.4-14.3,14.3-14.3h94.5c7.9,0,14.3,6.4,14.3,14.3v94.5
			C717.1-224.8,710.7-218.4,702.8-218.4z"/>
		<path class="st2" d="M704.1-221h-93.4c-7.9,0-14.3-6.4-14.3-14.3v-93.4c0-7.9,6.4-14.3,14.3-14.3h93.4c7.9,0,14.3,6.4,14.3,14.3
			v93.4C718.4-227.4,712-221,704.1-221z"/>
	</g>
</g>
<g id="Bass">
	<g id="Base_Head">
		<g id="Button">
			<g id="Button_2_">
				<path d="M113.5-18.6H19c-7.9,0-14.3-6.4-14.3-14.3v-94.5c0-7.9,6.4-14.3,14.3-14.3h94.5c7.9,0,14.3,6.4,14.3,14.3v94.5
					C127.8-25,121.4-18.6,113.5-18.6z"/>
				<radialGradient id="SVGID_1_" cx="68.0706" cy="-82.2349" r="74.2678" gradientUnits="userSpaceOnUse">
					<stop  offset="0.1723" style="stop-color:#3068AC"/>
					<stop  offset="0.325" style="stop-color:#2A64A4"/>
					<stop  offset="0.6286" style="stop-color:#1B5B92"/>
					<stop  offset="1" style="stop-color:#004975"/>
				</radialGradient>
				<path class="st3" d="M114.8-21.2H21.4c-7.9,0-14.3-6.4-14.3-14.3V-129c0-7.9,6.4-14.3,14.3-14.3h93.4c7.9,0,14.3,6.4,14.3,14.3
					v93.4C129.1-27.6,122.7-21.2,114.8-21.2z"/>
			</g>
		</g>
		<g id="Layer_7">
		</g>
		<g id="Head">
			<path d="M66.3-123.7c1.2,1.4,3.2,1.7,5,1.3c1.8-0.3,3.6-1.1,5.3-2c1.7-0.9,3.3-1.9,4.9-3.1c0.8-0.6,1.5-1.1,2.3-1.7
				c0.7-0.6,1.5-1.2,2.1-2l0,0l1.2-1.1l-0.3,1.6l-0.9,4.3l-0.5,2.1c-0.1,0.7-0.2,1.4-0.3,2.2l-0.6,4.3l-0.3,4.4l-0.1,2.2l0,2.2
				c0,1.5,0,2.9,0,4.4l0.3,4.4c0.1,1.5,0.3,2.9,0.4,4.3c0.7,5.8,1.8,11.5,3.4,17.1c1.6,5.6,3.5,11.2,5.9,16.3l0,0l0.4,0.9l-0.6,0.6
				L74.2-42.5l0,0l0.1-0.4v15.1l0,0l0,0.5l-0.5,0l-18.5-0.2l0,0l-0.3,0l0-0.3L54.6-43l0,0l0,0.2l-13-35.4l-0.1-0.2l0.1-0.2
				c3.5-6.1,6.2-12.7,8.3-19.5c0.3-0.8,0.5-1.7,0.7-2.5l0.7-2.6c0.3-1.7,0.8-3.4,1-5.2l0.4-2.6l0.3-2.6l0.1-1.3c0-0.4,0-0.9,0.1-1.3
				l0.1-2.6c0-1.8-0.1-3.5-0.2-5.3c-0.1-1.8,0-3.7,0.3-5.5c0.3-1.8,0.9-3.6,1.9-5.2c1-1.6,2.6-2.9,4.4-3.5c0.9-0.3,1.9-0.4,2.9-0.3
				c1,0.1,1.9,0.4,2.8,0.8c0.9,0.5,1.6,1.1,2.2,1.8c0.6,0.8,1,1.6,1.3,2.5c0.5,1.8,0.3,3.7-0.3,5.5c-0.1,0.4-0.3,0.9-0.5,1.3
				c-0.2,0.4-0.4,0.8-0.6,1.2c-0.2,0.4-0.4,0.8-0.7,1.2c-0.3,0.4-0.5,0.8-0.9,1c0.1-0.5,0.4-0.8,0.6-1.2c0.2-0.4,0.4-0.8,0.6-1.2
				c0.2-0.4,0.4-0.8,0.5-1.2c0.2-0.4,0.3-0.8,0.4-1.2c0.5-1.7,0.5-3.5,0-5.1c-0.3-0.8-0.7-1.5-1.2-2.1c-0.6-0.6-1.2-1.1-1.9-1.5
				c-0.7-0.3-1.5-0.5-2.4-0.6c-0.8,0-1.6,0.1-2.4,0.3c-1.5,0.5-2.8,1.7-3.7,3.1c-0.9,1.4-1.4,3-1.7,4.7c-0.3,1.7-0.4,3.4-0.2,5.2
				c0.1,1.8,0.2,3.6,0.2,5.4c-0.1,7.2-1.3,14.4-3.5,21.2c-1,3.4-2.3,6.8-3.8,10.1c-1.5,3.3-3,6.5-4.9,9.6l0-0.5l13.2,35.3l0,0.1v0.1
				l0,0l-0.4,15.2L55.3-28l0,0l18.5-0.2l-0.5,0.5l0,0v-15.1v-0.2l0.1-0.1l0,0l18.4-19.5l-0.3,1.5l0,0c-2.4-5.5-4.2-11.2-5.7-16.9
				c-1.4-5.8-2.4-11.6-3-17.5c-0.1-1.5-0.3-2.9-0.3-4.4l-0.2-4.4c0-1.5,0.1-3,0.1-4.4l0.1-2.2l0.2-2.2l0.4-4.4l0.7-4.4
				c0.1-0.7,0.2-1.5,0.4-2.2l0.5-2.2l1.1-4.3l0.8,0.5l0,0c-0.9,0.5-1.6,1.1-2.4,1.7c-0.8,0.6-1.5,1.2-2.3,1.8
				c-1.6,1.1-3.2,2.2-4.9,3.1c-1.7,0.9-3.5,1.7-5.5,2.1c-1,0.2-2,0.2-3,0c-1-0.2-2-0.7-2.7-1.5L66.3-123.7z"/>
		</g>
		<g id="Tuner">
			<g>
				<path d="M56.4-89.1c-0.2-1.5,1-3.2,2.6-3.4c0.8-0.1,1.7,0.1,2.4,0.6c0.7,0.5,1.2,1.4,1.3,2.3c0.1,0.9-0.2,1.8-0.8,2.5
					c-0.6,0.6-1.5,1-2.3,1C57.8-86.2,56.5-87.6,56.4-89.1z M56.4-89.1c0.1,0.8,0.5,1.5,1.1,1.9c0.6,0.4,1.4,0.6,2.1,0.5
					c1.4-0.2,2.3-1.6,2.2-2.9c-0.1-1.3-1.2-2.5-2.7-2.5c-0.7,0-1.4,0.3-2,0.8C56.6-90.7,56.3-89.9,56.4-89.1z"/>
			</g>
			<g>
				<path d="M71.9-72.9c-1.4-0.6-2.3-2.4-1.7-4c0.3-0.8,0.9-1.5,1.7-1.8c0.8-0.4,1.8-0.4,2.6,0c0.8,0.4,1.5,1.1,1.7,1.9
					c0.3,0.8,0.2,1.8-0.2,2.5C75.2-72.7,73.3-72.2,71.9-72.9z M71.9-72.9c0.7,0.3,1.5,0.3,2.2,0c0.7-0.3,1.2-0.9,1.4-1.6
					c0.5-1.4-0.3-2.8-1.4-3.3c-1.1-0.5-2.7-0.1-3.4,1.1c-0.3,0.6-0.5,1.4-0.2,2.1C70.7-73.8,71.2-73.2,71.9-72.9z"/>
			</g>
			<g>
				<path d="M65.1-109.1c0,1.5-1.2,3.1-2.9,3.2c-0.8,0.1-1.7-0.2-2.4-0.8c-0.7-0.6-1.1-1.5-1.1-2.4c0-0.9,0.4-1.8,1.1-2.4
					c0.7-0.6,1.5-0.9,2.4-0.8C63.9-112.2,65.2-110.7,65.1-109.1z M65.1-109.1c0-0.8-0.3-1.5-0.9-2c-0.6-0.5-1.3-0.7-2-0.7
					c-1.4,0.1-2.5,1.4-2.4,2.7c0,1.3,1,2.6,2.4,2.7c0.7,0.1,1.5-0.2,2-0.7C64.8-107.6,65.1-108.4,65.1-109.1z"/>
			</g>
			<g>
				<path d="M78.1-93.2c-1.1,1.1-3,1.3-4.3,0.2c-0.6-0.5-1.1-1.4-1.1-2.2c-0.1-0.9,0.3-1.8,0.9-2.4c0.6-0.6,1.5-1,2.4-0.9
					c0.9,0,1.7,0.5,2.3,1.1C79.5-96.2,79.3-94.2,78.1-93.2z M78.1-93.2c0.5-0.5,0.8-1.3,0.8-2.1c0-0.8-0.4-1.4-1-1.9
					c-1.1-0.9-2.7-0.7-3.6,0.2c-0.9,0.9-1.1,2.5-0.2,3.6c0.5,0.5,1.1,0.9,1.9,1C76.8-92.3,77.6-92.6,78.1-93.2z"/>
			</g>
		</g>
		<g id="Keys">
			<g>
				<path d="M46.6-93.3c-0.9,0.3-1.6,0-2.1-0.4c-0.6-0.4-1-0.9-1.3-1.5c-0.3-0.6-0.5-1-0.8-1.2c-0.1-0.1-0.2-0.1-0.4-0.1
					c-0.2,0-0.4,0.1-0.6,0.2c-0.8,0.5-1.5,1.3-1.7,2.3c-0.1,0.5-0.2,1.1,0.1,1.3c0.4,0.2,1,0,1.5-0.1c-0.2,0.2-0.5,0.3-0.8,0.4
					c-0.3,0.1-0.6,0.2-1,0.1c-0.4-0.1-0.6-0.5-0.6-0.9c-0.1-0.3-0.1-0.6-0.1-1c0.1-1.3,0.8-2.5,1.9-3.3c0.3-0.2,0.6-0.4,1-0.4
					c0.4-0.1,0.9,0,1.3,0.2c0.7,0.5,1,1.2,1.2,1.6c0.3,0.4,0.6,0.9,0.9,1.2c0.3,0.3,0.8,0.5,1.1,0.5L46.6-93.3z"/>
			</g>
			<g>
				<path d="M51.7-109.5c-0.9,0.3-1.7-0.1-2.3-0.5c-0.6-0.5-1-1-1.3-1.6c-0.3-0.6-0.5-0.9-0.8-0.9c-0.2-0.1-0.8,0.1-1.2,0.5
					c-0.4,0.3-0.8,0.8-1,1.3c-0.1,0.2-0.2,0.5-0.3,0.8c0,0.1-0.1,0.3-0.1,0.3c0,0,0,0,0.1,0.1c0.4,0.2,1.1,0,1.7-0.1
					c0.6-0.1,1.2-0.3,1.8-0.6c-0.5,0.4-1.1,0.7-1.7,0.9c-0.6,0.2-1.2,0.5-2,0.4c-0.2,0-0.5-0.2-0.6-0.5c-0.1-0.3,0-0.4,0-0.6
					c0-0.3,0.1-0.7,0.2-1c0.2-0.7,0.6-1.3,1.1-1.8c0.3-0.2,0.5-0.5,0.9-0.7c0.3-0.2,0.8-0.3,1.3-0.3c1.1,0.2,1.5,1.1,1.8,1.6
					c0.3,0.5,0.6,1,0.9,1.3c0.3,0.4,0.8,0.6,1.1,0.6L51.7-109.5z"/>
			</g>
			<g>
				<path d="M85.8-95.6c0.7-0.8,1.6-0.8,2.4-0.7c0.8,0.1,1.4,0.5,2,0.9c0.2,0.1,0.5,0.3,0.6,0.3c0.2,0,0.3,0,0.4-0.1
					c0.3-0.2,0.6-0.8,0.8-1.3c0.1-0.6,0.2-1.2,0.1-1.7c0-0.1-0.1-0.3-0.1-0.4c0-0.1,0-0.1,0-0.1c0,0,0,0-0.1-0.1
					C91.6-99,91.3-99,91-98.9c-0.6,0.1-1.2,0.2-1.8,0.6c-0.5,0.3-1,0.8-1.1,1.5c0-0.7,0.4-1.3,1-1.8c0.5-0.4,1.2-0.7,1.9-0.9
					c0.4-0.1,0.7-0.1,1.2,0c0.1,0,0.2,0.1,0.3,0.2c0.1,0.1,0.2,0.3,0.2,0.3c0.1,0.2,0.2,0.3,0.2,0.5c0.3,0.7,0.4,1.5,0.3,2.2
					c-0.1,0.7-0.3,1.5-1,2.1c-0.4,0.3-1,0.5-1.4,0.4c-0.5-0.1-0.9-0.3-1.2-0.5c-0.5-0.3-1-0.6-1.6-0.8c-0.3-0.1-0.5-0.1-0.8-0.1
					c-0.2,0-0.5,0.1-0.6,0.1L85.8-95.6z"/>
			</g>
			<g>
				<path d="M89.6-78.1c0.8-0.4,1.5-0.3,2.1,0c0.6,0.3,1.1,0.7,1.5,1.1c0.4,0.5,0.7,0.9,1.1,1c0.4,0.2,0.8,0,1.1-0.4
					c0.7-0.7,1.2-1.8,1.1-2.9c0-0.5-0.1-1.2-0.6-1.3c-0.5-0.1-1,0.3-1.5,0.6c0.4-0.4,0.8-0.9,1.5-0.8c0.3,0.1,0.6,0.3,0.7,0.6
					c0.1,0.3,0.2,0.6,0.3,0.9c0.2,1.2-0.2,2.5-1,3.4c-0.2,0.2-0.5,0.5-0.8,0.6c-0.3,0.2-0.8,0.2-1.1,0.1c-0.7-0.2-1.1-0.8-1.5-1.2
					c-0.4-0.4-0.8-0.7-1.3-0.9c-0.2-0.1-0.4-0.1-0.7-0.2c-0.2,0-0.5,0-0.5,0.1L89.6-78.1z"/>
			</g>
		</g>
	</g>
</g>
<g id="Drum">
	<g id="Button_3_">
		<path d="M108.8,124.6H14.3c-7.9,0-14.3-6.4-14.3-14.3V15.8C0,7.9,6.4,1.5,14.3,1.5h94.5c7.9,0,14.3,6.4,14.3,14.3v94.5
			C123.1,118.2,116.7,124.6,108.8,124.6z"/>
		<g>
			<radialGradient id="SVGID_2_" cx="63.4061" cy="61.0169" r="61.0169" gradientUnits="userSpaceOnUse">
				<stop  offset="0.421" style="stop-color:#F78E1E"/>
				<stop  offset="0.5255" style="stop-color:#E98F25"/>
				<stop  offset="0.7174" style="stop-color:#CD9138"/>
				<stop  offset="0.8881" style="stop-color:#B08E47"/>
			</radialGradient>
			<path class="st4" d="M110.1,122H16.7c-7.9,0-14.3-6.4-14.3-14.3V14.3C2.4,6.4,8.8,0,16.7,0h93.4c7.9,0,14.3,6.4,14.3,14.3v93.4
				C124.4,115.6,118,122,110.1,122z"/>
		</g>
	</g>
	<g>
		<defs>
			<path id="SVGID_3_" d="M110.1,122H16.7c-7.9,0-14.3-6.4-14.3-14.3V14.3C2.4,6.4,8.8,0,16.7,0h93.4c7.9,0,14.3,6.4,14.3,14.3v93.4
				C124.4,115.6,118,122,110.1,122z"/>
		</defs>
		<radialGradient id="SVGID_4_" cx="63.4061" cy="61.0169" r="82.2474" gradientUnits="userSpaceOnUse">
			<stop  offset="0.3713" style="stop-color:#F78E1E"/>
			<stop  offset="0.5932" style="stop-color:#F38E1F"/>
			<stop  offset="0.6731" style="stop-color:#EB8F1F"/>
			<stop  offset="0.7299" style="stop-color:#E0921F"/>
			<stop  offset="0.7535" style="stop-color:#D99420"/>
		</radialGradient>
		<use xlink:href="#SVGID_3_"  style="overflow:visible;fill:url(#SVGID_4_);"/>
		<clipPath id="SVGID_5_">
			<use xlink:href="#SVGID_3_"  style="overflow:visible;"/>
		</clipPath>
		<g id="Drum_1_" class="st5">
			<path id="Base_Drum" d="M46.7,101.9c0-29,23.5-52.6,52.6-52.6c16,0,30.3,7.2,40,18.4c-9.7-13.2-25.3-21.7-42.9-21.7
				c-29.4,0-53.2,23.8-53.2,53.2c0,19.6,10.6,36.7,26.4,46C55.7,135.8,46.7,119.9,46.7,101.9z"/>
			<g id="Bottom">
				<g id="Hat_1_">
					<path d="M8.9,36c4.8-0.1,9.3,0,13.8,0.1l13.3,0.4c2.2,0.1,4.4,0.1,6.6,0.1c1.1,0,2.2,0,3.3,0c1.1,0,2.2,0,3.3,0
						c4.5,0.2,8.9,0,13.8,0.4c-4.4,1.4-8.8,2.6-13.4,3.1L48,40.4l-1.7,0.1l-3.4,0.2c-2.3,0-4.6,0.2-6.9,0.1
						c-4.6-0.2-9.2-0.6-13.7-1.4C17.7,38.7,13.2,37.6,8.9,36z"/>
				</g>
				
					<ellipse id="Cap_of_Hat_1_" transform="matrix(1.795984e-02 -0.9998 0.9998 1.795984e-02 -4.3852 76.7283)" cx="36.9" cy="40.6" rx="1.6" ry="5.2"/>
			</g>
			<g id="Stand_1_">
				<polygon points="36.7,26.1 39.4,131.9 33.5,131.9 36.2,26.1 				"/>
			</g>
			<g id="Top">
				<g id="Stand" class="st0">
					<polygon class="st1" points="55.8,24.5 53.8,34.3 53.8,34.5 53.5,34.8 11.2,78.4 11.8,77 10.3,146.5 9.3,146.5 7.8,77 
						7.8,76.2 8.4,75.6 52.1,33.3 51.8,33.7 					"/>
				</g>
				<g>
					<g id="Hat">
						<path d="M63.4,35.8c-4.8,0-9.3-0.2-13.8-0.4c-4.5-0.2-8.9-0.4-13.3-0.5c-2.2-0.1-4.4-0.1-6.6-0.2c-1.1,0-2.2,0-3.3,0
							c-1.1,0-2.2,0-3.3-0.1c-4.5-0.1-8.9,0.1-13.8-0.3c4.4-1.4,8.8-2.5,13.4-3l1.7-0.2L26,31l3.4-0.2c2.3,0,4.6-0.1,6.9,0
							c4.6,0.2,9.2,0.6,13.7,1.5C54.6,33.1,59.1,34.2,63.4,35.8z"/>
					</g>
					
						<ellipse id="Cap_of_Hat" transform="matrix(2.448537e-02 -0.9997 0.9997 2.448537e-02 4.5675 66.7064)" cx="36.5" cy="31" rx="1.6" ry="5.2"/>
				</g>
			</g>
		</g>
	</g>
</g>
<g id="Trump_1_">
	<g id="Button_1_">
		<path d="M113.5-156.1H19c-7.9,0-14.3-6.4-14.3-14.3v-94.5c0-7.9,6.4-14.3,14.3-14.3h94.5c7.9,0,14.3,6.4,14.3,14.3v94.5
			C127.8-162.5,121.4-156.1,113.5-156.1z"/>
	</g>
	<g>
		<defs>
			<path id="SVGID_6_" d="M114.8-158.7H21.4c-7.9,0-14.3-6.4-14.3-14.3v-93.4c0-7.9,6.4-14.3,14.3-14.3h93.4
				c7.9,0,14.3,6.4,14.3,14.3v93.4C129.1-165.1,122.7-158.7,114.8-158.7z"/>
		</defs>
		<clipPath id="SVGID_7_">
			<use xlink:href="#SVGID_6_"  style="overflow:visible;"/>
		</clipPath>
		<g class="st6">
			<radialGradient id="bkdrop_1_" cx="71.3441" cy="-214.5289" r="91.8105" gradientUnits="userSpaceOnUse">
				<stop  offset="0.1723" style="stop-color:#F6EC1D"/>
				<stop  offset="0.3757" style="stop-color:#E3DB1B"/>
				<stop  offset="0.7779" style="stop-color:#B9B814"/>
				<stop  offset="1" style="stop-color:#A0A20F"/>
			</radialGradient>
			<rect id="bkdrop" x="-28.3" y="-297.7" class="st7" width="199.4" height="166.4"/>
		</g>
		<g id="TrumpHead" class="st6">
			<path d="M68.8-260.1c7.6,8.7,12.6,24.1,12.6,41.7c0,27.2-12.1,49.3-26.9,49.3c-4.1,0-7.9-1.7-11.4-4.6c4.2,4.8,9.1,7.6,14.4,7.6
				c14.9,0,26.9-22.1,26.9-49.3C84.4-235.2,78-252.3,68.8-260.1z"/>
			<path d="M29.1-216.8c0-27.2,12.1-49.3,26.9-49.3c4.1,0,8.1,1.7,11.6,4.8c-4.1-4.7-9-7.4-14.2-7.4c-14.9,0-26.9,22.1-26.9,49.3
				c0,19.7,6.3,36.6,15.4,44.5C34.2-183.6,29.1-199.1,29.1-216.8z"/>
			<ellipse cx="61" cy="-216.1" rx="7.7" ry="17.3"/>
		</g>
		<g id="Body" class="st6">
			<g>
				<path d="M84.7-235c1.7,1,3.5,1.4,5.4,1.9c0.9,0.2,1.8,0.5,2.8,0.7c0.9,0.2,1.8,0.5,2.8,0.6c1.9,0.4,3.7,0.9,5.6,1.2l2.8,0.6
					c0.9,0.2,1.9,0.3,2.8,0.5c7.5,1.3,15.1,2.2,22.7,3l5.7,0.6c1.9,0.2,3.8,0.3,5.7,0.5c3.8,0.3,7.6,0.6,11.5,0.9
					c3.8,0.2,7.7,0.6,11.5,0.8c3.8,0.2,7.7,0.5,11.5,0.7c-7.7,0.1-15.4,0.1-23-0.1c-3.8-0.1-7.7-0.2-11.5-0.4
					c-3.8-0.2-7.7-0.4-11.5-0.7c-3.8-0.2-7.7-0.7-11.5-1.1c-3.8-0.5-7.7-0.9-11.5-1.6c-1-0.2-1.9-0.3-2.9-0.5l-2.8-0.6
					c-1.9-0.3-3.8-0.8-5.7-1.4c-1.9-0.6-3.7-1.2-5.5-2.1c-0.9-0.4-1.7-0.9-2.6-1.5C86.1-233.6,85.2-234.2,84.7-235z"/>
			</g>
			<g>
				<path d="M83.1-194.2c0.6-0.8,1.4-1.4,2.3-1.9c0.9-0.5,1.7-1,2.6-1.3c1.8-0.8,3.7-1.4,5.6-1.9c1.9-0.4,3.8-0.9,5.7-1.1l2.9-0.4
					c1-0.1,1.9-0.2,2.9-0.4c3.8-0.5,7.7-0.8,11.5-1.1c3.8-0.2,7.7-0.5,11.5-0.6c3.8-0.1,7.7-0.2,11.5-0.2c3.8,0,7.7,0,11.5,0.1
					c7.7,0.1,15.4,0.5,23,0.9c-3.8,0.1-7.7,0.2-11.5,0.2c-3.8,0-7.7,0.2-11.5,0.3c-3.8,0.1-7.7,0.2-11.5,0.4
					c-1.9,0.1-3.8,0.1-5.7,0.2l-5.7,0.3c-7.6,0.4-15.3,1-22.8,2c-0.9,0.1-1.9,0.2-2.8,0.4l-2.8,0.5c-1.9,0.3-3.7,0.7-5.6,1
					c-0.9,0.1-1.9,0.4-2.8,0.5c-0.9,0.1-1.8,0.4-2.8,0.6C86.7-195.4,84.8-195,83.1-194.2z"/>
			</g>
		</g>
	</g>
	<g id="Trump">
	</g>
</g>
<g id="Sax">
	<g id="Button_5_">
		<path d="M254.2-155.3h-94.5c-7.9,0-14.3-6.4-14.3-14.3v-94.5c0-7.9,6.4-14.3,14.3-14.3h94.5c7.9,0,14.3,6.4,14.3,14.3v94.5
			C268.5-161.7,262.1-155.3,254.2-155.3z"/>
		<radialGradient id="SVGID_8_" cx="208.7959" cy="-218.9533" r="61.0169" gradientUnits="userSpaceOnUse">
			<stop  offset="0.1723" style="stop-color:#C9D5DB"/>
			<stop  offset="0.3978" style="stop-color:#BAC6CE"/>
			<stop  offset="0.844" style="stop-color:#92A1AA"/>
			<stop  offset="1" style="stop-color:#84949D"/>
		</radialGradient>
		<path class="st8" d="M255.5-157.9h-93.4c-7.9,0-14.3-6.4-14.3-14.3v-93.4c0-7.9,6.4-14.3,14.3-14.3h93.4c7.9,0,14.3,6.4,14.3,14.3
			v93.4C269.8-164.3,263.4-157.9,255.5-157.9z"/>
	</g>
	<g id="Sax_1_">
		<g id="Bellow">
			<g>
				<path d="M186.1-204.2c1.7-0.9,3.9-1.1,5.8,0c1.8,1.1,2.9,3.1,3.5,5c0.6,1.9,1,3.9,1.2,5.9l0.3,2.9c0.1,0.9,0.1,1.9,0.3,2.8
					c0.5,3.7,1.5,7.3,3.2,10.4c1.7,3.2,4,5.9,6.8,8c5.6,4.1,13.3,4.8,19.1,1.6c2.8-1.7,5.3-4,6.9-6.9c1.7-2.9,2.8-6.3,3.3-9.8
					l0.2-1.3c0.1-0.4,0.1-0.9,0.1-1.3c0.1-0.9,0.2-1.8,0.2-2.8c0.1-1.9,0.2-3.9,0.3-5.8l0.6-11.6l1.4-23.1
					c0.5-7.7,1.1-15.4,1.7-23.1l1-11.5l0.6-5.8l0.3-2.9c0.1-0.9,0.2-1.9,0.5-2.8c-0.3,0.9-0.2,1.9-0.3,2.9l-0.2,2.9l-0.3,5.8
					l-0.4,11.6c-0.2,7.7-0.3,15.4-0.4,23.1c-0.1,7.7-0.1,15.4,0,23.1c0,3.9,0.1,7.7,0.3,11.5l0.2,5.8c0,0.9,0,2,0,3c0,0.5,0,1,0,1.5
					l-0.1,1.5c-0.4,4.1-1.6,8.3-3.7,12.1c-2.2,3.8-5.5,7-9.4,9c-2,0.9-4.1,1.7-6.3,2c-2.2,0.3-4.4,0.4-6.5,0.1
					c-1.1-0.1-2.1-0.4-3.2-0.6c-1-0.4-2.1-0.6-3-1.1c-2-0.8-3.8-2-5.5-3.3c-3.3-2.7-5.8-6.2-7.4-10c-1.6-3.8-2.4-7.9-2.5-11.8
					c0-1,0-2,0-3c0-1,0-1.9,0.1-2.8c0-1.9-0.1-3.7-0.5-5.5c-0.4-1.8-1.1-3.5-2.5-4.7c-0.7-0.5-1.5-0.9-2.5-1
					C188-204.6,187-204.5,186.1-204.2z"/>
			</g>
			<g>
				<path d="M202.8-244c3.4,2.6,6.1,6.1,8.5,9.7c2.3,3.7,4.1,7.7,5.5,11.8c0.6,2.1,1.3,4.1,1.7,6.3c0.2,1.1,0.5,2.1,0.6,3.2l0.4,3.2
					c0.1,0.5,0.2,1.1,0.2,1.6l0.1,1.6l0.2,3.2c0,2.1-0.1,4.3-0.2,6.4c-0.3-2.1-0.4-4.3-0.7-6.4l-0.5-3.2l-0.2-1.6l-0.3-1.6l-0.6-3.1
					c-0.2-1-0.5-2-0.8-3.1c-0.3-1-0.5-2-0.9-3l-0.9-3c-1.4-4-3.1-7.8-5.1-11.5C207.8-237.2,205.5-240.7,202.8-244z"/>
			</g>
			<g>
				<path d="M223.6-274.7c0.1,4.6-0.1,9.1-0.3,13.6c-0.2,4.5-0.5,9-0.8,13.5c-0.3,4.5-0.7,9-1.1,13.5c-0.4,4.5-0.9,9-1.6,13.5
					c-0.4-4.5-0.5-9.1-0.5-13.6c0-4.5,0.2-9.1,0.5-13.6c0.3-4.5,0.7-9,1.3-13.5C221.7-265.8,222.5-270.3,223.6-274.7z"/>
			</g>
		</g>
		<g id="outer_Bell">
			<path d="M168.1-235.1c5.7-15.3,17.3-25.1,26.1-21.8c2,0.7,3.7,2.1,5,3.9c-1.4-3-3.6-5.1-6.3-6.1c-8.7-3.2-20.4,6.5-26.1,21.8
				c-4.4,11.8-3.9,23.4,0.6,29.6C164.1-214.2,164.2-224.6,168.1-235.1z"/>
			<path d="M198.7-253.4c3.5,6.4,3.6,17.1-0.4,27.9c-5.7,15.2-17.4,24.9-26.1,21.7c-2-0.7-3.7-2.1-5-4c1.4,2.6,3.4,4.5,6,5.5
				c8.7,3.2,20.4-6.5,26.1-21.7C203.6-235.7,203.2-247.3,198.7-253.4z"/>
		</g>
		
			<ellipse id="Inner_Bell" transform="matrix(0.4281 -0.9037 0.9037 0.4281 313.2612 38.0045)" cx="186.7" cy="-228.5" rx="18" ry="5.4"/>
		<g id="Slides">
			<g>
				<path d="M234.6-258.5c-0.8,1.2-2.2,2.1-3.6,2.4c-1.5,0.3-3,0-4.3-0.8c-1.3-0.8-2.3-2.2-2.6-3.8c-0.3-1.5,0-3.2,1-4.5
					c0.9-1.3,2.4-2.2,4-2.4c1.6-0.2,3.2,0.2,4.4,1.2c1.2,0.9,2,2.3,2.2,3.8C235.8-261.3,235.4-259.7,234.6-258.5z M234.6-258.5
					c0.8-1.2,1.2-2.7,0.9-4.2c-0.3-1.4-1.2-2.7-2.4-3.4c-1.2-0.8-2.6-1-4-0.7c-1.3,0.3-2.5,1.1-3.3,2.2c-0.8,1.1-1.1,2.5-0.9,3.8
					c0.2,1.3,0.9,2.6,2,3.5c1.1,0.9,2.6,1.3,4,1.1C232.4-256.5,233.7-257.3,234.6-258.5z"/>
			</g>
			<g>
				<path d="M228.8-212.9c-0.6,0.8-1.4,1.6-2.5,1.9c-1.1,0.3-2.3,0.1-3.2-0.6c-0.9-0.7-1.4-1.8-1.5-2.8c-0.1-1,0-2.2,0.6-3.1
					c0.5-1,1.5-1.7,2.7-1.9c1.1-0.2,2.4,0,3.3,0.7c0.9,0.7,1.6,1.8,1.6,2.9C229.8-214.8,229.4-213.7,228.8-212.9z M228.7-212.9
					c0.6-0.8,0.7-1.9,0.4-2.8c-0.3-0.9-0.8-1.6-1.6-2.1c-0.7-0.5-1.6-0.7-2.5-0.6c-0.9,0.1-1.8,0.6-2.4,1.3
					c-0.6,0.7-0.9,1.8-0.7,2.7c0.2,1,0.9,1.8,1.7,2.2c0.8,0.5,1.7,0.7,2.6,0.7C227.1-211.7,228.1-212.1,228.7-212.9z"/>
			</g>
			<g>
				<path d="M230.4-222.8c-0.7,0.9-1.7,1.6-2.9,1.7c-1.1,0.2-2.3-0.1-3.2-0.8c-0.9-0.7-1.5-1.7-1.7-2.8c-0.2-1.1,0.1-2.2,0.8-3.1
					c0.6-0.9,1.6-1.5,2.7-1.6c1.1-0.2,2.2,0.1,3,0.7c0.9,0.6,1.4,1.6,1.6,2.6c0.2,1-0.1,2.1-0.7,2.9L230.4-222.8z M230-223.1
					c0.6-0.8,0.8-1.9,0.6-2.9c-0.2-1-0.8-1.9-1.6-2.4c-0.8-0.6-1.9-0.8-2.8-0.6c-1,0.2-1.8,0.8-2.4,1.6c-0.5,0.8-0.7,1.8-0.6,2.7
					c0.2,0.9,0.7,1.8,1.5,2.3c0.8,0.5,1.7,0.7,2.6,0.5c0.9-0.2,1.7-0.7,2.2-1.5L230-223.1z"/>
			</g>
			<g>
				<path d="M231.1-233.3c-1.1,1.7-3.7,2.5-5.8,1.3c-1-0.6-1.8-1.6-2.1-2.8c-0.3-1.2,0-2.5,0.7-3.6c0.7-1,1.9-1.7,3.1-1.8
					c1.2-0.1,2.4,0.3,3.3,1C232.2-237.6,232.3-234.9,231.1-233.3z M231-233.3c0.6-0.8,0.8-1.9,0.6-2.9c-0.2-1-0.8-1.9-1.6-2.5
					c-0.8-0.6-1.9-0.8-2.9-0.6c-1,0.2-1.9,0.7-2.5,1.6c-0.6,0.8-0.8,1.9-0.7,2.8c0.2,1,0.7,1.9,1.6,2.5c0.8,0.6,1.9,0.8,2.9,0.7
					C229.5-231.9,230.4-232.5,231-233.3z"/>
			</g>
			<g>
				<path d="M234.8-247.6c0,1.5-0.4,3-1.5,4.2c-1,1.2-2.6,1.9-4.2,1.8c-1.6-0.1-3-0.9-4.1-1.9c-1-1.1-1.7-2.5-1.8-4.1
					c-0.1-1.5,0.5-3.2,1.6-4.3c1.1-1.2,2.7-1.9,4.3-1.8c1.6,0,3.2,0.7,4.2,1.9C234.4-250.6,234.8-249.1,234.8-247.6z M234.7-247.6
					c0-1.5-0.8-2.9-1.8-3.7c-1.1-0.9-2.4-1.4-3.7-1.3c-1.3,0-2.6,0.5-3.6,1.4c-1,0.9-1.6,2.2-1.7,3.6c-0.1,1.4,0.4,2.9,1.5,3.8
					c1,1,2.5,1.4,3.8,1.3c1.4-0.1,2.7-0.6,3.7-1.4C234-244.8,234.7-246.2,234.7-247.6z"/>
			</g>
		</g>
	</g>
</g>
<g id="_x36__String">
	<g id="Button_6_">
		<path d="M249.9-17.8h-94.5c-7.9,0-14.3-6.4-14.3-14.3v-94.5c0-7.9,6.4-14.3,14.3-14.3h94.5c7.9,0,14.3,6.4,14.3,14.3v94.5
			C264.2-24.2,257.8-17.8,249.9-17.8z"/>
		
			<radialGradient id="SVGID_9_" cx="204.4521" cy="-81.4694" r="89.5412" gradientTransform="matrix(1 0 0 1.0069 0 0.5595)" gradientUnits="userSpaceOnUse">
			<stop  offset="0" style="stop-color:#ED1C24"/>
			<stop  offset="0.1699" style="stop-color:#E91D25"/>
			<stop  offset="0.3145" style="stop-color:#E01F27"/>
			<stop  offset="0.4499" style="stop-color:#D3222C"/>
			<stop  offset="0.5796" style="stop-color:#C12432"/>
			<stop  offset="0.7055" style="stop-color:#AA2337"/>
			<stop  offset="0.8282" style="stop-color:#8F2039"/>
			<stop  offset="0.9465" style="stop-color:#721837"/>
			<stop  offset="0.9699" style="stop-color:#6C1536"/>
			<stop  offset="1" style="stop-color:#631133"/>
		</radialGradient>
		<path class="st9" d="M251.2-20.5h-93.4c-7.9,0-14.3-6.4-14.3-14.3v-93.4c0-7.9,6.4-14.3,14.3-14.3h93.4c7.9,0,14.3,6.4,14.3,14.3
			v93.4C265.5-26.9,259.1-20.5,251.2-20.5z"/>
	</g>
	<g id="Head_3_">
		<g>
			<path d="M177.5-60.7l-14.4,17.6l0-0.4c2.9,2.4,6,4.8,8.9,7.2l4.5,3.5c1.5,1.2,3,2.4,4.6,3.5l-1.3,0.1l14.6-18.2l0.7,0.6L181.2-28
				l-0.6,0.8l-0.7-0.7c-1.4-1.3-2.8-2.6-4.2-3.9l-4.3-3.8c-2.9-2.5-5.7-5.1-8.7-7.6l-0.2-0.2l0.2-0.2l14.6-17.4L177.5-60.7z"/>
		</g>
		<g id="Head_1_">
			<path d="M246.8-126.6L246.8-126.6c-3-0.2-6-0.3-9-0.3c-3,0-5.9,0.1-8.9,0.3c-2.9,0.2-5.9,0.5-8.8,1.1c-2.9,0.6-5.7,1.3-8.3,2.5
				l0,0l0.4-0.3c-5.8,6.5-11.2,13.3-16.6,20l-16.4,20.2c-1.2,1.6-2.2,3.4-3,5.4c-0.8,1.9-1.1,4-1.2,6.1c-0.1,2.1,0.2,4.2,0.8,6.2
				c0.6,1.9,1.7,3.8,2.9,5.6c2.4,3.6,5.4,6.7,9,9.1c3.6,2.4,7.6,4.1,11.8,4.9c2.1,0.4,4.3,0.5,6.4,0.5c0.5,0,1.1-0.1,1.6-0.1
				l1.6-0.2c1-0.3,2.1-0.5,3-1c1.9-0.9,3.6-2.2,4.9-3.7c1.2-1.6,2.1-3.5,2.7-5.4c0.3-1,0.5-2,0.7-3c0.1-1,0.3-2,0.4-3.1l0.2-3.1
				c0-1.1,0-2.1,0.1-3.2c0-4.4,0.6-8.8,1.3-13.1c0.7-4.3,1.6-8.6,2.9-12.8c1.3-4.2,3-8.2,5.1-12.1c2-3.9,4.4-7.5,7.1-10.9l2.1-2.5
				c0.7-0.8,1.4-1.6,2.2-2.4c0.7-0.8,1.5-1.6,2.2-2.4l1.1-1.2l0.6-0.6c0.1-0.1,0.1-0.2,0.2-0.2c0.1,0,0.2,0,0.3,0L246.8-126.6z
				 M247-126.6c-0.1,0.1-0.1,0.3-0.2,0.4c-0.1,0.2-0.3,0.3-0.4,0.4l-0.6,0.6l-1.1,1.2c-0.8,0.8-1.5,1.6-2.2,2.3
				c-0.7,0.8-1.5,1.6-2.2,2.4l-2.1,2.5c-2.7,3.4-5.1,7-7.1,10.8c-2,3.8-3.6,7.8-4.9,12c-1.2,4.1-2.2,8.4-2.5,12.7
				c-0.4,4.3-0.1,8.6,0.2,12.9c0.1,1.1,0.1,2.2,0.1,3.3c0,1.1-0.1,2.2-0.2,3.4c-0.1,1.1-0.4,2.2-0.6,3.4c-0.1,0.6-0.3,1.1-0.5,1.7
				c-0.2,0.5-0.3,1.1-0.6,1.6c-0.9,2.1-2.2,4.1-3.9,5.7c-1.7,1.6-3.8,2.7-5.9,3.4c-2.1,0.7-4.3,1-6.5,1c-2.2,0.1-4.4-0.1-6.5-0.5
				c-2.2-0.4-4.3-1-6.3-1.8c-2-0.8-4-1.8-5.9-3c-3.7-2.4-7-5.4-9.6-9c-1.3-1.8-2.5-3.7-3.3-5.8c-0.7-2.1-1.1-4.4-1.1-6.7
				c0-2.3,0.3-4.5,1-6.7c0.7-2.2,1.7-4.3,3.1-6.1c5.6-6.8,11.2-13.4,16.7-20.1c5.6-6.7,11.2-13.3,16.5-20.1l0.2-0.2l0.2-0.1l0,0
				c2.9-1.1,5.9-1.7,8.9-2.1c3-0.4,6-0.5,9-0.6c3,0,6,0.1,9,0.2c3,0.2,5.9,0.4,8.9,0.8L247-126.6z"/>
		</g>
	</g>
	<g id="Tabs">
		<g>
			<path d="M207-99.8c0.2,0.8,0.2,1.8-0.2,2.6c-0.4,0.9-1.3,1.5-2.2,1.6c-1,0.1-1.9-0.2-2.6-0.7c-0.7-0.5-1.3-1.2-1.6-2.1
				c-0.7-1.8,0.7-4.1,2.7-4.4c1-0.2,2,0.1,2.7,0.7C206.4-101.5,206.8-100.7,207-99.8z M206.9-99.8c-0.2-0.8-0.8-1.5-1.5-1.8
				c-0.7-0.3-1.5-0.4-2.2-0.2c-0.7,0.2-1.3,0.5-1.8,1.1c-0.4,0.6-0.6,1.3-0.6,2.1c0.1,0.8,0.5,1.6,1.2,2c0.7,0.4,1.6,0.4,2.3,0.2
				c0.7-0.2,1.3-0.6,1.9-1.2C206.7-98.1,207.1-99,206.9-99.8z"/>
		</g>
		<g>
			<path d="M212.4-106.6c0.2,0.8,0.2,1.8-0.2,2.6c-0.4,0.9-1.3,1.5-2.2,1.6c-1,0.1-1.9-0.2-2.6-0.7c-0.7-0.5-1.3-1.2-1.6-2.1
				c-0.7-1.8,0.7-4.1,2.7-4.4c1-0.2,2,0.1,2.7,0.7C211.9-108.3,212.3-107.4,212.4-106.6z M212.3-106.6c-0.2-0.8-0.8-1.5-1.5-1.8
				c-0.7-0.3-1.5-0.4-2.2-0.2c-0.7,0.2-1.3,0.5-1.8,1.1c-0.4,0.6-0.6,1.3-0.6,2.1c0.1,0.8,0.5,1.6,1.2,2c0.7,0.4,1.6,0.4,2.3,0.2
				c0.7-0.2,1.3-0.6,1.9-1.2C212.2-104.9,212.5-105.7,212.3-106.6z"/>
		</g>
		<g>
			<path d="M217.7-113.3c0.2,0.8,0.2,1.8-0.2,2.6c-0.4,0.9-1.3,1.5-2.2,1.6c-1,0.1-1.9-0.2-2.6-0.7c-0.7-0.5-1.3-1.2-1.6-2.1
				c-0.7-1.8,0.7-4.1,2.7-4.4c1-0.2,2,0.1,2.7,0.7C217.1-115,217.5-114.2,217.7-113.3z M217.6-113.3c-0.2-0.8-0.8-1.5-1.5-1.8
				c-0.7-0.3-1.5-0.4-2.2-0.2c-0.7,0.2-1.3,0.5-1.8,1.1c-0.4,0.6-0.6,1.3-0.6,2.1c0.1,0.8,0.5,1.6,1.2,2c0.7,0.4,1.6,0.4,2.3,0.2
				c0.7-0.2,1.3-0.6,1.9-1.2C217.4-111.6,217.8-112.5,217.6-113.3z"/>
		</g>
		<g>
			<path d="M190.9-79.6c0.2,0.8,0.2,1.8-0.2,2.6c-0.4,0.9-1.3,1.5-2.2,1.6c-1,0.1-1.9-0.2-2.6-0.7c-0.7-0.5-1.3-1.2-1.6-2.1
				c-0.7-1.8,0.7-4.1,2.7-4.4c1-0.2,2,0.1,2.7,0.7C190.4-81.3,190.8-80.4,190.9-79.6z M190.8-79.6c-0.2-0.8-0.8-1.5-1.5-1.8
				c-0.7-0.3-1.5-0.4-2.2-0.2c-0.7,0.2-1.3,0.5-1.8,1.1c-0.4,0.6-0.6,1.3-0.6,2.1c0.1,0.8,0.5,1.6,1.2,2c0.7,0.4,1.6,0.4,2.3,0.2
				c0.7-0.2,1.3-0.6,1.9-1.2C190.7-77.9,191-78.7,190.8-79.6z"/>
		</g>
		<g>
			<path d="M196.4-86.3c0.2,0.8,0.2,1.8-0.2,2.6c-0.4,0.9-1.3,1.5-2.2,1.6c-1,0.1-1.9-0.2-2.6-0.7c-0.7-0.5-1.3-1.2-1.6-2.1
				c-0.7-1.8,0.7-4.1,2.7-4.4c1-0.2,2,0.1,2.7,0.7C195.8-88,196.2-87.2,196.4-86.3z M196.3-86.3c-0.2-0.8-0.8-1.5-1.5-1.8
				c-0.7-0.3-1.5-0.4-2.2-0.2c-0.7,0.2-1.3,0.5-1.8,1.1c-0.4,0.6-0.6,1.3-0.6,2.1c0.1,0.8,0.5,1.6,1.2,2c0.7,0.4,1.6,0.4,2.3,0.2
				c0.7-0.2,1.3-0.6,1.9-1.2C196.1-84.6,196.5-85.5,196.3-86.3z"/>
		</g>
		<g>
			<path d="M201.6-93.1c0.2,0.8,0.2,1.8-0.2,2.6c-0.4,0.9-1.3,1.5-2.2,1.6c-1,0.1-1.9-0.2-2.6-0.7c-0.7-0.5-1.3-1.2-1.6-2.1
				c-0.7-1.8,0.7-4.1,2.7-4.4c1-0.2,2,0.1,2.7,0.7C201.1-94.8,201.4-93.9,201.6-93.1z M201.5-93.1c-0.2-0.8-0.8-1.5-1.5-1.8
				c-0.7-0.3-1.5-0.4-2.2-0.2c-0.7,0.2-1.3,0.5-1.8,1.1c-0.4,0.6-0.6,1.3-0.6,2.1c0.1,0.8,0.5,1.6,1.2,2c0.7,0.4,1.6,0.4,2.3,0.2
				c0.7-0.2,1.3-0.6,1.9-1.2C201.4-91.4,201.7-92.2,201.5-93.1z"/>
		</g>
	</g>
	<g id="Keys_1_">
		<g>
			<path d="M178.8-91.1c-1.3,1.7-2.8,3.6-4.4,5.5l-0.3,0.3l-0.3-0.3c-1-0.8-1.9-1.6-2.8-2.5l-0.4-0.3l0.3-0.4
				c1.6-1.7,3.2-3.4,4.8-5.1l0.2-0.2l0.2,0.2C177.2-92.9,178-92,178.8-91.1z M178.8-91.1c-1.1-0.8-2.1-1.5-3-2.3l0.4,0
				c-1.5,1.8-3,3.6-4.6,5.3l0-0.7c0.9,0.8,1.8,1.7,2.7,2.6l-0.6,0C175.3-87.9,177-89.4,178.8-91.1z"/>
		</g>
		<g>
			<path d="M190.1-102.9c-1.2,1.5-2.6,3.2-4.1,4.8l-0.3,0.3l-0.3-0.3c-0.7-0.6-1.4-1.2-2.1-1.8l-0.3-0.3l0.3-0.4
				c1.2-1.7,2.5-3.4,3.8-5.1l0.2-0.3l0.2,0.2C188.5-104.7,189.3-103.7,190.1-102.9z M190.1-102.9c-1.1-0.8-2.1-1.5-3-2.3l0.5-0.1
				c-1.1,1.8-2.3,3.6-3.5,5.3l-0.1-0.7c0.7,0.6,1.4,1.2,2,1.9l-0.6,0C186.8-100.1,188.4-101.4,190.1-102.9z"/>
		</g>
		<g>
			<path d="M195.5-109.1c-0.9,0.9-2,1.9-3.2,2.9L192-106l-0.3-0.2c-0.7-0.6-1.4-1.2-2.1-1.8l-0.4-0.4l0.4-0.4
				c1.2-1.1,2.5-2.1,3.8-3.1l0.3-0.2l0.2,0.3C194.5-110.9,195-110,195.5-109.1z M195.5-109.1c-0.7-0.9-1.4-1.6-2-2.3l0.5,0.1
				c-1.1,1.2-2.3,2.3-3.6,3.3l0-0.7c0.7,0.6,1.4,1.2,2,1.9l-0.6,0C192.9-107.7,194-108.3,195.5-109.1z"/>
		</g>
		<g>
			<path d="M200-114.1c-1-1-1.9-1.7-2.6-2.5l0.6,0.1c-0.9,0.7-1.8,1.3-2.7,1.9l0.1-0.7c0.9,1.2,1.7,2.3,2.4,3.6l-0.5,0
				C198.2-112.6,199.1-113.3,200-114.1z M200-114.1c-0.7,0.8-1.4,1.8-2.3,2.7l-0.2,0.2l-0.3-0.3c-1-1.1-1.9-2.2-2.7-3.4l-0.3-0.4
				l0.4-0.3c0.9-0.6,1.8-1.2,2.8-1.8l0.4-0.2l0.2,0.3C198.9-116.2,199.5-115.1,200-114.1z"/>
		</g>
		<g>
			<path d="M199.9-119.9c1.4-1.4,2.9-2.9,4.6-4.3l0.3-0.3l0.3,0.3c0.6,0.7,1.2,1.4,1.9,2l0.3,0.3l-0.3,0.3c-1.4,1.6-2.9,3.1-4.4,4.6
				l-0.3,0.3l-0.2-0.3C201.3-117.9,200.6-119,199.9-119.9z M199.9-119.9c1,1,1.9,1.8,2.7,2.6l-0.5,0c1.3-1.7,2.7-3.3,4.1-4.9l0,0.7
				c-0.6-0.7-1.2-1.4-1.8-2.1l0.6,0.1C203.5-122.3,201.8-121.2,199.9-119.9z"/>
		</g>
		<g>
			<path d="M178.6-94.6l1.9-3.9l0.1-0.3l0.3,0.2l2.9,2.3l0,0.5c-0.1-0.1-0.1,0-0.1,0l0,0l-0.1,0.1l-0.2,0.2l-0.4,0.3l-0.8,0.7
				c-0.5,0.4-1.1,0.9-1.6,1.4l-0.1,0.1l-0.1-0.1L178.6-94.6z M178.6-94.6c0.7,0.4,1.4,0.8,2,1.2l-0.3,0c0.5-0.5,1-0.9,1.5-1.4
				l0.8-0.7l0.4-0.4l0.2-0.2l0.1-0.1l0,0c0,0,0.1,0,0-0.1l0,0.5l-2.8-2.4l0.4-0.1C180.3-97.1,179.4-95.9,178.6-94.6z"/>
		</g>
	</g>
	<g id="Top_Nut">
		<g>
			<path d="M180.9-64.7c1.3,1.4,2.7,2.7,4,4c1.4,1.3,2.8,2.5,4.2,3.8c1.4,1.2,2.9,2.5,4.3,3.6l2.2,1.8c0.8,0.6,1.5,1.1,2.3,1.7
				l-0.7,0.8L180.2-64L180.9-64.7z"/>
		</g>
		<line class="st10" x1="183.5" y1="-60.9" x2="193.9" y2="-51.9"/>
	</g>
	
		<rect id="spliter" x="213.8" y="-86.8" transform="matrix(-0.2777 0.9607 -0.9607 -0.2777 194.6208 -314.004)" width="3.2" height="6"/>
</g>
<g id="piano">
	<path class="st11" d="M248.8,126.2h-94.5c-7.9,0-14.3-6.4-14.3-14.3V17.4c0-7.9,6.4-14.3,14.3-14.3h94.5c7.9,0,14.3,6.4,14.3,14.3
		v94.5C263.1,119.8,256.7,126.2,248.8,126.2z"/>
	<g>
		<defs>
			<path id="SVGID_10_" d="M250.2,123.1h-93.4c-7.9,0-14.3-6.4-14.3-14.3V15.4c0-7.9,6.4-14.3,14.3-14.3h93.4
				c7.9,0,14.3,6.4,14.3,14.3v93.4C264.5,116.7,258.1,123.1,250.2,123.1z"/>
		</defs>
		<clipPath id="SVGID_11_">
			<use xlink:href="#SVGID_10_"  style="overflow:visible;"/>
		</clipPath>
		<g id="keyboard" class="st12">
			<rect id="Base_2_" x="102.4" y="-3.9" width="167.7" height="127.2"/>
			<g id="Vol">
				<circle class="st13" cx="248.4" cy="16.2" r="10.5"/>
				<circle class="st13" cx="231" cy="26.8" r="4.9"/>
			</g>
			<g id="White_Keys">
				<rect x="243.9" y="59.7" class="st13" width="16.3" height="63.6"/>
				<rect x="225.2" y="59.7" class="st13" width="16.3" height="63.6"/>
				<rect x="206.6" y="59.7" class="st13" width="16.3" height="63.6"/>
				<rect x="187.9" y="59.7" class="st13" width="16.3" height="63.6"/>
				<rect x="169.3" y="59.7" class="st13" width="16.3" height="63.6"/>
				<rect x="150.6" y="59.7" class="st13" width="16.3" height="63.6"/>
				<rect x="132" y="59.7" class="st13" width="16.3" height="63.6"/>
				<rect x="113.3" y="59.7" class="st13" width="16.3" height="63.6"/>
			</g>
			<rect id="power" x="262.4" y="2.7" class="st14" width="7.7" height="2.9"/>
			<g id="Black_keys">
				<rect x="125.4" y="59.7" width="10.5" height="42.7"/>
				<rect x="144" y="59.7" width="10.5" height="42.7"/>
				<rect x="218.8" y="59.7" width="10.5" height="42.7"/>
				<rect x="200.2" y="59.7" width="10.5" height="42.7"/>
				<rect x="181.5" y="59.7" width="10.5" height="42.7"/>
			</g>
		</g>
	</g>
</g>
</svg>
