<?xml version="1.0" encoding="utf-8"?>
<!-- Generator: Adobe Illustrator 23.0.2, SVG Export Plug-In . SVG Version: 6.00 Build 0)  -->
<svg version="1.1" xmlns="http://www.w3.org/2000/svg" xmlns:xlink="http://www.w3.org/1999/xlink" x="0px" y="0px"
	 viewBox="0 0 124.4 124.6" style="enable-background:new 0 0 124.4 124.6;" xml:space="preserve">
<style type="text/css">
	.st0{display:none;}
	.st1{display:inline;}
	.st2{fill:#CB2026;}
	.st3{fill:url(#SVGID_1_);}
	.st4{fill:url(#SVGID_2_);}
	.st5{clip-path:url(#SVGID_5_);}
	.st6{clip-path:url(#SVGID_7_);}
	.st7{fill:url(#bkdrop_1_);}
	.st8{fill:url(#SVGID_8_);}
	.st9{fill:url(#SVGID_9_);}
	.st10{fill:none;stroke:#000000;stroke-miterlimit:10;}
	.st11{fill:#FCFAFB;}
	.st12{clip-path:url(#SVGID_11_);}
	.st13{fill:#FFFFFF;}
	.st14{fill:#ED1F24;}
</style>
<g id="Button_Template" class="st0">
	<g id="Button_4_" class="st1">
		<path d="M561.8-75.9h-94.5c-7.9,0-14.3-6.4-14.3-14.3v-94.5c0-7.9,6.4-14.3,14.3-14.3h94.5c7.9,0,14.3,6.4,14.3,14.3v94.5
			C576.1-82.3,569.7-75.9,561.8-75.9z"/>
		<path class="st2" d="M563.1-78.5h-93.4c-7.9,0-14.3-6.4-14.3-14.3v-93.4c0-7.9,6.4-14.3,14.3-14.3h93.4c7.9,0,14.3,6.4,14.3,14.3
			v93.4C577.4-84.9,571-78.5,563.1-78.5z"/>
	</g>
</g>
<g id="Bass">
	<g id="Base_Head">
		<g id="Button">
			<g id="Button_2_">
				<path d="M-27.6,123.9h-94.5c-7.9,0-14.3-6.4-14.3-14.3V15.1c0-7.9,6.4-14.3,14.3-14.3h94.5c7.9,0,14.3,6.4,14.3,14.3v94.5
					C-13.3,117.5-19.7,123.9-27.6,123.9z"/>
				<radialGradient id="SVGID_1_" cx="-72.9754" cy="60.2515" r="74.2678" gradientUnits="userSpaceOnUse">
					<stop  offset="0.1723" style="stop-color:#3068AC"/>
					<stop  offset="0.325" style="stop-color:#2A64A4"/>
					<stop  offset="0.6286" style="stop-color:#1B5B92"/>
					<stop  offset="1" style="stop-color:#004975"/>
				</radialGradient>
				<path class="st3" d="M-26.3,121.3h-93.4c-7.9,0-14.3-6.4-14.3-14.3V13.5c0-7.9,6.4-14.3,14.3-14.3h93.4
					c7.9,0,14.3,6.4,14.3,14.3V107C-12,114.9-18.4,121.3-26.3,121.3z"/>
			</g>
		</g>
		<g id="Layer_7">
		</g>
		<g id="Head">
			<path d="M-74.8,18.8c1.2,1.4,3.2,1.7,5,1.3c1.8-0.3,3.6-1.1,5.3-2c1.7-0.9,3.3-1.9,4.9-3.1c0.8-0.6,1.5-1.1,2.3-1.7
				c0.7-0.6,1.5-1.2,2.1-2l0,0l1.2-1.1l-0.3,1.6l-0.9,4.3l-0.5,2.1c-0.1,0.7-0.2,1.4-0.3,2.2l-0.6,4.3l-0.3,4.4l-0.1,2.2l0,2.2
				c0,1.5,0,2.9,0,4.4l0.3,4.4c0.1,1.5,0.3,2.9,0.4,4.3c0.7,5.8,1.8,11.5,3.4,17.1c1.6,5.6,3.5,11.2,5.9,16.3l0,0l0.4,0.9l-0.6,0.6
				L-66.9,100l0,0l0.1-0.4v15.1l0,0l0,0.5l-0.5,0l-18.5-0.2l0,0l-0.3,0l0-0.3l-0.4-15.2l0,0l0,0.2l-13-35.4l-0.1-0.2l0.1-0.2
				c3.5-6.1,6.2-12.7,8.3-19.5c0.3-0.8,0.5-1.7,0.7-2.5l0.7-2.6c0.3-1.7,0.8-3.4,1-5.2l0.4-2.6l0.3-2.6l0.1-1.3c0-0.4,0-0.9,0.1-1.3
				l0.1-2.6c0-1.8-0.1-3.5-0.2-5.3c-0.1-1.8,0-3.7,0.3-5.5c0.3-1.8,0.9-3.6,1.9-5.2c1-1.6,2.6-2.9,4.4-3.5c0.9-0.3,1.9-0.4,2.9-0.3
				c1,0.1,1.9,0.4,2.8,0.8c0.9,0.5,1.6,1.1,2.2,1.8c0.6,0.8,1,1.6,1.3,2.5c0.5,1.8,0.3,3.7-0.3,5.5c-0.1,0.4-0.3,0.9-0.5,1.3
				c-0.2,0.4-0.4,0.8-0.6,1.2c-0.2,0.4-0.4,0.8-0.7,1.2c-0.3,0.4-0.5,0.8-0.9,1c0.1-0.5,0.4-0.8,0.6-1.2c0.2-0.4,0.4-0.8,0.6-1.2
				c0.2-0.4,0.4-0.8,0.5-1.2c0.2-0.4,0.3-0.8,0.4-1.2c0.5-1.7,0.5-3.5,0-5.1c-0.3-0.8-0.7-1.5-1.2-2.1c-0.6-0.6-1.2-1.1-1.9-1.5
				C-76.8,5.2-77.6,5-78.4,5C-79.2,5-80,5-80.8,5.3c-1.5,0.5-2.8,1.7-3.7,3.1c-0.9,1.4-1.4,3-1.7,4.7c-0.3,1.7-0.4,3.4-0.2,5.2
				c0.1,1.8,0.2,3.6,0.2,5.4c-0.1,7.2-1.3,14.4-3.5,21.2c-1,3.4-2.3,6.8-3.8,10.1c-1.5,3.3-3,6.5-4.9,9.6l0-0.5l13.2,35.3l0,0.1v0.1
				l0,0l-0.4,15.2l-0.3-0.3l0,0l18.5-0.2l-0.5,0.5l0,0V99.6v-0.2l0.1-0.1l0,0l18.4-19.5l-0.3,1.5l0,0c-2.4-5.5-4.2-11.2-5.7-16.9
				c-1.4-5.8-2.4-11.6-3-17.5c-0.1-1.5-0.3-2.9-0.3-4.4l-0.2-4.4c0-1.5,0.1-3,0.1-4.4l0.1-2.2l0.2-2.2l0.4-4.4l0.7-4.4
				c0.1-0.7,0.2-1.5,0.4-2.2l0.5-2.2l1.1-4.3l0.8,0.5l0,0c-0.9,0.5-1.6,1.1-2.4,1.7c-0.8,0.6-1.5,1.2-2.3,1.8
				c-1.6,1.1-3.2,2.2-4.9,3.1c-1.7,0.9-3.5,1.7-5.5,2.1c-1,0.2-2,0.2-3,0c-1-0.2-2-0.7-2.7-1.5L-74.8,18.8z"/>
		</g>
		<g id="Tuner">
			<g>
				<path d="M-84.7,53.3c-0.2-1.5,1-3.2,2.6-3.4c0.8-0.1,1.7,0.1,2.4,0.6c0.7,0.5,1.2,1.4,1.3,2.3c0.1,0.9-0.2,1.8-0.8,2.5
					c-0.6,0.6-1.5,1-2.3,1C-83.2,56.3-84.6,54.9-84.7,53.3z M-84.7,53.3c0.1,0.8,0.5,1.5,1.1,1.9c0.6,0.4,1.4,0.6,2.1,0.5
					c1.4-0.2,2.3-1.6,2.2-2.9c-0.1-1.3-1.2-2.5-2.7-2.5c-0.7,0-1.4,0.3-2,0.8C-84.5,51.8-84.7,52.6-84.7,53.3z"/>
			</g>
			<g>
				<path d="M-69.1,69.6c-1.4-0.6-2.3-2.4-1.7-4c0.3-0.8,0.9-1.5,1.7-1.8c0.8-0.4,1.8-0.4,2.6,0c0.8,0.4,1.5,1.1,1.7,1.9
					c0.3,0.8,0.2,1.8-0.2,2.5C-65.8,69.8-67.7,70.3-69.1,69.6z M-69.1,69.6c0.7,0.3,1.5,0.3,2.2,0c0.7-0.3,1.2-0.9,1.4-1.6
					c0.5-1.4-0.3-2.8-1.4-3.3c-1.1-0.5-2.7-0.1-3.4,1.1c-0.3,0.6-0.5,1.4-0.2,2.1C-70.4,68.7-69.8,69.3-69.1,69.6z"/>
			</g>
			<g>
				<path d="M-75.9,33.4c0,1.5-1.2,3.1-2.9,3.2c-0.8,0.1-1.7-0.2-2.4-0.8c-0.7-0.6-1.1-1.5-1.1-2.4c0-0.9,0.4-1.8,1.1-2.4
					c0.7-0.6,1.5-0.9,2.4-0.8C-77.1,30.3-75.9,31.8-75.9,33.4z M-75.9,33.4c0-0.8-0.3-1.5-0.9-2c-0.6-0.5-1.3-0.7-2-0.7
					c-1.4,0.1-2.5,1.4-2.4,2.7c0,1.3,1,2.6,2.4,2.7c0.7,0.1,1.5-0.2,2-0.7C-76.2,34.9-75.9,34.1-75.9,33.4z"/>
			</g>
			<g>
				<path d="M-62.9,49.3c-1.1,1.1-3,1.3-4.3,0.2c-0.6-0.5-1.1-1.4-1.1-2.2c-0.1-0.9,0.3-1.8,0.9-2.4c0.6-0.6,1.5-1,2.4-0.9
					c0.9,0,1.7,0.5,2.3,1.1C-61.6,46.3-61.8,48.2-62.9,49.3z M-62.9,49.3c0.5-0.5,0.8-1.3,0.8-2.1c0-0.8-0.4-1.4-1-1.9
					c-1.1-0.9-2.7-0.7-3.6,0.2c-0.9,0.9-1.1,2.5-0.2,3.6c0.5,0.5,1.1,0.9,1.9,1C-64.2,50.1-63.4,49.8-62.9,49.3z"/>
			</g>
		</g>
		<g id="Keys">
			<g>
				<path d="M-94.5,49.2c-0.9,0.3-1.6,0-2.1-0.4c-0.6-0.4-1-0.9-1.3-1.5c-0.3-0.6-0.5-1-0.8-1.2c-0.1-0.1-0.2-0.1-0.4-0.1
					c-0.2,0-0.4,0.1-0.6,0.2c-0.8,0.5-1.5,1.3-1.7,2.3c-0.1,0.5-0.2,1.1,0.1,1.3c0.4,0.2,1,0,1.5-0.1c-0.2,0.2-0.5,0.3-0.8,0.4
					c-0.3,0.1-0.6,0.2-1,0.1c-0.4-0.1-0.6-0.5-0.6-0.9c-0.1-0.3-0.1-0.6-0.1-1c0.1-1.3,0.8-2.5,1.9-3.3c0.3-0.2,0.6-0.4,1-0.4
					c0.4-0.1,0.9,0,1.3,0.2c0.7,0.5,1,1.2,1.2,1.6c0.3,0.4,0.6,0.9,0.9,1.2c0.3,0.3,0.8,0.5,1.1,0.5L-94.5,49.2z"/>
			</g>
			<g>
				<path d="M-89.3,33c-0.9,0.3-1.7-0.1-2.3-0.5c-0.6-0.5-1-1-1.3-1.6c-0.3-0.6-0.5-0.9-0.8-0.9c-0.2-0.1-0.8,0.1-1.2,0.5
					c-0.4,0.3-0.8,0.8-1,1.3c-0.1,0.2-0.2,0.5-0.3,0.8c0,0.1-0.1,0.3-0.1,0.3c0,0,0,0,0.1,0.1c0.4,0.2,1.1,0,1.7-0.1
					c0.6-0.1,1.2-0.3,1.8-0.6c-0.5,0.4-1.1,0.7-1.7,0.9c-0.6,0.2-1.2,0.5-2,0.4c-0.2,0-0.5-0.2-0.6-0.5c-0.1-0.3,0-0.4,0-0.6
					c0-0.3,0.1-0.7,0.2-1c0.2-0.7,0.6-1.3,1.1-1.8c0.3-0.2,0.5-0.5,0.9-0.7c0.3-0.2,0.8-0.3,1.3-0.3c1.1,0.2,1.5,1.1,1.8,1.6
					c0.3,0.5,0.6,1,0.9,1.3c0.3,0.4,0.8,0.6,1.1,0.6L-89.3,33z"/>
			</g>
			<g>
				<path d="M-55.3,46.9c0.7-0.8,1.6-0.8,2.4-0.7c0.8,0.1,1.4,0.5,2,0.9c0.2,0.1,0.5,0.3,0.6,0.3c0.2,0,0.3,0,0.4-0.1
					c0.3-0.2,0.6-0.8,0.8-1.3c0.1-0.6,0.2-1.2,0.1-1.7c0-0.1-0.1-0.3-0.1-0.4c0-0.1,0-0.1,0-0.1c0,0,0,0-0.1-0.1
					c-0.2-0.1-0.5-0.1-0.8-0.1c-0.6,0.1-1.2,0.2-1.8,0.6c-0.5,0.3-1,0.8-1.1,1.5c0-0.7,0.4-1.3,1-1.8c0.5-0.4,1.2-0.7,1.9-0.9
					c0.4-0.1,0.7-0.1,1.2,0c0.1,0,0.2,0.1,0.3,0.2c0.1,0.1,0.2,0.3,0.2,0.3c0.1,0.2,0.2,0.3,0.2,0.5c0.3,0.7,0.4,1.5,0.3,2.2
					c-0.1,0.7-0.3,1.5-1,2.1c-0.4,0.3-1,0.5-1.4,0.4c-0.5-0.1-0.9-0.3-1.2-0.5c-0.5-0.3-1-0.6-1.6-0.8c-0.3-0.1-0.5-0.1-0.8-0.1
					c-0.2,0-0.5,0.1-0.6,0.1L-55.3,46.9z"/>
			</g>
			<g>
				<path d="M-51.4,64.4c0.8-0.4,1.5-0.3,2.1,0c0.6,0.3,1.1,0.7,1.5,1.1c0.4,0.5,0.7,0.9,1.1,1c0.4,0.2,0.8,0,1.1-0.4
					c0.7-0.7,1.2-1.8,1.1-2.9c0-0.5-0.1-1.2-0.6-1.3c-0.5-0.1-1,0.3-1.5,0.6c0.4-0.4,0.8-0.9,1.5-0.8c0.3,0.1,0.6,0.3,0.7,0.6
					c0.1,0.3,0.2,0.6,0.3,0.9c0.2,1.2-0.2,2.5-1,3.4c-0.2,0.2-0.5,0.5-0.8,0.6c-0.3,0.2-0.8,0.2-1.1,0.1c-0.7-0.2-1.1-0.8-1.5-1.2
					c-0.4-0.4-0.8-0.7-1.3-0.9c-0.2-0.1-0.4-0.1-0.7-0.2c-0.2,0-0.5,0-0.5,0.1L-51.4,64.4z"/>
			</g>
		</g>
	</g>
</g>
<g id="Drum">
	<g id="Button_3_">
		<path d="M-32.2,267.1h-94.5c-7.9,0-14.3-6.4-14.3-14.3v-94.5c0-7.9,6.4-14.3,14.3-14.3h94.5c7.9,0,14.3,6.4,14.3,14.3v94.5
			C-17.9,260.7-24.3,267.1-32.2,267.1z"/>
		<g>
			<radialGradient id="SVGID_2_" cx="-77.6399" cy="203.5033" r="61.0169" gradientUnits="userSpaceOnUse">
				<stop  offset="0.421" style="stop-color:#F78E1E"/>
				<stop  offset="0.5255" style="stop-color:#E98F25"/>
				<stop  offset="0.7174" style="stop-color:#CD9138"/>
				<stop  offset="0.8881" style="stop-color:#B08E47"/>
			</radialGradient>
			<path class="st4" d="M-30.9,264.5h-93.4c-7.9,0-14.3-6.4-14.3-14.3v-93.4c0-7.9,6.4-14.3,14.3-14.3h93.4
				c7.9,0,14.3,6.4,14.3,14.3v93.4C-16.6,258.1-23,264.5-30.9,264.5z"/>
		</g>
	</g>
	<g>
		<defs>
			<path id="SVGID_3_" d="M-30.9,264.5h-93.4c-7.9,0-14.3-6.4-14.3-14.3v-93.4c0-7.9,6.4-14.3,14.3-14.3h93.4
				c7.9,0,14.3,6.4,14.3,14.3v93.4C-16.6,258.1-23,264.5-30.9,264.5z"/>
		</defs>
		<radialGradient id="SVGID_4_" cx="-77.6399" cy="203.5033" r="82.2474" gradientUnits="userSpaceOnUse">
			<stop  offset="0.3713" style="stop-color:#F78E1E"/>
			<stop  offset="0.5932" style="stop-color:#F38E1F"/>
			<stop  offset="0.6731" style="stop-color:#EB8F1F"/>
			<stop  offset="0.7299" style="stop-color:#E0921F"/>
			<stop  offset="0.7535" style="stop-color:#D99420"/>
		</radialGradient>
		<use xlink:href="#SVGID_3_"  style="overflow:visible;fill:url(#SVGID_4_);"/>
		<clipPath id="SVGID_5_">
			<use xlink:href="#SVGID_3_"  style="overflow:visible;"/>
		</clipPath>
		<g id="Drum_1_" class="st5">
			<path id="Base_Drum" d="M-94.4,244.4c0-29,23.5-52.6,52.6-52.6c16,0,30.3,7.2,40,18.4c-9.7-13.2-25.3-21.7-42.9-21.7
				c-29.4,0-53.2,23.8-53.2,53.2c0,19.6,10.6,36.7,26.4,46C-85.3,278.3-94.4,262.4-94.4,244.4z"/>
			<g id="Bottom">
				<g id="Hat_1_">
					<path d="M-132.1,178.5c4.8-0.1,9.3,0,13.8,0.1l13.3,0.4c2.2,0.1,4.4,0.1,6.6,0.1c1.1,0,2.2,0,3.3,0c1.1,0,2.2,0,3.3,0
						c4.5,0.2,8.9,0,13.8,0.4c-4.4,1.4-8.8,2.6-13.4,3.1l-1.7,0.2l-1.7,0.1l-3.4,0.2c-2.3,0-4.6,0.2-6.9,0.1
						c-4.6-0.2-9.2-0.6-13.7-1.4C-123.3,181.2-127.8,180.1-132.1,178.5z"/>
				</g>
				
					<ellipse id="Cap_of_Hat_1_" transform="matrix(1.795984e-02 -0.9998 0.9998 1.795984e-02 -285.3614 75.6324)" cx="-104.2" cy="183.1" rx="1.6" ry="5.2"/>
			</g>
			<g id="Stand_1_">
				<polygon points="-104.3,168.6 -101.7,274.4 -107.5,274.4 -104.8,168.6 				"/>
			</g>
			<g id="Top">
				<g id="Stand" class="st0">
					<polygon class="st1" points="-85.2,166.9 -87.2,176.8 -87.3,177 -87.5,177.2 -129.8,220.9 -129.2,219.5 -130.8,289 -131.8,289 
						-133.3,219.5 -133.3,218.7 -132.7,218.1 -89,175.8 -89.2,176.2 					"/>
				</g>
				<g>
					<g id="Hat">
						<path d="M-77.7,178.3c-4.8,0-9.3-0.2-13.8-0.4c-4.5-0.2-8.9-0.4-13.3-0.5c-2.2-0.1-4.4-0.1-6.6-0.2c-1.1,0-2.2,0-3.3,0
							c-1.1,0-2.2,0-3.3-0.1c-4.5-0.1-8.9,0.1-13.8-0.3c4.4-1.4,8.8-2.5,13.4-3l1.7-0.2l1.7-0.1l3.4-0.2c2.3,0,4.6-0.1,6.9,0
							c4.6,0.2,9.2,0.6,13.7,1.5C-86.5,175.5-82,176.6-77.7,178.3z"/>
					</g>
					
						<ellipse id="Cap_of_Hat" transform="matrix(2.448537e-02 -0.9997 0.9997 2.448537e-02 -275.4686 64.7003)" cx="-104.6" cy="173.5" rx="1.6" ry="5.2"/>
				</g>
			</g>
		</g>
	</g>
</g>
<g id="Trump_1_">
	<g id="Button_1_">
		<path d="M-27.6-13.6h-94.5c-7.9,0-14.3-6.4-14.3-14.3v-94.5c0-7.9,6.4-14.3,14.3-14.3h94.5c7.9,0,14.3,6.4,14.3,14.3v94.5
			C-13.3-20-19.7-13.6-27.6-13.6z"/>
	</g>
	<g>
		<defs>
			<path id="SVGID_6_" d="M-26.3-16.2h-93.4c-7.9,0-14.3-6.4-14.3-14.3V-124c0-7.9,6.4-14.3,14.3-14.3h93.4
				c7.9,0,14.3,6.4,14.3,14.3v93.4C-12-22.6-18.4-16.2-26.3-16.2z"/>
		</defs>
		<clipPath id="SVGID_7_">
			<use xlink:href="#SVGID_6_"  style="overflow:visible;"/>
		</clipPath>
		<g class="st6">
			<radialGradient id="bkdrop_1_" cx="-69.7019" cy="-72.0425" r="91.8105" gradientUnits="userSpaceOnUse">
				<stop  offset="0.1723" style="stop-color:#F6EC1D"/>
				<stop  offset="0.3757" style="stop-color:#E3DB1B"/>
				<stop  offset="0.7779" style="stop-color:#B9B814"/>
				<stop  offset="1" style="stop-color:#A0A20F"/>
			</radialGradient>
			<rect id="bkdrop" x="-169.4" y="-155.2" class="st7" width="199.4" height="166.4"/>
		</g>
		<g id="TrumpHead" class="st6">
			<path d="M-72.2-117.7c7.6,8.7,12.6,24.1,12.6,41.7c0,27.2-12.1,49.3-26.9,49.3c-4.1,0-7.9-1.7-11.4-4.6c4.2,4.8,9.1,7.6,14.4,7.6
				c14.9,0,26.9-22.1,26.9-49.3C-56.6-92.8-63-109.8-72.2-117.7z"/>
			<path d="M-111.9-74.4c0-27.2,12.1-49.3,26.9-49.3c4.1,0,8.1,1.7,11.6,4.8c-4.1-4.7-9-7.4-14.2-7.4c-14.9,0-26.9,22.1-26.9,49.3
				c0,19.7,6.3,36.6,15.4,44.5C-106.8-41.1-111.9-56.6-111.9-74.4z"/>
			<ellipse cx="-80.1" cy="-73.7" rx="7.7" ry="17.3"/>
		</g>
		<g id="Body" class="st6">
			<g>
				<path d="M-56.4-92.5c1.7,1,3.5,1.4,5.4,1.9c0.9,0.2,1.8,0.5,2.8,0.7c0.9,0.2,1.8,0.5,2.8,0.6c1.9,0.4,3.7,0.9,5.6,1.2l2.8,0.6
					c0.9,0.2,1.9,0.3,2.8,0.5c7.5,1.3,15.1,2.2,22.7,3l5.7,0.6c1.9,0.2,3.8,0.3,5.7,0.5c3.8,0.3,7.6,0.6,11.5,0.9
					c3.8,0.2,7.7,0.6,11.5,0.8c3.8,0.2,7.7,0.5,11.5,0.7c-7.7,0.1-15.4,0.1-23-0.1C7.4-80.8,3.6-81-0.3-81.2
					c-3.8-0.2-7.7-0.4-11.5-0.7c-3.8-0.2-7.7-0.7-11.5-1.1c-3.8-0.5-7.7-0.9-11.5-1.6c-1-0.2-1.9-0.3-2.9-0.5l-2.8-0.6
					c-1.9-0.3-3.8-0.8-5.7-1.4c-1.9-0.6-3.7-1.2-5.5-2.1c-0.9-0.4-1.7-0.9-2.6-1.5C-55-91.1-55.8-91.7-56.4-92.5z"/>
			</g>
			<g>
				<path d="M-58-51.7c0.6-0.8,1.4-1.4,2.3-1.9c0.9-0.5,1.7-1,2.6-1.3c1.8-0.8,3.7-1.4,5.6-1.9c1.9-0.4,3.8-0.9,5.7-1.1l2.9-0.4
					c1-0.1,1.9-0.2,2.9-0.4c3.8-0.5,7.7-0.8,11.5-1.1c3.8-0.2,7.7-0.5,11.5-0.6c3.8-0.1,7.7-0.2,11.5-0.2c3.8,0,7.7,0,11.5,0.1
					c7.7,0.1,15.4,0.5,23,0.9c-3.8,0.1-7.7,0.2-11.5,0.2c-3.8,0-7.7,0.2-11.5,0.3C6.2-59,2.4-58.8-1.4-58.7
					c-1.9,0.1-3.8,0.1-5.7,0.2l-5.7,0.3c-7.6,0.4-15.3,1-22.8,2c-0.9,0.1-1.9,0.2-2.8,0.4l-2.8,0.5c-1.9,0.3-3.7,0.7-5.6,1
					c-0.9,0.1-1.9,0.4-2.8,0.5c-0.9,0.1-1.8,0.4-2.8,0.6C-54.4-52.9-56.3-52.6-58-51.7z"/>
			</g>
		</g>
	</g>
	<g id="Trump">
	</g>
</g>
<g id="Sax">
	<g id="Button_5_">
		<path d="M113.2-12.8H18.6c-7.9,0-14.3-6.4-14.3-14.3v-94.5c0-7.9,6.4-14.3,14.3-14.3h94.5c7.9,0,14.3,6.4,14.3,14.3v94.5
			C127.5-19.2,121.1-12.8,113.2-12.8z"/>
		<radialGradient id="SVGID_8_" cx="67.7499" cy="-76.4669" r="61.0169" gradientUnits="userSpaceOnUse">
			<stop  offset="0.1723" style="stop-color:#C9D5DB"/>
			<stop  offset="0.3978" style="stop-color:#BAC6CE"/>
			<stop  offset="0.844" style="stop-color:#92A1AA"/>
			<stop  offset="1" style="stop-color:#84949D"/>
		</radialGradient>
		<path class="st8" d="M114.5-15.4H21c-7.9,0-14.3-6.4-14.3-14.3v-93.4c0-7.9,6.4-14.3,14.3-14.3h93.4c7.9,0,14.3,6.4,14.3,14.3
			v93.4C128.8-21.9,122.4-15.4,114.5-15.4z"/>
	</g>
	<g id="Sax_1_">
		<g id="Bellow">
			<g>
				<path d="M45.1-61.7c1.7-0.9,3.9-1.1,5.8,0c1.8,1.1,2.9,3.1,3.5,5c0.6,1.9,1,3.9,1.2,5.9l0.3,2.9c0.1,0.9,0.1,1.9,0.3,2.8
					c0.5,3.7,1.5,7.3,3.2,10.4c1.7,3.2,4,5.9,6.8,8c5.6,4.1,13.3,4.8,19.1,1.6c2.8-1.7,5.3-4,6.9-6.9c1.7-2.9,2.8-6.3,3.3-9.8
					l0.2-1.3c0.1-0.4,0.1-0.9,0.1-1.3c0.1-0.9,0.2-1.8,0.2-2.8c0.1-1.9,0.2-3.9,0.3-5.8l0.6-11.6l1.4-23.1
					c0.5-7.7,1.1-15.4,1.7-23.1l1-11.5l0.6-5.8l0.3-2.9c0.1-0.9,0.2-1.9,0.5-2.8c-0.3,0.9-0.2,1.9-0.3,2.9l-0.2,2.9l-0.3,5.8
					l-0.4,11.6c-0.2,7.7-0.3,15.4-0.4,23.1c-0.1,7.7-0.1,15.4,0,23.1c0,3.9,0.1,7.7,0.3,11.5l0.2,5.8c0,0.9,0,2,0,3c0,0.5,0,1,0,1.5
					l-0.1,1.5c-0.4,4.1-1.6,8.3-3.7,12.1c-2.2,3.8-5.5,7-9.4,9c-2,0.9-4.1,1.7-6.3,2c-2.2,0.3-4.4,0.4-6.5,0.1
					c-1.1-0.1-2.1-0.4-3.2-0.6c-1-0.4-2.1-0.6-3-1.1c-2-0.8-3.8-2-5.5-3.3c-3.3-2.7-5.8-6.2-7.4-10c-1.6-3.8-2.4-7.9-2.5-11.8
					c0-1,0-2,0-3c0-1,0-1.9,0.1-2.8c0-1.9-0.1-3.7-0.5-5.5c-0.4-1.8-1.1-3.5-2.5-4.7c-0.7-0.5-1.5-0.9-2.5-1
					C47-62.2,46-62,45.1-61.7z"/>
			</g>
			<g>
				<path d="M61.7-101.5c3.4,2.6,6.1,6.1,8.5,9.7c2.3,3.7,4.1,7.7,5.5,11.8c0.6,2.1,1.3,4.1,1.7,6.3c0.2,1.1,0.5,2.1,0.6,3.2
					l0.4,3.2c0.1,0.5,0.2,1.1,0.2,1.6l0.1,1.6l0.2,3.2c0,2.1-0.1,4.3-0.2,6.4c-0.3-2.1-0.4-4.3-0.7-6.4l-0.5-3.2l-0.2-1.6L77-67.2
					l-0.6-3.1c-0.2-1-0.5-2-0.8-3.1c-0.3-1-0.5-2-0.9-3l-0.9-3c-1.4-4-3.1-7.8-5.1-11.5C66.7-94.7,64.5-98.3,61.7-101.5z"/>
			</g>
			<g>
				<path d="M82.5-132.2c0.1,4.6-0.1,9.1-0.3,13.6c-0.2,4.5-0.5,9-0.8,13.5c-0.3,4.5-0.7,9-1.1,13.5c-0.4,4.5-0.9,9-1.6,13.5
					c-0.4-4.5-0.5-9.1-0.5-13.6c0-4.5,0.2-9.1,0.5-13.6c0.3-4.5,0.7-9,1.3-13.5C80.7-123.3,81.4-127.8,82.5-132.2z"/>
			</g>
		</g>
		<g id="outer_Bell">
			<path d="M27-92.6c5.7-15.3,17.3-25.1,26.1-21.8c2,0.7,3.7,2.1,5,3.9c-1.4-3-3.6-5.1-6.3-6.1c-8.7-3.2-20.4,6.5-26.1,21.8
				c-4.4,11.8-3.9,23.4,0.6,29.6C23.1-71.7,23.1-82.1,27-92.6z"/>
			<path d="M57.7-110.9c3.5,6.4,3.6,17.1-0.4,27.9c-5.7,15.2-17.4,24.9-26.1,21.7c-2-0.7-3.7-2.1-5-4c1.4,2.6,3.4,4.5,6,5.5
				c8.7,3.2,20.4-6.5,26.1-21.7C62.6-93.3,62.1-104.8,57.7-110.9z"/>
		</g>
		
			<ellipse id="Inner_Bell" transform="matrix(0.4281 -0.9037 0.9037 0.4281 103.8322 -7.9769)" cx="45.6" cy="-86" rx="18" ry="5.4"/>
		<g id="Slides">
			<g>
				<path d="M93.5-116c-0.8,1.2-2.2,2.1-3.6,2.4c-1.5,0.3-3,0-4.3-0.8c-1.3-0.8-2.3-2.2-2.6-3.8c-0.3-1.5,0-3.2,1-4.5
					c0.9-1.3,2.4-2.2,4-2.4c1.6-0.2,3.2,0.2,4.4,1.2c1.2,0.9,2,2.3,2.2,3.8C94.8-118.8,94.4-117.2,93.5-116z M93.5-116
					c0.8-1.2,1.2-2.7,0.9-4.2c-0.3-1.4-1.2-2.7-2.4-3.4c-1.2-0.8-2.6-1-4-0.7c-1.3,0.3-2.5,1.1-3.3,2.2c-0.8,1.1-1.1,2.5-0.9,3.8
					c0.2,1.3,0.9,2.6,2,3.5c1.1,0.9,2.6,1.3,4,1.1C91.4-114,92.7-114.9,93.5-116z"/>
			</g>
			<g>
				<path d="M87.7-70.4c-0.6,0.8-1.4,1.6-2.5,1.9c-1.1,0.3-2.3,0.1-3.2-0.6c-0.9-0.7-1.4-1.8-1.5-2.8c-0.1-1,0-2.2,0.6-3.1
					c0.5-1,1.5-1.7,2.7-1.9c1.1-0.2,2.4,0,3.3,0.7c0.9,0.7,1.6,1.8,1.6,2.9C88.7-72.3,88.3-71.2,87.7-70.4z M87.6-70.5
					c0.6-0.8,0.7-1.9,0.4-2.8c-0.3-0.9-0.8-1.6-1.6-2.1c-0.7-0.5-1.6-0.7-2.5-0.6c-0.9,0.1-1.8,0.6-2.4,1.3C80.9-74,80.6-73,80.8-72
					c0.2,1,0.9,1.8,1.7,2.2c0.8,0.5,1.7,0.7,2.6,0.7C86-69.2,87.1-69.6,87.6-70.5z"/>
			</g>
			<g>
				<path d="M89.3-80.3c-0.7,0.9-1.7,1.6-2.9,1.7c-1.1,0.2-2.3-0.1-3.2-0.8c-0.9-0.7-1.5-1.7-1.7-2.8c-0.2-1.1,0.1-2.2,0.8-3.1
					c0.6-0.9,1.6-1.5,2.7-1.6c1.1-0.2,2.2,0.1,3,0.7c0.9,0.6,1.4,1.6,1.6,2.6c0.2,1-0.1,2.1-0.7,2.9L89.3-80.3z M88.9-80.6
					c0.6-0.8,0.8-1.9,0.6-2.9c-0.2-1-0.8-1.9-1.6-2.4c-0.8-0.6-1.9-0.8-2.8-0.6c-1,0.2-1.8,0.8-2.4,1.6c-0.5,0.8-0.7,1.8-0.6,2.7
					c0.2,0.9,0.7,1.8,1.5,2.3c0.8,0.5,1.7,0.7,2.6,0.5c0.9-0.2,1.7-0.7,2.2-1.5L88.9-80.6z"/>
			</g>
			<g>
				<path d="M90-90.8c-1.1,1.7-3.7,2.5-5.8,1.3c-1-0.6-1.8-1.6-2.1-2.8c-0.3-1.2,0-2.5,0.7-3.6c0.7-1,1.9-1.7,3.1-1.8
					c1.2-0.1,2.4,0.3,3.3,1C91.1-95.1,91.2-92.5,90-90.8z M89.9-90.9c0.6-0.8,0.8-1.9,0.6-2.9c-0.2-1-0.8-1.9-1.6-2.5
					c-0.8-0.6-1.9-0.8-2.9-0.6c-1,0.2-1.9,0.7-2.5,1.6c-0.6,0.8-0.8,1.9-0.7,2.8c0.2,1,0.7,1.9,1.6,2.5c0.8,0.6,1.9,0.8,2.9,0.7
					C88.4-89.5,89.4-90,89.9-90.9z"/>
			</g>
			<g>
				<path d="M93.8-105.1c0,1.5-0.4,3-1.5,4.2c-1,1.2-2.6,1.9-4.2,1.8c-1.6-0.1-3-0.9-4.1-1.9c-1-1.1-1.7-2.5-1.8-4.1
					c-0.1-1.5,0.5-3.2,1.6-4.3c1.1-1.2,2.7-1.9,4.3-1.8c1.6,0,3.2,0.7,4.2,1.9C93.3-108.1,93.8-106.6,93.8-105.1z M93.7-105.1
					c0-1.5-0.8-2.9-1.8-3.7c-1.1-0.9-2.4-1.4-3.7-1.3c-1.3,0-2.6,0.5-3.6,1.4c-1,0.9-1.6,2.2-1.7,3.6c-0.1,1.4,0.4,2.9,1.5,3.8
					c1,1,2.5,1.4,3.8,1.3c1.4-0.1,2.7-0.6,3.7-1.4C92.9-102.3,93.7-103.7,93.7-105.1z"/>
			</g>
		</g>
	</g>
</g>
<g id="_x36__String">
	<g id="Button_6_">
		<path d="M108.8,124.6H14.3c-7.9,0-14.3-6.4-14.3-14.3V15.8C0,7.9,6.4,1.5,14.3,1.5h94.5c7.9,0,14.3,6.4,14.3,14.3v94.5
			C123.1,118.2,116.7,124.6,108.8,124.6z"/>
		
			<radialGradient id="SVGID_9_" cx="63.4061" cy="61.0169" r="89.5412" gradientTransform="matrix(1 0 0 1.0069 0 -0.419)" gradientUnits="userSpaceOnUse">
			<stop  offset="0" style="stop-color:#ED1C24"/>
			<stop  offset="0.1699" style="stop-color:#E91D25"/>
			<stop  offset="0.3145" style="stop-color:#E01F27"/>
			<stop  offset="0.4499" style="stop-color:#D3222C"/>
			<stop  offset="0.5796" style="stop-color:#C12432"/>
			<stop  offset="0.7055" style="stop-color:#AA2337"/>
			<stop  offset="0.8282" style="stop-color:#8F2039"/>
			<stop  offset="0.9465" style="stop-color:#721837"/>
			<stop  offset="0.9699" style="stop-color:#6C1536"/>
			<stop  offset="1" style="stop-color:#631133"/>
		</radialGradient>
		<path class="st9" d="M110.1,122H16.7c-7.9,0-14.3-6.4-14.3-14.3V14.3C2.4,6.4,8.8,0,16.7,0h93.4c7.9,0,14.3,6.4,14.3,14.3v93.4
			C124.4,115.6,118,122,110.1,122z"/>
	</g>
	<g id="Head_3_">
		<g>
			<path d="M36.5,81.8L22.1,99.3l0-0.4c2.9,2.4,6,4.8,8.9,7.2l4.5,3.5c1.5,1.2,3,2.4,4.6,3.5l-1.3,0.1l14.6-18.2l0.7,0.6l-13.8,18.7
				l-0.6,0.8l-0.7-0.7c-1.4-1.3-2.8-2.6-4.2-3.9l-4.3-3.8c-2.9-2.5-5.7-5.1-8.7-7.6l-0.2-0.2l0.2-0.2l14.6-17.4L36.5,81.8z"/>
		</g>
		<g id="Head_1_">
			<path d="M105.8,15.8L105.8,15.8c-3-0.2-6-0.3-9-0.3c-3,0-5.9,0.1-8.9,0.3C85,16.1,82,16.4,79.2,17c-2.9,0.6-5.7,1.3-8.3,2.5l0,0
				l0.4-0.3c-5.8,6.5-11.2,13.3-16.6,20L38.2,59.3c-1.2,1.6-2.2,3.4-3,5.4c-0.8,1.9-1.1,4-1.2,6.1c-0.1,2.1,0.2,4.2,0.8,6.2
				c0.6,1.9,1.7,3.8,2.9,5.6c2.4,3.6,5.4,6.7,9,9.1c3.6,2.4,7.6,4.1,11.8,4.9c2.1,0.4,4.3,0.5,6.4,0.5c0.5,0,1.1-0.1,1.6-0.1
				l1.6-0.2c1-0.3,2.1-0.5,3-1c1.9-0.9,3.6-2.2,4.9-3.7c1.2-1.6,2.1-3.5,2.7-5.4c0.3-1,0.5-2,0.7-3c0.1-1,0.3-2,0.4-3.1l0.2-3.1
				c0-1.1,0-2.1,0.1-3.2c0-4.4,0.6-8.8,1.3-13.1c0.7-4.3,1.6-8.6,2.9-12.8c1.3-4.2,3-8.2,5.1-12.1c2-3.9,4.4-7.5,7.1-10.9l2.1-2.5
				c0.7-0.8,1.4-1.6,2.2-2.4c0.7-0.8,1.5-1.6,2.2-2.4l1.1-1.2l0.6-0.6c0.1-0.1,0.1-0.2,0.2-0.2c0.1,0,0.2,0,0.3,0L105.8,15.8z
				 M106,15.9c-0.1,0.1-0.1,0.3-0.2,0.4c-0.1,0.2-0.3,0.3-0.4,0.4l-0.6,0.6l-1.1,1.2c-0.8,0.8-1.5,1.6-2.2,2.3
				c-0.7,0.8-1.5,1.6-2.2,2.4l-2.1,2.5c-2.7,3.4-5.1,7-7.1,10.8c-2,3.8-3.6,7.8-4.9,12c-1.2,4.1-2.2,8.4-2.5,12.7
				c-0.4,4.3-0.1,8.6,0.2,12.9c0.1,1.1,0.1,2.2,0.1,3.3c0,1.1-0.1,2.2-0.2,3.4c-0.1,1.1-0.4,2.2-0.6,3.4c-0.1,0.6-0.3,1.1-0.5,1.7
				c-0.2,0.5-0.3,1.1-0.6,1.6c-0.9,2.1-2.2,4.1-3.9,5.7c-1.7,1.6-3.8,2.7-5.9,3.4c-2.1,0.7-4.3,1-6.5,1c-2.2,0.1-4.4-0.1-6.5-0.5
				c-2.2-0.4-4.3-1-6.3-1.8c-2-0.8-4-1.8-5.9-3c-3.7-2.4-7-5.4-9.6-9c-1.3-1.8-2.5-3.7-3.3-5.8c-0.7-2.1-1.1-4.4-1.1-6.7
				c0-2.3,0.3-4.5,1-6.7c0.7-2.2,1.7-4.3,3.1-6.1c5.6-6.8,11.2-13.4,16.7-20.1c5.6-6.7,11.2-13.3,16.5-20.1l0.2-0.2l0.2-0.1l0,0
				c2.9-1.1,5.9-1.7,8.9-2.1c3-0.4,6-0.5,9-0.6c3,0,6,0.1,9,0.2c3,0.2,5.9,0.4,8.9,0.8L106,15.9z"/>
		</g>
	</g>
	<g id="Tabs">
		<g>
			<path d="M65.9,42.6c0.2,0.8,0.2,1.8-0.2,2.6c-0.4,0.9-1.3,1.5-2.2,1.6c-1,0.1-1.9-0.2-2.6-0.7c-0.7-0.5-1.3-1.2-1.6-2.1
				c-0.7-1.8,0.7-4.1,2.7-4.4c1-0.2,2,0.1,2.7,0.7C65.4,41,65.8,41.8,65.9,42.6z M65.8,42.7c-0.2-0.8-0.8-1.5-1.5-1.8
				c-0.7-0.3-1.5-0.4-2.2-0.2c-0.7,0.2-1.3,0.5-1.8,1.1c-0.4,0.6-0.6,1.3-0.6,2.1c0.1,0.8,0.5,1.6,1.2,2c0.7,0.4,1.6,0.4,2.3,0.2
				c0.7-0.2,1.3-0.6,1.9-1.2C65.7,44.4,66,43.5,65.8,42.7z"/>
		</g>
		<g>
			<path d="M71.4,35.9c0.2,0.8,0.2,1.8-0.2,2.6c-0.4,0.9-1.3,1.5-2.2,1.6c-1,0.1-1.9-0.2-2.6-0.7c-0.7-0.5-1.3-1.2-1.6-2.1
				c-0.7-1.8,0.7-4.1,2.7-4.4c1-0.2,2,0.1,2.7,0.7C70.8,34.2,71.2,35.1,71.4,35.9z M71.3,35.9c-0.2-0.8-0.8-1.5-1.5-1.8
				c-0.7-0.3-1.5-0.4-2.2-0.2c-0.7,0.2-1.3,0.5-1.8,1.1c-0.4,0.6-0.6,1.3-0.6,2.1c0.1,0.8,0.5,1.6,1.2,2c0.7,0.4,1.6,0.4,2.3,0.2
				c0.7-0.2,1.3-0.6,1.9-1.2C71.1,37.6,71.5,36.8,71.3,35.9z"/>
		</g>
		<g>
			<path d="M76.6,29.2c0.2,0.8,0.2,1.8-0.2,2.6c-0.4,0.9-1.3,1.5-2.2,1.6c-1,0.1-1.9-0.2-2.6-0.7c-0.7-0.5-1.3-1.2-1.6-2.1
				c-0.7-1.8,0.7-4.1,2.7-4.4c1-0.2,2,0.1,2.7,0.7C76.1,27.5,76.4,28.3,76.6,29.2z M76.5,29.2c-0.2-0.8-0.8-1.5-1.5-1.8
				c-0.7-0.3-1.5-0.4-2.2-0.2c-0.7,0.2-1.3,0.5-1.8,1.1c-0.4,0.6-0.6,1.3-0.6,2.1c0.1,0.8,0.5,1.6,1.2,2c0.7,0.4,1.6,0.4,2.3,0.2
				c0.7-0.2,1.3-0.6,1.9-1.2C76.4,30.9,76.7,30,76.5,29.2z"/>
		</g>
		<g>
			<path d="M49.9,62.9c0.2,0.8,0.2,1.8-0.2,2.6c-0.4,0.9-1.3,1.5-2.2,1.6c-1,0.1-1.9-0.2-2.6-0.7c-0.7-0.5-1.3-1.2-1.6-2.1
				c-0.7-1.8,0.7-4.1,2.7-4.4c1-0.2,2,0.1,2.7,0.7C49.3,61.2,49.7,62,49.9,62.9z M49.8,62.9c-0.2-0.8-0.8-1.5-1.5-1.8
				c-0.7-0.3-1.5-0.4-2.2-0.2c-0.7,0.2-1.3,0.5-1.8,1.1c-0.4,0.6-0.6,1.3-0.6,2.1c0.1,0.8,0.5,1.6,1.2,2c0.7,0.4,1.6,0.4,2.3,0.2
				c0.7-0.2,1.3-0.6,1.9-1.2C49.6,64.6,50,63.7,49.8,62.9z"/>
		</g>
		<g>
			<path d="M55.3,56.1c0.2,0.8,0.2,1.8-0.2,2.6c-0.4,0.9-1.3,1.5-2.2,1.6c-1,0.1-1.9-0.2-2.6-0.7c-0.7-0.5-1.3-1.2-1.6-2.1
				c-0.7-1.8,0.7-4.1,2.7-4.4c1-0.2,2,0.1,2.7,0.7C54.8,54.4,55.2,55.3,55.3,56.1z M55.2,56.2c-0.2-0.8-0.8-1.5-1.5-1.8
				c-0.7-0.3-1.5-0.4-2.2-0.2c-0.7,0.2-1.3,0.5-1.8,1.1c-0.4,0.6-0.6,1.3-0.6,2.1c0.1,0.8,0.5,1.6,1.2,2c0.7,0.4,1.6,0.4,2.3,0.2
				c0.7-0.2,1.3-0.6,1.9-1.2C55.1,57.9,55.4,57,55.2,56.2z"/>
		</g>
		<g>
			<path d="M60.6,49.4c0.2,0.8,0.2,1.8-0.2,2.6c-0.4,0.9-1.3,1.5-2.2,1.6c-1,0.1-1.9-0.2-2.6-0.7c-0.7-0.5-1.3-1.2-1.6-2.1
				c-0.7-1.8,0.7-4.1,2.7-4.4c1-0.2,2,0.1,2.7,0.7C60,47.7,60.4,48.6,60.6,49.4z M60.5,49.4c-0.2-0.8-0.8-1.5-1.5-1.8
				c-0.7-0.3-1.5-0.4-2.2-0.2c-0.7,0.2-1.3,0.5-1.8,1.1c-0.4,0.6-0.6,1.3-0.6,2.1c0.1,0.8,0.5,1.6,1.2,2c0.7,0.4,1.6,0.4,2.3,0.2
				c0.7-0.2,1.3-0.6,1.9-1.2C60.3,51.1,60.7,50.2,60.5,49.4z"/>
		</g>
	</g>
	<g id="Keys_1_">
		<g>
			<path d="M37.8,51.3c-1.3,1.7-2.8,3.6-4.4,5.5l-0.3,0.3l-0.3-0.3c-1-0.8-1.9-1.6-2.8-2.5l-0.4-0.3l0.3-0.4
				c1.6-1.7,3.2-3.4,4.8-5.1l0.2-0.2l0.2,0.2C36.1,49.5,37,50.5,37.8,51.3z M37.8,51.3c-1.1-0.8-2.1-1.5-3-2.3l0.4,0
				c-1.5,1.8-3,3.6-4.6,5.3l0-0.7c0.9,0.8,1.8,1.7,2.7,2.6l-0.6,0C34.3,54.6,35.9,53.1,37.8,51.3z"/>
		</g>
		<g>
			<path d="M49.1,39.6c-1.2,1.5-2.6,3.2-4.1,4.8l-0.3,0.3l-0.3-0.3c-0.7-0.6-1.4-1.2-2.1-1.8l-0.3-0.3l0.3-0.4
				c1.2-1.7,2.5-3.4,3.8-5.1l0.2-0.3l0.2,0.2C47.4,37.8,48.3,38.8,49.1,39.6z M49.1,39.6c-1.1-0.8-2.1-1.5-3-2.3l0.5-0.1
				c-1.1,1.8-2.3,3.6-3.5,5.3l-0.1-0.7c0.7,0.6,1.4,1.2,2,1.9l-0.6,0C45.8,42.4,47.3,41.1,49.1,39.6z"/>
		</g>
		<g>
			<path d="M54.4,33.3c-0.9,0.9-2,1.9-3.2,2.9L51,36.5l-0.3-0.2c-0.7-0.6-1.4-1.2-2.1-1.8L48.2,34l0.4-0.4c1.2-1.1,2.5-2.1,3.8-3.1
				l0.3-0.2l0.2,0.3C53.5,31.6,54,32.5,54.4,33.3z M54.4,33.3c-0.7-0.9-1.4-1.6-2-2.3l0.5,0.1c-1.1,1.2-2.3,2.3-3.6,3.3l0-0.7
				c0.7,0.6,1.4,1.2,2,1.9l-0.6,0C51.8,34.8,53,34.1,54.4,33.3z"/>
		</g>
		<g>
			<path d="M59,28.3c-1-1-1.9-1.7-2.6-2.5l0.6,0.1c-0.9,0.7-1.8,1.3-2.7,1.9l0.1-0.7c0.9,1.2,1.7,2.3,2.4,3.6l-0.5,0
				C57.1,29.9,58,29.2,59,28.3z M59,28.3c-0.7,0.8-1.4,1.8-2.3,2.7l-0.2,0.2l-0.3-0.3c-1-1.1-1.9-2.2-2.7-3.4l-0.3-0.4l0.4-0.3
				c0.9-0.6,1.8-1.2,2.8-1.8l0.4-0.2l0.2,0.3C57.8,26.3,58.5,27.4,59,28.3z"/>
		</g>
		<g>
			<path d="M58.8,22.6c1.4-1.4,2.9-2.9,4.6-4.3l0.3-0.3l0.3,0.3c0.6,0.7,1.2,1.4,1.9,2l0.3,0.3L66,21c-1.4,1.6-2.9,3.1-4.4,4.6
				l-0.3,0.3l-0.2-0.3C60.3,24.6,59.5,23.5,58.8,22.6z M58.8,22.6c1,1,1.9,1.8,2.7,2.6l-0.5,0c1.3-1.7,2.7-3.3,4.1-4.9l0,0.7
				c-0.6-0.7-1.2-1.4-1.8-2.1l0.6,0.1C62.5,20.1,60.7,21.3,58.8,22.6z"/>
		</g>
		<g>
			<path d="M37.6,47.9l1.9-3.9l0.1-0.3l0.3,0.2l2.9,2.3l0,0.5c-0.1-0.1-0.1,0-0.1,0l0,0l-0.1,0.1l-0.2,0.2L42,47.4l-0.8,0.7
				c-0.5,0.4-1.1,0.9-1.6,1.4l-0.1,0.1l-0.1-0.1L37.6,47.9z M37.6,47.9c0.7,0.4,1.4,0.8,2,1.2l-0.3,0c0.5-0.5,1-0.9,1.5-1.4l0.8-0.7
				l0.4-0.4l0.2-0.2l0.1-0.1l0,0c0,0,0.1,0,0-0.1l0,0.5l-2.8-2.4l0.4-0.1C39.2,45.4,38.4,46.6,37.6,47.9z"/>
		</g>
	</g>
	<g id="Top_Nut">
		<g>
			<path d="M39.8,77.8c1.3,1.4,2.7,2.7,4,4c1.4,1.3,2.8,2.5,4.2,3.8c1.4,1.2,2.9,2.5,4.3,3.6l2.2,1.8c0.8,0.6,1.5,1.1,2.3,1.7
				l-0.7,0.8L39.2,78.5L39.8,77.8z"/>
		</g>
		<line class="st10" x1="42.4" y1="81.6" x2="52.9" y2="90.6"/>
	</g>
	<rect id="spliter" x="72.7" y="55.6" transform="matrix(-0.2777 0.9607 -0.9607 -0.2777 151.2853 3.551)" width="3.2" height="6"/>
</g>
<g id="piano">
	<path class="st11" d="M107.7,268.7H13.2c-7.9,0-14.3-6.4-14.3-14.3v-94.5c0-7.9,6.4-14.3,14.3-14.3h94.5c7.9,0,14.3,6.4,14.3,14.3
		v94.5C122,262.3,115.6,268.7,107.7,268.7z"/>
	<g>
		<defs>
			<path id="SVGID_10_" d="M109.2,265.6H15.8c-7.9,0-14.3-6.4-14.3-14.3v-93.4c0-7.9,6.4-14.3,14.3-14.3h93.4
				c7.9,0,14.3,6.4,14.3,14.3v93.4C123.5,259.2,117.1,265.6,109.2,265.6z"/>
		</defs>
		<clipPath id="SVGID_11_">
			<use xlink:href="#SVGID_10_"  style="overflow:visible;"/>
		</clipPath>
		<g id="keyboard" class="st12">
			<rect id="Base_2_" x="-38.7" y="138.6" width="167.7" height="127.2"/>
			<g id="Vol">
				<circle class="st13" cx="107.3" cy="158.6" r="10.5"/>
				<circle class="st13" cx="90" cy="169.3" r="4.9"/>
			</g>
			<g id="White_Keys">
				<rect x="102.8" y="202.2" class="st13" width="16.3" height="63.6"/>
				<rect x="84.2" y="202.2" class="st13" width="16.3" height="63.6"/>
				<rect x="65.5" y="202.2" class="st13" width="16.3" height="63.6"/>
				<rect x="46.9" y="202.2" class="st13" width="16.3" height="63.6"/>
				<rect x="28.2" y="202.2" class="st13" width="16.3" height="63.6"/>
				<rect x="9.6" y="202.2" class="st13" width="16.3" height="63.6"/>
				<rect x="-9.1" y="202.2" class="st13" width="16.3" height="63.6"/>
				<rect x="-27.7" y="202.2" class="st13" width="16.3" height="63.6"/>
			</g>
			<rect id="power" x="121.3" y="145.2" class="st14" width="7.7" height="2.9"/>
			<g id="Black_keys">
				<rect x="-15.7" y="202.2" width="10.5" height="42.7"/>
				<rect x="3" y="202.2" width="10.5" height="42.7"/>
				<rect x="77.8" y="202.2" width="10.5" height="42.7"/>
				<rect x="59.1" y="202.2" width="10.5" height="42.7"/>
				<rect x="40.5" y="202.2" width="10.5" height="42.7"/>
			</g>
		</g>
	</g>
</g>
</svg>
