<?xml version="1.0" encoding="utf-8"?>
<!-- Generator: Adobe Illustrator 23.0.2, SVG Export Plug-In . SVG Version: 6.00 Build 0)  -->
<svg version="1.1" xmlns="http://www.w3.org/2000/svg" xmlns:xlink="http://www.w3.org/1999/xlink" x="0px" y="0px"
	 viewBox="0 0 127 124.7" style="enable-background:new 0 0 127 124.7;" xml:space="preserve">
<style type="text/css">
	.st0{display:none;}
	.st1{display:inline;fill:#D81F27;}
	.st2{display:inline;fill:#FDFEFE;}
	.st3{display:inline;fill:#C49A6C;stroke:#000000;stroke-width:0.75;stroke-miterlimit:10;}
	.st4{display:inline;fill:none;stroke:#000000;stroke-width:0.75;stroke-miterlimit:10;}
	.st5{display:inline;}
	.st6{fill:none;stroke:#000000;stroke-miterlimit:10;}
	.st7{fill:url(#SVGID_1_);stroke:#000000;stroke-miterlimit:10;}
	.st8{fill:url(#SVGID_2_);stroke:#000000;stroke-miterlimit:10;}
	.st9{fill:url(#SVGID_3_);stroke:#000000;stroke-miterlimit:10;}
	.st10{fill:url(#SVGID_4_);stroke:#000000;stroke-miterlimit:10;}
	.st11{fill:#FFFFFF;stroke:#000000;stroke-miterlimit:10;}
	.st12{fill:#F4EB20;}
	.st13{fill:#FFFFFF;}
	.st14{fill:#2F67B2;}
	.st15{fill:#C49A6C;stroke:#000000;stroke-width:0.75;stroke-miterlimit:10;}
	.st16{fill:none;stroke:#000000;stroke-width:0.75;stroke-miterlimit:10;}
	.st17{fill:#545556;}
	.st18{fill:#DBC647;stroke:#000000;stroke-width:0.9774;stroke-miterlimit:10;}
	.st19{display:inline;fill:#DBC647;stroke:#000000;stroke-width:0.9774;stroke-miterlimit:10;}
	.st20{fill:#DBC647;}
	.st21{fill:#9D9033;}
	.st22{fill:#DBC647;stroke:#000000;stroke-width:0.25;stroke-miterlimit:10;}
	.st23{fill:none;stroke:#000000;stroke-width:0.75;stroke-linecap:round;stroke-miterlimit:10;}
	.st24{fill:none;stroke:#000000;stroke-width:2;stroke-miterlimit:10;}
	.st25{stroke:#000000;stroke-width:2;stroke-miterlimit:10;}
	.st26{fill:none;stroke:#FFFFFF;stroke-linecap:round;stroke-miterlimit:10;}
	.st27{fill:none;stroke:#FFFFFF;stroke-linecap:round;stroke-linejoin:round;stroke-miterlimit:10;}
	.st28{fill:none;stroke:#000000;stroke-width:0.5;stroke-linecap:round;stroke-miterlimit:10;}
	.st29{fill:#45464D;}
	.st30{fill:none;stroke:#ED2024;stroke-width:0.5;stroke-linecap:round;stroke-miterlimit:10;}
	.st31{fill:#ED2024;}
	.st32{display:inline;fill:#FFFFFF;stroke:#000000;stroke-miterlimit:10;}
</style>
<g id="Body" class="st0">
</g>
<g id="guitar" class="st0">
	<path id="Body_1_" class="st1" d="M61.8,62.1c0,0-3.8-10.6,3.9-18.2s3.5-11.3-5.6-5.8c-8.2,5.1-10.7,7.4-12.9,12.6
		c-0.4,1-0.7,2.1-1,3.2c-1.7,7.4-7.1,13.2-13,15.8c-6.3,2.8-13.5,3.9-20.9,12.6s-7.7,14-6.3,22.4s6.9,14.5,17.1,17.1
		c7.5,1.9,15.6-0.2,21.8-6.1c2.5-2.4,6.5-7,9.4-13.6c1.9-4.3,4.6-8.2,8.2-11.3c3.3-2.8,7.5-5.6,12-6.9c9.9-2.7,15.1-13,15.1-16.3
		c0-3.3-2.1-4.9-5.9-3.1C80,66.3,68.9,77.9,61.8,62.1z"/>
	<path class="st2" d="M68.5,74.7c1-0.3,2.2-0.2,3.1,0.3c1.2,0.7,2,2.1-0.3,4.9c-4.2,5-10.8,3.8-16.6,10.6c-5.8,6.8-3,9-13.4,11.8
		c-10.4,2.8-23.4-16.2-12.4-22.6c11-6.4,10.5-3.7,16.8-11c5.2-6,8.4-1.8,8.4-1.8l7.8,8C61.9,75,64.5,76,68.5,74.7z"/>
	<path id="Neck" class="st3" d="M132.6,12.2c1.9-4.1-1.2-4.5,9-16.1l-7.4-0.5c0,0-14.8,5-14.3,13.5L56.5,66.8l5.6,6.2l63.4-57.6
		C125.5,15.4,130.7,16.3,132.6,12.2z"/>
	<path id="Line_Art" class="st4" d="M62.7,90.8c3.3-2.8,7.5-5.6,12-6.9c9.9-2.7,15.1-13,15.1-16.3c0-3.3-2.1-4.9-5.9-3.1
		c-3,1.4-10.6,8.9-17.1,4.2l58.7-53.4c0,0,5.2,0.9,7.1-3.2c1.9-4.1-1.2-4.5,9-16.1l-7.4-0.5c0,0-14.8,5-14.3,13.5l-58,52.8
		c-0.4-1.2-3.3-10.9,3.9-18.1c7.7-7.7,3.5-11.3-5.6-5.8c-8.2,5.1-10.7,7.4-12.9,12.6c-0.4,1-0.7,2.1-1,3.2
		c-1.7,7.4-7.1,13.2-13,15.8c-6.3,2.8-13.5,3.9-20.9,12.6c-7.3,8.7-7.7,14-6.3,22.4c1.4,8.4,6.9,14.5,17.1,17.1
		c7.5,1.9,15.6-0.2,21.8-6.1c2.5-2.4,6.5-7,9.4-13.6C56.4,97.7,59.1,93.8,62.7,90.8z"/>
	<g id="Gizmos" class="st5">
		<line class="st6" x1="49.4" y1="73" x2="56" y2="80.6"/>
		<line class="st6" x1="47" y1="75.4" x2="49.7" y2="83"/>
		<line class="st6" x1="35.6" y1="86.7" x2="40.9" y2="92.8"/>
		<g id="Vol">
			<circle cx="30.1" cy="108.9" r="1.5"/>
			<circle cx="26.9" cy="116.2" r="1.5"/>
			<circle cx="37.6" cy="107.5" r="1.5"/>
			<circle cx="34.4" cy="114.8" r="1.5"/>
		</g>
	</g>
</g>
<g id="Drum" class="st0">
	<g class="st5">
		
			<linearGradient id="SVGID_1_" gradientUnits="userSpaceOnUse" x1="-33.1752" y1="123.2609" x2="9.0717" y2="123.2609" gradientTransform="matrix(0.9933 0.1155 -0.1155 0.9933 15.5013 1.7594)">
			<stop  offset="9.856234e-02" style="stop-color:#000000"/>
			<stop  offset="0.1586" style="stop-color:#020202"/>
			<stop  offset="0.1911" style="stop-color:#0A0A0A"/>
			<stop  offset="0.217" style="stop-color:#181818"/>
			<stop  offset="0.2395" style="stop-color:#2B2B2B"/>
			<stop  offset="0.2597" style="stop-color:#444444"/>
			<stop  offset="0.2782" style="stop-color:#636363"/>
			<stop  offset="0.2956" style="stop-color:#888888"/>
			<stop  offset="0.312" style="stop-color:#B3B3B3"/>
			<stop  offset="0.327" style="stop-color:#E2E2E2"/>
			<stop  offset="0.3353" style="stop-color:#FFFFFF"/>
			<stop  offset="0.339" style="stop-color:#F6F6F6"/>
			<stop  offset="0.3595" style="stop-color:#C8C8C8"/>
			<stop  offset="0.3825" style="stop-color:#9D9D9D"/>
			<stop  offset="0.4072" style="stop-color:#777777"/>
			<stop  offset="0.4341" style="stop-color:#575757"/>
			<stop  offset="0.4639" style="stop-color:#3B3B3B"/>
			<stop  offset="0.4975" style="stop-color:#252525"/>
			<stop  offset="0.5367" style="stop-color:#141414"/>
			<stop  offset="0.5852" style="stop-color:#090909"/>
			<stop  offset="0.6532" style="stop-color:#020202"/>
			<stop  offset="0.8421" style="stop-color:#000000"/>
		</linearGradient>
		<path class="st7" d="M5.4,146l-37.1-4.3c-1.3-0.2-2.3-1.4-2.1-2.7l4.3-37.2c0.2-1.3,1.4-2.3,2.7-2.1l37.1,4.3
			c1.3,0.2,2.3,1.4,2.1,2.7l-4.3,37.2C8,145.2,6.7,146.1,5.4,146z"/>
		<linearGradient id="SVGID_2_" gradientUnits="userSpaceOnUse" x1="-33.0087" y1="145.8154" x2="-31.0752" y2="146.0403">
			<stop  offset="9.856234e-02" style="stop-color:#000000"/>
			<stop  offset="0.1586" style="stop-color:#020202"/>
			<stop  offset="0.1911" style="stop-color:#0A0A0A"/>
			<stop  offset="0.217" style="stop-color:#181818"/>
			<stop  offset="0.2395" style="stop-color:#2B2B2B"/>
			<stop  offset="0.2597" style="stop-color:#444444"/>
			<stop  offset="0.2782" style="stop-color:#636363"/>
			<stop  offset="0.2956" style="stop-color:#888888"/>
			<stop  offset="0.312" style="stop-color:#B3B3B3"/>
			<stop  offset="0.327" style="stop-color:#E2E2E2"/>
			<stop  offset="0.3353" style="stop-color:#FFFFFF"/>
			<stop  offset="0.339" style="stop-color:#F6F6F6"/>
			<stop  offset="0.3595" style="stop-color:#C8C8C8"/>
			<stop  offset="0.3825" style="stop-color:#9D9D9D"/>
			<stop  offset="0.4072" style="stop-color:#777777"/>
			<stop  offset="0.4341" style="stop-color:#575757"/>
			<stop  offset="0.4639" style="stop-color:#3B3B3B"/>
			<stop  offset="0.4975" style="stop-color:#252525"/>
			<stop  offset="0.5367" style="stop-color:#141414"/>
			<stop  offset="0.5852" style="stop-color:#090909"/>
			<stop  offset="0.6532" style="stop-color:#020202"/>
			<stop  offset="0.8421" style="stop-color:#000000"/>
		</linearGradient>
		<line class="st8" x1="-33.5" y1="150.1" x2="-30.6" y2="141.8"/>
		<linearGradient id="SVGID_3_" gradientUnits="userSpaceOnUse" x1="4.0462" y1="147.7967" x2="5.3959" y2="147.9537">
			<stop  offset="9.856234e-02" style="stop-color:#000000"/>
			<stop  offset="0.1586" style="stop-color:#020202"/>
			<stop  offset="0.1911" style="stop-color:#0A0A0A"/>
			<stop  offset="0.217" style="stop-color:#181818"/>
			<stop  offset="0.2395" style="stop-color:#2B2B2B"/>
			<stop  offset="0.2597" style="stop-color:#444444"/>
			<stop  offset="0.2782" style="stop-color:#636363"/>
			<stop  offset="0.2956" style="stop-color:#888888"/>
			<stop  offset="0.312" style="stop-color:#B3B3B3"/>
			<stop  offset="0.327" style="stop-color:#E2E2E2"/>
			<stop  offset="0.3353" style="stop-color:#FFFFFF"/>
			<stop  offset="0.339" style="stop-color:#F6F6F6"/>
			<stop  offset="0.3595" style="stop-color:#C8C8C8"/>
			<stop  offset="0.3825" style="stop-color:#9D9D9D"/>
			<stop  offset="0.4072" style="stop-color:#777777"/>
			<stop  offset="0.4341" style="stop-color:#575757"/>
			<stop  offset="0.4639" style="stop-color:#3B3B3B"/>
			<stop  offset="0.4975" style="stop-color:#252525"/>
			<stop  offset="0.5367" style="stop-color:#141414"/>
			<stop  offset="0.5852" style="stop-color:#090909"/>
			<stop  offset="0.6532" style="stop-color:#020202"/>
			<stop  offset="0.8421" style="stop-color:#000000"/>
		</linearGradient>
		<line class="st9" x1="4.3" y1="145.8" x2="5.2" y2="149.9"/>
	</g>
	<g id="Snare" class="st5">
		<linearGradient id="SVGID_4_" gradientUnits="userSpaceOnUse" x1="102.802" y1="100.1504" x2="133.994" y2="100.1504">
			<stop  offset="9.856234e-02" style="stop-color:#000000"/>
			<stop  offset="0.1586" style="stop-color:#020202"/>
			<stop  offset="0.1911" style="stop-color:#0A0A0A"/>
			<stop  offset="0.217" style="stop-color:#181818"/>
			<stop  offset="0.2395" style="stop-color:#2B2B2B"/>
			<stop  offset="0.2597" style="stop-color:#444444"/>
			<stop  offset="0.2782" style="stop-color:#636363"/>
			<stop  offset="0.2956" style="stop-color:#888888"/>
			<stop  offset="0.312" style="stop-color:#B3B3B3"/>
			<stop  offset="0.327" style="stop-color:#E2E2E2"/>
			<stop  offset="0.3353" style="stop-color:#FFFFFF"/>
			<stop  offset="0.339" style="stop-color:#F6F6F6"/>
			<stop  offset="0.3595" style="stop-color:#C8C8C8"/>
			<stop  offset="0.3825" style="stop-color:#9D9D9D"/>
			<stop  offset="0.4072" style="stop-color:#777777"/>
			<stop  offset="0.4341" style="stop-color:#575757"/>
			<stop  offset="0.4639" style="stop-color:#3B3B3B"/>
			<stop  offset="0.4975" style="stop-color:#252525"/>
			<stop  offset="0.5367" style="stop-color:#141414"/>
			<stop  offset="0.5852" style="stop-color:#090909"/>
			<stop  offset="0.6532" style="stop-color:#020202"/>
			<stop  offset="0.8421" style="stop-color:#000000"/>
		</linearGradient>
		<path class="st10" d="M134,105.4V94.9c0-2.1-7-3.8-15.6-3.8s-15.6,1.7-15.6,3.8v10.4c0,2.1,7,3.8,15.6,3.8S134,107.4,134,105.4z"
			/>
		<ellipse class="st11" cx="118.4" cy="94.9" rx="15.6" ry="3.8"/>
		<polyline class="st6" points="118.8,109 118.8,138.7 131.2,150 		"/>
		<polyline class="st6" points="118.6,149.8 118.8,138.5 106.4,149.8 		"/>
	</g>
	<g id="HighHat" class="st5">
		<polyline class="st6" points="9.3,66.7 9.3,126.7 -0.9,150.1 		"/>
		<g id="highHatBottom">
			<path id="highHat" class="st12" d="M-9,77.2h37.6C28.5,77.2,11,88.4-9,77.2z"/>
			<ellipse id="Dimple" class="st12" cx="9.3" cy="81.8" rx="5.4" ry="2.1"/>
		</g>
		<g id="highHatTop">
			<path id="highHat_3_" class="st12" d="M-9,76.2h37.6C28.5,76.2,11,65-9,76.2z"/>
			<ellipse id="Dimple_1_" class="st12" cx="9.3" cy="71.6" rx="5.4" ry="2.1"/>
		</g>
		<line class="st6" x1="17.3" y1="149.6" x2="9.3" y2="126.7"/>
	</g>
	<g id="topRim_1_" class="st5">
		<polyline class="st6" points="8.1,150.2 -2.3,128.2 -13.2,150.2 		"/>
		<line class="st6" x1="-2.4" y1="128.5" x2="-2.4" y2="73.7"/>
		<circle class="st6" cx="-2.3" cy="70.7" r="3"/>
		<polyline class="st6" points="-22.5,74.5 34.6,54.4 34.6,43.7 		"/>
		<g id="topRim">
			<path id="highHat_1_" class="st12" d="M16.4,52.1h37.6C53.9,52.1,36.4,41,16.4,52.1z"/>
			<ellipse id="Dimple_2_" class="st12" cx="34.7" cy="47.6" rx="5.4" ry="2.1"/>
		</g>
	</g>
	<g id="topRim_2_" class="st5">
		<polyline class="st6" points="127.3,150.2 137.8,128.2 148.6,150.2 		"/>
		<line class="st6" x1="137.8" y1="128.5" x2="137.8" y2="73.7"/>
		<circle class="st6" cx="137.7" cy="70.7" r="3"/>
		<polyline class="st6" points="158,74.5 100.8,54.4 100.8,43.7 		"/>
		<g id="topRim_3_">
			<path id="highHat_2_" class="st12" d="M119.1,52.1H81.5C81.5,52.1,99,41,119.1,52.1z"/>
			<ellipse id="Dimple_3_" class="st12" cx="100.8" cy="47.6" rx="5.4" ry="2.1"/>
		</g>
	</g>
	<g id="BaseDrum" class="st5">
		<circle id="mainDrumOuter" cx="58.3" cy="106.6" r="43.4"/>
		<circle id="mainDrumBrand" class="st13" cx="58.3" cy="106.6" r="36.9"/>
		<circle id="mainDrumInner" cx="58.3" cy="106.6" r="31.4"/>
		
			<image style="overflow:visible;" width="391" height="489" id="Sticker" xlink:href="logo_MFG.png"  transform="matrix(6.463948e-02 -3.466629e-04 3.466629e-04 6.463948e-02 44.7495 91.7056)">
		</image>
		<line id="left_leg" class="st6" x1="14.3" y1="150" x2="27.8" y2="136.6"/>
		<line id="right_lag" class="st6" x1="102.5" y1="150" x2="89" y2="136.6"/>
	</g>
</g>
<g id="Base">
	<path id="body" class="st14" d="M63.6,96c3.8-1.3,7.3-3.5,10.3-6.5c4.8-4.8,7.5-11,7.9-17.3c0.1-1.6-1.8-2.6-3-1.5
		c-1.6,1.5-3.7,2.8-6.2,3.7c-6.3,2.2-13.4,1.1-18.4-3.3c-7.1-6.3-8.1-16.7-2.9-24.1c0.3,1,0.9,2,1.9,2.7c1.5,1,3.6,0.9,5-0.2
		c2.2-1.7,2.4-4.8,0.5-6.7c-1.2-1.2-3.1-1.6-5.1-1.5c-1.3,0-2.5,0.2-3.8,0.6c-5.9,1.7-10.3,4-14.9,8.6c-2.6,2.6-4.5,5.5-5.8,8.6
		c-2.5,5.9-7.4,10.2-13.2,12.9C12.3,73.9,8.9,76.5,6,80c-8.4,10.3-8,25.6,0.9,35.5c10.6,11.9,28.8,12.2,39.9,1.2
		c3-3,5.2-6.6,6.5-10.3C55,101.4,58.8,97.7,63.6,96z"/>
	<g>
		<path class="st13" d="M12.7,79.1c-8.7,8.7-8.5,23.3-0.2,32.4c9.2,10.1,25,10.4,34.6,0.8c2.6-2.6,4.5-5.7,5.6-8.9
			c1.5-4.3,5-7.5,9.2-9.1c2.3-0.8,4.6-2.1,6.6-3.7c0.7-0.6,0.8-1.7,0.2-2.4L47,66.6l-5.5,5.5l10.7,10.7l-5,5L36.4,77.2l-4.6,4.6
			c0,0-0.1,0-0.1,0l-9.2-9.2"/>
	</g>
	<path id="Neckcolour" class="st15" d="M126,7.7c0,0-3-0.5-5-2c-0.2-0.1-0.1-0.4,0.1-0.4c0.5-0.1,1.1-0.4,1.5-0.8
		c0.9-0.9,0.9-2.3,0.1-3.3c-0.9-1.1-2.6-1.2-3.6-0.2c-0.1,0.1-0.2,0.2-0.3,0.3l-2.5,2.5c-5.9,5.9-11.3,6.2-11.3,6.2l-1.8,7.3
		l-55.2,53l5.2,5.4l55.2-53l5.7-0.5C117.3,14.1,126,7.7,126,7.7z"/>
	<path id="Line_art" class="st16" d="M64,95.6c3.8-1.3,7.3-3.5,10.3-6.5c4.8-4.8,7.5-11,7.9-17.3c0.1-1.6-1.8-2.6-3-1.5
		c-1.6,1.5-3.7,2.8-6.2,3.7c-5.4,1.9-11.5,1.4-16.3-1.7l51.7-49.6l5.7-0.5c3-8.3,11.7-14.6,11.7-14.6s-3-0.5-5-2
		c-0.2-0.1-0.1-0.4,0.1-0.4c0.5-0.1,1.1-0.4,1.5-0.8c0.9-0.9,0.9-2.3,0.1-3.3c-0.9-1.1-2.6-1.2-3.6-0.2c-0.1,0.1-0.2,0.2-0.3,0.3
		l-2.5,2.5c-5.9,5.9-11.3,6.2-11.3,6.2l-1.8,7.3L51.5,67.2c-4.1-6.2-4-14.3,0.3-20.4c0.3,1,0.9,2,1.9,2.7c1.5,1,3.6,0.9,5-0.2
		c2.2-1.7,2.4-4.8,0.5-6.7c-1.2-1.2-3.1-1.6-5.1-1.5c-1.3,0-2.5,0.2-3.8,0.6c-5.9,1.7-10.3,4-14.9,8.6c-2.6,2.6-4.5,5.5-5.8,8.6
		c-2.5,5.9-7.4,10.2-13.2,12.9c-3.8,1.7-7.2,4.3-10.1,7.8c-8.4,10.3-8,25.6,0.9,35.5c10.6,11.9,28.8,12.2,39.9,1.2
		c3-3,5.2-6.6,6.5-10.3C55.4,101,59.2,97.3,64,95.6z"/>
	<g id="gizmos">
		<path class="st17" d="M21.8,106.1l-4-4c-0.1-0.1-0.1-0.2,0-0.3l1.3-1.3c0.1-0.1,0.2-0.1,0.3,0l4,4c0.1,0.1,0.1,0.2,0,0.3l-1.3,1.3
			C21.9,106.2,21.8,106.2,21.8,106.1z"/>
		<path class="st17" d="M23.1,100.8L20.3,98c0,0,0.4,1.1-0.2,1.6l2.1,2.1l0,0l2.1,2.1c0.5-0.5,1.6-0.2,1.6-0.2L23.1,100.8z"/>
		<path class="st17" d="M49.2,78.1l-3.4-3.4c-0.2-0.2-0.2-0.4-0.1-0.6l0.9-1.7l4.8,4.8l-1.6,0.9C49.6,78.3,49.4,78.2,49.2,78.1z"/>
		<g id="Vol_1_">
			<circle cx="37.4" cy="111.4" r="1.2"/>
			<circle cx="33.8" cy="111.4" r="1.2"/>
			<circle cx="33.8" cy="107.8" r="1.2"/>
			<circle cx="37.4" cy="107.8" r="1.2"/>
		</g>
	</g>
</g>
<g id="Trumpet" class="st0">
	<g id="mouthpce" class="st5">
		<rect id="mouthTube" x="83" y="56.7" class="st18" width="16.6" height="6"/>
		<ellipse id="mouthPiece" class="st18" cx="107.2" cy="59.9" rx="3.8" ry="6.3"/>
		<ellipse id="baseMouth" class="st18" cx="102.5" cy="59.7" rx="4.2" ry="4.7"/>
	</g>
	<path id="body_1_" class="st19" d="M85.1,56.6H47.8c-17.2,0-23.8-11-23.8-11l0.7,24.1c3.4-7.7,23.1-6.9,23.1-6.9h35.1
		c1.3,0,2.3,1,2.3,2.3v8.6c0,1.4-1.1,2.5-2.5,2.5H57.8c-1.4,0-2.5-1.1-2.5-2.5v-11h-6.7v13.5c0,3.4,2.7,6.1,6.1,6.1h0.6h29.8v0h0.4
		c3.6,0,6.6-2.9,6.6-6.6v-14c0-2.9-2.3-5.2-5.2-5.2H85.1z"/>
	<g id="horn" class="st5">
		<g id="outerRim">
			<ellipse class="st20" cx="15.1" cy="58.4" rx="10.8" ry="23.7"/>
			<path d="M26.4,58.4c0,2.4-0.2,4.7-0.5,7.1c-0.4,2.3-0.9,4.6-1.6,6.9c-0.8,2.2-1.7,4.4-3.2,6.4l-0.5,0.7l-0.6,0.7
				c-0.4,0.5-0.9,0.8-1.4,1.2c-1,0.7-2.2,1.1-3.5,1.2c-1.3,0-2.5-0.5-3.5-1.2c-0.5-0.4-1-0.7-1.4-1.2l-0.6-0.7l-0.5-0.7
				c-1.4-1.9-2.4-4.1-3.1-6.4c-0.7-2.2-1.2-4.6-1.6-6.9c-0.3-2.3-0.4-4.7-0.5-7c0-2.3,0.1-4.7,0.5-7c0.3-2.3,0.8-4.6,1.6-6.9
				c0.7-2.2,1.7-4.4,3.1-6.4l0.5-0.7l0.6-0.7c0.4-0.5,0.9-0.8,1.4-1.2c1-0.7,2.2-1.1,3.5-1.2c1.3,0,2.5,0.5,3.5,1.2
				c0.5,0.4,1,0.7,1.4,1.2l0.6,0.7l0.5,0.7c1.4,1.9,2.4,4.1,3.2,6.4c0.7,2.2,1.3,4.6,1.6,6.9C26.2,53.7,26.4,56.1,26.4,58.4z
				 M25.4,58.4c0-2.3-0.1-4.6-0.4-6.9c-0.3-2.3-0.8-4.6-1.5-6.7c-0.7-2.2-1.6-4.3-3-6.2L20,37.9l-0.6-0.6c-0.4-0.4-0.8-0.7-1.3-1.1
				c-0.9-0.6-2-1-3.1-1.1c-1.1,0-2.1,0.4-3.1,1c-0.4,0.4-0.9,0.7-1.3,1.1l-0.6,0.6l-0.5,0.7c-1.4,1.8-2.3,4-3.1,6.2
				c-0.7,2.2-1.2,4.5-1.6,6.8c-0.3,2.3-0.5,4.6-0.5,6.9c0,2.3,0.2,4.6,0.5,6.9c0.4,2.3,0.9,4.6,1.6,6.8c0.7,2.2,1.7,4.3,3.1,6.2
				l0.5,0.7l0.6,0.6c0.4,0.4,0.8,0.7,1.3,1.1c0.9,0.6,2,1,3.1,1c1.1,0,2.1-0.4,3.1-1.1c0.4-0.4,0.9-0.7,1.3-1.1l0.6-0.6l0.5-0.7
				c1.3-1.8,2.3-4,3-6.2c0.7-2.2,1.2-4.5,1.5-6.7C25.3,63.1,25.4,60.7,25.4,58.4z"/>
		</g>
		<g id="innderRim">
			<ellipse class="st21" cx="18.2" cy="59.5" rx="4.5" ry="13.5"/>
			<path d="M22.8,59.5c0,2.5-0.2,5-0.7,7.5c-0.3,1.2-0.6,2.4-1.2,3.6c-0.3,0.6-0.6,1.1-1,1.6c-0.4,0.5-1,0.9-1.7,0.9
				c-0.7,0-1.3-0.4-1.7-0.9c-0.4-0.5-0.8-1-1-1.6c-0.5-1.1-0.9-2.4-1.2-3.6c-0.6-2.5-0.8-5-0.8-7.5c0-2.5,0.3-5,0.8-7.5
				c0.3-1.2,0.7-2.4,1.2-3.6c0.3-0.6,0.6-1.1,1-1.6c0.4-0.5,1-0.9,1.7-0.9c0.7,0,1.3,0.4,1.7,0.9c0.4,0.5,0.7,1,1,1.6
				c0.5,1.1,0.9,2.4,1.2,3.6C22.6,54.5,22.8,57,22.8,59.5z M22.8,59.5c0-2.5-0.3-5-0.8-7.5c-0.3-1.2-0.7-2.4-1.2-3.5
				c-0.3-0.6-0.6-1.1-1-1.6c-0.4-0.5-0.9-0.8-1.5-0.8c-0.6,0-1.1,0.4-1.5,0.9c-0.4,0.5-0.7,1-1,1.6c-0.5,1.1-0.9,2.3-1.1,3.5
				c-0.5,2.4-0.7,4.9-0.7,7.4c0,2.5,0.2,5,0.7,7.4c0.3,1.2,0.6,2.4,1.1,3.5c0.3,0.6,0.6,1.1,1,1.6c0.4,0.5,0.9,0.9,1.5,0.9
				c0.6,0,1.1-0.4,1.5-0.8c0.4-0.5,0.7-1,1-1.6c0.5-1.1,0.9-2.3,1.2-3.5C22.5,64.5,22.8,62,22.8,59.5z"/>
		</g>
		<g id="hole">
			<ellipse cx="20.9" cy="59.5" rx="1.9" ry="6.8"/>
			<path d="M22.8,59.5c0,1.2-0.1,2.5-0.3,3.7c-0.1,0.6-0.2,1.2-0.4,1.8c-0.1,0.3-0.2,0.6-0.4,0.8c-0.2,0.3-0.4,0.5-0.8,0.6
				c-0.4,0-0.6-0.3-0.8-0.5c-0.2-0.3-0.3-0.5-0.4-0.8c-0.2-0.6-0.4-1.2-0.5-1.8c-0.2-1.2-0.3-2.5-0.3-3.7c0-1.2,0.1-2.5,0.3-3.7
				c0.1-0.6,0.3-1.2,0.5-1.8c0.1-0.3,0.3-0.6,0.4-0.8c0.2-0.3,0.4-0.5,0.8-0.5c0.4,0,0.6,0.3,0.8,0.6c0.2,0.3,0.3,0.6,0.4,0.8
				c0.2,0.6,0.3,1.2,0.4,1.8C22.7,57.1,22.8,58.3,22.8,59.5z M22.8,59.5c0-1.2-0.1-2.5-0.3-3.7c-0.1-0.6-0.3-1.2-0.5-1.8
				c-0.1-0.3-0.2-0.6-0.4-0.8c-0.2-0.2-0.4-0.5-0.7-0.5c-0.3,0-0.5,0.2-0.6,0.5c-0.2,0.3-0.3,0.5-0.4,0.8c-0.2,0.6-0.3,1.2-0.4,1.8
				c-0.2,1.2-0.3,2.4-0.3,3.6c0,1.2,0.1,2.4,0.3,3.6c0.1,0.6,0.2,1.2,0.4,1.8c0.1,0.3,0.2,0.6,0.4,0.8c0.2,0.2,0.4,0.5,0.6,0.5
				c0.3,0,0.5-0.2,0.7-0.5c0.2-0.2,0.3-0.5,0.4-0.8c0.2-0.6,0.4-1.2,0.5-1.8C22.7,62,22.8,60.7,22.8,59.5z"/>
		</g>
	</g>
	<g id="Valvegrp" class="st5">
		<g id="Valveleft">
			<g id="bodyValve">
				<path class="st22" d="M63.9,55.6c-1.8,0-3.2,0.6-3.2,1.4v19.2c0,0.8,1.4,1.5,3.2,1.5c1.8,0,3.2-0.6,3.2-1.5V57
					C67.1,56.2,65.6,55.6,63.9,55.6z"/>
				<ellipse class="st22" cx="63.9" cy="57" rx="3.2" ry="1.5"/>
			</g>
			<line id="linkValve" class="st23" x1="63.9" y1="57" x2="63.9" y2="54"/>
			<g id="topValve">
				<path class="st22" d="M63.9,50.6c-1.8,0-3.2,0.6-3.2,1.4v1.8c0,0.8,1.4,1.4,3.2,1.4s3.2-0.6,3.2-1.4v-1.8
					C67.1,51.3,65.6,50.6,63.9,50.6z"/>
				<ellipse class="st22" cx="63.9" cy="52.1" rx="3.2" ry="1.5"/>
			</g>
		</g>
		<g id="Valvemiddle">
			<g id="bodyValve_1_">
				<path class="st22" d="M70.3,55.6c-1.8,0-3.2,0.6-3.2,1.4v19.2c0,0.8,1.4,1.5,3.2,1.5s3.2-0.6,3.2-1.5V57
					C73.5,56.2,72,55.6,70.3,55.6z"/>
				<ellipse class="st22" cx="70.3" cy="57" rx="3.2" ry="1.5"/>
			</g>
			<line id="linkValve_1_" class="st23" x1="70.3" y1="57" x2="70.3" y2="54"/>
			<g id="topValve_1_">
				<path class="st22" d="M70.3,50.6c-1.8,0-3.2,0.6-3.2,1.4v1.8c0,0.8,1.4,1.4,3.2,1.4s3.2-0.6,3.2-1.4v-1.8
					C73.5,51.3,72,50.6,70.3,50.6z"/>
				<ellipse class="st22" cx="70.3" cy="52.1" rx="3.2" ry="1.5"/>
			</g>
		</g>
		<g id="Valveright">
			<g id="bodyValve_2_">
				<path class="st22" d="M76.8,55.6c-1.8,0-3.2,0.6-3.2,1.4v19.2c0,0.8,1.4,1.5,3.2,1.5S80,77,80,76.2V57
					C80,56.2,78.5,55.6,76.8,55.6z"/>
				<ellipse class="st22" cx="76.8" cy="57" rx="3.2" ry="1.5"/>
			</g>
			<line id="linkValve_2_" class="st23" x1="76.8" y1="57" x2="76.8" y2="54"/>
			<g id="topValve_2_">
				<path class="st22" d="M76.8,50.6c-1.8,0-3.2,0.6-3.2,1.4v1.8c0,0.8,1.4,1.4,3.2,1.4s3.2-0.6,3.2-1.4v-1.8
					C80,51.3,78.5,50.6,76.8,50.6z"/>
				<ellipse class="st22" cx="76.8" cy="52.1" rx="3.2" ry="1.5"/>
			</g>
		</g>
	</g>
</g>
<g id="piano" class="st0">
	<g id="lags" class="st5">
		<rect id="frontLags" x="-3.5" y="71.8" class="st24" width="145.8" height="77.8"/>
		<rect id="bckLags" x="-22.8" y="52.4" class="st24" width="145.8" height="77.8"/>
	</g>
	<g id="Body_2_" class="st5">
		<path id="body_2_" class="st25" d="M142.6,65.2l-19.3-19.3l-146.1,0.3v6.2l19.3,19.3c0,0,146.4-0.6,146.1-0.3
			C142.6,71.4,142.6,65.2,142.6,65.2z"/>
		<line id="outlineWhiteDown" class="st26" x1="-3.5" y1="71.8" x2="-3.5" y2="65.2"/>
		<polyline id="outlineWhite" class="st27" points="142.6,65.2 -3.7,65.2 -22.8,46.2 		"/>
	</g>
	<g id="keys" class="st5">
		<polygon id="keysBk" class="st13" points="7.3,65.5 7.3,69.6 133.1,69.6 133.1,65.3 119.5,51.8 -6.4,51.8 		"/>
		<g id="keyOutLines">
			<g id="keyOutLine1">
				<polyline class="st28" points="12.3,68.6 12.3,64.8 0.7,53.2 				"/>
				<g>
					<path d="M12.3,65l-3.4-0.1c-0.1,0-0.1-0.1-0.1-0.1c0-0.1,0-0.1,0.1-0.1l3.4-0.1c0.1,0,0.3,0.1,0.3,0.2
						C12.5,64.9,12.4,65,12.3,65C12.3,65,12.3,65,12.3,65z"/>
				</g>
			</g>
			<g id="keyOutLine1_1_">
				<polyline class="st28" points="17.8,68.6 17.8,64.8 6.2,53.2 				"/>
				<g>
					<path d="M17.8,65l-3.4-0.1c-0.1,0-0.1-0.1-0.1-0.1c0-0.1,0-0.1,0.1-0.1l3.4-0.1c0.1,0,0.3,0.1,0.3,0.2C18,64.9,17.9,65,17.8,65
						C17.8,65,17.8,65,17.8,65z"/>
				</g>
			</g>
			<g id="keyOutLine1_2_">
				<polyline class="st28" points="10.9,53.2 22.5,64.8 22.5,68.6 				"/>
				<g>
					<path d="M22.5,65l-3.4-0.1c-0.1,0-0.1-0.1-0.1-0.1c0-0.1,0-0.1,0.1-0.1l3.4-0.1c0.1,0,0.3,0.1,0.3,0.2
						C22.8,64.9,22.7,65,22.5,65C22.6,65,22.6,65,22.5,65z"/>
				</g>
			</g>
			<g id="keyOutLine1_3_">
				<polyline class="st28" points="15.7,53.2 27.3,64.8 27.3,68.6 				"/>
				<g>
					<path d="M27.3,65L24,64.9c-0.1,0-0.1-0.1-0.1-0.1c0-0.1,0-0.1,0.1-0.1l3.4-0.1c0.1,0,0.3,0.1,0.3,0.2
						C27.6,64.9,27.5,65,27.3,65C27.3,65,27.3,65,27.3,65z"/>
				</g>
			</g>
			<g id="keyOutLine1_7_">
				<polyline class="st28" points="20.3,53.2 31.9,64.8 31.9,68.6 				"/>
				<g>
					<path d="M31.9,65l-3.4-0.1c-0.1,0-0.1-0.1-0.1-0.1c0-0.1,0-0.1,0.1-0.1l3.4-0.1c0.1,0,0.3,0.1,0.3,0.2
						C32.2,64.9,32.1,65,31.9,65C31.9,65,31.9,65,31.9,65z"/>
				</g>
			</g>
			<g id="keyOutLine1_6_">
				<polyline class="st28" points="25.8,53.2 37.4,64.8 37.4,68.6 				"/>
				<g>
					<path d="M37.4,65L34,64.9c-0.1,0-0.1-0.1-0.1-0.1c0-0.1,0-0.1,0.1-0.1l3.4-0.1c0.1,0,0.3,0.1,0.3,0.2
						C37.7,64.9,37.6,65,37.4,65C37.4,65,37.4,65,37.4,65z"/>
				</g>
			</g>
			<g id="keyOutLine1_5_">
				<polyline class="st28" points="30.6,53.2 42.2,64.8 42.2,68.6 				"/>
				<g>
					<path d="M42.2,65l-3.4-0.1c-0.1,0-0.1-0.1-0.1-0.1c0-0.1,0-0.1,0.1-0.1l3.4-0.1c0.1,0,0.3,0.1,0.3,0.2
						C42.4,64.9,42.3,65,42.2,65C42.2,65,42.2,65,42.2,65z"/>
				</g>
			</g>
			<g id="keyOutLine1_4_">
				<polyline class="st28" points="35.3,53.2 46.9,64.8 46.9,68.6 				"/>
				<g>
					<path d="M46.9,65l-3.4-0.1c-0.1,0-0.1-0.1-0.1-0.1c0-0.1,0-0.1,0.1-0.1l3.4-0.1c0.1,0,0.3,0.1,0.3,0.2
						C47.2,64.9,47.1,65,46.9,65C47,65,47,65,46.9,65z"/>
				</g>
			</g>
			<g id="keyOutLine1_11_">
				<polyline class="st28" points="40.1,53.2 51.7,64.8 51.7,68.6 				"/>
				<g>
					<path d="M51.7,65l-3.4-0.1c-0.1,0-0.1-0.1-0.1-0.1c0-0.1,0-0.1,0.1-0.1l3.4-0.1c0.1,0,0.3,0.1,0.3,0.2C52,64.9,51.9,65,51.7,65
						C51.7,65,51.7,65,51.7,65z"/>
				</g>
			</g>
			<g id="keyOutLine1_10_">
				<polyline class="st28" points="45.6,53.2 57.2,64.8 57.2,68.6 				"/>
				<g>
					<path d="M57.2,65l-3.4-0.1c-0.1,0-0.1-0.1-0.1-0.1c0-0.1,0-0.1,0.1-0.1l3.4-0.1c0.1,0,0.3,0.1,0.3,0.2
						C57.5,64.9,57.4,65,57.2,65C57.2,65,57.2,65,57.2,65z"/>
				</g>
			</g>
			<g id="keyOutLine1_9_">
				<polyline class="st28" points="50.4,53.2 62,64.8 62,68.6 				"/>
				<g>
					<path d="M62,65l-3.4-0.1c-0.1,0-0.1-0.1-0.1-0.1c0-0.1,0-0.1,0.1-0.1l3.4-0.1c0.1,0,0.3,0.1,0.3,0.2C62.3,64.9,62.1,65,62,65
						C62,65,62,65,62,65z"/>
				</g>
			</g>
			<g id="keyOutLine1_8_">
				<polyline class="st28" points="55.1,53.2 66.8,64.8 66.8,68.6 				"/>
				<g>
					<path d="M66.8,65l-3.4-0.1c-0.1,0-0.1-0.1-0.1-0.1c0-0.1,0-0.1,0.1-0.1l3.4-0.1c0.1,0,0.3,0.1,0.3,0.2C67,64.9,66.9,65,66.8,65
						C66.8,65,66.8,65,66.8,65z"/>
				</g>
			</g>
			<g id="keyOutLine1_19_">
				<polyline class="st28" points="60.1,53.2 71.7,64.8 71.7,68.6 				"/>
				<g>
					<path d="M71.7,65l-3.4-0.1c-0.1,0-0.1-0.1-0.1-0.1c0-0.1,0-0.1,0.1-0.1l3.4-0.1c0.1,0,0.3,0.1,0.3,0.2C72,64.9,71.9,65,71.7,65
						C71.7,65,71.7,65,71.7,65z"/>
				</g>
			</g>
			<g id="keyOutLine1_18_">
				<polyline class="st28" points="65.6,53.2 77.2,64.8 77.2,68.6 				"/>
				<g>
					<path d="M77.2,65l-3.4-0.1c-0.1,0-0.1-0.1-0.1-0.1c0-0.1,0-0.1,0.1-0.1l3.4-0.1c0.1,0,0.3,0.1,0.3,0.2
						C77.5,64.9,77.4,65,77.2,65C77.2,65,77.2,65,77.2,65z"/>
				</g>
			</g>
			<g id="keyOutLine1_17_">
				<polyline class="st28" points="70.4,53.2 82,64.8 82,68.6 				"/>
				<g>
					<path d="M82,65l-3.4-0.1c-0.1,0-0.1-0.1-0.1-0.1c0-0.1,0-0.1,0.1-0.1l3.4-0.1c0.1,0,0.3,0.1,0.3,0.2C82.2,64.9,82.1,65,82,65
						C82,65,82,65,82,65z"/>
				</g>
			</g>
			<g id="keyOutLine1_16_">
				<polyline class="st28" points="75.1,53.2 86.8,64.8 86.8,68.6 				"/>
				<g>
					<path d="M86.8,65l-3.4-0.1c-0.1,0-0.1-0.1-0.1-0.1c0-0.1,0-0.1,0.1-0.1l3.4-0.1c0.1,0,0.3,0.1,0.3,0.2C87,64.9,86.9,65,86.8,65
						C86.8,65,86.8,65,86.8,65z"/>
				</g>
			</g>
			<g id="keyOutLine1_15_">
				<polyline class="st28" points="79.9,53.2 91.5,64.8 91.5,68.6 				"/>
				<g>
					<path d="M91.5,65l-3.4-0.1c-0.1,0-0.1-0.1-0.1-0.1c0-0.1,0-0.1,0.1-0.1l3.4-0.1c0.1,0,0.3,0.1,0.3,0.2
						C91.8,64.9,91.7,65,91.5,65C91.5,65,91.5,65,91.5,65z"/>
				</g>
			</g>
			<g id="keyOutLine1_14_">
				<polyline class="st28" points="85.4,53.2 97,64.8 97,68.6 				"/>
				<g>
					<path d="M97,65l-3.4-0.1c-0.1,0-0.1-0.1-0.1-0.1c0-0.1,0-0.1,0.1-0.1l3.4-0.1c0.1,0,0.3,0.1,0.3,0.2C97.3,64.9,97.2,65,97,65
						C97,65,97,65,97,65z"/>
				</g>
			</g>
			<g id="keyOutLine1_13_">
				<polyline class="st28" points="90.2,53.2 101.8,64.8 101.8,68.6 				"/>
				<g>
					<path d="M101.8,65l-3.4-0.1c-0.1,0-0.1-0.1-0.1-0.1c0-0.1,0-0.1,0.1-0.1l3.4-0.1c0.1,0,0.3,0.1,0.3,0.2
						C102.1,64.9,102,65,101.8,65C101.8,65,101.8,65,101.8,65z"/>
				</g>
			</g>
			<g id="keyOutLine1_12_">
				<polyline class="st28" points="94.9,53.2 106.6,64.8 106.6,68.6 				"/>
				<g>
					<path d="M106.6,65l-3.4-0.1c-0.1,0-0.1-0.1-0.1-0.1c0-0.1,0-0.1,0.1-0.1l3.4-0.1c0.1,0,0.3,0.1,0.3,0.2
						C106.8,64.9,106.7,65,106.6,65C106.6,65,106.6,65,106.6,65z"/>
				</g>
			</g>
			<g id="keyOutLine1_27_">
				<polyline class="st28" points="99.9,53.2 111.5,64.8 111.5,68.6 				"/>
				<g>
					<path d="M111.5,65l-3.4-0.1c-0.1,0-0.1-0.1-0.1-0.1c0-0.1,0-0.1,0.1-0.1l3.4-0.1c0.1,0,0.3,0.1,0.3,0.2
						C111.8,64.9,111.7,65,111.5,65C111.5,65,111.5,65,111.5,65z"/>
				</g>
			</g>
			<g id="keyOutLine1_26_">
				<polyline class="st28" points="105.4,53.2 117,64.8 117,68.6 				"/>
				<g>
					<path d="M117,65l-3.4-0.1c-0.1,0-0.1-0.1-0.1-0.1c0-0.1,0-0.1,0.1-0.1l3.4-0.1c0.1,0,0.3,0.1,0.3,0.2
						C117.3,64.9,117.2,65,117,65C117,65,117,65,117,65z"/>
				</g>
			</g>
			<g id="keyOutLine1_25_">
				<polyline class="st28" points="110.2,53.2 121.8,64.8 121.8,68.6 				"/>
				<g>
					<path d="M121.8,65l-3.4-0.1c-0.1,0-0.1-0.1-0.1-0.1c0-0.1,0-0.1,0.1-0.1l3.4-0.1c0.1,0,0.3,0.1,0.3,0.2
						C122.1,64.9,121.9,65,121.8,65C121.8,65,121.8,65,121.8,65z"/>
				</g>
			</g>
			<g id="keyOutLine1_24_">
				<polyline class="st28" points="114.9,53.2 126.6,64.8 126.6,68.6 				"/>
				<g>
					<path d="M126.6,65l-3.4-0.1c-0.1,0-0.1-0.1-0.1-0.1c0-0.1,0-0.1,0.1-0.1l3.4-0.1c0.1,0,0.3,0.1,0.3,0.2
						C126.8,64.9,126.7,65,126.6,65C126.6,65,126.6,65,126.6,65z"/>
				</g>
			</g>
			<g id="keyOutLine1_23_">
				<polyline class="st28" points="119.7,53.2 131.3,64.8 131.3,68.6 				"/>
				<g>
					<path d="M131.3,65l-3.4-0.1c-0.1,0-0.1-0.1-0.1-0.1c0-0.1,0-0.1,0.1-0.1l3.4-0.1c0.1,0,0.3,0.1,0.3,0.2
						C131.6,64.9,131.5,65,131.3,65C131.3,65,131.3,65,131.3,65z"/>
				</g>
			</g>
		</g>
		<g id="BlackKeys">
			<g id="BlackKeySet1">
				<g id="twoSet1">
					<polygon id="black_Key" points="7.8,52.7 3.7,52.7 9.5,58.4 13.9,58.4 					"/>
					<polygon id="black_Key_2_" points="12.5,52.7 8.4,52.7 14.2,58.4 18.5,58.4 					"/>
				</g>
				<g id="treeSet1">
					<polygon id="black_Key_3_" points="22.3,52.7 18.2,52.7 24,58.4 28.3,58.4 					"/>
					<polygon id="black_Key_1_" points="27,52.7 22.9,52.7 28.6,58.4 33,58.4 					"/>
					<polygon id="black_Key_4_" points="31.7,52.7 27.6,52.7 33.3,58.4 37.7,58.4 					"/>
				</g>
			</g>
			<g id="BlackKeySet2">
				<g id="twoSet1_1_">
					<polygon id="black_Key_9_" points="42,52.7 37.9,52.7 43.6,58.4 48,58.4 					"/>
					<polygon id="black_Key_8_" points="46.6,52.7 42.5,52.7 48.3,58.4 52.7,58.4 					"/>
				</g>
				<g id="treeSet1_1_">
					<polygon id="black_Key_7_" points="56.4,52.7 52.3,52.7 58.1,58.4 62.5,58.4 					"/>
					<polygon id="black_Key_6_" points="61.1,52.7 57,52.7 62.8,58.4 67.1,58.4 					"/>
					<polygon id="black_Key_5_" points="65.8,52.7 61.7,52.7 67.4,58.4 71.8,58.4 					"/>
				</g>
			</g>
			<g id="BlackKeySet3">
				<g id="twoSet1_2_">
					<polygon id="black_Key_14_" points="77.3,52.7 73.2,52.7 78.9,58.4 83.3,58.4 					"/>
					<polygon id="black_Key_13_" points="82,52.7 77.9,52.7 83.6,58.4 88,58.4 					"/>
				</g>
				<g id="twoSet1_3_">
					<polygon id="black_Key_16_" points="112,52.7 107.9,52.7 113.7,58.4 118,58.4 					"/>
					<polygon id="black_Key_15_" points="116.7,52.7 112.6,52.7 118.3,58.4 122.7,58.4 					"/>
				</g>
				<g id="treeSet1_2_">
					<polygon id="black_Key_12_" points="91.8,52.7 87.7,52.7 93.4,58.4 97.8,58.4 					"/>
					<polygon id="black_Key_11_" points="96.5,52.7 92.4,52.7 98.1,58.4 102.5,58.4 					"/>
					<polygon id="black_Key_10_" points="101.1,52.7 97,52.7 102.8,58.4 107.2,58.4 					"/>
				</g>
			</g>
		</g>
	</g>
	<g id="Gizmos_1_" class="st5">
		<polygon id="GizmosBK" class="st29" points="100.8,45 106.1,50.2 9.3,50.2 4.3,45.2 		"/>
		<line id="onLight" class="st30" x1="57.8" y1="46" x2="61.4" y2="46"/>
		
			<ellipse id="button" transform="matrix(0.7071 -0.7071 0.7071 0.7071 -14.2222 58.2474)" class="st31" cx="63.2" cy="46.3" rx="0.6" ry="1"/>
	</g>
</g>
<g id="guides" class="st0">
	<rect x="-39.4" y="157.7" class="st32" width="200.7" height="66"/>
</g>
</svg>
