<?xml version="1.0" encoding="utf-8"?>
<!-- Generator: Adobe Illustrator 23.0.2, SVG Export Plug-In . SVG Version: 6.00 Build 0)  -->
<svg version="1.1" xmlns="http://www.w3.org/2000/svg" xmlns:xlink="http://www.w3.org/1999/xlink" x="0px" y="0px"
	 viewBox="0 0 107.5 48.5" style="enable-background:new 0 0 107.5 48.5;" xml:space="preserve">
<style type="text/css">
	.st0{display:none;}
	.st1{display:inline;fill:#D81F27;}
	.st2{display:inline;fill:#FDFEFE;}
	.st3{display:inline;fill:#C49A6C;stroke:#000000;stroke-width:0.75;stroke-miterlimit:10;}
	.st4{display:inline;fill:none;stroke:#000000;stroke-width:0.75;stroke-miterlimit:10;}
	.st5{display:inline;}
	.st6{fill:none;stroke:#000000;stroke-miterlimit:10;}
	.st7{fill:url(#SVGID_1_);stroke:#000000;stroke-miterlimit:10;}
	.st8{fill:url(#SVGID_2_);stroke:#000000;stroke-miterlimit:10;}
	.st9{fill:url(#SVGID_3_);stroke:#000000;stroke-miterlimit:10;}
	.st10{fill:url(#SVGID_4_);stroke:#000000;stroke-miterlimit:10;}
	.st11{fill:#FFFFFF;stroke:#000000;stroke-miterlimit:10;}
	.st12{fill:#F4EB20;}
	.st13{fill:#FFFFFF;}
	.st14{display:inline;fill:#2F67B2;}
	.st15{fill:#545556;}
	.st16{fill:#DBC647;stroke:#000000;stroke-width:0.9774;stroke-miterlimit:10;}
	.st17{fill:#DBC647;}
	.st18{fill:#9D9033;}
	.st19{fill:#DBC647;stroke:#000000;stroke-width:0.25;stroke-miterlimit:10;}
	.st20{fill:none;stroke:#000000;stroke-width:0.75;stroke-linecap:round;stroke-miterlimit:10;}
	.st21{fill:none;stroke:#000000;stroke-width:2;stroke-miterlimit:10;}
	.st22{stroke:#000000;stroke-width:2;stroke-miterlimit:10;}
	.st23{fill:none;stroke:#FFFFFF;stroke-linecap:round;stroke-miterlimit:10;}
	.st24{fill:none;stroke:#FFFFFF;stroke-linecap:round;stroke-linejoin:round;stroke-miterlimit:10;}
	.st25{fill:none;stroke:#000000;stroke-width:0.5;stroke-linecap:round;stroke-miterlimit:10;}
	.st26{fill:#45464D;}
	.st27{fill:none;stroke:#ED2024;stroke-width:0.5;stroke-linecap:round;stroke-miterlimit:10;}
	.st28{fill:#ED2024;}
	.st29{display:inline;fill:#FFFFFF;stroke:#000000;stroke-miterlimit:10;}
</style>
<g id="Body" class="st0">
</g>
<g id="guitar" class="st0">
	<path id="Body_1_" class="st1" d="M57.8,27.6c0,0-3.8-10.6,3.9-18.2s3.5-11.3-5.6-5.8c-8.2,5.1-10.7,7.4-12.9,12.6
		c-0.4,1-0.7,2.1-1,3.2c-1.7,7.4-7.1,13.2-13,15.8C23,38.1,15.7,39.2,8.4,47.9s-7.7,14-6.3,22.4S9,84.8,19.3,87.3
		c7.5,1.9,15.6-0.2,21.8-6.1c2.5-2.4,6.5-7,9.4-13.6c1.9-4.3,4.6-8.2,8.2-11.3c3.3-2.8,7.5-5.6,12-6.9c9.9-2.7,15.1-13,15.1-16.3
		s-2.1-4.9-5.9-3.1C76,31.8,65,43.5,57.8,27.6z"/>
	<path class="st2" d="M64.5,40.3c1-0.3,2.2-0.2,3.1,0.3c1.2,0.7,2,2.1-0.3,4.9c-4.2,5-10.8,3.8-16.6,10.6s-3,9-13.4,11.8
		S13.9,51.8,24.9,45.4s10.5-3.7,16.8-11c5.2-6,8.4-1.8,8.4-1.8l7.8,8C57.9,40.6,60.5,41.6,64.5,40.3z"/>
	<path id="Neck" class="st3" d="M128.6-22.2c1.9-4.1-1.2-4.5,9-16.1l-7.4-0.5c0,0-14.8,5-14.3,13.5L52.5,32.4l5.6,6.2L121.5-19
		C121.5-19,126.7-18.1,128.6-22.2z"/>
	<path id="Line_Art" class="st4" d="M58.7,56.4c3.3-2.8,7.5-5.6,12-6.9c9.9-2.7,15.1-13,15.1-16.3c0-3.3-2.1-4.9-5.9-3.1
		c-3,1.4-10.6,8.9-17.1,4.2L121.5-19c0,0,5.2,0.9,7.1-3.2c1.9-4.1-1.2-4.5,9-16.1l-7.4-0.5c0,0-14.8,5-14.3,13.5l-58,52.8
		c-0.4-1.2-3.3-10.9,3.9-18.1c7.7-7.7,3.5-11.3-5.6-5.8c-8.2,5.1-10.7,7.4-12.9,12.6c-0.4,1-0.7,2.1-1,3.2
		c-1.7,7.4-7.1,13.2-13,15.8C23,38.1,15.7,39.2,8.4,47.9c-7.3,8.7-7.7,14-6.3,22.4C3.5,78.6,9,84.8,19.3,87.3
		c7.5,1.9,15.6-0.2,21.8-6.1c2.5-2.4,6.5-7,9.4-13.6C52.4,63.3,55.1,59.4,58.7,56.4z"/>
	<g id="Gizmos" class="st5">
		<line class="st6" x1="45.4" y1="38.6" x2="52" y2="46.2"/>
		<line class="st6" x1="43" y1="41" x2="45.7" y2="48.6"/>
		<line class="st6" x1="31.6" y1="52.3" x2="36.9" y2="58.4"/>
		<g id="Vol">
			<circle cx="26.1" cy="74.5" r="1.5"/>
			<circle cx="22.9" cy="81.8" r="1.5"/>
			<circle cx="33.6" cy="73.1" r="1.5"/>
			<circle cx="30.4" cy="80.4" r="1.5"/>
		</g>
	</g>
</g>
<g id="Drum" class="st0">
	<g class="st5">
		
			<linearGradient id="SVGID_1_" gradientUnits="userSpaceOnUse" x1="-37.1515" y1="88.8504" x2="5.0955" y2="88.8504" gradientTransform="matrix(0.9933 0.1155 -0.1155 0.9933 11.4994 1.9884)">
			<stop  offset="9.856234e-02" style="stop-color:#000000"/>
			<stop  offset="0.1586" style="stop-color:#020202"/>
			<stop  offset="0.1911" style="stop-color:#0A0A0A"/>
			<stop  offset="0.217" style="stop-color:#181818"/>
			<stop  offset="0.2395" style="stop-color:#2B2B2B"/>
			<stop  offset="0.2597" style="stop-color:#444444"/>
			<stop  offset="0.2782" style="stop-color:#636363"/>
			<stop  offset="0.2956" style="stop-color:#888888"/>
			<stop  offset="0.312" style="stop-color:#B3B3B3"/>
			<stop  offset="0.327" style="stop-color:#E2E2E2"/>
			<stop  offset="0.3353" style="stop-color:#FFFFFF"/>
			<stop  offset="0.339" style="stop-color:#F6F6F6"/>
			<stop  offset="0.3595" style="stop-color:#C8C8C8"/>
			<stop  offset="0.3825" style="stop-color:#9D9D9D"/>
			<stop  offset="0.4072" style="stop-color:#777777"/>
			<stop  offset="0.4341" style="stop-color:#575757"/>
			<stop  offset="0.4639" style="stop-color:#3B3B3B"/>
			<stop  offset="0.4975" style="stop-color:#252525"/>
			<stop  offset="0.5367" style="stop-color:#141414"/>
			<stop  offset="0.5852" style="stop-color:#090909"/>
			<stop  offset="0.6532" style="stop-color:#020202"/>
			<stop  offset="0.8421" style="stop-color:#000000"/>
		</linearGradient>
		<path class="st7" d="M1.4,111.6l-37.1-4.3c-1.3-0.2-2.3-1.4-2.1-2.7l4.3-37.2c0.2-1.3,1.4-2.3,2.7-2.1l37.1,4.3
			c1.3,0.2,2.3,1.4,2.1,2.7l-4.3,37.2C4,110.8,2.8,111.7,1.4,111.6z"/>
		<linearGradient id="SVGID_2_" gradientUnits="userSpaceOnUse" x1="-36.9849" y1="111.4049" x2="-35.0514" y2="111.6297">
			<stop  offset="9.856234e-02" style="stop-color:#000000"/>
			<stop  offset="0.1586" style="stop-color:#020202"/>
			<stop  offset="0.1911" style="stop-color:#0A0A0A"/>
			<stop  offset="0.217" style="stop-color:#181818"/>
			<stop  offset="0.2395" style="stop-color:#2B2B2B"/>
			<stop  offset="0.2597" style="stop-color:#444444"/>
			<stop  offset="0.2782" style="stop-color:#636363"/>
			<stop  offset="0.2956" style="stop-color:#888888"/>
			<stop  offset="0.312" style="stop-color:#B3B3B3"/>
			<stop  offset="0.327" style="stop-color:#E2E2E2"/>
			<stop  offset="0.3353" style="stop-color:#FFFFFF"/>
			<stop  offset="0.339" style="stop-color:#F6F6F6"/>
			<stop  offset="0.3595" style="stop-color:#C8C8C8"/>
			<stop  offset="0.3825" style="stop-color:#9D9D9D"/>
			<stop  offset="0.4072" style="stop-color:#777777"/>
			<stop  offset="0.4341" style="stop-color:#575757"/>
			<stop  offset="0.4639" style="stop-color:#3B3B3B"/>
			<stop  offset="0.4975" style="stop-color:#252525"/>
			<stop  offset="0.5367" style="stop-color:#141414"/>
			<stop  offset="0.5852" style="stop-color:#090909"/>
			<stop  offset="0.6532" style="stop-color:#020202"/>
			<stop  offset="0.8421" style="stop-color:#000000"/>
		</linearGradient>
		<line class="st8" x1="-37.5" y1="115.7" x2="-34.6" y2="107.4"/>
		<linearGradient id="SVGID_3_" gradientUnits="userSpaceOnUse" x1="7.002656e-02" y1="113.3861" x2="1.4197" y2="113.5431">
			<stop  offset="9.856234e-02" style="stop-color:#000000"/>
			<stop  offset="0.1586" style="stop-color:#020202"/>
			<stop  offset="0.1911" style="stop-color:#0A0A0A"/>
			<stop  offset="0.217" style="stop-color:#181818"/>
			<stop  offset="0.2395" style="stop-color:#2B2B2B"/>
			<stop  offset="0.2597" style="stop-color:#444444"/>
			<stop  offset="0.2782" style="stop-color:#636363"/>
			<stop  offset="0.2956" style="stop-color:#888888"/>
			<stop  offset="0.312" style="stop-color:#B3B3B3"/>
			<stop  offset="0.327" style="stop-color:#E2E2E2"/>
			<stop  offset="0.3353" style="stop-color:#FFFFFF"/>
			<stop  offset="0.339" style="stop-color:#F6F6F6"/>
			<stop  offset="0.3595" style="stop-color:#C8C8C8"/>
			<stop  offset="0.3825" style="stop-color:#9D9D9D"/>
			<stop  offset="0.4072" style="stop-color:#777777"/>
			<stop  offset="0.4341" style="stop-color:#575757"/>
			<stop  offset="0.4639" style="stop-color:#3B3B3B"/>
			<stop  offset="0.4975" style="stop-color:#252525"/>
			<stop  offset="0.5367" style="stop-color:#141414"/>
			<stop  offset="0.5852" style="stop-color:#090909"/>
			<stop  offset="0.6532" style="stop-color:#020202"/>
			<stop  offset="0.8421" style="stop-color:#000000"/>
		</linearGradient>
		<line class="st9" x1="0.3" y1="111.4" x2="1.2" y2="115.5"/>
	</g>
	<g id="Snare" class="st5">
		<linearGradient id="SVGID_4_" gradientUnits="userSpaceOnUse" x1="98.8258" y1="65.7398" x2="130.0178" y2="65.7398">
			<stop  offset="9.856234e-02" style="stop-color:#000000"/>
			<stop  offset="0.1586" style="stop-color:#020202"/>
			<stop  offset="0.1911" style="stop-color:#0A0A0A"/>
			<stop  offset="0.217" style="stop-color:#181818"/>
			<stop  offset="0.2395" style="stop-color:#2B2B2B"/>
			<stop  offset="0.2597" style="stop-color:#444444"/>
			<stop  offset="0.2782" style="stop-color:#636363"/>
			<stop  offset="0.2956" style="stop-color:#888888"/>
			<stop  offset="0.312" style="stop-color:#B3B3B3"/>
			<stop  offset="0.327" style="stop-color:#E2E2E2"/>
			<stop  offset="0.3353" style="stop-color:#FFFFFF"/>
			<stop  offset="0.339" style="stop-color:#F6F6F6"/>
			<stop  offset="0.3595" style="stop-color:#C8C8C8"/>
			<stop  offset="0.3825" style="stop-color:#9D9D9D"/>
			<stop  offset="0.4072" style="stop-color:#777777"/>
			<stop  offset="0.4341" style="stop-color:#575757"/>
			<stop  offset="0.4639" style="stop-color:#3B3B3B"/>
			<stop  offset="0.4975" style="stop-color:#252525"/>
			<stop  offset="0.5367" style="stop-color:#141414"/>
			<stop  offset="0.5852" style="stop-color:#090909"/>
			<stop  offset="0.6532" style="stop-color:#020202"/>
			<stop  offset="0.8421" style="stop-color:#000000"/>
		</linearGradient>
		<path class="st10" d="M130,70.9V60.5c0-2.1-7-3.8-15.6-3.8s-15.6,1.7-15.6,3.8v10.4c0,2.1,7,3.8,15.6,3.8S130,73,130,70.9z"/>
		<ellipse class="st11" cx="114.4" cy="60.5" rx="15.6" ry="3.8"/>
		<polyline class="st6" points="114.8,74.6 114.8,104.3 127.2,115.6 		"/>
		<polyline class="st6" points="114.6,115.4 114.8,104.1 102.4,115.4 		"/>
	</g>
	<g id="HighHat" class="st5">
		<polyline class="st6" points="5.3,32.3 5.3,92.3 -4.9,115.7 		"/>
		<g id="highHatBottom">
			<path id="highHat" class="st12" d="M-13,42.8h37.6C24.6,42.8,7,54-13,42.8z"/>
			<ellipse id="Dimple" class="st12" cx="5.3" cy="47.4" rx="5.4" ry="2.1"/>
		</g>
		<g id="highHatTop">
			<path id="highHat_3_" class="st12" d="M-13,41.7h37.6C24.6,41.7,7,30.6-13,41.7z"/>
			<ellipse id="Dimple_1_" class="st12" cx="5.3" cy="37.2" rx="5.4" ry="2.1"/>
		</g>
		<line class="st6" x1="13.3" y1="115.2" x2="5.3" y2="92.3"/>
	</g>
	<g id="topRim_1_" class="st5">
		<polyline class="st6" points="4.1,115.7 -6.3,93.8 -17.1,115.8 		"/>
		<line class="st6" x1="-6.3" y1="94.1" x2="-6.3" y2="39.3"/>
		<circle class="st6" cx="-6.3" cy="36.3" r="3"/>
		<polyline class="st6" points="-26.5,40.1 30.6,20 30.6,9.3 		"/>
		<g id="topRim">
			<path id="highHat_1_" class="st12" d="M12.4,17.7h37.6C49.9,17.7,32.4,6.6,12.4,17.7z"/>
			<ellipse id="Dimple_2_" class="st12" cx="30.7" cy="13.2" rx="5.4" ry="2.1"/>
		</g>
	</g>
	<g id="topRim_2_" class="st5">
		<polyline class="st6" points="123.4,115.7 133.8,93.8 144.6,115.8 		"/>
		<line class="st6" x1="133.8" y1="94.1" x2="133.8" y2="39.3"/>
		<circle class="st6" cx="133.8" cy="36.3" r="3"/>
		<polyline class="st6" points="154,40.1 96.9,20 96.9,9.3 		"/>
		<g id="topRim_3_">
			<path id="highHat_2_" class="st12" d="M115.1,17.7H77.5C77.5,17.7,95,6.6,115.1,17.7z"/>
			<ellipse id="Dimple_3_" class="st12" cx="96.8" cy="13.2" rx="5.4" ry="2.1"/>
		</g>
	</g>
	<g id="BaseDrum" class="st5">
		<circle id="mainDrumOuter" cx="54.3" cy="72.2" r="43.4"/>
		<circle id="mainDrumBrand" class="st13" cx="54.3" cy="72.2" r="36.9"/>
		<circle id="mainDrumInner" cx="54.3" cy="72.2" r="31.4"/>
		
			<image style="overflow:visible;" width="391" height="489" id="Sticker" xlink:href="logo_MFG.png"  transform="matrix(6.463948e-02 -3.466629e-04 3.466629e-04 6.463948e-02 40.7732 57.295)">
		</image>
		<line id="left_leg" class="st6" x1="10.3" y1="115.6" x2="23.8" y2="102.2"/>
		<line id="right_lag" class="st6" x1="98.5" y1="115.6" x2="85.1" y2="102.2"/>
	</g>
</g>
<g id="Base" class="st0">
	<path id="body" class="st14" d="M59.6,61.6c3.8-1.3,7.3-3.5,10.3-6.5c4.8-4.8,7.5-11,7.9-17.3c0.1-1.6-1.8-2.6-3-1.5
		c-1.6,1.5-3.7,2.8-6.2,3.7c-6.3,2.2-13.4,1.1-18.4-3.3c-7.1-6.3-8.1-16.7-2.9-24.1c0.3,1,0.9,2,1.9,2.7c1.5,1,3.6,0.9,5-0.2
		c2.2-1.7,2.4-4.8,0.5-6.7C53.7,7.4,51.7,7,49.8,7c-1.3,0-2.5,0.2-3.8,0.6c-5.9,1.7-10.3,4-14.9,8.6c-2.6,2.6-4.5,5.5-5.8,8.6
		c-2.5,5.9-7.4,10.2-13.2,12.9c-3.8,1.7-7.2,4.3-10.1,7.8c-8.4,10.3-8,25.6,0.9,35.5c10.6,11.9,28.8,12.2,39.9,1.2
		c3-3,5.2-6.6,6.5-10.3C51.1,67,54.8,63.3,59.6,61.6z"/>
	<g class="st5">
		<path class="st13" d="M8.7,44.7C0,53.4,0.1,68,8.4,77.1c9.2,10.1,25,10.4,34.6,0.8c2.6-2.6,4.5-5.7,5.6-8.9c1.5-4.3,5-7.5,9.2-9.1
			c2.3-0.8,4.6-2.1,6.6-3.7c0.7-0.6,0.8-1.7,0.2-2.4L43,32.2l-5.5,5.5l10.7,10.7l-5,5L32.4,42.8l-4.6,4.6c0,0-0.1,0-0.1,0l-9.2-9.2"
			/>
	</g>
	<path id="Neckcolour" class="st3" d="M122-26.7c0,0-3-0.5-5-2c-0.2-0.1-0.1-0.4,0.1-0.4c0.5-0.1,1.1-0.4,1.5-0.8
		c0.9-0.9,0.9-2.3,0.1-3.3c-0.9-1.1-2.6-1.2-3.6-0.2c-0.1,0.1-0.2,0.2-0.3,0.3l-2.5,2.5c-5.9,5.9-11.3,6.2-11.3,6.2L99.4-17L44.2,36
		l5.2,5.4l55.2-53l5.7-0.5C113.3-20.3,122-26.7,122-26.7z"/>
	<path id="Line_art" class="st4" d="M60.1,61.2c3.8-1.3,7.3-3.5,10.3-6.5c4.8-4.8,7.5-11,7.9-17.3c0.1-1.6-1.8-2.6-3-1.5
		c-1.6,1.5-3.7,2.8-6.2,3.7c-5.4,1.9-11.5,1.4-16.3-1.7l51.7-49.6l5.7-0.5c3-8.3,11.7-14.6,11.7-14.6s-3-0.5-5-2
		c-0.2-0.1-0.1-0.4,0.1-0.4c0.5-0.1,1.1-0.4,1.5-0.8c0.9-0.9,0.9-2.3,0.1-3.3c-0.9-1.1-2.6-1.2-3.6-0.2c-0.1,0.1-0.2,0.2-0.3,0.3
		l-2.5,2.5c-5.9,5.9-11.3,6.2-11.3,6.2L99.4-17L47.6,32.8c-4.1-6.2-4-14.3,0.3-20.4c0.3,1,0.9,2,1.9,2.7c1.5,1,3.6,0.9,5-0.2
		c2.2-1.7,2.4-4.8,0.5-6.7c-1.2-1.2-3.1-1.6-5.1-1.5c-1.3,0-2.5,0.2-3.8,0.6c-5.9,1.7-10.3,4-14.9,8.6c-2.6,2.6-4.5,5.5-5.8,8.6
		c-2.5,5.9-7.4,10.2-13.2,12.9C8.8,39,5.3,41.6,2.5,45.1c-8.4,10.3-8,25.6,0.9,35.5C14,92.5,32.2,92.9,43.3,81.8
		c3-3,5.2-6.6,6.5-10.3C51.5,66.6,55.2,62.9,60.1,61.2z"/>
	<g id="gizmos" class="st5">
		<path class="st15" d="M17.8,71.7l-4-4c-0.1-0.1-0.1-0.2,0-0.3l1.3-1.3c0.1-0.1,0.2-0.1,0.3,0l4,4c0.1,0.1,0.1,0.2,0,0.3L18,71.7
			C18,71.7,17.8,71.7,17.8,71.7z"/>
		<path class="st15" d="M19.1,66.3l-2.8-2.8c0,0,0.4,1.1-0.2,1.6l2.1,2.1l0,0l2.1,2.1c0.5-0.5,1.6-0.2,1.6-0.2L19.1,66.3z"/>
		<path class="st15" d="M45.2,43.7l-3.4-3.4c-0.2-0.2-0.2-0.4-0.1-0.6l0.9-1.7l4.8,4.8l-1.6,0.9C45.6,43.9,45.4,43.8,45.2,43.7z"/>
		<g id="Vol_1_">
			<circle cx="33.5" cy="77" r="1.2"/>
			<circle cx="29.8" cy="77" r="1.2"/>
			<circle cx="29.8" cy="73.4" r="1.2"/>
			<circle cx="33.4" cy="73.4" r="1.2"/>
		</g>
	</g>
</g>
<g id="Trumpet">
	<g id="mouthpce">
		<rect id="mouthTube" x="79" y="22.3" class="st16" width="16.6" height="6"/>
		<ellipse id="mouthPiece" class="st16" cx="103.2" cy="25.5" rx="3.8" ry="6.3"/>
		<ellipse id="baseMouth" class="st16" cx="98.6" cy="25.3" rx="4.2" ry="4.7"/>
	</g>
	<path id="body_1_" class="st16" d="M81.2,22.2H43.8c-17.2,0-23.8-11-23.8-11l0.7,24.1c3.4-7.7,23.1-6.9,23.1-6.9h35.1
		c1.3,0,2.3,1,2.3,2.3v8.6c0,1.4-1.1,2.5-2.5,2.5H53.8c-1.4,0-2.5-1.1-2.5-2.5v-11h-6.7v13.5c0,3.4,2.7,6.1,6.1,6.1h0.6h29.8v0h0.4
		c3.6,0,6.6-2.9,6.6-6.6v-14c0-2.9-2.3-5.2-5.2-5.2H81.2z"/>
	<g id="horn">
		<g id="outerRim">
			<ellipse class="st17" cx="11.1" cy="24" rx="10.8" ry="23.7"/>
			<path d="M22.4,24c0,2.4-0.2,4.7-0.5,7.1c-0.4,2.3-0.9,4.6-1.6,6.9c-0.8,2.2-1.7,4.4-3.2,6.4L16.6,45L16,45.7
				c-0.4,0.5-0.9,0.8-1.4,1.2c-1,0.7-2.2,1.1-3.5,1.2c-1.3,0-2.5-0.5-3.5-1.2c-0.5-0.4-1-0.7-1.4-1.2L5.6,45l-0.5-0.7
				c-1.4-1.9-2.4-4.1-3.1-6.4c-0.7-2.2-1.2-4.6-1.6-6.9C0.1,28.7,0,26.4,0,24c0-2.3,0.1-4.7,0.5-7c0.3-2.3,0.8-4.6,1.6-6.9
				c0.7-2.2,1.7-4.4,3.1-6.4L5.6,3l0.6-0.7c0.4-0.5,0.9-0.8,1.4-1.2C8.6,0.5,9.8,0,11.1,0c1.3,0,2.5,0.5,3.5,1.2
				c0.5,0.4,1,0.7,1.4,1.2L16.6,3l0.5,0.7c1.4,1.9,2.4,4.1,3.2,6.4c0.7,2.2,1.3,4.6,1.6,6.9C22.2,19.3,22.4,21.7,22.4,24z M21.4,24
				c0-2.3-0.1-4.6-0.4-6.9c-0.3-2.3-0.8-4.6-1.5-6.7c-0.7-2.2-1.6-4.3-3-6.2L16,3.5l-0.6-0.6c-0.4-0.4-0.8-0.7-1.3-1.1
				c-0.9-0.6-2-1-3.1-1.1c-1.1,0-2.1,0.4-3.1,1C7.6,2.1,7.1,2.4,6.7,2.9L6.2,3.5L5.6,4.2c-1.4,1.8-2.3,4-3.1,6.2
				c-0.7,2.2-1.2,4.5-1.6,6.8c-0.3,2.3-0.5,4.6-0.5,6.9c0,2.3,0.2,4.6,0.5,6.9c0.4,2.3,0.9,4.6,1.6,6.8c0.7,2.2,1.7,4.3,3.1,6.2
				l0.5,0.7l0.6,0.6c0.4,0.4,0.8,0.7,1.3,1.1c0.9,0.6,2,1,3.1,1c1.1,0,2.1-0.4,3.1-1.1c0.4-0.4,0.9-0.7,1.3-1.1l0.6-0.6l0.5-0.7
				c1.3-1.8,2.3-4,3-6.2c0.7-2.2,1.2-4.5,1.5-6.7C21.3,28.7,21.4,26.3,21.4,24z"/>
		</g>
		<g id="innderRim">
			<ellipse class="st18" cx="14.3" cy="25.1" rx="4.5" ry="13.5"/>
			<path d="M18.8,25.1c0,2.5-0.2,5-0.7,7.5c-0.3,1.2-0.6,2.4-1.2,3.6c-0.3,0.6-0.6,1.1-1,1.6c-0.4,0.5-1,0.9-1.7,0.9
				c-0.7,0-1.3-0.4-1.7-0.9c-0.4-0.5-0.8-1-1-1.6c-0.5-1.1-0.9-2.4-1.2-3.6c-0.6-2.5-0.8-5-0.8-7.5c0-2.5,0.3-5,0.8-7.5
				c0.3-1.2,0.7-2.4,1.2-3.6c0.3-0.6,0.6-1.1,1-1.6c0.4-0.5,1-0.9,1.7-0.9c0.7,0,1.3,0.4,1.7,0.9c0.4,0.5,0.7,1,1,1.6
				c0.5,1.1,0.9,2.4,1.2,3.6C18.6,20.1,18.8,22.6,18.8,25.1z M18.8,25.1c0-2.5-0.3-5-0.8-7.5c-0.3-1.2-0.7-2.4-1.2-3.5
				c-0.3-0.6-0.6-1.1-1-1.6c-0.4-0.5-0.9-0.8-1.5-0.8c-0.6,0-1.1,0.4-1.5,0.9c-0.4,0.5-0.7,1-1,1.6c-0.5,1.1-0.9,2.3-1.1,3.5
				c-0.5,2.4-0.7,4.9-0.7,7.4c0,2.5,0.2,5,0.7,7.4c0.3,1.2,0.6,2.4,1.1,3.5c0.3,0.6,0.6,1.1,1,1.6c0.4,0.5,0.9,0.9,1.5,0.9
				c0.6,0,1.1-0.4,1.5-0.8c0.4-0.5,0.7-1,1-1.6c0.5-1.1,0.9-2.3,1.2-3.5C18.6,30.1,18.8,27.6,18.8,25.1z"/>
		</g>
		<g id="hole">
			<ellipse cx="16.9" cy="25.1" rx="1.9" ry="6.8"/>
			<path d="M18.8,25.1c0,1.2-0.1,2.5-0.3,3.7c-0.1,0.6-0.2,1.2-0.4,1.8c-0.1,0.3-0.2,0.6-0.4,0.8c-0.2,0.3-0.4,0.5-0.8,0.6
				c-0.4,0-0.6-0.3-0.8-0.5c-0.2-0.3-0.3-0.5-0.4-0.8c-0.2-0.6-0.4-1.2-0.5-1.8c-0.2-1.2-0.3-2.5-0.3-3.7c0-1.2,0.1-2.5,0.3-3.7
				c0.1-0.6,0.3-1.2,0.5-1.8c0.1-0.3,0.3-0.6,0.4-0.8c0.2-0.3,0.4-0.5,0.8-0.5c0.4,0,0.6,0.3,0.8,0.6c0.2,0.3,0.3,0.6,0.4,0.8
				c0.2,0.6,0.3,1.2,0.4,1.8C18.7,22.7,18.8,23.9,18.8,25.1z M18.8,25.1c0-1.2-0.1-2.5-0.3-3.7c-0.1-0.6-0.3-1.2-0.5-1.8
				c-0.1-0.3-0.2-0.6-0.4-0.8c-0.2-0.2-0.4-0.5-0.7-0.5c-0.3,0-0.5,0.2-0.6,0.5c-0.2,0.3-0.3,0.5-0.4,0.8c-0.2,0.6-0.3,1.2-0.4,1.8
				c-0.2,1.2-0.3,2.4-0.3,3.6c0,1.2,0.1,2.4,0.3,3.6c0.1,0.6,0.2,1.2,0.4,1.8c0.1,0.3,0.2,0.6,0.4,0.8c0.2,0.2,0.4,0.5,0.6,0.5
				c0.3,0,0.5-0.2,0.7-0.5c0.2-0.2,0.3-0.5,0.4-0.8c0.2-0.6,0.4-1.2,0.5-1.8C18.7,27.6,18.8,26.3,18.8,25.1z"/>
		</g>
	</g>
	<g id="Valvegrp">
		<g id="Valveleft">
			<g id="bodyValve">
				<path class="st19" d="M59.9,21.1c-1.8,0-3.2,0.6-3.2,1.4v19.2c0,0.8,1.4,1.5,3.2,1.5s3.2-0.6,3.2-1.5V22.6
					C63.1,21.8,61.6,21.1,59.9,21.1z"/>
				<ellipse class="st19" cx="59.9" cy="22.6" rx="3.2" ry="1.5"/>
			</g>
			<line id="linkValve" class="st20" x1="59.9" y1="22.6" x2="59.9" y2="19.6"/>
			<g id="topValve">
				<path class="st19" d="M59.9,16.2c-1.8,0-3.2,0.6-3.2,1.4v1.8c0,0.8,1.4,1.4,3.2,1.4s3.2-0.6,3.2-1.4v-1.8
					C63.1,16.9,61.6,16.2,59.9,16.2z"/>
				<ellipse class="st19" cx="59.9" cy="17.7" rx="3.2" ry="1.5"/>
			</g>
		</g>
		<g id="Valvemiddle">
			<g id="bodyValve_1_">
				<path class="st19" d="M66.3,21.1c-1.8,0-3.2,0.6-3.2,1.4v19.2c0,0.8,1.4,1.5,3.2,1.5s3.2-0.6,3.2-1.5V22.6
					C69.5,21.8,68.1,21.1,66.3,21.1z"/>
				<ellipse class="st19" cx="66.3" cy="22.6" rx="3.2" ry="1.5"/>
			</g>
			<line id="linkValve_1_" class="st20" x1="66.3" y1="22.6" x2="66.3" y2="19.6"/>
			<g id="topValve_1_">
				<path class="st19" d="M66.3,16.2c-1.8,0-3.2,0.6-3.2,1.4v1.8c0,0.8,1.4,1.4,3.2,1.4s3.2-0.6,3.2-1.4v-1.8
					C69.5,16.9,68.1,16.2,66.3,16.2z"/>
				<ellipse class="st19" cx="66.3" cy="17.7" rx="3.2" ry="1.5"/>
			</g>
		</g>
		<g id="Valveright">
			<g id="bodyValve_2_">
				<path class="st19" d="M72.8,21.1c-1.8,0-3.2,0.6-3.2,1.4v19.2c0,0.8,1.4,1.5,3.2,1.5s3.2-0.6,3.2-1.5V22.6
					C76,21.8,74.6,21.1,72.8,21.1z"/>
				<ellipse class="st19" cx="72.8" cy="22.6" rx="3.2" ry="1.5"/>
			</g>
			<line id="linkValve_2_" class="st20" x1="72.8" y1="22.6" x2="72.8" y2="19.6"/>
			<g id="topValve_2_">
				<path class="st19" d="M72.8,16.2c-1.8,0-3.2,0.6-3.2,1.4v1.8c0,0.8,1.4,1.4,3.2,1.4s3.2-0.6,3.2-1.4v-1.8
					C76,16.9,74.6,16.2,72.8,16.2z"/>
				<ellipse class="st19" cx="72.8" cy="17.7" rx="3.2" ry="1.5"/>
			</g>
		</g>
	</g>
</g>
<g id="piano" class="st0">
	<g id="lags" class="st5">
		<rect id="frontLags" x="-7.5" y="37.3" class="st21" width="145.8" height="77.8"/>
		<rect id="bckLags" x="-26.8" y="18" class="st21" width="145.8" height="77.8"/>
	</g>
	<g id="Body_2_" class="st5">
		<path id="body_2_" class="st22" d="M138.6,30.8l-19.3-19.3l-146.1,0.3V18l19.3,19.3c0,0,146.4-0.6,146.1-0.3
			C138.6,37,138.6,30.8,138.6,30.8z"/>
		<line id="outlineWhiteDown" class="st23" x1="-7.5" y1="37.3" x2="-7.5" y2="30.8"/>
		<polyline id="outlineWhite" class="st24" points="138.6,30.8 -7.7,30.8 -26.8,11.8 		"/>
	</g>
	<g id="keys" class="st5">
		<polygon id="keysBk" class="st13" points="3.3,31.1 3.3,35.1 129.1,35.1 129.1,30.9 115.5,17.3 -10.4,17.3 		"/>
		<g id="keyOutLines">
			<g id="keyOutLine1">
				<polyline class="st25" points="8.3,34.2 8.3,30.4 -3.3,18.8 				"/>
				<g>
					<path d="M8.3,30.6l-3.4-0.1c-0.1,0-0.1-0.1-0.1-0.1c0-0.1,0-0.1,0.1-0.1l3.4-0.1c0.1,0,0.3,0.1,0.3,0.2
						C8.6,30.5,8.5,30.6,8.3,30.6C8.3,30.6,8.3,30.6,8.3,30.6z"/>
				</g>
			</g>
			<g id="keyOutLine1_1_">
				<polyline class="st25" points="13.8,34.2 13.8,30.4 2.2,18.8 				"/>
				<g>
					<path d="M13.8,30.6l-3.4-0.1c-0.1,0-0.1-0.1-0.1-0.1c0-0.1,0-0.1,0.1-0.1l3.4-0.1c0.1,0,0.3,0.1,0.3,0.2
						C14.1,30.5,14,30.6,13.8,30.6C13.8,30.6,13.8,30.6,13.8,30.6z"/>
				</g>
			</g>
			<g id="keyOutLine1_2_">
				<polyline class="st25" points="7,18.8 18.6,30.4 18.6,34.2 				"/>
				<g>
					<path d="M18.6,30.6l-3.4-0.1c-0.1,0-0.1-0.1-0.1-0.1c0-0.1,0-0.1,0.1-0.1l3.4-0.1c0.1,0,0.3,0.1,0.3,0.2
						C18.8,30.5,18.7,30.6,18.6,30.6C18.6,30.6,18.6,30.6,18.6,30.6z"/>
				</g>
			</g>
			<g id="keyOutLine1_3_">
				<polyline class="st25" points="11.7,18.8 23.3,30.4 23.3,34.2 				"/>
				<g>
					<path d="M23.3,30.6L20,30.5c-0.1,0-0.1-0.1-0.1-0.1c0-0.1,0-0.1,0.1-0.1l3.4-0.1c0.1,0,0.3,0.1,0.3,0.2
						C23.6,30.5,23.5,30.6,23.3,30.6C23.4,30.6,23.3,30.6,23.3,30.6z"/>
				</g>
			</g>
			<g id="keyOutLine1_7_">
				<polyline class="st25" points="16.3,18.8 27.9,30.4 27.9,34.2 				"/>
				<g>
					<path d="M27.9,30.6l-3.4-0.1c-0.1,0-0.1-0.1-0.1-0.1c0-0.1,0-0.1,0.1-0.1l3.4-0.1c0.1,0,0.3,0.1,0.3,0.2
						C28.2,30.5,28.1,30.6,27.9,30.6C27.9,30.6,27.9,30.6,27.9,30.6z"/>
				</g>
			</g>
			<g id="keyOutLine1_6_">
				<polyline class="st25" points="21.8,18.8 33.4,30.4 33.4,34.2 				"/>
				<g>
					<path d="M33.4,30.6l-3.4-0.1c-0.1,0-0.1-0.1-0.1-0.1c0-0.1,0-0.1,0.1-0.1l3.4-0.1c0.1,0,0.3,0.1,0.3,0.2
						C33.7,30.5,33.6,30.6,33.4,30.6C33.4,30.6,33.4,30.6,33.4,30.6z"/>
				</g>
			</g>
			<g id="keyOutLine1_5_">
				<polyline class="st25" points="26.6,18.8 38.2,30.4 38.2,34.2 				"/>
				<g>
					<path d="M38.2,30.6l-3.4-0.1c-0.1,0-0.1-0.1-0.1-0.1c0-0.1,0-0.1,0.1-0.1l3.4-0.1c0.1,0,0.3,0.1,0.3,0.2
						C38.5,30.5,38.4,30.6,38.2,30.6C38.2,30.6,38.2,30.6,38.2,30.6z"/>
				</g>
			</g>
			<g id="keyOutLine1_4_">
				<polyline class="st25" points="31.4,18.8 43,30.4 43,34.2 				"/>
				<g>
					<path d="M43,30.6l-3.4-0.1c-0.1,0-0.1-0.1-0.1-0.1c0-0.1,0-0.1,0.1-0.1l3.4-0.1c0.1,0,0.3,0.1,0.3,0.2
						C43.2,30.5,43.1,30.6,43,30.6C43,30.6,43,30.6,43,30.6z"/>
				</g>
			</g>
			<g id="keyOutLine1_11_">
				<polyline class="st25" points="36.1,18.8 47.7,30.4 47.7,34.2 				"/>
				<g>
					<path d="M47.7,30.6l-3.4-0.1c-0.1,0-0.1-0.1-0.1-0.1c0-0.1,0-0.1,0.1-0.1l3.4-0.1c0.1,0,0.3,0.1,0.3,0.2
						C48,30.5,47.9,30.6,47.7,30.6C47.8,30.6,47.7,30.6,47.7,30.6z"/>
				</g>
			</g>
			<g id="keyOutLine1_10_">
				<polyline class="st25" points="41.6,18.8 53.2,30.4 53.2,34.2 				"/>
				<g>
					<path d="M53.2,30.6l-3.4-0.1c-0.1,0-0.1-0.1-0.1-0.1c0-0.1,0-0.1,0.1-0.1l3.4-0.1c0.1,0,0.3,0.1,0.3,0.2
						C53.5,30.5,53.4,30.6,53.2,30.6C53.3,30.6,53.2,30.6,53.2,30.6z"/>
				</g>
			</g>
			<g id="keyOutLine1_9_">
				<polyline class="st25" points="46.4,18.8 58,30.4 58,34.2 				"/>
				<g>
					<path d="M58,30.6l-3.4-0.1c-0.1,0-0.1-0.1-0.1-0.1c0-0.1,0-0.1,0.1-0.1l3.4-0.1c0.1,0,0.3,0.1,0.3,0.2
						C58.3,30.5,58.2,30.6,58,30.6C58,30.6,58,30.6,58,30.6z"/>
				</g>
			</g>
			<g id="keyOutLine1_8_">
				<polyline class="st25" points="51.2,18.8 62.8,30.4 62.8,34.2 				"/>
				<g>
					<path d="M62.8,30.6l-3.4-0.1c-0.1,0-0.1-0.1-0.1-0.1c0-0.1,0-0.1,0.1-0.1l3.4-0.1c0.1,0,0.3,0.1,0.3,0.2
						C63,30.5,62.9,30.6,62.8,30.6C62.8,30.6,62.8,30.6,62.8,30.6z"/>
				</g>
			</g>
			<g id="keyOutLine1_19_">
				<polyline class="st25" points="56.1,18.8 67.7,30.4 67.7,34.2 				"/>
				<g>
					<path d="M67.7,30.6l-3.4-0.1c-0.1,0-0.1-0.1-0.1-0.1c0-0.1,0-0.1,0.1-0.1l3.4-0.1c0.1,0,0.3,0.1,0.3,0.2
						C68,30.5,67.9,30.6,67.7,30.6C67.7,30.6,67.7,30.6,67.7,30.6z"/>
				</g>
			</g>
			<g id="keyOutLine1_18_">
				<polyline class="st25" points="61.6,18.8 73.2,30.4 73.2,34.2 				"/>
				<g>
					<path d="M73.2,30.6l-3.4-0.1c-0.1,0-0.1-0.1-0.1-0.1c0-0.1,0-0.1,0.1-0.1l3.4-0.1c0.1,0,0.3,0.1,0.3,0.2
						C73.5,30.5,73.4,30.6,73.2,30.6C73.2,30.6,73.2,30.6,73.2,30.6z"/>
				</g>
			</g>
			<g id="keyOutLine1_17_">
				<polyline class="st25" points="66.4,18.8 78,30.4 78,34.2 				"/>
				<g>
					<path d="M78,30.6l-3.4-0.1c-0.1,0-0.1-0.1-0.1-0.1c0-0.1,0-0.1,0.1-0.1l3.4-0.1c0.1,0,0.3,0.1,0.3,0.2
						C78.3,30.5,78.2,30.6,78,30.6C78,30.6,78,30.6,78,30.6z"/>
				</g>
			</g>
			<g id="keyOutLine1_16_">
				<polyline class="st25" points="71.2,18.8 82.8,30.4 82.8,34.2 				"/>
				<g>
					<path d="M82.8,30.6l-3.4-0.1c-0.1,0-0.1-0.1-0.1-0.1c0-0.1,0-0.1,0.1-0.1l3.4-0.1c0.1,0,0.3,0.1,0.3,0.2
						C83,30.5,82.9,30.6,82.8,30.6C82.8,30.6,82.8,30.6,82.8,30.6z"/>
				</g>
			</g>
			<g id="keyOutLine1_15_">
				<polyline class="st25" points="75.9,18.8 87.5,30.4 87.5,34.2 				"/>
				<g>
					<path d="M87.5,30.6l-3.4-0.1c-0.1,0-0.1-0.1-0.1-0.1c0-0.1,0-0.1,0.1-0.1l3.4-0.1c0.1,0,0.3,0.1,0.3,0.2
						C87.8,30.5,87.7,30.6,87.5,30.6C87.6,30.6,87.5,30.6,87.5,30.6z"/>
				</g>
			</g>
			<g id="keyOutLine1_14_">
				<polyline class="st25" points="81.4,18.8 93,30.4 93,34.2 				"/>
				<g>
					<path d="M93,30.6l-3.4-0.1c-0.1,0-0.1-0.1-0.1-0.1c0-0.1,0-0.1,0.1-0.1l3.4-0.1c0.1,0,0.3,0.1,0.3,0.2
						C93.3,30.5,93.2,30.6,93,30.6C93.1,30.6,93.1,30.6,93,30.6z"/>
				</g>
			</g>
			<g id="keyOutLine1_13_">
				<polyline class="st25" points="86.2,18.8 97.8,30.4 97.8,34.2 				"/>
				<g>
					<path d="M97.8,30.6l-3.4-0.1c-0.1,0-0.1-0.1-0.1-0.1c0-0.1,0-0.1,0.1-0.1l3.4-0.1c0.1,0,0.3,0.1,0.3,0.2
						C98.1,30.5,98,30.6,97.8,30.6C97.8,30.6,97.8,30.6,97.8,30.6z"/>
				</g>
			</g>
			<g id="keyOutLine1_12_">
				<polyline class="st25" points="91,18.8 102.6,30.4 102.6,34.2 				"/>
				<g>
					<path d="M102.6,30.6l-3.4-0.1c-0.1,0-0.1-0.1-0.1-0.1c0-0.1,0-0.1,0.1-0.1l3.4-0.1c0.1,0,0.3,0.1,0.3,0.2
						C102.9,30.5,102.7,30.6,102.6,30.6C102.6,30.6,102.6,30.6,102.6,30.6z"/>
				</g>
			</g>
			<g id="keyOutLine1_27_">
				<polyline class="st25" points="95.9,18.8 107.5,30.4 107.5,34.2 				"/>
				<g>
					<path d="M107.5,30.6l-3.4-0.1c-0.1,0-0.1-0.1-0.1-0.1c0-0.1,0-0.1,0.1-0.1l3.4-0.1c0.1,0,0.3,0.1,0.3,0.2
						C107.8,30.5,107.7,30.6,107.5,30.6C107.6,30.6,107.5,30.6,107.5,30.6z"/>
				</g>
			</g>
			<g id="keyOutLine1_26_">
				<polyline class="st25" points="101.4,18.8 113,30.4 113,34.2 				"/>
				<g>
					<path d="M113,30.6l-3.4-0.1c-0.1,0-0.1-0.1-0.1-0.1c0-0.1,0-0.1,0.1-0.1l3.4-0.1c0.1,0,0.3,0.1,0.3,0.2
						C113.3,30.5,113.2,30.6,113,30.6C113.1,30.6,113,30.6,113,30.6z"/>
				</g>
			</g>
			<g id="keyOutLine1_25_">
				<polyline class="st25" points="106.2,18.8 117.8,30.4 117.8,34.2 				"/>
				<g>
					<path d="M117.8,30.6l-3.4-0.1c-0.1,0-0.1-0.1-0.1-0.1c0-0.1,0-0.1,0.1-0.1l3.4-0.1c0.1,0,0.3,0.1,0.3,0.2
						C118.1,30.5,118,30.6,117.8,30.6C117.8,30.6,117.8,30.6,117.8,30.6z"/>
				</g>
			</g>
			<g id="keyOutLine1_24_">
				<polyline class="st25" points="111,18.8 122.6,30.4 122.6,34.2 				"/>
				<g>
					<path d="M122.6,30.6l-3.4-0.1c-0.1,0-0.1-0.1-0.1-0.1c0-0.1,0-0.1,0.1-0.1l3.4-0.1c0.1,0,0.3,0.1,0.3,0.2
						C122.8,30.5,122.7,30.6,122.6,30.6C122.6,30.6,122.6,30.6,122.6,30.6z"/>
				</g>
			</g>
			<g id="keyOutLine1_23_">
				<polyline class="st25" points="115.7,18.8 127.3,30.4 127.3,34.2 				"/>
				<g>
					<path d="M127.3,30.6l-3.4-0.1c-0.1,0-0.1-0.1-0.1-0.1c0-0.1,0-0.1,0.1-0.1l3.4-0.1c0.1,0,0.3,0.1,0.3,0.2
						C127.6,30.5,127.5,30.6,127.3,30.6C127.4,30.6,127.4,30.6,127.3,30.6z"/>
				</g>
			</g>
		</g>
		<g id="BlackKeys">
			<g id="BlackKeySet1">
				<g id="twoSet1">
					<polygon id="black_Key" points="3.9,18.3 -0.2,18.3 5.5,24 9.9,24 					"/>
					<polygon id="black_Key_2_" points="8.5,18.3 4.4,18.3 10.2,24 14.6,24 					"/>
				</g>
				<g id="treeSet1">
					<polygon id="black_Key_3_" points="18.4,18.3 14.2,18.3 20,24 24.4,24 					"/>
					<polygon id="black_Key_1_" points="23,18.3 18.9,18.3 24.7,24 29,24 					"/>
					<polygon id="black_Key_4_" points="27.7,18.3 23.6,18.3 29.3,24 33.7,24 					"/>
				</g>
			</g>
			<g id="BlackKeySet2">
				<g id="twoSet1_1_">
					<polygon id="black_Key_9_" points="38,18.3 33.9,18.3 39.6,24 44,24 					"/>
					<polygon id="black_Key_8_" points="42.7,18.3 38.6,18.3 44.3,24 48.7,24 					"/>
				</g>
				<g id="treeSet1_1_">
					<polygon id="black_Key_7_" points="52.5,18.3 48.4,18.3 54.1,24 58.5,24 					"/>
					<polygon id="black_Key_6_" points="57.1,18.3 53,18.3 58.8,24 63.2,24 					"/>
					<polygon id="black_Key_5_" points="61.8,18.3 57.7,18.3 63.5,24 67.8,24 					"/>
				</g>
			</g>
			<g id="BlackKeySet3">
				<g id="twoSet1_2_">
					<polygon id="black_Key_14_" points="73.3,18.3 69.2,18.3 75,24 79.3,24 					"/>
					<polygon id="black_Key_13_" points="78,18.3 73.9,18.3 79.6,24 84,24 					"/>
				</g>
				<g id="twoSet1_3_">
					<polygon id="black_Key_16_" points="108.1,18.3 103.9,18.3 109.7,24 114.1,24 					"/>
					<polygon id="black_Key_15_" points="112.7,18.3 108.6,18.3 114.4,24 118.7,24 					"/>
				</g>
				<g id="treeSet1_2_">
					<polygon id="black_Key_12_" points="87.8,18.3 83.7,18.3 89.5,24 93.8,24 					"/>
					<polygon id="black_Key_11_" points="92.5,18.3 88.4,18.3 94.1,24 98.5,24 					"/>
					<polygon id="black_Key_10_" points="97.2,18.3 93.1,18.3 98.8,24 103.2,24 					"/>
				</g>
			</g>
		</g>
	</g>
	<g id="Gizmos_1_" class="st5">
		<polygon id="GizmosBK" class="st26" points="96.8,10.6 102.1,15.8 5.4,15.8 0.4,10.8 		"/>
		<line id="onLight" class="st27" x1="53.8" y1="11.6" x2="57.4" y2="11.6"/>
		
			<ellipse id="button" transform="matrix(0.7071 -0.7071 0.7071 0.7071 8.9451 45.3572)" class="st28" cx="59.2" cy="11.9" rx="0.6" ry="1"/>
	</g>
</g>
<g id="guides" class="st0">
	<rect x="-43.3" y="123.3" class="st29" width="200.7" height="66"/>
</g>
</svg>
