<?xml version="1.0" encoding="utf-8"?>
<!-- Generator: Adobe Illustrator 23.0.2, SVG Export Plug-In . SVG Version: 6.00 Build 0)  -->
<svg version="1.1" xmlns="http://www.w3.org/2000/svg" xmlns:xlink="http://www.w3.org/1999/xlink" x="0px" y="0px"
	 viewBox="0 0 192.5 106.7" style="enable-background:new 0 0 192.5 106.7;" xml:space="preserve">
<style type="text/css">
	.st0{display:none;}
	.st1{display:inline;fill:#D81F27;}
	.st2{display:inline;fill:#FDFEFE;}
	.st3{display:inline;fill:#C49A6C;stroke:#000000;stroke-width:0.75;stroke-miterlimit:10;}
	.st4{display:inline;fill:none;stroke:#000000;stroke-width:0.75;stroke-miterlimit:10;}
	.st5{display:inline;}
	.st6{fill:none;stroke:#000000;stroke-miterlimit:10;}
	.st7{fill:url(#SVGID_1_);stroke:#000000;stroke-miterlimit:10;}
	.st8{fill:url(#SVGID_2_);stroke:#000000;stroke-miterlimit:10;}
	.st9{fill:url(#SVGID_3_);stroke:#000000;stroke-miterlimit:10;}
	.st10{fill:url(#SVGID_4_);stroke:#000000;stroke-miterlimit:10;}
	.st11{fill:#FFFFFF;stroke:#000000;stroke-miterlimit:10;}
	.st12{fill:#F4EB20;}
	.st13{fill:#FFFFFF;}
	.st14{display:inline;fill:#2F67B2;}
	.st15{fill:#545556;}
	.st16{fill:#DBC647;stroke:#000000;stroke-width:0.9774;stroke-miterlimit:10;}
	.st17{display:inline;fill:#DBC647;stroke:#000000;stroke-width:0.9774;stroke-miterlimit:10;}
	.st18{fill:#DBC647;}
	.st19{fill:#9D9033;}
	.st20{fill:#DBC647;stroke:#000000;stroke-width:0.25;stroke-miterlimit:10;}
	.st21{fill:none;stroke:#000000;stroke-width:0.75;stroke-linecap:round;stroke-miterlimit:10;}
	.st22{fill:none;stroke:#000000;stroke-width:2;stroke-miterlimit:10;}
	.st23{stroke:#000000;stroke-width:2;stroke-miterlimit:10;}
	.st24{fill:none;stroke:#FFFFFF;stroke-linecap:round;stroke-miterlimit:10;}
	.st25{fill:none;stroke:#FFFFFF;stroke-linecap:round;stroke-linejoin:round;stroke-miterlimit:10;}
	.st26{fill:none;stroke:#000000;stroke-width:0.5;stroke-linecap:round;stroke-miterlimit:10;}
	.st27{fill:#45464D;}
	.st28{fill:none;stroke:#ED2024;stroke-width:0.5;stroke-linecap:round;stroke-miterlimit:10;}
	.st29{fill:#ED2024;}
	.st30{display:inline;fill:#FFFFFF;stroke:#000000;stroke-miterlimit:10;}
</style>
<g id="Body" class="st0">
</g>
<g id="guitar" class="st0">
	<path id="Body_1_" class="st1" d="M96.2,18.3c0,0-3.8-10.6,3.9-18.2s3.5-11.3-5.6-5.8C86.3-0.6,83.8,1.8,81.6,6.9
		c-0.4,1-0.7,2.1-1,3.2c-1.7,7.4-7.1,13.2-13,15.8c-6.3,2.8-13.5,3.9-20.9,12.6s-7.7,14-6.3,22.4S47.3,75.4,57.6,78
		c7.5,1.9,15.6-0.2,21.8-6.1c2.5-2.4,6.5-7,9.4-13.6C90.8,54,93.4,50.1,97,47c3.3-2.8,7.5-5.6,12-6.9c9.9-2.7,15.1-13,15.1-16.3
		s-2.1-4.9-5.9-3.1C114.4,22.5,103.3,34.1,96.2,18.3z"/>
	<path class="st2" d="M102.9,31c1-0.3,2.2-0.2,3.1,0.3c1.2,0.7,2,2.1-0.3,4.9c-4.2,5-10.8,3.8-16.6,10.6c-5.8,6.8-3,9-13.4,11.8
		C65.2,61.5,52.2,42.5,63.2,36s10.5-3.7,16.8-11c5.2-6,8.4-1.8,8.4-1.8l7.8,8C96.3,31.2,98.8,32.3,102.9,31z"/>
	<path id="Neck" class="st3" d="M166.9-31.5c1.9-4.1-1.2-4.5,9-16.1l-7.4-0.5c0,0-14.8,5-14.3,13.5L90.8,23l5.6,6.2l63.4-57.6
		C159.8-28.4,165-27.4,166.9-31.5z"/>
	<path id="Line_Art" class="st4" d="M97,47c3.3-2.8,7.5-5.6,12-6.9c9.9-2.7,15.1-13,15.1-16.3c0-3.3-2.1-4.9-5.9-3.1
		c-3,1.4-10.6,8.9-17.1,4.2l58.7-53.4c0,0,5.2,0.9,7.1-3.2c1.9-4.1-1.2-4.5,9-16.1l-7.4-0.5c0,0-14.8,5-14.3,13.5l-58,52.8
		c-0.4-1.2-3.3-10.9,3.9-18.1c7.7-7.7,3.5-11.3-5.6-5.8C86.3-0.6,83.8,1.8,81.6,6.9c-0.4,1-0.7,2.1-1,3.2c-1.7,7.4-7.1,13.2-13,15.8
		c-6.3,2.8-13.5,3.9-20.9,12.6c-7.3,8.7-7.7,14-6.3,22.4c1.4,8.4,6.9,14.5,17.1,17.1c7.5,1.9,15.6-0.2,21.8-6.1
		c2.5-2.4,6.5-7,9.4-13.6C90.8,54,93.4,50.1,97,47z"/>
	<g id="Gizmos" class="st5">
		<line class="st6" x1="83.7" y1="29.3" x2="90.4" y2="36.8"/>
		<line class="st6" x1="81.4" y1="31.7" x2="84.1" y2="39.3"/>
		<line class="st6" x1="70" y1="43" x2="75.3" y2="49"/>
		<g id="Vol">
			<circle cx="64.4" cy="65.2" r="1.5"/>
			<circle cx="61.2" cy="72.5" r="1.5"/>
			<circle cx="72" cy="63.8" r="1.5"/>
			<circle cx="68.8" cy="71" r="1.5"/>
		</g>
	</g>
</g>
<g id="Drum">
	<g>
		
			<linearGradient id="SVGID_1_" gradientUnits="userSpaceOnUse" x1="1.1938" y1="79.524" x2="43.4407" y2="79.524" gradientTransform="matrix(0.9933 0.1155 -0.1155 0.9933 10.6787 -2.504)">
			<stop  offset="9.856234e-02" style="stop-color:#000000"/>
			<stop  offset="0.1586" style="stop-color:#020202"/>
			<stop  offset="0.1911" style="stop-color:#0A0A0A"/>
			<stop  offset="0.217" style="stop-color:#181818"/>
			<stop  offset="0.2395" style="stop-color:#2B2B2B"/>
			<stop  offset="0.2597" style="stop-color:#444444"/>
			<stop  offset="0.2782" style="stop-color:#636363"/>
			<stop  offset="0.2956" style="stop-color:#888888"/>
			<stop  offset="0.312" style="stop-color:#B3B3B3"/>
			<stop  offset="0.327" style="stop-color:#E2E2E2"/>
			<stop  offset="0.3353" style="stop-color:#FFFFFF"/>
			<stop  offset="0.339" style="stop-color:#F6F6F6"/>
			<stop  offset="0.3595" style="stop-color:#C8C8C8"/>
			<stop  offset="0.3825" style="stop-color:#9D9D9D"/>
			<stop  offset="0.4072" style="stop-color:#777777"/>
			<stop  offset="0.4341" style="stop-color:#575757"/>
			<stop  offset="0.4639" style="stop-color:#3B3B3B"/>
			<stop  offset="0.4975" style="stop-color:#252525"/>
			<stop  offset="0.5367" style="stop-color:#141414"/>
			<stop  offset="0.5852" style="stop-color:#090909"/>
			<stop  offset="0.6532" style="stop-color:#020202"/>
			<stop  offset="0.8421" style="stop-color:#000000"/>
		</linearGradient>
		<path class="st7" d="M39.8,102.2L2.7,97.9c-1.3-0.2-2.3-1.4-2.1-2.7L4.8,58c0.2-1.3,1.4-2.3,2.7-2.1l37.1,4.3
			c1.3,0.2,2.3,1.4,2.1,2.7l-4.3,37.2C42.3,101.4,41.1,102.4,39.8,102.2z"/>
		<linearGradient id="SVGID_2_" gradientUnits="userSpaceOnUse" x1="1.3604" y1="102.0785" x2="3.2939" y2="102.3033">
			<stop  offset="9.856234e-02" style="stop-color:#000000"/>
			<stop  offset="0.1586" style="stop-color:#020202"/>
			<stop  offset="0.1911" style="stop-color:#0A0A0A"/>
			<stop  offset="0.217" style="stop-color:#181818"/>
			<stop  offset="0.2395" style="stop-color:#2B2B2B"/>
			<stop  offset="0.2597" style="stop-color:#444444"/>
			<stop  offset="0.2782" style="stop-color:#636363"/>
			<stop  offset="0.2956" style="stop-color:#888888"/>
			<stop  offset="0.312" style="stop-color:#B3B3B3"/>
			<stop  offset="0.327" style="stop-color:#E2E2E2"/>
			<stop  offset="0.3353" style="stop-color:#FFFFFF"/>
			<stop  offset="0.339" style="stop-color:#F6F6F6"/>
			<stop  offset="0.3595" style="stop-color:#C8C8C8"/>
			<stop  offset="0.3825" style="stop-color:#9D9D9D"/>
			<stop  offset="0.4072" style="stop-color:#777777"/>
			<stop  offset="0.4341" style="stop-color:#575757"/>
			<stop  offset="0.4639" style="stop-color:#3B3B3B"/>
			<stop  offset="0.4975" style="stop-color:#252525"/>
			<stop  offset="0.5367" style="stop-color:#141414"/>
			<stop  offset="0.5852" style="stop-color:#090909"/>
			<stop  offset="0.6532" style="stop-color:#020202"/>
			<stop  offset="0.8421" style="stop-color:#000000"/>
		</linearGradient>
		<line class="st8" x1="0.9" y1="106.3" x2="3.8" y2="98"/>
		<linearGradient id="SVGID_3_" gradientUnits="userSpaceOnUse" x1="38.4153" y1="104.0597" x2="39.765" y2="104.2167">
			<stop  offset="9.856234e-02" style="stop-color:#000000"/>
			<stop  offset="0.1586" style="stop-color:#020202"/>
			<stop  offset="0.1911" style="stop-color:#0A0A0A"/>
			<stop  offset="0.217" style="stop-color:#181818"/>
			<stop  offset="0.2395" style="stop-color:#2B2B2B"/>
			<stop  offset="0.2597" style="stop-color:#444444"/>
			<stop  offset="0.2782" style="stop-color:#636363"/>
			<stop  offset="0.2956" style="stop-color:#888888"/>
			<stop  offset="0.312" style="stop-color:#B3B3B3"/>
			<stop  offset="0.327" style="stop-color:#E2E2E2"/>
			<stop  offset="0.3353" style="stop-color:#FFFFFF"/>
			<stop  offset="0.339" style="stop-color:#F6F6F6"/>
			<stop  offset="0.3595" style="stop-color:#C8C8C8"/>
			<stop  offset="0.3825" style="stop-color:#9D9D9D"/>
			<stop  offset="0.4072" style="stop-color:#777777"/>
			<stop  offset="0.4341" style="stop-color:#575757"/>
			<stop  offset="0.4639" style="stop-color:#3B3B3B"/>
			<stop  offset="0.4975" style="stop-color:#252525"/>
			<stop  offset="0.5367" style="stop-color:#141414"/>
			<stop  offset="0.5852" style="stop-color:#090909"/>
			<stop  offset="0.6532" style="stop-color:#020202"/>
			<stop  offset="0.8421" style="stop-color:#000000"/>
		</linearGradient>
		<line class="st9" x1="38.6" y1="102.1" x2="39.5" y2="106.2"/>
	</g>
	<g id="Snare">
		<linearGradient id="SVGID_4_" gradientUnits="userSpaceOnUse" x1="137.171" y1="56.4134" x2="168.3631" y2="56.4134">
			<stop  offset="9.856234e-02" style="stop-color:#000000"/>
			<stop  offset="0.1586" style="stop-color:#020202"/>
			<stop  offset="0.1911" style="stop-color:#0A0A0A"/>
			<stop  offset="0.217" style="stop-color:#181818"/>
			<stop  offset="0.2395" style="stop-color:#2B2B2B"/>
			<stop  offset="0.2597" style="stop-color:#444444"/>
			<stop  offset="0.2782" style="stop-color:#636363"/>
			<stop  offset="0.2956" style="stop-color:#888888"/>
			<stop  offset="0.312" style="stop-color:#B3B3B3"/>
			<stop  offset="0.327" style="stop-color:#E2E2E2"/>
			<stop  offset="0.3353" style="stop-color:#FFFFFF"/>
			<stop  offset="0.339" style="stop-color:#F6F6F6"/>
			<stop  offset="0.3595" style="stop-color:#C8C8C8"/>
			<stop  offset="0.3825" style="stop-color:#9D9D9D"/>
			<stop  offset="0.4072" style="stop-color:#777777"/>
			<stop  offset="0.4341" style="stop-color:#575757"/>
			<stop  offset="0.4639" style="stop-color:#3B3B3B"/>
			<stop  offset="0.4975" style="stop-color:#252525"/>
			<stop  offset="0.5367" style="stop-color:#141414"/>
			<stop  offset="0.5852" style="stop-color:#090909"/>
			<stop  offset="0.6532" style="stop-color:#020202"/>
			<stop  offset="0.8421" style="stop-color:#000000"/>
		</linearGradient>
		<path class="st10" d="M168.4,61.6V51.2c0-2.1-7-3.8-15.6-3.8c-8.6,0-15.6,1.7-15.6,3.8v10.4c0,2.1,7,3.8,15.6,3.8
			C161.4,65.4,168.4,63.7,168.4,61.6z"/>
		<ellipse class="st11" cx="152.8" cy="51.2" rx="15.6" ry="3.8"/>
		<polyline class="st6" points="153.2,65.3 153.2,95 165.6,106.3 		"/>
		<polyline class="st6" points="152.9,106 153.2,94.8 140.8,106 		"/>
	</g>
	<g id="HighHat">
		<polyline class="st6" points="43.7,22.9 43.7,82.9 33.5,106.3 		"/>
		<g id="highHatBottom">
			<path id="highHat" class="st12" d="M25.3,33.5h37.6C62.9,33.5,45.4,44.6,25.3,33.5z"/>
			<ellipse id="Dimple" class="st12" cx="43.7" cy="38" rx="5.4" ry="2.1"/>
		</g>
		<g id="highHatTop">
			<path id="highHat_3_" class="st12" d="M25.3,32.4h37.6C62.9,32.4,45.4,21.3,25.3,32.4z"/>
			<ellipse id="Dimple_1_" class="st12" cx="43.7" cy="27.9" rx="5.4" ry="2.1"/>
		</g>
		<line class="st6" x1="51.6" y1="105.9" x2="43.7" y2="82.9"/>
	</g>
	<g id="topRim_1_">
		<polyline class="st6" points="42.5,106.4 32,84.5 21.2,106.5 		"/>
		<line class="st6" x1="32" y1="84.8" x2="32" y2="29.9"/>
		<circle class="st6" cx="32.1" cy="27" r="3"/>
		<polyline class="st6" points="11.8,30.7 69,10.7 69,0 		"/>
		<g id="topRim">
			<path id="highHat_1_" class="st12" d="M50.7,8.4h37.6C88.3,8.4,70.8-2.8,50.7,8.4z"/>
			<ellipse id="Dimple_2_" class="st12" cx="69.1" cy="3.8" rx="5.4" ry="2.1"/>
		</g>
	</g>
	<g id="topRim_2_">
		<polyline class="st6" points="161.7,106.4 172.1,84.5 183,106.5 		"/>
		<line class="st6" x1="172.2" y1="84.8" x2="172.2" y2="29.9"/>
		<circle class="st6" cx="172.1" cy="27" r="3"/>
		<polyline class="st6" points="192.3,30.7 135.2,10.7 135.2,0 		"/>
		<g id="topRim_3_">
			<path id="highHat_2_" class="st12" d="M153.4,8.4h-37.6C115.9,8.4,133.4-2.8,153.4,8.4z"/>
			<ellipse id="Dimple_3_" class="st12" cx="135.1" cy="3.8" rx="5.4" ry="2.1"/>
		</g>
	</g>
	<g id="BaseDrum">
		<circle id="mainDrumOuter" cx="92.6" cy="62.9" r="43.4"/>
		<circle id="mainDrumBrand" class="st13" cx="92.6" cy="62.9" r="36.9"/>
		<circle id="mainDrumInner" cx="92.6" cy="62.9" r="31.4"/>
		
			<image style="overflow:visible;" width="391" height="489" id="Sticker" xlink:href="logo_MFG.png"  transform="matrix(6.463948e-02 -3.466629e-04 3.466629e-04 6.463948e-02 79.1185 47.9686)">
		</image>
		<line id="left_leg" class="st6" x1="48.7" y1="106.3" x2="62.1" y2="92.8"/>
		<line id="right_lag" class="st6" x1="136.9" y1="106.3" x2="123.4" y2="92.8"/>
	</g>
</g>
<g id="Base" class="st0">
	<path id="body" class="st14" d="M98,52.3c3.8-1.3,7.3-3.5,10.3-6.5c4.8-4.8,7.5-11,7.9-17.3c0.1-1.6-1.8-2.6-3-1.5
		c-1.6,1.5-3.7,2.8-6.2,3.7c-6.3,2.2-13.4,1.1-18.4-3.3c-7.1-6.3-8.1-16.7-2.9-24.1c0.3,1,0.9,2,1.9,2.7c1.5,1,3.6,0.9,5-0.2
		c2.2-1.7,2.4-4.8,0.5-6.7c-1.2-1.2-3.1-1.6-5.1-1.5c-1.3,0-2.5,0.2-3.8,0.6C78.5,0,74.1,2.3,69.5,7c-2.6,2.6-4.5,5.5-5.8,8.6
		c-2.5,5.9-7.4,10.2-13.2,12.9c-3.8,1.7-7.2,4.3-10.1,7.8c-8.4,10.3-8,25.6,0.9,35.5C51.9,83.6,70.1,84,81.2,72.9
		c3-3,5.2-6.6,6.5-10.3C89.4,57.7,93.1,54,98,52.3z"/>
	<g class="st5">
		<path class="st13" d="M47,35.3c-8.7,8.7-8.5,23.3-0.2,32.4c9.2,10.1,25,10.4,34.6,0.8c2.6-2.6,4.5-5.7,5.6-8.9
			c1.5-4.3,5-7.5,9.2-9.1c2.3-0.8,4.6-2.1,6.6-3.7c0.7-0.6,0.8-1.7,0.2-2.4L81.3,22.9l-5.5,5.5l10.7,10.7l-5,5L70.8,33.4L66.2,38
			c0,0-0.1,0-0.1,0l-9.2-9.2"/>
	</g>
	<path id="Neckcolour" class="st3" d="M160.4-36c0,0-3-0.5-5-2c-0.2-0.1-0.1-0.4,0.1-0.4c0.5-0.1,1.1-0.4,1.5-0.8
		c0.9-0.9,0.9-2.3,0.1-3.3c-0.9-1.1-2.6-1.2-3.6-0.2c-0.1,0.1-0.2,0.2-0.3,0.3l-2.5,2.5c-5.9,5.9-11.3,6.2-11.3,6.2l-1.8,7.3
		l-55.2,53l5.2,5.4l55.2-53l5.7-0.5C151.6-29.7,160.4-36,160.4-36z"/>
	<path id="Line_art" class="st4" d="M98.4,51.9c3.8-1.3,7.3-3.5,10.3-6.5c4.8-4.8,7.5-11,7.9-17.3c0.1-1.6-1.8-2.6-3-1.5
		c-1.6,1.5-3.7,2.8-6.2,3.7c-5.4,1.9-11.5,1.4-16.3-1.7l51.7-49.6l5.7-0.5c3-8.3,11.7-14.6,11.7-14.6s-3-0.5-5-2
		c-0.2-0.1-0.1-0.4,0.1-0.4c0.5-0.1,1.1-0.4,1.5-0.8c0.9-0.9,0.9-2.3,0.1-3.3c-0.9-1.1-2.6-1.2-3.6-0.2c-0.1,0.1-0.2,0.2-0.3,0.3
		l-2.5,2.5c-5.9,5.9-11.3,6.2-11.3,6.2l-1.8,7.3L85.9,23.4c-4.1-6.2-4-14.3,0.3-20.4c0.3,1,0.9,2,1.9,2.7c1.5,1,3.6,0.9,5-0.2
		c2.2-1.7,2.4-4.8,0.5-6.7c-1.2-1.2-3.1-1.6-5.1-1.5c-1.3,0-2.5,0.2-3.8,0.6c-5.9,1.7-10.3,4-14.9,8.6c-2.6,2.6-4.5,5.5-5.8,8.6
		C61.6,21,56.7,25.4,50.9,28c-3.8,1.7-7.2,4.3-10.1,7.8c-8.4,10.3-8,25.6,0.9,35.5c10.6,11.9,28.8,12.2,39.9,1.2
		c3-3,5.2-6.6,6.5-10.3C89.8,57.3,93.6,53.5,98.4,51.9z"/>
	<g id="gizmos" class="st5">
		<path class="st15" d="M56.1,62.3l-4-4c-0.1-0.1-0.1-0.2,0-0.3l1.3-1.3c0.1-0.1,0.2-0.1,0.3,0l4,4c0.1,0.1,0.1,0.2,0,0.3l-1.3,1.3
			C56.3,62.4,56.2,62.4,56.1,62.3z"/>
		<path class="st15" d="M57.4,57l-2.8-2.8c0,0,0.4,1.1-0.2,1.6l2.1,2.1l0,0l2.1,2.1c0.5-0.5,1.6-0.2,1.6-0.2L57.4,57z"/>
		<path class="st15" d="M83.5,34.3L80.2,31c-0.2-0.2-0.2-0.4-0.1-0.6l0.9-1.7l4.8,4.8l-1.6,0.9C84,34.5,83.7,34.5,83.5,34.3z"/>
		<g id="Vol_1_">
			<circle cx="71.8" cy="67.7" r="1.2"/>
			<circle cx="68.1" cy="67.7" r="1.2"/>
			<circle cx="68.1" cy="64" r="1.2"/>
			<circle cx="71.8" cy="64" r="1.2"/>
		</g>
	</g>
</g>
<g id="Trumpet" class="st0">
	<g id="mouthpce" class="st5">
		<rect id="mouthTube" x="117.4" y="13" class="st16" width="16.6" height="6"/>
		<ellipse id="mouthPiece" class="st16" cx="141.6" cy="16.2" rx="3.8" ry="6.3"/>
		<ellipse id="baseMouth" class="st16" cx="136.9" cy="16" rx="4.2" ry="4.7"/>
	</g>
	<path id="body_1_" class="st17" d="M119.5,12.9H82.1c-17.2,0-23.8-11-23.8-11L59,26c3.4-7.7,23.1-6.9,23.1-6.9h35.1
		c1.3,0,2.3,1,2.3,2.3V30c0,1.4-1.1,2.5-2.5,2.5H92.1c-1.4,0-2.5-1.1-2.5-2.5v-11h-6.7v13.5c0,3.4,2.7,6.1,6.1,6.1h0.6h29.8v0h0.4
		c3.6,0,6.6-2.9,6.6-6.6v-14c0-2.9-2.3-5.2-5.2-5.2H119.5z"/>
	<g id="horn" class="st5">
		<g id="outerRim">
			<ellipse class="st18" cx="49.4" cy="14.7" rx="10.8" ry="23.7"/>
			<path d="M60.8,14.7c0,2.4-0.2,4.7-0.5,7.1c-0.4,2.3-0.9,4.6-1.6,6.9c-0.8,2.2-1.7,4.4-3.2,6.4l-0.5,0.7l-0.6,0.7
				c-0.4,0.5-0.9,0.8-1.4,1.2c-1,0.7-2.2,1.1-3.5,1.2c-1.3,0-2.5-0.5-3.5-1.2c-0.5-0.4-1-0.7-1.4-1.2L44,35.7L43.4,35
				c-1.4-1.9-2.4-4.1-3.1-6.4c-0.7-2.2-1.2-4.6-1.6-6.9c-0.3-2.3-0.4-4.7-0.5-7c0-2.3,0.1-4.7,0.5-7c0.3-2.3,0.8-4.6,1.6-6.9
				c0.7-2.2,1.7-4.4,3.1-6.4L44-6.3L44.6-7C45-7.4,45.5-7.8,46-8.1c1-0.7,2.2-1.1,3.5-1.2c1.3,0,2.5,0.5,3.5,1.2
				c0.5,0.4,1,0.7,1.4,1.2l0.6,0.7l0.5,0.7c1.4,1.9,2.4,4.1,3.2,6.4c0.7,2.2,1.3,4.6,1.6,6.9C60.6,10,60.7,12.3,60.8,14.7z
				 M59.8,14.7c0-2.3-0.1-4.6-0.4-6.9C59,5.5,58.5,3.2,57.8,1c-0.7-2.2-1.6-4.3-3-6.2l-0.5-0.7l-0.6-0.6c-0.4-0.4-0.8-0.7-1.3-1.1
				c-0.9-0.6-2-1-3.1-1.1c-1.1,0-2.1,0.4-3.1,1c-0.4,0.4-0.9,0.7-1.3,1.1l-0.6,0.6L44-5.2c-1.4,1.8-2.3,4-3.1,6.2
				c-0.7,2.2-1.2,4.5-1.6,6.8c-0.3,2.3-0.5,4.6-0.5,6.9c0,2.3,0.2,4.6,0.5,6.9c0.4,2.3,0.9,4.6,1.6,6.8c0.7,2.2,1.7,4.3,3.1,6.2
				l0.5,0.7l0.6,0.6c0.4,0.4,0.8,0.7,1.3,1.1c0.9,0.6,2,1,3.1,1c1.1,0,2.1-0.4,3.1-1.1c0.4-0.4,0.9-0.7,1.3-1.1l0.6-0.6l0.5-0.7
				c1.3-1.8,2.3-4,3-6.2c0.7-2.2,1.2-4.5,1.5-6.7C59.6,19.3,59.8,17,59.8,14.7z"/>
		</g>
		<g id="innderRim">
			<ellipse class="st19" cx="52.6" cy="15.8" rx="4.5" ry="13.5"/>
			<path d="M57.2,15.8c0,2.5-0.2,5-0.7,7.5c-0.3,1.2-0.6,2.4-1.2,3.6c-0.3,0.6-0.6,1.1-1,1.6c-0.4,0.5-1,0.9-1.7,0.9
				c-0.7,0-1.3-0.4-1.7-0.9c-0.4-0.5-0.8-1-1-1.6c-0.5-1.1-0.9-2.4-1.2-3.6c-0.6-2.5-0.8-5-0.8-7.5c0-2.5,0.3-5,0.8-7.5
				c0.3-1.2,0.7-2.4,1.2-3.6c0.3-0.6,0.6-1.1,1-1.6c0.4-0.5,1-0.9,1.7-0.9c0.7,0,1.3,0.4,1.7,0.9c0.4,0.5,0.7,1,1,1.6
				c0.5,1.1,0.9,2.4,1.2,3.6C57,10.8,57.2,13.3,57.2,15.8z M57.2,15.8c0-2.5-0.3-5-0.8-7.5c-0.3-1.2-0.7-2.4-1.2-3.5
				c-0.3-0.6-0.6-1.1-1-1.6c-0.4-0.5-0.9-0.8-1.5-0.8c-0.6,0-1.1,0.4-1.5,0.9c-0.4,0.5-0.7,1-1,1.6c-0.5,1.1-0.9,2.3-1.1,3.5
				c-0.5,2.4-0.7,4.9-0.7,7.4c0,2.5,0.2,5,0.7,7.4c0.3,1.2,0.6,2.4,1.1,3.5c0.3,0.6,0.6,1.1,1,1.6c0.4,0.5,0.9,0.9,1.5,0.9
				c0.6,0,1.1-0.4,1.5-0.8c0.4-0.5,0.7-1,1-1.6c0.5-1.1,0.9-2.3,1.2-3.5C56.9,20.8,57.1,18.3,57.2,15.8z"/>
		</g>
		<g id="hole">
			<ellipse cx="55.3" cy="15.8" rx="1.9" ry="6.8"/>
			<path d="M57.2,15.8c0,1.2-0.1,2.5-0.3,3.7c-0.1,0.6-0.2,1.2-0.4,1.8c-0.1,0.3-0.2,0.6-0.4,0.8c-0.2,0.3-0.4,0.5-0.8,0.6
				c-0.4,0-0.6-0.3-0.8-0.5c-0.2-0.3-0.3-0.5-0.4-0.8c-0.2-0.6-0.4-1.2-0.5-1.8c-0.2-1.2-0.3-2.5-0.3-3.7c0-1.2,0.1-2.5,0.3-3.7
				c0.1-0.6,0.3-1.2,0.5-1.8c0.1-0.3,0.3-0.6,0.4-0.8c0.2-0.3,0.4-0.5,0.8-0.5c0.4,0,0.6,0.3,0.8,0.6c0.2,0.3,0.3,0.6,0.4,0.8
				c0.2,0.6,0.3,1.2,0.4,1.8C57.1,13.3,57.2,14.6,57.2,15.8z M57.2,15.8c0-1.2-0.1-2.5-0.3-3.7c-0.1-0.6-0.3-1.2-0.5-1.8
				c-0.1-0.3-0.2-0.6-0.4-0.8c-0.2-0.2-0.4-0.5-0.7-0.5c-0.3,0-0.5,0.2-0.6,0.5c-0.2,0.3-0.3,0.5-0.4,0.8c-0.2,0.6-0.3,1.2-0.4,1.8
				c-0.2,1.2-0.3,2.4-0.3,3.6c0,1.2,0.1,2.4,0.3,3.6c0.1,0.6,0.2,1.2,0.4,1.8c0.1,0.3,0.2,0.6,0.4,0.8c0.2,0.2,0.4,0.5,0.6,0.5
				c0.3,0,0.5-0.2,0.7-0.5c0.2-0.2,0.3-0.5,0.4-0.8c0.2-0.6,0.4-1.2,0.5-1.8C57.1,18.2,57.1,17,57.2,15.8z"/>
		</g>
	</g>
	<g id="Valvegrp" class="st5">
		<g id="Valveleft">
			<g id="bodyValve">
				<path class="st20" d="M98.2,11.8c-1.8,0-3.2,0.6-3.2,1.4v19.2c0,0.8,1.4,1.5,3.2,1.5s3.2-0.6,3.2-1.5V13.3
					C101.4,12.5,100,11.8,98.2,11.8z"/>
				<ellipse class="st20" cx="98.2" cy="13.3" rx="3.2" ry="1.5"/>
			</g>
			<line id="linkValve" class="st21" x1="98.2" y1="13.3" x2="98.2" y2="10.2"/>
			<g id="topValve">
				<path class="st20" d="M98.2,6.9c-1.8,0-3.2,0.6-3.2,1.4v1.8c0,0.8,1.4,1.4,3.2,1.4s3.2-0.6,3.2-1.4V8.3
					C101.4,7.5,100,6.9,98.2,6.9z"/>
				<ellipse class="st20" cx="98.2" cy="8.3" rx="3.2" ry="1.5"/>
			</g>
		</g>
		<g id="Valvemiddle">
			<g id="bodyValve_1_">
				<path class="st20" d="M104.6,11.8c-1.8,0-3.2,0.6-3.2,1.4v19.2c0,0.8,1.4,1.5,3.2,1.5s3.2-0.6,3.2-1.5V13.3
					C107.8,12.5,106.4,11.8,104.6,11.8z"/>
				<ellipse class="st20" cx="104.6" cy="13.3" rx="3.2" ry="1.5"/>
			</g>
			<line id="linkValve_1_" class="st21" x1="104.6" y1="13.3" x2="104.6" y2="10.2"/>
			<g id="topValve_1_">
				<path class="st20" d="M104.6,6.9c-1.8,0-3.2,0.6-3.2,1.4v1.8c0,0.8,1.4,1.4,3.2,1.4s3.2-0.6,3.2-1.4V8.3
					C107.8,7.5,106.4,6.9,104.6,6.9z"/>
				<ellipse class="st20" cx="104.6" cy="8.3" rx="3.2" ry="1.5"/>
			</g>
		</g>
		<g id="Valveright">
			<g id="bodyValve_2_">
				<path class="st20" d="M111.1,11.8c-1.8,0-3.2,0.6-3.2,1.4v19.2c0,0.8,1.4,1.5,3.2,1.5s3.2-0.6,3.2-1.5V13.3
					C114.3,12.5,112.9,11.8,111.1,11.8z"/>
				<ellipse class="st20" cx="111.1" cy="13.3" rx="3.2" ry="1.5"/>
			</g>
			<line id="linkValve_2_" class="st21" x1="111.1" y1="13.3" x2="111.1" y2="10.2"/>
			<g id="topValve_2_">
				<path class="st20" d="M111.1,6.9c-1.8,0-3.2,0.6-3.2,1.4v1.8c0,0.8,1.4,1.4,3.2,1.4c1.8,0,3.2-0.6,3.2-1.4V8.3
					C114.3,7.5,112.9,6.9,111.1,6.9z"/>
				<ellipse class="st20" cx="111.1" cy="8.3" rx="3.2" ry="1.5"/>
			</g>
		</g>
	</g>
</g>
<g id="piano" class="st0">
	<g id="lags" class="st5">
		<rect id="frontLags" x="30.9" y="28" class="st22" width="145.8" height="77.8"/>
		<rect id="bckLags" x="11.5" y="8.7" class="st22" width="145.8" height="77.8"/>
	</g>
	<g id="Body_2_" class="st5">
		<path id="body_2_" class="st23" d="M176.9,21.5L157.6,2.2L11.5,2.5v6.2L30.9,28c0,0,146.4-0.6,146.1-0.3
			C176.9,27.7,177,21.4,176.9,21.5z"/>
		<line id="outlineWhiteDown" class="st24" x1="30.9" y1="28" x2="30.9" y2="21.5"/>
		<polyline id="outlineWhite" class="st25" points="176.9,21.5 30.6,21.5 11.6,2.4 		"/>
	</g>
	<g id="keys" class="st5">
		<polygon id="keysBk" class="st13" points="41.6,21.8 41.6,25.8 167.5,25.8 167.5,21.6 153.9,8 27.9,8 		"/>
		<g id="keyOutLines">
			<g id="keyOutLine1">
				<polyline class="st26" points="46.6,24.8 46.6,21 35,9.4 				"/>
				<g>
					<path d="M46.6,21.3l-3.4-0.1c-0.1,0-0.1-0.1-0.1-0.1c0-0.1,0-0.1,0.1-0.1l3.4-0.1c0.1,0,0.3,0.1,0.3,0.2
						C46.9,21.2,46.8,21.3,46.6,21.3C46.7,21.3,46.7,21.3,46.6,21.3z"/>
				</g>
			</g>
			<g id="keyOutLine1_1_">
				<polyline class="st26" points="52.1,24.8 52.1,21 40.5,9.4 				"/>
				<g>
					<path d="M52.1,21.3l-3.4-0.1c-0.1,0-0.1-0.1-0.1-0.1c0-0.1,0-0.1,0.1-0.1l3.4-0.1c0.1,0,0.3,0.1,0.3,0.2
						C52.4,21.2,52.3,21.3,52.1,21.3C52.2,21.3,52.2,21.3,52.1,21.3z"/>
				</g>
			</g>
			<g id="keyOutLine1_2_">
				<polyline class="st26" points="45.3,9.4 56.9,21 56.9,24.8 				"/>
				<g>
					<path d="M56.9,21.3l-3.4-0.1c-0.1,0-0.1-0.1-0.1-0.1c0-0.1,0-0.1,0.1-0.1l3.4-0.1c0.1,0,0.3,0.1,0.3,0.2
						C57.2,21.2,57.1,21.3,56.9,21.3C56.9,21.3,56.9,21.3,56.9,21.3z"/>
				</g>
			</g>
			<g id="keyOutLine1_3_">
				<polyline class="st26" points="50.1,9.4 61.7,21 61.7,24.8 				"/>
				<g>
					<path d="M61.7,21.3l-3.4-0.1c-0.1,0-0.1-0.1-0.1-0.1c0-0.1,0-0.1,0.1-0.1l3.4-0.1c0.1,0,0.3,0.1,0.3,0.2
						C62,21.2,61.8,21.3,61.7,21.3C61.7,21.3,61.7,21.3,61.7,21.3z"/>
				</g>
			</g>
			<g id="keyOutLine1_7_">
				<polyline class="st26" points="54.7,9.4 66.3,21 66.3,24.8 				"/>
				<g>
					<path d="M66.3,21.3l-3.4-0.1c-0.1,0-0.1-0.1-0.1-0.1c0-0.1,0-0.1,0.1-0.1l3.4-0.1c0.1,0,0.3,0.1,0.3,0.2
						C66.5,21.2,66.4,21.3,66.3,21.3C66.3,21.3,66.3,21.3,66.3,21.3z"/>
				</g>
			</g>
			<g id="keyOutLine1_6_">
				<polyline class="st26" points="60.2,9.4 71.8,21 71.8,24.8 				"/>
				<g>
					<path d="M71.8,21.3l-3.4-0.1c-0.1,0-0.1-0.1-0.1-0.1c0-0.1,0-0.1,0.1-0.1l3.4-0.1c0.1,0,0.3,0.1,0.3,0.2
						C72,21.2,71.9,21.3,71.8,21.3C71.8,21.3,71.8,21.3,71.8,21.3z"/>
				</g>
			</g>
			<g id="keyOutLine1_5_">
				<polyline class="st26" points="64.9,9.4 76.5,21 76.5,24.8 				"/>
				<g>
					<path d="M76.5,21.3l-3.4-0.1c-0.1,0-0.1-0.1-0.1-0.1c0-0.1,0-0.1,0.1-0.1l3.4-0.1c0.1,0,0.3,0.1,0.3,0.2
						C76.8,21.2,76.7,21.3,76.5,21.3C76.6,21.3,76.6,21.3,76.5,21.3z"/>
				</g>
			</g>
			<g id="keyOutLine1_4_">
				<polyline class="st26" points="69.7,9.4 81.3,21 81.3,24.8 				"/>
				<g>
					<path d="M81.3,21.3L78,21.2c-0.1,0-0.1-0.1-0.1-0.1c0-0.1,0-0.1,0.1-0.1l3.4-0.1c0.1,0,0.3,0.1,0.3,0.2
						C81.6,21.2,81.5,21.3,81.3,21.3C81.3,21.3,81.3,21.3,81.3,21.3z"/>
				</g>
			</g>
			<g id="keyOutLine1_11_">
				<polyline class="st26" points="74.5,9.4 86.1,21 86.1,24.8 				"/>
				<g>
					<path d="M86.1,21.3l-3.4-0.1c-0.1,0-0.1-0.1-0.1-0.1c0-0.1,0-0.1,0.1-0.1l3.4-0.1c0.1,0,0.3,0.1,0.3,0.2
						C86.4,21.2,86.2,21.3,86.1,21.3C86.1,21.3,86.1,21.3,86.1,21.3z"/>
				</g>
			</g>
			<g id="keyOutLine1_10_">
				<polyline class="st26" points="80,9.4 91.6,21 91.6,24.8 				"/>
				<g>
					<path d="M91.6,21.3l-3.4-0.1c-0.1,0-0.1-0.1-0.1-0.1c0-0.1,0-0.1,0.1-0.1l3.4-0.1c0.1,0,0.3,0.1,0.3,0.2
						C91.9,21.2,91.7,21.3,91.6,21.3C91.6,21.3,91.6,21.3,91.6,21.3z"/>
				</g>
			</g>
			<g id="keyOutLine1_9_">
				<polyline class="st26" points="84.7,9.4 96.4,21 96.4,24.8 				"/>
				<g>
					<path d="M96.4,21.3L93,21.2c-0.1,0-0.1-0.1-0.1-0.1c0-0.1,0-0.1,0.1-0.1l3.4-0.1c0.1,0,0.3,0.1,0.3,0.2
						C96.6,21.2,96.5,21.3,96.4,21.3C96.4,21.3,96.4,21.3,96.4,21.3z"/>
				</g>
			</g>
			<g id="keyOutLine1_8_">
				<polyline class="st26" points="89.5,9.4 101.1,21 101.1,24.8 				"/>
				<g>
					<path d="M101.1,21.3l-3.4-0.1c-0.1,0-0.1-0.1-0.1-0.1c0-0.1,0-0.1,0.1-0.1l3.4-0.1c0.1,0,0.3,0.1,0.3,0.2
						C101.4,21.2,101.3,21.3,101.1,21.3C101.1,21.3,101.1,21.3,101.1,21.3z"/>
				</g>
			</g>
			<g id="keyOutLine1_19_">
				<polyline class="st26" points="94.5,9.4 106.1,21 106.1,24.8 				"/>
				<g>
					<path d="M106.1,21.3l-3.4-0.1c-0.1,0-0.1-0.1-0.1-0.1c0-0.1,0-0.1,0.1-0.1l3.4-0.1c0.1,0,0.3,0.1,0.3,0.2
						C106.3,21.2,106.2,21.3,106.1,21.3C106.1,21.3,106.1,21.3,106.1,21.3z"/>
				</g>
			</g>
			<g id="keyOutLine1_18_">
				<polyline class="st26" points="100,9.4 111.6,21 111.6,24.8 				"/>
				<g>
					<path d="M111.6,21.3l-3.4-0.1c-0.1,0-0.1-0.1-0.1-0.1c0-0.1,0-0.1,0.1-0.1l3.4-0.1c0.1,0,0.3,0.1,0.3,0.2
						C111.8,21.2,111.7,21.3,111.6,21.3C111.6,21.3,111.6,21.3,111.6,21.3z"/>
				</g>
			</g>
			<g id="keyOutLine1_17_">
				<polyline class="st26" points="104.7,9.4 116.4,21 116.4,24.8 				"/>
				<g>
					<path d="M116.4,21.3l-3.4-0.1c-0.1,0-0.1-0.1-0.1-0.1c0-0.1,0-0.1,0.1-0.1l3.4-0.1c0.1,0,0.3,0.1,0.3,0.2
						C116.6,21.2,116.5,21.3,116.4,21.3C116.4,21.3,116.4,21.3,116.4,21.3z"/>
				</g>
			</g>
			<g id="keyOutLine1_16_">
				<polyline class="st26" points="109.5,9.4 121.1,21 121.1,24.8 				"/>
				<g>
					<path d="M121.1,21.3l-3.4-0.1c-0.1,0-0.1-0.1-0.1-0.1c0-0.1,0-0.1,0.1-0.1l3.4-0.1c0.1,0,0.3,0.1,0.3,0.2
						C121.4,21.2,121.3,21.3,121.1,21.3C121.1,21.3,121.1,21.3,121.1,21.3z"/>
				</g>
			</g>
			<g id="keyOutLine1_15_">
				<polyline class="st26" points="114.3,9.4 125.9,21 125.9,24.8 				"/>
				<g>
					<path d="M125.9,21.3l-3.4-0.1c-0.1,0-0.1-0.1-0.1-0.1c0-0.1,0-0.1,0.1-0.1l3.4-0.1c0.1,0,0.3,0.1,0.3,0.2
						C126.2,21.2,126,21.3,125.9,21.3C125.9,21.3,125.9,21.3,125.9,21.3z"/>
				</g>
			</g>
			<g id="keyOutLine1_14_">
				<polyline class="st26" points="119.8,9.4 131.4,21 131.4,24.8 				"/>
				<g>
					<path d="M131.4,21.3l-3.4-0.1c-0.1,0-0.1-0.1-0.1-0.1c0-0.1,0-0.1,0.1-0.1l3.4-0.1c0.1,0,0.3,0.1,0.3,0.2
						C131.7,21.2,131.6,21.3,131.4,21.3C131.4,21.3,131.4,21.3,131.4,21.3z"/>
				</g>
			</g>
			<g id="keyOutLine1_13_">
				<polyline class="st26" points="124.5,9.4 136.2,21 136.2,24.8 				"/>
				<g>
					<path d="M136.2,21.3l-3.4-0.1c-0.1,0-0.1-0.1-0.1-0.1c0-0.1,0-0.1,0.1-0.1l3.4-0.1c0.1,0,0.3,0.1,0.3,0.2
						C136.4,21.2,136.3,21.3,136.2,21.3C136.2,21.3,136.2,21.3,136.2,21.3z"/>
				</g>
			</g>
			<g id="keyOutLine1_12_">
				<polyline class="st26" points="129.3,9.4 140.9,21 140.9,24.8 				"/>
				<g>
					<path d="M140.9,21.3l-3.4-0.1c-0.1,0-0.1-0.1-0.1-0.1c0-0.1,0-0.1,0.1-0.1l3.4-0.1c0.1,0,0.3,0.1,0.3,0.2
						C141.2,21.2,141.1,21.3,140.9,21.3C140.9,21.3,140.9,21.3,140.9,21.3z"/>
				</g>
			</g>
			<g id="keyOutLine1_27_">
				<polyline class="st26" points="134.3,9.4 145.9,21 145.9,24.8 				"/>
				<g>
					<path d="M145.9,21.3l-3.4-0.1c-0.1,0-0.1-0.1-0.1-0.1c0-0.1,0-0.1,0.1-0.1l3.4-0.1c0.1,0,0.3,0.1,0.3,0.2
						C146.1,21.2,146,21.3,145.9,21.3C145.9,21.3,145.9,21.3,145.9,21.3z"/>
				</g>
			</g>
			<g id="keyOutLine1_26_">
				<polyline class="st26" points="139.8,9.4 151.4,21 151.4,24.8 				"/>
				<g>
					<path d="M151.4,21.3l-3.4-0.1c-0.1,0-0.1-0.1-0.1-0.1c0-0.1,0-0.1,0.1-0.1l3.4-0.1c0.1,0,0.3,0.1,0.3,0.2
						C151.7,21.2,151.5,21.3,151.4,21.3C151.4,21.3,151.4,21.3,151.4,21.3z"/>
				</g>
			</g>
			<g id="keyOutLine1_25_">
				<polyline class="st26" points="144.5,9.4 156.2,21 156.2,24.8 				"/>
				<g>
					<path d="M156.2,21.3l-3.4-0.1c-0.1,0-0.1-0.1-0.1-0.1c0-0.1,0-0.1,0.1-0.1l3.4-0.1c0.1,0,0.3,0.1,0.3,0.2
						C156.4,21.2,156.3,21.3,156.2,21.3C156.2,21.3,156.2,21.3,156.2,21.3z"/>
				</g>
			</g>
			<g id="keyOutLine1_24_">
				<polyline class="st26" points="149.3,9.4 160.9,21 160.9,24.8 				"/>
				<g>
					<path d="M160.9,21.3l-3.4-0.1c-0.1,0-0.1-0.1-0.1-0.1c0-0.1,0-0.1,0.1-0.1l3.4-0.1c0.1,0,0.3,0.1,0.3,0.2
						C161.2,21.2,161.1,21.3,160.9,21.3C160.9,21.3,160.9,21.3,160.9,21.3z"/>
				</g>
			</g>
			<g id="keyOutLine1_23_">
				<polyline class="st26" points="154.1,9.4 165.7,21 165.7,24.8 				"/>
				<g>
					<path d="M165.7,21.3l-3.4-0.1c-0.1,0-0.1-0.1-0.1-0.1c0-0.1,0-0.1,0.1-0.1l3.4-0.1c0.1,0,0.3,0.1,0.3,0.2
						C166,21.2,165.9,21.3,165.7,21.3C165.7,21.3,165.7,21.3,165.7,21.3z"/>
				</g>
			</g>
		</g>
		<g id="BlackKeys">
			<g id="BlackKeySet1">
				<g id="twoSet1">
					<polygon id="black_Key" points="42.2,9 38.1,9 43.8,14.7 48.2,14.7 					"/>
					<polygon id="black_Key_2_" points="46.9,9 42.8,9 48.5,14.7 52.9,14.7 					"/>
				</g>
				<g id="treeSet1">
					<polygon id="black_Key_3_" points="56.7,9 52.6,9 58.3,14.7 62.7,14.7 					"/>
					<polygon id="black_Key_1_" points="61.4,9 57.3,9 63,14.7 67.4,14.7 					"/>
					<polygon id="black_Key_4_" points="66.1,9 61.9,9 67.7,14.7 72.1,14.7 					"/>
				</g>
			</g>
			<g id="BlackKeySet2">
				<g id="twoSet1_1_">
					<polygon id="black_Key_9_" points="76.3,9 72.2,9 78,14.7 82.3,14.7 					"/>
					<polygon id="black_Key_8_" points="81,9 76.9,9 82.6,14.7 87,14.7 					"/>
				</g>
				<g id="treeSet1_1_">
					<polygon id="black_Key_7_" points="90.8,9 86.7,9 92.5,14.7 96.8,14.7 					"/>
					<polygon id="black_Key_6_" points="95.5,9 91.4,9 97.1,14.7 101.5,14.7 					"/>
					<polygon id="black_Key_5_" points="100.2,9 96.1,9 101.8,14.7 106.2,14.7 					"/>
				</g>
			</g>
			<g id="BlackKeySet3">
				<g id="twoSet1_2_">
					<polygon id="black_Key_14_" points="111.7,9 107.6,9 113.3,14.7 117.7,14.7 					"/>
					<polygon id="black_Key_13_" points="116.3,9 112.2,9 118,14.7 122.4,14.7 					"/>
				</g>
				<g id="twoSet1_3_">
					<polygon id="black_Key_16_" points="146.4,9 142.3,9 148,14.7 152.4,14.7 					"/>
					<polygon id="black_Key_15_" points="151.1,9 147,9 152.7,14.7 157.1,14.7 					"/>
				</g>
				<g id="treeSet1_2_">
					<polygon id="black_Key_12_" points="126.2,9 122.1,9 127.8,14.7 132.2,14.7 					"/>
					<polygon id="black_Key_11_" points="130.8,9 126.7,9 132.5,14.7 136.9,14.7 					"/>
					<polygon id="black_Key_10_" points="135.5,9 131.4,9 137.2,14.7 141.5,14.7 					"/>
				</g>
			</g>
		</g>
	</g>
	<g id="Gizmos_1_" class="st5">
		<polygon id="GizmosBK" class="st27" points="135.2,1.2 140.4,6.5 43.7,6.5 38.7,1.5 		"/>
		<line id="onLight" class="st28" x1="92.2" y1="2.2" x2="95.7" y2="2.2"/>
		
			<ellipse id="button" transform="matrix(0.7071 -0.7071 0.7071 0.7071 26.7709 69.7398)" class="st29" cx="97.6" cy="2.6" rx="0.6" ry="1"/>
	</g>
</g>
<g id="guides" class="st0">
	<rect x="-5" y="113.9" class="st30" width="200.7" height="66"/>
</g>
</svg>
