<?xml version="1.0" encoding="utf-8"?>
<!-- Generator: Adobe Illustrator 23.0.2, SVG Export Plug-In . SVG Version: 6.00 Build 0)  -->
<svg version="1.1" xmlns="http://www.w3.org/2000/svg" xmlns:xlink="http://www.w3.org/1999/xlink" x="0px" y="0px"
	 viewBox="0 0 137.3 127.5" style="enable-background:new 0 0 137.3 127.5;" xml:space="preserve">
<style type="text/css">
	.st0{display:none;}
	.st1{fill:#D81F27;}
	.st2{fill:#FDFEFE;}
	.st3{fill:#C49A6C;stroke:#000000;stroke-width:0.75;stroke-miterlimit:10;}
	.st4{fill:none;stroke:#000000;stroke-width:0.75;stroke-miterlimit:10;}
	.st5{fill:none;stroke:#000000;stroke-miterlimit:10;}
	.st6{display:inline;}
	.st7{fill:url(#SVGID_1_);stroke:#000000;stroke-miterlimit:10;}
	.st8{fill:url(#SVGID_2_);stroke:#000000;stroke-miterlimit:10;}
	.st9{fill:url(#SVGID_3_);stroke:#000000;stroke-miterlimit:10;}
	.st10{fill:url(#SVGID_4_);stroke:#000000;stroke-miterlimit:10;}
	.st11{fill:#FFFFFF;stroke:#000000;stroke-miterlimit:10;}
	.st12{fill:#F4EB20;}
	.st13{fill:#FFFFFF;}
	.st14{display:inline;fill:#2F67B2;}
	.st15{display:inline;fill:#C49A6C;stroke:#000000;stroke-width:0.75;stroke-miterlimit:10;}
	.st16{display:inline;fill:none;stroke:#000000;stroke-width:0.75;stroke-miterlimit:10;}
	.st17{fill:#545556;}
	.st18{fill:#DBC647;stroke:#000000;stroke-width:0.9774;stroke-miterlimit:10;}
	.st19{display:inline;fill:#DBC647;stroke:#000000;stroke-width:0.9774;stroke-miterlimit:10;}
	.st20{fill:#DBC647;}
	.st21{fill:#9D9033;}
	.st22{fill:#DBC647;stroke:#000000;stroke-width:0.25;stroke-miterlimit:10;}
	.st23{fill:none;stroke:#000000;stroke-width:0.75;stroke-linecap:round;stroke-miterlimit:10;}
	.st24{fill:none;stroke:#000000;stroke-width:2;stroke-miterlimit:10;}
	.st25{stroke:#000000;stroke-width:2;stroke-miterlimit:10;}
	.st26{fill:none;stroke:#FFFFFF;stroke-linecap:round;stroke-miterlimit:10;}
	.st27{fill:none;stroke:#FFFFFF;stroke-linecap:round;stroke-linejoin:round;stroke-miterlimit:10;}
	.st28{fill:none;stroke:#000000;stroke-width:0.5;stroke-linecap:round;stroke-miterlimit:10;}
	.st29{fill:#45464D;}
	.st30{fill:none;stroke:#ED2024;stroke-width:0.5;stroke-linecap:round;stroke-miterlimit:10;}
	.st31{fill:#ED2024;}
	.st32{display:inline;fill:#FFFFFF;stroke:#000000;stroke-miterlimit:10;}
</style>
<g id="Body" class="st0">
</g>
<g id="guitar">
	<path id="Body_1_" class="st1" d="M56.7,66.8c0,0-3.8-10.6,3.9-18.2s3.5-11.3-5.6-5.8c-8.2,5.1-10.7,7.4-12.9,12.6
		c-0.4,1-0.7,2.1-1,3.2c-1.7,7.4-7.1,13.2-13,15.8C21.9,77.2,14.6,78.3,7.3,87s-7.7,14-6.3,22.4s6.9,14.5,17.1,17.1
		c7.5,1.9,15.6-0.2,21.8-6.1c2.5-2.4,6.5-7,9.4-13.6c1.9-4.3,4.6-8.2,8.2-11.3c3.3-2.8,7.5-5.6,12-6.9c9.9-2.7,15.1-13,15.1-16.3
		c0-3.3-2.1-4.9-5.9-3.1C74.9,71,63.9,82.6,56.7,66.8z"/>
	<path class="st2" d="M63.4,79.5c1-0.3,2.2-0.2,3.1,0.3c1.2,0.7,2,2.1-0.3,4.9c-4.2,5-10.8,3.8-16.6,10.6c-5.8,6.8-3,9-13.4,11.8
		c-10.4,2.8-23.4-16.2-12.4-22.6s10.5-3.7,16.8-11c5.2-6,8.4-1.8,8.4-1.8l7.8,8C56.8,79.7,59.4,80.7,63.4,79.5z"/>
	<path id="Neck" class="st3" d="M127.5,16.9c1.9-4.1-1.2-4.5,9-16.1l-7.4-0.5c0,0-14.8,5-14.3,13.5L51.4,71.5l5.6,6.2l63.4-57.6
		C120.4,20.1,125.6,21.1,127.5,16.9z"/>
	<path id="Line_Art" class="st4" d="M57.6,95.5c3.3-2.8,7.5-5.6,12-6.9c9.9-2.7,15.1-13,15.1-16.3c0-3.3-2.1-4.9-5.9-3.1
		c-3,1.4-10.6,8.9-17.1,4.2l58.7-53.4c0,0,5.2,0.9,7.1-3.2c1.9-4.1-1.2-4.5,9-16.1l-7.4-0.5c0,0-14.8,5-14.3,13.5l-58,52.8
		c-0.4-1.2-3.3-10.9,3.9-18.1c7.7-7.7,3.5-11.3-5.6-5.8c-8.2,5.1-10.7,7.4-12.9,12.6c-0.4,1-0.7,2.1-1,3.2
		c-1.7,7.4-7.1,13.2-13,15.8C21.9,77.2,14.6,78.3,7.3,87C0,95.7-0.4,101,1,109.4c1.4,8.4,6.9,14.5,17.1,17.1
		c7.5,1.9,15.6-0.2,21.8-6.1c2.5-2.4,6.5-7,9.4-13.6C51.3,102.5,54,98.5,57.6,95.5z"/>
	<g id="Gizmos">
		<line class="st5" x1="44.3" y1="77.7" x2="50.9" y2="85.3"/>
		<line class="st5" x1="41.9" y1="80.2" x2="44.6" y2="87.8"/>
		<line class="st5" x1="30.5" y1="91.4" x2="35.8" y2="97.5"/>
		<g id="Vol">
			<circle cx="25" cy="113.7" r="1.5"/>
			<circle cx="21.8" cy="120.9" r="1.5"/>
			<circle cx="32.5" cy="112.2" r="1.5"/>
			<circle cx="29.3" cy="119.5" r="1.5"/>
		</g>
	</g>
</g>
<g id="Drum" class="st0">
	<g class="st6">
		
			<linearGradient id="SVGID_1_" gradientUnits="userSpaceOnUse" x1="-38.2624" y1="127.9911" x2="3.9845" y2="127.9911" gradientTransform="matrix(0.9933 0.1155 -0.1155 0.9933 16.0137 2.3788)">
			<stop  offset="9.856234e-02" style="stop-color:#000000"/>
			<stop  offset="0.1586" style="stop-color:#020202"/>
			<stop  offset="0.1911" style="stop-color:#0A0A0A"/>
			<stop  offset="0.217" style="stop-color:#181818"/>
			<stop  offset="0.2395" style="stop-color:#2B2B2B"/>
			<stop  offset="0.2597" style="stop-color:#444444"/>
			<stop  offset="0.2782" style="stop-color:#636363"/>
			<stop  offset="0.2956" style="stop-color:#888888"/>
			<stop  offset="0.312" style="stop-color:#B3B3B3"/>
			<stop  offset="0.327" style="stop-color:#E2E2E2"/>
			<stop  offset="0.3353" style="stop-color:#FFFFFF"/>
			<stop  offset="0.339" style="stop-color:#F6F6F6"/>
			<stop  offset="0.3595" style="stop-color:#C8C8C8"/>
			<stop  offset="0.3825" style="stop-color:#9D9D9D"/>
			<stop  offset="0.4072" style="stop-color:#777777"/>
			<stop  offset="0.4341" style="stop-color:#575757"/>
			<stop  offset="0.4639" style="stop-color:#3B3B3B"/>
			<stop  offset="0.4975" style="stop-color:#252525"/>
			<stop  offset="0.5367" style="stop-color:#141414"/>
			<stop  offset="0.5852" style="stop-color:#090909"/>
			<stop  offset="0.6532" style="stop-color:#020202"/>
			<stop  offset="0.8421" style="stop-color:#000000"/>
		</linearGradient>
		<path class="st7" d="M0.3,150.7l-37.1-4.3c-1.3-0.2-2.3-1.4-2.1-2.7l4.3-37.2c0.2-1.3,1.4-2.3,2.7-2.1l37.1,4.3
			c1.3,0.2,2.3,1.4,2.1,2.7L3,148.6C2.9,149.9,1.7,150.9,0.3,150.7z"/>
		<linearGradient id="SVGID_2_" gradientUnits="userSpaceOnUse" x1="-38.0958" y1="150.5456" x2="-36.1624" y2="150.7705">
			<stop  offset="9.856234e-02" style="stop-color:#000000"/>
			<stop  offset="0.1586" style="stop-color:#020202"/>
			<stop  offset="0.1911" style="stop-color:#0A0A0A"/>
			<stop  offset="0.217" style="stop-color:#181818"/>
			<stop  offset="0.2395" style="stop-color:#2B2B2B"/>
			<stop  offset="0.2597" style="stop-color:#444444"/>
			<stop  offset="0.2782" style="stop-color:#636363"/>
			<stop  offset="0.2956" style="stop-color:#888888"/>
			<stop  offset="0.312" style="stop-color:#B3B3B3"/>
			<stop  offset="0.327" style="stop-color:#E2E2E2"/>
			<stop  offset="0.3353" style="stop-color:#FFFFFF"/>
			<stop  offset="0.339" style="stop-color:#F6F6F6"/>
			<stop  offset="0.3595" style="stop-color:#C8C8C8"/>
			<stop  offset="0.3825" style="stop-color:#9D9D9D"/>
			<stop  offset="0.4072" style="stop-color:#777777"/>
			<stop  offset="0.4341" style="stop-color:#575757"/>
			<stop  offset="0.4639" style="stop-color:#3B3B3B"/>
			<stop  offset="0.4975" style="stop-color:#252525"/>
			<stop  offset="0.5367" style="stop-color:#141414"/>
			<stop  offset="0.5852" style="stop-color:#090909"/>
			<stop  offset="0.6532" style="stop-color:#020202"/>
			<stop  offset="0.8421" style="stop-color:#000000"/>
		</linearGradient>
		<line class="st8" x1="-38.6" y1="154.8" x2="-35.7" y2="146.5"/>
		<linearGradient id="SVGID_3_" gradientUnits="userSpaceOnUse" x1="-1.0409" y1="152.5269" x2="0.3087" y2="152.6839">
			<stop  offset="9.856234e-02" style="stop-color:#000000"/>
			<stop  offset="0.1586" style="stop-color:#020202"/>
			<stop  offset="0.1911" style="stop-color:#0A0A0A"/>
			<stop  offset="0.217" style="stop-color:#181818"/>
			<stop  offset="0.2395" style="stop-color:#2B2B2B"/>
			<stop  offset="0.2597" style="stop-color:#444444"/>
			<stop  offset="0.2782" style="stop-color:#636363"/>
			<stop  offset="0.2956" style="stop-color:#888888"/>
			<stop  offset="0.312" style="stop-color:#B3B3B3"/>
			<stop  offset="0.327" style="stop-color:#E2E2E2"/>
			<stop  offset="0.3353" style="stop-color:#FFFFFF"/>
			<stop  offset="0.339" style="stop-color:#F6F6F6"/>
			<stop  offset="0.3595" style="stop-color:#C8C8C8"/>
			<stop  offset="0.3825" style="stop-color:#9D9D9D"/>
			<stop  offset="0.4072" style="stop-color:#777777"/>
			<stop  offset="0.4341" style="stop-color:#575757"/>
			<stop  offset="0.4639" style="stop-color:#3B3B3B"/>
			<stop  offset="0.4975" style="stop-color:#252525"/>
			<stop  offset="0.5367" style="stop-color:#141414"/>
			<stop  offset="0.5852" style="stop-color:#090909"/>
			<stop  offset="0.6532" style="stop-color:#020202"/>
			<stop  offset="0.8421" style="stop-color:#000000"/>
		</linearGradient>
		<line class="st9" x1="-0.8" y1="150.6" x2="0.1" y2="154.6"/>
	</g>
	<g id="Snare" class="st6">
		<linearGradient id="SVGID_4_" gradientUnits="userSpaceOnUse" x1="97.7148" y1="104.8806" x2="128.9069" y2="104.8806">
			<stop  offset="9.856234e-02" style="stop-color:#000000"/>
			<stop  offset="0.1586" style="stop-color:#020202"/>
			<stop  offset="0.1911" style="stop-color:#0A0A0A"/>
			<stop  offset="0.217" style="stop-color:#181818"/>
			<stop  offset="0.2395" style="stop-color:#2B2B2B"/>
			<stop  offset="0.2597" style="stop-color:#444444"/>
			<stop  offset="0.2782" style="stop-color:#636363"/>
			<stop  offset="0.2956" style="stop-color:#888888"/>
			<stop  offset="0.312" style="stop-color:#B3B3B3"/>
			<stop  offset="0.327" style="stop-color:#E2E2E2"/>
			<stop  offset="0.3353" style="stop-color:#FFFFFF"/>
			<stop  offset="0.339" style="stop-color:#F6F6F6"/>
			<stop  offset="0.3595" style="stop-color:#C8C8C8"/>
			<stop  offset="0.3825" style="stop-color:#9D9D9D"/>
			<stop  offset="0.4072" style="stop-color:#777777"/>
			<stop  offset="0.4341" style="stop-color:#575757"/>
			<stop  offset="0.4639" style="stop-color:#3B3B3B"/>
			<stop  offset="0.4975" style="stop-color:#252525"/>
			<stop  offset="0.5367" style="stop-color:#141414"/>
			<stop  offset="0.5852" style="stop-color:#090909"/>
			<stop  offset="0.6532" style="stop-color:#020202"/>
			<stop  offset="0.8421" style="stop-color:#000000"/>
		</linearGradient>
		<path class="st10" d="M128.9,110.1V99.7c0-2.1-7-3.8-15.6-3.8s-15.6,1.7-15.6,3.8v10.4c0,2.1,7,3.8,15.6,3.8
			S128.9,112.2,128.9,110.1z"/>
		<ellipse class="st11" cx="113.3" cy="99.7" rx="15.6" ry="3.8"/>
		<polyline class="st5" points="113.7,113.8 113.7,143.5 126.1,154.7 		"/>
		<polyline class="st5" points="113.5,154.5 113.7,143.2 101.3,154.5 		"/>
	</g>
	<g id="HighHat" class="st6">
		<polyline class="st5" points="4.2,71.4 4.2,131.4 -6,154.8 		"/>
		<g id="highHatBottom">
			<path id="highHat" class="st12" d="M-14.1,82h37.6C23.4,82,5.9,93.1-14.1,82z"/>
			<ellipse id="Dimple" class="st12" cx="4.2" cy="86.5" rx="5.4" ry="2.1"/>
		</g>
		<g id="highHatTop">
			<path id="highHat_3_" class="st12" d="M-14.1,80.9h37.6C23.4,80.9,5.9,69.8-14.1,80.9z"/>
			<ellipse id="Dimple_1_" class="st12" cx="4.2" cy="76.3" rx="5.4" ry="2.1"/>
		</g>
		<line class="st5" x1="12.2" y1="154.3" x2="4.2" y2="131.4"/>
	</g>
	<g id="topRim_1_" class="st6">
		<polyline class="st5" points="3,154.9 -7.4,132.9 -18.2,154.9 		"/>
		<line class="st5" x1="-7.4" y1="133.2" x2="-7.4" y2="78.4"/>
		<circle class="st5" cx="-7.4" cy="75.4" r="3"/>
		<polyline class="st5" points="-27.6,79.2 29.5,59.2 29.5,48.5 		"/>
		<g id="topRim">
			<path id="highHat_1_" class="st12" d="M11.3,56.9h37.6C48.8,56.9,31.3,45.7,11.3,56.9z"/>
			<ellipse id="Dimple_2_" class="st12" cx="29.6" cy="52.3" rx="5.4" ry="2.1"/>
		</g>
	</g>
	<g id="topRim_2_" class="st6">
		<polyline class="st5" points="122.3,154.9 132.7,132.9 143.5,154.9 		"/>
		<line class="st5" x1="132.7" y1="133.2" x2="132.7" y2="78.4"/>
		<circle class="st5" cx="132.7" cy="75.4" r="3"/>
		<polyline class="st5" points="152.9,79.2 95.8,59.2 95.8,48.5 		"/>
		<g id="topRim_3_">
			<path id="highHat_2_" class="st12" d="M114,56.9H76.4C76.4,56.9,93.9,45.7,114,56.9z"/>
			<ellipse id="Dimple_3_" class="st12" cx="95.7" cy="52.3" rx="5.4" ry="2.1"/>
		</g>
	</g>
	<g id="BaseDrum" class="st6">
		<circle id="mainDrumOuter" cx="53.2" cy="111.3" r="43.4"/>
		<circle id="mainDrumBrand" class="st13" cx="53.2" cy="111.3" r="36.9"/>
		<circle id="mainDrumInner" cx="53.2" cy="111.3" r="31.4"/>
		
			<image style="overflow:visible;" width="391" height="489" id="Sticker" xlink:href="logo_MFG.png"  transform="matrix(6.463948e-02 -3.466629e-04 3.466629e-04 6.463948e-02 39.6623 96.4358)">
		</image>
		<line id="left_leg" class="st5" x1="9.2" y1="154.8" x2="22.7" y2="141.3"/>
		<line id="right_lag" class="st5" x1="97.4" y1="154.8" x2="84" y2="141.3"/>
	</g>
</g>
<g id="Base" class="st0">
	<path id="body" class="st14" d="M58.5,100.7c3.8-1.3,7.3-3.5,10.3-6.5c4.8-4.8,7.5-11,7.9-17.3c0.1-1.6-1.8-2.6-3-1.5
		c-1.6,1.5-3.7,2.8-6.2,3.7c-6.3,2.2-13.4,1.1-18.4-3.3c-7.1-6.3-8.1-16.7-2.9-24.1c0.3,1,0.9,2,1.9,2.7c1.5,1,3.6,0.9,5-0.2
		c2.2-1.7,2.4-4.8,0.5-6.7c-1.2-1.2-3.1-1.6-5.1-1.5c-1.3,0-2.5,0.2-3.8,0.6c-5.9,1.7-10.3,4-14.9,8.6c-2.6,2.6-4.5,5.5-5.8,8.6
		c-2.5,5.9-7.4,10.2-13.2,12.9c-3.8,1.7-7.2,4.3-10.1,7.8c-8.4,10.3-8,25.6,0.9,35.5c10.6,11.9,28.8,12.2,39.9,1.2
		c3-3,5.2-6.6,6.5-10.3C49.9,106.2,53.7,102.4,58.5,100.7z"/>
	<g class="st6">
		<path class="st13" d="M7.6,83.8c-8.7,8.7-8.5,23.3-0.2,32.4c9.2,10.1,25,10.4,34.6,0.8c2.6-2.6,4.5-5.7,5.6-8.9
			c1.5-4.3,5-7.5,9.2-9.1c2.3-0.8,4.6-2.1,6.6-3.7c0.7-0.6,0.8-1.7,0.2-2.4L41.9,71.4l-5.5,5.5l10.7,10.7l-5,5L31.3,81.9l-4.6,4.6
			c0,0-0.1,0-0.1,0l-9.2-9.2"/>
	</g>
	<path id="Neckcolour" class="st15" d="M120.9,12.4c0,0-3-0.5-5-2c-0.2-0.1-0.1-0.4,0.1-0.4c0.5-0.1,1.1-0.4,1.5-0.8
		c0.9-0.9,0.9-2.3,0.1-3.3c-0.9-1.1-2.6-1.2-3.6-0.2c-0.1,0.1-0.2,0.2-0.3,0.3l-2.5,2.5c-5.9,5.9-11.3,6.2-11.3,6.2l-1.8,7.3
		l-55.2,53l5.2,5.4l55.2-53l5.7-0.5C112.2,18.8,120.9,12.4,120.9,12.4z"/>
	<path id="Line_art" class="st16" d="M58.9,100.3c3.8-1.3,7.3-3.5,10.3-6.5c4.8-4.8,7.5-11,7.9-17.3c0.1-1.6-1.8-2.6-3-1.5
		c-1.6,1.5-3.7,2.8-6.2,3.7c-5.4,1.9-11.5,1.4-16.3-1.7l51.7-49.6l5.7-0.5c3-8.3,11.7-14.6,11.7-14.6s-3-0.5-5-2
		c-0.2-0.1-0.1-0.4,0.1-0.4c0.5-0.1,1.1-0.4,1.5-0.8c0.9-0.9,0.9-2.3,0.1-3.3c-0.9-1.1-2.6-1.2-3.6-0.2c-0.1,0.1-0.2,0.2-0.3,0.3
		l-2.5,2.5c-5.9,5.9-11.3,6.2-11.3,6.2l-1.8,7.3L46.4,71.9c-4.1-6.2-4-14.3,0.3-20.4c0.3,1,0.9,2,1.9,2.7c1.5,1,3.6,0.9,5-0.2
		c2.2-1.7,2.4-4.8,0.5-6.7c-1.2-1.2-3.1-1.6-5.1-1.5c-1.3,0-2.5,0.2-3.8,0.6c-5.9,1.7-10.3,4-14.9,8.6c-2.6,2.6-4.5,5.5-5.8,8.6
		c-2.5,5.9-7.4,10.2-13.2,12.9c-3.8,1.7-7.2,4.3-10.1,7.8c-8.4,10.3-8,25.6,0.9,35.5c10.6,11.9,28.8,12.2,39.9,1.2
		c3-3,5.2-6.6,6.5-10.3C50.4,105.8,54.1,102,58.9,100.3z"/>
	<g id="gizmos" class="st6">
		<path class="st17" d="M16.7,110.8l-4-4c-0.1-0.1-0.1-0.2,0-0.3l1.3-1.3c0.1-0.1,0.2-0.1,0.3,0l4,4c0.1,0.1,0.1,0.2,0,0.3l-1.3,1.3
			C16.8,110.9,16.7,110.9,16.7,110.8z"/>
		<path class="st17" d="M18,105.5l-2.8-2.8c0,0,0.4,1.1-0.2,1.6l2.1,2.1l0,0l2.1,2.1c0.5-0.5,1.6-0.2,1.6-0.2L18,105.5z"/>
		<path class="st17" d="M44.1,82.8l-3.4-3.4c-0.2-0.2-0.2-0.4-0.1-0.6l0.9-1.7l4.8,4.8l-1.6,0.9C44.5,83,44.3,83,44.1,82.8z"/>
		<g id="Vol_1_">
			<circle cx="32.3" cy="116.1" r="1.2"/>
			<circle cx="28.7" cy="116.1" r="1.2"/>
			<circle cx="28.7" cy="112.5" r="1.2"/>
			<circle cx="32.3" cy="112.5" r="1.2"/>
		</g>
	</g>
</g>
<g id="Trumpet" class="st0">
	<g id="mouthpce" class="st6">
		<rect id="mouthTube" x="77.9" y="61.4" class="st18" width="16.6" height="6"/>
		<ellipse id="mouthPiece" class="st18" cx="102.1" cy="64.7" rx="3.8" ry="6.3"/>
		<ellipse id="baseMouth" class="st18" cx="97.5" cy="64.4" rx="4.2" ry="4.7"/>
	</g>
	<path id="body_1_" class="st19" d="M80.1,61.4H42.7c-17.2,0-23.8-11-23.8-11l0.7,24.1c3.4-7.7,23.1-6.9,23.1-6.9h35.1
		c1.3,0,2.3,1,2.3,2.3v8.6c0,1.4-1.1,2.5-2.5,2.5H52.7c-1.4,0-2.5-1.1-2.5-2.5v-11h-6.7v13.5c0,3.4,2.7,6.1,6.1,6.1h0.6h29.8v0h0.4
		c3.6,0,6.6-2.9,6.6-6.6v-14c0-2.9-2.3-5.2-5.2-5.2H80.1z"/>
	<g id="horn" class="st6">
		<g id="outerRim">
			<ellipse class="st20" cx="10" cy="63.2" rx="10.8" ry="23.7"/>
			<path d="M21.3,63.2c0,2.4-0.2,4.7-0.5,7.1c-0.4,2.3-0.9,4.6-1.6,6.9c-0.8,2.2-1.7,4.4-3.2,6.4l-0.5,0.7l-0.6,0.7
				c-0.4,0.5-0.9,0.8-1.4,1.2c-1,0.7-2.2,1.1-3.5,1.2c-1.3,0-2.5-0.5-3.5-1.2c-0.5-0.4-1-0.7-1.4-1.2l-0.6-0.7L4,83.4
				c-1.4-1.9-2.4-4.1-3.1-6.4c-0.7-2.2-1.2-4.6-1.6-6.9c-0.3-2.3-0.4-4.7-0.5-7c0-2.3,0.1-4.7,0.5-7c0.3-2.3,0.8-4.6,1.6-6.9
				C1.6,47,2.6,44.8,4,42.9l0.5-0.7l0.6-0.7c0.4-0.5,0.9-0.8,1.4-1.2c1-0.7,2.2-1.1,3.5-1.2c1.3,0,2.5,0.5,3.5,1.2
				c0.5,0.4,1,0.7,1.4,1.2l0.6,0.7l0.5,0.7c1.4,1.9,2.4,4.1,3.2,6.4c0.7,2.2,1.3,4.6,1.6,6.9C21.1,58.5,21.3,60.8,21.3,63.2z
				 M20.3,63.2c0-2.3-0.1-4.6-0.4-6.9c-0.3-2.3-0.8-4.6-1.5-6.7c-0.7-2.2-1.6-4.3-3-6.2l-0.5-0.7L14.3,42c-0.4-0.4-0.8-0.7-1.3-1.1
				c-0.9-0.6-2-1-3.1-1.1c-1.1,0-2.1,0.4-3.1,1C6.5,41.3,6,41.6,5.6,42L5,42.6l-0.5,0.7c-1.4,1.8-2.3,4-3.1,6.2
				c-0.7,2.2-1.2,4.5-1.6,6.8c-0.3,2.3-0.5,4.6-0.5,6.9c0,2.3,0.2,4.6,0.5,6.9c0.4,2.3,0.9,4.6,1.6,6.8c0.7,2.2,1.7,4.3,3.1,6.2
				L5,83.7l0.6,0.6c0.4,0.4,0.8,0.7,1.3,1.1c0.9,0.6,2,1,3.1,1c1.1,0,2.1-0.4,3.1-1.1c0.4-0.4,0.9-0.7,1.3-1.1l0.6-0.6l0.5-0.7
				c1.3-1.8,2.3-4,3-6.2c0.7-2.2,1.2-4.5,1.5-6.7C20.2,67.8,20.3,65.5,20.3,63.2z"/>
		</g>
		<g id="innderRim">
			<ellipse class="st21" cx="13.1" cy="64.3" rx="4.5" ry="13.5"/>
			<path d="M17.7,64.3c0,2.5-0.2,5-0.7,7.5c-0.3,1.2-0.6,2.4-1.2,3.6c-0.3,0.6-0.6,1.1-1,1.6c-0.4,0.5-1,0.9-1.7,0.9
				c-0.7,0-1.3-0.4-1.7-0.9c-0.4-0.5-0.8-1-1-1.6c-0.5-1.1-0.9-2.4-1.2-3.6c-0.6-2.5-0.8-5-0.8-7.5c0-2.5,0.3-5,0.8-7.5
				c0.3-1.2,0.7-2.4,1.2-3.6c0.3-0.6,0.6-1.1,1-1.6c0.4-0.5,1-0.9,1.7-0.9c0.7,0,1.3,0.4,1.7,0.9c0.4,0.5,0.7,1,1,1.6
				c0.5,1.1,0.9,2.4,1.2,3.6C17.5,59.2,17.7,61.8,17.7,64.3z M17.7,64.3c0-2.5-0.3-5-0.8-7.5c-0.3-1.2-0.7-2.4-1.2-3.5
				c-0.3-0.6-0.6-1.1-1-1.6c-0.4-0.5-0.9-0.8-1.5-0.8c-0.6,0-1.1,0.4-1.5,0.9c-0.4,0.5-0.7,1-1,1.6c-0.5,1.1-0.9,2.3-1.1,3.5
				c-0.5,2.4-0.7,4.9-0.7,7.4c0,2.5,0.2,5,0.7,7.4c0.3,1.2,0.6,2.4,1.1,3.5c0.3,0.6,0.6,1.1,1,1.6c0.4,0.5,0.9,0.9,1.5,0.9
				c0.6,0,1.1-0.4,1.5-0.8c0.4-0.5,0.7-1,1-1.6c0.5-1.1,0.9-2.3,1.2-3.5C17.4,69.3,17.7,66.8,17.7,64.3z"/>
		</g>
		<g id="hole">
			<ellipse cx="15.8" cy="64.2" rx="1.9" ry="6.8"/>
			<path d="M17.7,64.2c0,1.2-0.1,2.5-0.3,3.7c-0.1,0.6-0.2,1.2-0.4,1.8c-0.1,0.3-0.2,0.6-0.4,0.8c-0.2,0.3-0.4,0.5-0.8,0.6
				c-0.4,0-0.6-0.3-0.8-0.5c-0.2-0.3-0.3-0.5-0.4-0.8c-0.2-0.6-0.4-1.2-0.5-1.8c-0.2-1.2-0.3-2.5-0.3-3.7c0-1.2,0.1-2.5,0.3-3.7
				c0.1-0.6,0.3-1.2,0.5-1.8c0.1-0.3,0.3-0.6,0.4-0.8c0.2-0.3,0.4-0.5,0.8-0.5c0.4,0,0.6,0.3,0.8,0.6c0.2,0.3,0.3,0.6,0.4,0.8
				c0.2,0.6,0.3,1.2,0.4,1.8C17.6,61.8,17.7,63,17.7,64.2z M17.7,64.2c0-1.2-0.1-2.5-0.3-3.7c-0.1-0.6-0.3-1.2-0.5-1.8
				c-0.1-0.3-0.2-0.6-0.4-0.8c-0.2-0.2-0.4-0.5-0.7-0.5c-0.3,0-0.5,0.2-0.6,0.5c-0.2,0.3-0.3,0.5-0.4,0.8c-0.2,0.6-0.3,1.2-0.4,1.8
				c-0.2,1.2-0.3,2.4-0.3,3.6c0,1.2,0.1,2.4,0.3,3.6c0.1,0.6,0.2,1.2,0.4,1.8c0.1,0.3,0.2,0.6,0.4,0.8c0.2,0.2,0.4,0.5,0.6,0.5
				c0.3,0,0.5-0.2,0.7-0.5c0.2-0.2,0.3-0.5,0.4-0.8c0.2-0.6,0.4-1.2,0.5-1.8C17.6,66.7,17.7,65.5,17.7,64.2z"/>
		</g>
	</g>
	<g id="Valvegrp" class="st6">
		<g id="Valveleft">
			<g id="bodyValve">
				<path class="st22" d="M58.8,60.3c-1.8,0-3.2,0.6-3.2,1.4v19.2c0,0.8,1.4,1.5,3.2,1.5s3.2-0.6,3.2-1.5V61.7
					C62,60.9,60.5,60.3,58.8,60.3z"/>
				<ellipse class="st22" cx="58.8" cy="61.7" rx="3.2" ry="1.5"/>
			</g>
			<line id="linkValve" class="st23" x1="58.8" y1="61.7" x2="58.8" y2="58.7"/>
			<g id="topValve">
				<path class="st22" d="M58.8,55.4c-1.8,0-3.2,0.6-3.2,1.4v1.8c0,0.8,1.4,1.4,3.2,1.4s3.2-0.6,3.2-1.4v-1.8
					C62,56,60.5,55.4,58.8,55.4z"/>
				<ellipse class="st22" cx="58.8" cy="56.8" rx="3.2" ry="1.5"/>
			</g>
		</g>
		<g id="Valvemiddle">
			<g id="bodyValve_1_">
				<path class="st22" d="M65.2,60.3c-1.8,0-3.2,0.6-3.2,1.4v19.2c0,0.8,1.4,1.5,3.2,1.5c1.8,0,3.2-0.6,3.2-1.5V61.7
					C68.4,60.9,66.9,60.3,65.2,60.3z"/>
				<ellipse class="st22" cx="65.2" cy="61.7" rx="3.2" ry="1.5"/>
			</g>
			<line id="linkValve_1_" class="st23" x1="65.2" y1="61.7" x2="65.2" y2="58.7"/>
			<g id="topValve_1_">
				<path class="st22" d="M65.2,55.4c-1.8,0-3.2,0.6-3.2,1.4v1.8c0,0.8,1.4,1.4,3.2,1.4s3.2-0.6,3.2-1.4v-1.8
					C68.4,56,66.9,55.4,65.2,55.4z"/>
				<ellipse class="st22" cx="65.2" cy="56.8" rx="3.2" ry="1.5"/>
			</g>
		</g>
		<g id="Valveright">
			<g id="bodyValve_2_">
				<path class="st22" d="M71.7,60.3c-1.8,0-3.2,0.6-3.2,1.4v19.2c0,0.8,1.4,1.5,3.2,1.5s3.2-0.6,3.2-1.5V61.7
					C74.9,60.9,73.5,60.3,71.7,60.3z"/>
				<ellipse class="st22" cx="71.7" cy="61.7" rx="3.2" ry="1.5"/>
			</g>
			<line id="linkValve_2_" class="st23" x1="71.7" y1="61.7" x2="71.7" y2="58.7"/>
			<g id="topValve_2_">
				<path class="st22" d="M71.7,55.4c-1.8,0-3.2,0.6-3.2,1.4v1.8c0,0.8,1.4,1.4,3.2,1.4s3.2-0.6,3.2-1.4v-1.8
					C74.9,56,73.5,55.4,71.7,55.4z"/>
				<ellipse class="st22" cx="71.7" cy="56.8" rx="3.2" ry="1.5"/>
			</g>
		</g>
	</g>
</g>
<g id="piano" class="st0">
	<g id="lags" class="st6">
		<rect id="frontLags" x="-8.6" y="76.5" class="st24" width="145.8" height="77.8"/>
		<rect id="bckLags" x="-27.9" y="57.2" class="st24" width="145.8" height="77.8"/>
	</g>
	<g id="Body_2_" class="st6">
		<path id="body_2_" class="st25" d="M137.5,69.9l-19.3-19.3l-146.1,0.3v6.2l19.3,19.3c0,0,146.4-0.6,146.1-0.3
			C137.5,76.2,137.5,69.9,137.5,69.9z"/>
		<line id="outlineWhiteDown" class="st26" x1="-8.6" y1="76.5" x2="-8.6" y2="69.9"/>
		<polyline id="outlineWhite" class="st27" points="137.5,69.9 -8.8,69.9 -27.9,50.9 		"/>
	</g>
	<g id="keys" class="st6">
		<polygon id="keysBk" class="st13" points="2.2,70.2 2.2,74.3 128,74.3 128,70.1 114.4,56.5 -11.5,56.5 		"/>
		<g id="keyOutLines">
			<g id="keyOutLine1">
				<polyline class="st28" points="7.2,73.3 7.2,69.5 -4.4,57.9 				"/>
				<g>
					<path d="M7.2,69.8l-3.4-0.1c-0.1,0-0.1-0.1-0.1-0.1c0-0.1,0-0.1,0.1-0.1l3.4-0.1c0.1,0,0.3,0.1,0.3,0.2
						C7.5,69.6,7.3,69.8,7.2,69.8C7.2,69.8,7.2,69.8,7.2,69.8z"/>
				</g>
			</g>
			<g id="keyOutLine1_1_">
				<polyline class="st28" points="12.7,73.3 12.7,69.5 1.1,57.9 				"/>
				<g>
					<path d="M12.7,69.8l-3.4-0.1c-0.1,0-0.1-0.1-0.1-0.1c0-0.1,0-0.1,0.1-0.1l3.4-0.1c0.1,0,0.3,0.1,0.3,0.2
						C13,69.6,12.9,69.8,12.7,69.8C12.7,69.8,12.7,69.8,12.7,69.8z"/>
				</g>
			</g>
			<g id="keyOutLine1_2_">
				<polyline class="st28" points="5.8,57.9 17.5,69.5 17.5,73.3 				"/>
				<g>
					<path d="M17.5,69.8l-3.4-0.1c-0.1,0-0.1-0.1-0.1-0.1c0-0.1,0-0.1,0.1-0.1l3.4-0.1c0.1,0,0.3,0.1,0.3,0.2
						C17.7,69.6,17.6,69.8,17.5,69.8C17.5,69.8,17.5,69.8,17.5,69.8z"/>
				</g>
			</g>
			<g id="keyOutLine1_3_">
				<polyline class="st28" points="10.6,57.9 22.2,69.5 22.2,73.3 				"/>
				<g>
					<path d="M22.2,69.8l-3.4-0.1c-0.1,0-0.1-0.1-0.1-0.1c0-0.1,0-0.1,0.1-0.1l3.4-0.1c0.1,0,0.3,0.1,0.3,0.2
						C22.5,69.6,22.4,69.8,22.2,69.8C22.2,69.8,22.2,69.8,22.2,69.8z"/>
				</g>
			</g>
			<g id="keyOutLine1_7_">
				<polyline class="st28" points="15.2,57.9 26.8,69.5 26.8,73.3 				"/>
				<g>
					<path d="M26.8,69.8l-3.4-0.1c-0.1,0-0.1-0.1-0.1-0.1c0-0.1,0-0.1,0.1-0.1l3.4-0.1c0.1,0,0.3,0.1,0.3,0.2
						C27.1,69.6,27,69.8,26.8,69.8C26.8,69.8,26.8,69.8,26.8,69.8z"/>
				</g>
			</g>
			<g id="keyOutLine1_6_">
				<polyline class="st28" points="20.7,57.9 32.3,69.5 32.3,73.3 				"/>
				<g>
					<path d="M32.3,69.8L29,69.6c-0.1,0-0.1-0.1-0.1-0.1c0-0.1,0-0.1,0.1-0.1l3.4-0.1c0.1,0,0.3,0.1,0.3,0.2
						C32.6,69.6,32.5,69.8,32.3,69.8C32.3,69.8,32.3,69.8,32.3,69.8z"/>
				</g>
			</g>
			<g id="keyOutLine1_5_">
				<polyline class="st28" points="25.5,57.9 37.1,69.5 37.1,73.3 				"/>
				<g>
					<path d="M37.1,69.8l-3.4-0.1c-0.1,0-0.1-0.1-0.1-0.1c0-0.1,0-0.1,0.1-0.1l3.4-0.1c0.1,0,0.3,0.1,0.3,0.2
						C37.4,69.6,37.2,69.8,37.1,69.8C37.1,69.8,37.1,69.8,37.1,69.8z"/>
				</g>
			</g>
			<g id="keyOutLine1_4_">
				<polyline class="st28" points="30.2,57.9 41.9,69.5 41.9,73.3 				"/>
				<g>
					<path d="M41.9,69.8l-3.4-0.1c-0.1,0-0.1-0.1-0.1-0.1c0-0.1,0-0.1,0.1-0.1l3.4-0.1c0.1,0,0.3,0.1,0.3,0.2
						C42.1,69.6,42,69.8,41.9,69.8C41.9,69.8,41.9,69.8,41.9,69.8z"/>
				</g>
			</g>
			<g id="keyOutLine1_11_">
				<polyline class="st28" points="35,57.9 46.6,69.5 46.6,73.3 				"/>
				<g>
					<path d="M46.6,69.8l-3.4-0.1c-0.1,0-0.1-0.1-0.1-0.1c0-0.1,0-0.1,0.1-0.1l3.4-0.1c0.1,0,0.3,0.1,0.3,0.2
						C46.9,69.6,46.8,69.8,46.6,69.8C46.6,69.8,46.6,69.8,46.6,69.8z"/>
				</g>
			</g>
			<g id="keyOutLine1_10_">
				<polyline class="st28" points="40.5,57.9 52.1,69.5 52.1,73.3 				"/>
				<g>
					<path d="M52.1,69.8l-3.4-0.1c-0.1,0-0.1-0.1-0.1-0.1c0-0.1,0-0.1,0.1-0.1l3.4-0.1c0.1,0,0.3,0.1,0.3,0.2
						C52.4,69.6,52.3,69.8,52.1,69.8C52.1,69.8,52.1,69.8,52.1,69.8z"/>
				</g>
			</g>
			<g id="keyOutLine1_9_">
				<polyline class="st28" points="45.3,57.9 56.9,69.5 56.9,73.3 				"/>
				<g>
					<path d="M56.9,69.8l-3.4-0.1c-0.1,0-0.1-0.1-0.1-0.1c0-0.1,0-0.1,0.1-0.1l3.4-0.1c0.1,0,0.3,0.1,0.3,0.2
						C57.2,69.6,57.1,69.8,56.9,69.8C56.9,69.8,56.9,69.8,56.9,69.8z"/>
				</g>
			</g>
			<g id="keyOutLine1_8_">
				<polyline class="st28" points="50.1,57.9 61.7,69.5 61.7,73.3 				"/>
				<g>
					<path d="M61.7,69.8l-3.4-0.1c-0.1,0-0.1-0.1-0.1-0.1c0-0.1,0-0.1,0.1-0.1l3.4-0.1c0.1,0,0.3,0.1,0.3,0.2
						C61.9,69.6,61.8,69.8,61.7,69.8C61.7,69.8,61.7,69.8,61.7,69.8z"/>
				</g>
			</g>
			<g id="keyOutLine1_19_">
				<polyline class="st28" points="55,57.9 66.6,69.5 66.6,73.3 				"/>
				<g>
					<path d="M66.6,69.8l-3.4-0.1c-0.1,0-0.1-0.1-0.1-0.1c0-0.1,0-0.1,0.1-0.1l3.4-0.1c0.1,0,0.3,0.1,0.3,0.2
						C66.9,69.6,66.8,69.8,66.6,69.8C66.6,69.8,66.6,69.8,66.6,69.8z"/>
				</g>
			</g>
			<g id="keyOutLine1_18_">
				<polyline class="st28" points="60.5,57.9 72.1,69.5 72.1,73.3 				"/>
				<g>
					<path d="M72.1,69.8l-3.4-0.1c-0.1,0-0.1-0.1-0.1-0.1c0-0.1,0-0.1,0.1-0.1l3.4-0.1c0.1,0,0.3,0.1,0.3,0.2
						C72.4,69.6,72.3,69.8,72.1,69.8C72.1,69.8,72.1,69.8,72.1,69.8z"/>
				</g>
			</g>
			<g id="keyOutLine1_17_">
				<polyline class="st28" points="65.3,57.9 76.9,69.5 76.9,73.3 				"/>
				<g>
					<path d="M76.9,69.8l-3.4-0.1c-0.1,0-0.1-0.1-0.1-0.1c0-0.1,0-0.1,0.1-0.1l3.4-0.1c0.1,0,0.3,0.1,0.3,0.2
						C77.2,69.6,77.1,69.8,76.9,69.8C76.9,69.8,76.9,69.8,76.9,69.8z"/>
				</g>
			</g>
			<g id="keyOutLine1_16_">
				<polyline class="st28" points="70,57.9 81.7,69.5 81.7,73.3 				"/>
				<g>
					<path d="M81.7,69.8l-3.4-0.1c-0.1,0-0.1-0.1-0.1-0.1c0-0.1,0-0.1,0.1-0.1l3.4-0.1c0.1,0,0.3,0.1,0.3,0.2
						C81.9,69.6,81.8,69.8,81.7,69.8C81.7,69.8,81.7,69.8,81.7,69.8z"/>
				</g>
			</g>
			<g id="keyOutLine1_15_">
				<polyline class="st28" points="74.8,57.9 86.4,69.5 86.4,73.3 				"/>
				<g>
					<path d="M86.4,69.8l-3.4-0.1c-0.1,0-0.1-0.1-0.1-0.1c0-0.1,0-0.1,0.1-0.1l3.4-0.1c0.1,0,0.3,0.1,0.3,0.2
						C86.7,69.6,86.6,69.8,86.4,69.8C86.4,69.8,86.4,69.8,86.4,69.8z"/>
				</g>
			</g>
			<g id="keyOutLine1_14_">
				<polyline class="st28" points="80.3,57.9 91.9,69.5 91.9,73.3 				"/>
				<g>
					<path d="M91.9,69.8l-3.4-0.1c-0.1,0-0.1-0.1-0.1-0.1c0-0.1,0-0.1,0.1-0.1l3.4-0.1c0.1,0,0.3,0.1,0.3,0.2
						C92.2,69.6,92.1,69.8,91.9,69.8C91.9,69.8,91.9,69.8,91.9,69.8z"/>
				</g>
			</g>
			<g id="keyOutLine1_13_">
				<polyline class="st28" points="85.1,57.9 96.7,69.5 96.7,73.3 				"/>
				<g>
					<path d="M96.7,69.8l-3.4-0.1c-0.1,0-0.1-0.1-0.1-0.1c0-0.1,0-0.1,0.1-0.1l3.4-0.1c0.1,0,0.3,0.1,0.3,0.2
						C97,69.6,96.9,69.8,96.7,69.8C96.7,69.8,96.7,69.8,96.7,69.8z"/>
				</g>
			</g>
			<g id="keyOutLine1_12_">
				<polyline class="st28" points="89.9,57.9 101.5,69.5 101.5,73.3 				"/>
				<g>
					<path d="M101.5,69.8l-3.4-0.1c-0.1,0-0.1-0.1-0.1-0.1c0-0.1,0-0.1,0.1-0.1l3.4-0.1c0.1,0,0.3,0.1,0.3,0.2
						C101.7,69.6,101.6,69.8,101.5,69.8C101.5,69.8,101.5,69.8,101.5,69.8z"/>
				</g>
			</g>
			<g id="keyOutLine1_27_">
				<polyline class="st28" points="94.8,57.9 106.4,69.5 106.4,73.3 				"/>
				<g>
					<path d="M106.4,69.8l-3.4-0.1c-0.1,0-0.1-0.1-0.1-0.1c0-0.1,0-0.1,0.1-0.1l3.4-0.1c0.1,0,0.3,0.1,0.3,0.2
						C106.7,69.6,106.6,69.8,106.4,69.8C106.4,69.8,106.4,69.8,106.4,69.8z"/>
				</g>
			</g>
			<g id="keyOutLine1_26_">
				<polyline class="st28" points="100.3,57.9 111.9,69.5 111.9,73.3 				"/>
				<g>
					<path d="M111.9,69.8l-3.4-0.1c-0.1,0-0.1-0.1-0.1-0.1c0-0.1,0-0.1,0.1-0.1l3.4-0.1c0.1,0,0.3,0.1,0.3,0.2
						C112.2,69.6,112.1,69.8,111.9,69.8C111.9,69.8,111.9,69.8,111.9,69.8z"/>
				</g>
			</g>
			<g id="keyOutLine1_25_">
				<polyline class="st28" points="105.1,57.9 116.7,69.5 116.7,73.3 				"/>
				<g>
					<path d="M116.7,69.8l-3.4-0.1c-0.1,0-0.1-0.1-0.1-0.1c0-0.1,0-0.1,0.1-0.1l3.4-0.1c0.1,0,0.3,0.1,0.3,0.2
						C117,69.6,116.9,69.8,116.7,69.8C116.7,69.8,116.7,69.8,116.7,69.8z"/>
				</g>
			</g>
			<g id="keyOutLine1_24_">
				<polyline class="st28" points="109.9,57.9 121.5,69.5 121.5,73.3 				"/>
				<g>
					<path d="M121.5,69.8l-3.4-0.1c-0.1,0-0.1-0.1-0.1-0.1c0-0.1,0-0.1,0.1-0.1l3.4-0.1c0.1,0,0.3,0.1,0.3,0.2
						C121.7,69.6,121.6,69.8,121.5,69.8C121.5,69.8,121.5,69.8,121.5,69.8z"/>
				</g>
			</g>
			<g id="keyOutLine1_23_">
				<polyline class="st28" points="114.6,57.9 126.2,69.5 126.2,73.3 				"/>
				<g>
					<path d="M126.2,69.8l-3.4-0.1c-0.1,0-0.1-0.1-0.1-0.1c0-0.1,0-0.1,0.1-0.1l3.4-0.1c0.1,0,0.3,0.1,0.3,0.2
						C126.5,69.6,126.4,69.8,126.2,69.8C126.3,69.8,126.2,69.8,126.2,69.8z"/>
				</g>
			</g>
		</g>
		<g id="BlackKeys">
			<g id="BlackKeySet1">
				<g id="twoSet1">
					<polygon id="black_Key" points="2.8,57.5 -1.4,57.4 4.4,63.2 8.8,63.2 					"/>
					<polygon id="black_Key_2_" points="7.4,57.5 3.3,57.4 9.1,63.2 13.4,63.2 					"/>
				</g>
				<g id="treeSet1">
					<polygon id="black_Key_3_" points="17.2,57.5 13.1,57.4 18.9,63.2 23.3,63.2 					"/>
					<polygon id="black_Key_1_" points="21.9,57.5 17.8,57.4 23.6,63.2 27.9,63.2 					"/>
					<polygon id="black_Key_4_" points="26.6,57.5 22.5,57.4 28.2,63.2 32.6,63.2 					"/>
				</g>
			</g>
			<g id="BlackKeySet2">
				<g id="twoSet1_1_">
					<polygon id="black_Key_9_" points="36.9,57.5 32.8,57.4 38.5,63.2 42.9,63.2 					"/>
					<polygon id="black_Key_8_" points="41.5,57.5 37.4,57.4 43.2,63.2 47.6,63.2 					"/>
				</g>
				<g id="treeSet1_1_">
					<polygon id="black_Key_7_" points="51.4,57.5 47.3,57.4 53,63.2 57.4,63.2 					"/>
					<polygon id="black_Key_6_" points="56,57.5 51.9,57.4 57.7,63.2 62.1,63.2 					"/>
					<polygon id="black_Key_5_" points="60.7,57.5 56.6,57.4 62.4,63.2 66.7,63.2 					"/>
				</g>
			</g>
			<g id="BlackKeySet3">
				<g id="twoSet1_2_">
					<polygon id="black_Key_14_" points="72.2,57.5 68.1,57.4 73.9,63.2 78.2,63.2 					"/>
					<polygon id="black_Key_13_" points="76.9,57.5 72.8,57.4 78.5,63.2 82.9,63.2 					"/>
				</g>
				<g id="twoSet1_3_">
					<polygon id="black_Key_16_" points="106.9,57.5 102.8,57.4 108.6,63.2 113,63.2 					"/>
					<polygon id="black_Key_15_" points="111.6,57.5 107.5,57.4 113.3,63.2 117.6,63.2 					"/>
				</g>
				<g id="treeSet1_2_">
					<polygon id="black_Key_12_" points="86.7,57.5 82.6,57.4 88.3,63.2 92.7,63.2 					"/>
					<polygon id="black_Key_11_" points="91.4,57.5 87.3,57.4 93,63.2 97.4,63.2 					"/>
					<polygon id="black_Key_10_" points="96.1,57.5 92,57.4 97.7,63.2 102.1,63.2 					"/>
				</g>
			</g>
		</g>
	</g>
	<g id="Gizmos_1_" class="st6">
		<polygon id="GizmosBK" class="st29" points="95.7,49.7 101,55 4.3,55 -0.8,49.9 		"/>
		<line id="onLight" class="st30" x1="52.7" y1="50.7" x2="56.3" y2="50.7"/>
		
			<ellipse id="button" transform="matrix(0.7071 -0.7071 0.7071 0.7071 -19.057 56.0357)" class="st31" cx="58.1" cy="51" rx="0.6" ry="1"/>
	</g>
</g>
<g id="guides" class="st0">
	<rect x="-44.4" y="162.4" class="st32" width="200.7" height="66"/>
</g>
</svg>
