<?xml version="1.0" encoding="utf-8"?>
<!-- Generator: Adobe Illustrator 23.0.2, SVG Export Plug-In . SVG Version: 6.00 Build 0)  -->
<svg version="1.1" xmlns="http://www.w3.org/2000/svg" xmlns:xlink="http://www.w3.org/1999/xlink" x="0px" y="0px"
	 viewBox="0 0 167.4 105.6" style="enable-background:new 0 0 167.4 105.6;" xml:space="preserve">
<style type="text/css">
	.st0{display:none;}
	.st1{display:inline;fill:#D81F27;}
	.st2{display:inline;fill:#FDFEFE;}
	.st3{display:inline;fill:#C49A6C;stroke:#000000;stroke-width:0.75;stroke-miterlimit:10;}
	.st4{display:inline;fill:none;stroke:#000000;stroke-width:0.75;stroke-miterlimit:10;}
	.st5{display:inline;}
	.st6{fill:none;stroke:#000000;stroke-miterlimit:10;}
	.st7{fill:url(#SVGID_1_);stroke:#000000;stroke-miterlimit:10;}
	.st8{fill:url(#SVGID_2_);stroke:#000000;stroke-miterlimit:10;}
	.st9{fill:url(#SVGID_3_);stroke:#000000;stroke-miterlimit:10;}
	.st10{fill:url(#SVGID_4_);stroke:#000000;stroke-miterlimit:10;}
	.st11{fill:#FFFFFF;stroke:#000000;stroke-miterlimit:10;}
	.st12{fill:#F4EB20;}
	.st13{fill:#FFFFFF;}
	.st14{display:inline;fill:#2F67B2;}
	.st15{fill:#545556;}
	.st16{fill:#DBC647;stroke:#000000;stroke-width:0.9774;stroke-miterlimit:10;}
	.st17{display:inline;fill:#DBC647;stroke:#000000;stroke-width:0.9774;stroke-miterlimit:10;}
	.st18{fill:#DBC647;}
	.st19{fill:#9D9033;}
	.st20{fill:#DBC647;stroke:#000000;stroke-width:0.25;stroke-miterlimit:10;}
	.st21{fill:none;stroke:#000000;stroke-width:0.75;stroke-linecap:round;stroke-miterlimit:10;}
	.st22{fill:none;stroke:#000000;stroke-width:2;stroke-miterlimit:10;}
	.st23{stroke:#000000;stroke-width:2;stroke-miterlimit:10;}
	.st24{fill:none;stroke:#FFFFFF;stroke-linecap:round;stroke-miterlimit:10;}
	.st25{fill:none;stroke:#FFFFFF;stroke-linecap:round;stroke-linejoin:round;stroke-miterlimit:10;}
	.st26{fill:none;stroke:#000000;stroke-width:0.5;stroke-linecap:round;stroke-miterlimit:10;}
	.st27{fill:#45464D;}
	.st28{fill:none;stroke:#ED2024;stroke-width:0.5;stroke-linecap:round;stroke-miterlimit:10;}
	.st29{fill:#ED2024;}
	.st30{display:inline;fill:#FFFFFF;stroke:#000000;stroke-miterlimit:10;}
</style>
<g id="Body" class="st0">
</g>
<g id="guitar" class="st0">
	<path id="Body_1_" class="st1" d="M85.6,17.2c0,0-3.8-10.6,3.9-18.2S93-12.4,84-6.8C75.7-1.7,73.3,0.6,71.1,5.8
		c-0.4,1-0.7,2.1-1,3.2c-1.7,7.4-7.1,13.2-13,15.8c-6.3,2.8-13.5,3.9-20.9,12.6s-7.7,14-6.3,22.4s6.9,14.5,17.1,17.1
		c7.5,1.9,15.6-0.2,21.8-6.1c2.5-2.4,6.5-7,9.4-13.6c1.9-4.3,4.6-8.2,8.2-11.3c3.3-2.8,7.5-5.6,12-6.9c9.9-2.7,15.1-13,15.1-16.3
		s-2.1-4.9-5.9-3.1C103.8,21.4,92.8,33,85.6,17.2z"/>
	<path class="st2" d="M92.3,29.9c1-0.3,2.2-0.2,3.1,0.3c1.2,0.7,2,2.1-0.3,4.9c-4.2,5-10.8,3.8-16.6,10.6s-3,9-13.4,11.8
		c-10.4,2.8-23.4-16.2-12.4-22.6s10.5-3.7,16.8-11c5.2-6,8.4-1.8,8.4-1.8l7.8,8C85.7,30.1,88.3,31.1,92.3,29.9z"/>
	<path id="Neck" class="st3" d="M156.4-32.7c1.9-4.1-1.2-4.5,9-16.1l-7.4-0.5c0,0-14.8,5-14.3,13.5L80.3,21.9l5.6,6.2l63.4-57.6
		C149.3-29.5,154.5-28.6,156.4-32.7z"/>
	<path id="Line_Art" class="st4" d="M86.5,45.9c3.3-2.8,7.5-5.6,12-6.9c9.9-2.7,15.1-13,15.1-16.3c0-3.3-2.1-4.9-5.9-3.1
		c-3,1.4-10.6,8.9-17.1,4.2l58.7-53.4c0,0,5.2,0.9,7.1-3.2c1.9-4.1-1.2-4.5,9-16.1l-7.4-0.5c0,0-14.8,5-14.3,13.5L85.6,17
		c-0.4-1.2-3.3-10.9,3.9-18.1C97.2-8.7,93-12.4,84-6.8C75.7-1.7,73.3,0.6,71.1,5.8c-0.4,1-0.7,2.1-1,3.2c-1.7,7.4-7.1,13.2-13,15.8
		c-6.3,2.8-13.5,3.9-20.9,12.6c-7.3,8.7-7.7,14-6.3,22.4c1.4,8.4,6.9,14.5,17.1,17.1c7.5,1.9,15.6-0.2,21.8-6.1
		c2.5-2.4,6.5-7,9.4-13.6C80.2,52.9,82.9,48.9,86.5,45.9z"/>
	<g id="Gizmos" class="st5">
		<line class="st6" x1="73.2" y1="28.1" x2="79.8" y2="35.7"/>
		<line class="st6" x1="70.8" y1="30.6" x2="73.5" y2="38.2"/>
		<line class="st6" x1="59.4" y1="41.8" x2="64.7" y2="47.9"/>
		<g id="Vol">
			<circle cx="53.9" cy="64.1" r="1.5"/>
			<circle cx="50.7" cy="71.3" r="1.5"/>
			<circle cx="61.4" cy="62.6" r="1.5"/>
			<circle cx="58.2" cy="69.9" r="1.5"/>
		</g>
	</g>
</g>
<g id="Drum" class="st0">
	<g class="st5">
		
			<linearGradient id="SVGID_1_" gradientUnits="userSpaceOnUse" x1="-9.3555" y1="78.3723" x2="32.8914" y2="78.3723" gradientTransform="matrix(0.9933 0.1155 -0.1155 0.9933 10.475 -1.2929)">
			<stop  offset="9.856234e-02" style="stop-color:#000000"/>
			<stop  offset="0.1586" style="stop-color:#020202"/>
			<stop  offset="0.1911" style="stop-color:#0A0A0A"/>
			<stop  offset="0.217" style="stop-color:#181818"/>
			<stop  offset="0.2395" style="stop-color:#2B2B2B"/>
			<stop  offset="0.2597" style="stop-color:#444444"/>
			<stop  offset="0.2782" style="stop-color:#636363"/>
			<stop  offset="0.2956" style="stop-color:#888888"/>
			<stop  offset="0.312" style="stop-color:#B3B3B3"/>
			<stop  offset="0.327" style="stop-color:#E2E2E2"/>
			<stop  offset="0.3353" style="stop-color:#FFFFFF"/>
			<stop  offset="0.339" style="stop-color:#F6F6F6"/>
			<stop  offset="0.3595" style="stop-color:#C8C8C8"/>
			<stop  offset="0.3825" style="stop-color:#9D9D9D"/>
			<stop  offset="0.4072" style="stop-color:#777777"/>
			<stop  offset="0.4341" style="stop-color:#575757"/>
			<stop  offset="0.4639" style="stop-color:#3B3B3B"/>
			<stop  offset="0.4975" style="stop-color:#252525"/>
			<stop  offset="0.5367" style="stop-color:#141414"/>
			<stop  offset="0.5852" style="stop-color:#090909"/>
			<stop  offset="0.6532" style="stop-color:#020202"/>
			<stop  offset="0.8421" style="stop-color:#000000"/>
		</linearGradient>
		<path class="st7" d="M29.2,101.1l-37.1-4.3c-1.3-0.2-2.3-1.4-2.1-2.7l4.3-37.2c0.2-1.3,1.4-2.3,2.7-2.1l37.1,4.3
			c1.3,0.2,2.3,1.4,2.1,2.7l-4.3,37.2C31.8,100.3,30.6,101.2,29.2,101.1z"/>
		<linearGradient id="SVGID_2_" gradientUnits="userSpaceOnUse" x1="-9.1889" y1="100.9268" x2="-7.2555" y2="101.1517">
			<stop  offset="9.856234e-02" style="stop-color:#000000"/>
			<stop  offset="0.1586" style="stop-color:#020202"/>
			<stop  offset="0.1911" style="stop-color:#0A0A0A"/>
			<stop  offset="0.217" style="stop-color:#181818"/>
			<stop  offset="0.2395" style="stop-color:#2B2B2B"/>
			<stop  offset="0.2597" style="stop-color:#444444"/>
			<stop  offset="0.2782" style="stop-color:#636363"/>
			<stop  offset="0.2956" style="stop-color:#888888"/>
			<stop  offset="0.312" style="stop-color:#B3B3B3"/>
			<stop  offset="0.327" style="stop-color:#E2E2E2"/>
			<stop  offset="0.3353" style="stop-color:#FFFFFF"/>
			<stop  offset="0.339" style="stop-color:#F6F6F6"/>
			<stop  offset="0.3595" style="stop-color:#C8C8C8"/>
			<stop  offset="0.3825" style="stop-color:#9D9D9D"/>
			<stop  offset="0.4072" style="stop-color:#777777"/>
			<stop  offset="0.4341" style="stop-color:#575757"/>
			<stop  offset="0.4639" style="stop-color:#3B3B3B"/>
			<stop  offset="0.4975" style="stop-color:#252525"/>
			<stop  offset="0.5367" style="stop-color:#141414"/>
			<stop  offset="0.5852" style="stop-color:#090909"/>
			<stop  offset="0.6532" style="stop-color:#020202"/>
			<stop  offset="0.8421" style="stop-color:#000000"/>
		</linearGradient>
		<line class="st8" x1="-9.7" y1="105.2" x2="-6.8" y2="96.9"/>
		<linearGradient id="SVGID_3_" gradientUnits="userSpaceOnUse" x1="27.866" y1="102.9081" x2="29.2156" y2="103.0651">
			<stop  offset="9.856234e-02" style="stop-color:#000000"/>
			<stop  offset="0.1586" style="stop-color:#020202"/>
			<stop  offset="0.1911" style="stop-color:#0A0A0A"/>
			<stop  offset="0.217" style="stop-color:#181818"/>
			<stop  offset="0.2395" style="stop-color:#2B2B2B"/>
			<stop  offset="0.2597" style="stop-color:#444444"/>
			<stop  offset="0.2782" style="stop-color:#636363"/>
			<stop  offset="0.2956" style="stop-color:#888888"/>
			<stop  offset="0.312" style="stop-color:#B3B3B3"/>
			<stop  offset="0.327" style="stop-color:#E2E2E2"/>
			<stop  offset="0.3353" style="stop-color:#FFFFFF"/>
			<stop  offset="0.339" style="stop-color:#F6F6F6"/>
			<stop  offset="0.3595" style="stop-color:#C8C8C8"/>
			<stop  offset="0.3825" style="stop-color:#9D9D9D"/>
			<stop  offset="0.4072" style="stop-color:#777777"/>
			<stop  offset="0.4341" style="stop-color:#575757"/>
			<stop  offset="0.4639" style="stop-color:#3B3B3B"/>
			<stop  offset="0.4975" style="stop-color:#252525"/>
			<stop  offset="0.5367" style="stop-color:#141414"/>
			<stop  offset="0.5852" style="stop-color:#090909"/>
			<stop  offset="0.6532" style="stop-color:#020202"/>
			<stop  offset="0.8421" style="stop-color:#000000"/>
		</linearGradient>
		<line class="st9" x1="28.1" y1="100.9" x2="29" y2="105"/>
	</g>
	<g id="Snare" class="st5">
		<linearGradient id="SVGID_4_" gradientUnits="userSpaceOnUse" x1="126.6217" y1="55.2618" x2="157.8138" y2="55.2618">
			<stop  offset="9.856234e-02" style="stop-color:#000000"/>
			<stop  offset="0.1586" style="stop-color:#020202"/>
			<stop  offset="0.1911" style="stop-color:#0A0A0A"/>
			<stop  offset="0.217" style="stop-color:#181818"/>
			<stop  offset="0.2395" style="stop-color:#2B2B2B"/>
			<stop  offset="0.2597" style="stop-color:#444444"/>
			<stop  offset="0.2782" style="stop-color:#636363"/>
			<stop  offset="0.2956" style="stop-color:#888888"/>
			<stop  offset="0.312" style="stop-color:#B3B3B3"/>
			<stop  offset="0.327" style="stop-color:#E2E2E2"/>
			<stop  offset="0.3353" style="stop-color:#FFFFFF"/>
			<stop  offset="0.339" style="stop-color:#F6F6F6"/>
			<stop  offset="0.3595" style="stop-color:#C8C8C8"/>
			<stop  offset="0.3825" style="stop-color:#9D9D9D"/>
			<stop  offset="0.4072" style="stop-color:#777777"/>
			<stop  offset="0.4341" style="stop-color:#575757"/>
			<stop  offset="0.4639" style="stop-color:#3B3B3B"/>
			<stop  offset="0.4975" style="stop-color:#252525"/>
			<stop  offset="0.5367" style="stop-color:#141414"/>
			<stop  offset="0.5852" style="stop-color:#090909"/>
			<stop  offset="0.6532" style="stop-color:#020202"/>
			<stop  offset="0.8421" style="stop-color:#000000"/>
		</linearGradient>
		<path class="st10" d="M157.8,60.5V50.1c0-2.1-7-3.8-15.6-3.8c-8.6,0-15.6,1.7-15.6,3.8v10.4c0,2.1,7,3.8,15.6,3.8
			C150.8,64.2,157.8,62.5,157.8,60.5z"/>
		<ellipse class="st11" cx="142.2" cy="50.1" rx="15.6" ry="3.8"/>
		<polyline class="st6" points="142.6,64.1 142.6,93.8 155,105.1 		"/>
		<polyline class="st6" points="142.4,104.9 142.6,93.6 130.2,104.9 		"/>
	</g>
	<g id="HighHat" class="st5">
		<polyline class="st6" points="33.1,21.8 33.1,81.8 22.9,105.2 		"/>
		<g id="highHatBottom">
			<path id="highHat" class="st12" d="M14.8,32.3h37.6C52.3,32.3,34.8,43.5,14.8,32.3z"/>
			<ellipse id="Dimple" class="st12" cx="33.1" cy="36.9" rx="5.4" ry="2.1"/>
		</g>
		<g id="highHatTop">
			<path id="highHat_3_" class="st12" d="M14.8,31.3h37.6C52.3,31.3,34.8,20.1,14.8,31.3z"/>
			<ellipse id="Dimple_1_" class="st12" cx="33.1" cy="26.7" rx="5.4" ry="2.1"/>
		</g>
		<line class="st6" x1="41.1" y1="104.7" x2="33.1" y2="81.8"/>
	</g>
	<g id="topRim_1_" class="st5">
		<polyline class="st6" points="31.9,105.3 21.5,83.3 10.7,105.3 		"/>
		<line class="st6" x1="21.5" y1="83.6" x2="21.5" y2="28.8"/>
		<circle class="st6" cx="21.5" cy="25.8" r="3"/>
		<polyline class="st6" points="1.3,29.6 58.4,9.5 58.4,-1.2 		"/>
		<g id="topRim">
			<path id="highHat_1_" class="st12" d="M40.2,7.2h37.6C77.7,7.2,60.2-3.9,40.2,7.2z"/>
			<ellipse id="Dimple_2_" class="st12" cx="58.5" cy="2.7" rx="5.4" ry="2.1"/>
		</g>
	</g>
	<g id="topRim_2_" class="st5">
		<polyline class="st6" points="151.2,105.3 161.6,83.3 172.4,105.3 		"/>
		<line class="st6" x1="161.6" y1="83.6" x2="161.6" y2="28.8"/>
		<circle class="st6" cx="161.6" cy="25.8" r="3"/>
		<polyline class="st6" points="181.8,29.6 124.7,9.5 124.7,-1.2 		"/>
		<g id="topRim_3_">
			<path id="highHat_2_" class="st12" d="M142.9,7.2h-37.6C105.3,7.2,122.8-3.9,142.9,7.2z"/>
			<ellipse id="Dimple_3_" class="st12" cx="124.6" cy="2.7" rx="5.4" ry="2.1"/>
		</g>
	</g>
	<g id="BaseDrum" class="st5">
		<circle id="mainDrumOuter" cx="82.1" cy="61.7" r="43.4"/>
		<circle id="mainDrumBrand" class="st13" cx="82.1" cy="61.7" r="36.9"/>
		<circle id="mainDrumInner" cx="82.1" cy="61.7" r="31.4"/>
		
			<image style="overflow:visible;" width="391" height="489" id="Sticker" xlink:href="logo_MFG.png"  transform="matrix(6.463948e-02 -3.466629e-04 3.466629e-04 6.463948e-02 68.5692 46.817)">
		</image>
		<line id="left_leg" class="st6" x1="38.1" y1="105.2" x2="51.6" y2="91.7"/>
		<line id="right_lag" class="st6" x1="126.3" y1="105.2" x2="112.9" y2="91.7"/>
	</g>
</g>
<g id="Base" class="st0">
	<path id="body" class="st14" d="M87.4,51.1c3.8-1.3,7.3-3.5,10.3-6.5c4.8-4.8,7.5-11,7.9-17.3c0.1-1.6-1.8-2.6-3-1.5
		c-1.6,1.5-3.7,2.8-6.2,3.7c-6.3,2.2-13.4,1.1-18.4-3.3C71,20.1,70,9.7,75.2,2.3c0.3,1,0.9,2,1.9,2.7c1.5,1,3.6,0.9,5-0.2
		c2.2-1.7,2.4-4.8,0.5-6.7c-1.2-1.2-3.1-1.6-5.1-1.5c-1.3,0-2.5,0.2-3.8,0.6c-5.9,1.7-10.3,4-14.9,8.6c-2.6,2.6-4.5,5.5-5.8,8.6
		c-2.5,5.9-7.4,10.2-13.2,12.9c-3.8,1.7-7.2,4.3-10.1,7.8c-8.4,10.3-8,25.6,0.9,35.5c10.6,11.9,28.8,12.2,39.9,1.2
		c3-3,5.2-6.6,6.5-10.3C78.8,56.6,82.6,52.8,87.4,51.1z"/>
	<g class="st5">
		<path class="st13" d="M36.5,34.2c-8.7,8.7-8.5,23.3-0.2,32.4c9.2,10.1,25,10.4,34.6,0.8c2.6-2.6,4.5-5.7,5.6-8.9
			c1.5-4.3,5-7.5,9.2-9.1c2.3-0.8,4.6-2.1,6.6-3.7c0.7-0.6,0.8-1.7,0.2-2.4L70.8,21.7l-5.5,5.5L76,38l-5,5L60.2,32.3l-4.6,4.6
			c0,0-0.1,0-0.1,0l-9.2-9.2"/>
	</g>
	<path id="Neckcolour" class="st3" d="M149.8-37.2c0,0-3-0.5-5-2c-0.2-0.1-0.1-0.4,0.1-0.4c0.5-0.1,1.1-0.4,1.5-0.8
		c0.9-0.9,0.9-2.3,0.1-3.3c-0.9-1.1-2.6-1.2-3.6-0.2c-0.1,0.1-0.2,0.2-0.3,0.3l-2.5,2.5c-5.9,5.9-11.3,6.2-11.3,6.2l-1.8,7.3
		L72,25.5l5.2,5.4l55.2-53l5.7-0.5C141.1-30.8,149.8-37.2,149.8-37.2z"/>
	<path id="Line_art" class="st4" d="M87.8,50.7c3.8-1.3,7.3-3.5,10.3-6.5c4.8-4.8,7.5-11,7.9-17.3c0.1-1.6-1.8-2.6-3-1.5
		c-1.6,1.5-3.7,2.8-6.2,3.7c-5.4,1.9-11.5,1.4-16.3-1.7L132.4-22l5.7-0.5c3-8.3,11.7-14.6,11.7-14.6s-3-0.5-5-2
		c-0.2-0.1-0.1-0.4,0.1-0.4c0.5-0.1,1.1-0.4,1.5-0.8c0.9-0.9,0.9-2.3,0.1-3.3c-0.9-1.1-2.6-1.2-3.6-0.2c-0.1,0.1-0.2,0.2-0.3,0.3
		l-2.5,2.5c-5.9,5.9-11.3,6.2-11.3,6.2l-1.8,7.3L75.4,22.3c-4.1-6.2-4-14.3,0.3-20.4c0.3,1,0.9,2,1.9,2.7c1.5,1,3.6,0.9,5-0.2
		c2.2-1.7,2.4-4.8,0.5-6.7C81.9-3.5,80-3.9,78-3.9c-1.3,0-2.5,0.2-3.8,0.6c-5.9,1.7-10.3,4-14.9,8.6c-2.6,2.6-4.5,5.5-5.8,8.6
		c-2.5,5.9-7.4,10.2-13.2,12.9c-3.8,1.7-7.2,4.3-10.1,7.8c-8.4,10.3-8,25.6,0.9,35.5C41.8,82,60,82.4,71.1,71.3
		c3-3,5.2-6.6,6.5-10.3C79.3,56.1,83,52.4,87.8,50.7z"/>
	<g id="gizmos" class="st5">
		<path class="st15" d="M45.6,61.2l-4-4c-0.1-0.1-0.1-0.2,0-0.3l1.3-1.3c0.1-0.1,0.2-0.1,0.3,0l4,4c0.1,0.1,0.1,0.2,0,0.3l-1.3,1.3
			C45.8,61.3,45.6,61.3,45.6,61.2z"/>
		<path class="st15" d="M46.9,55.9l-2.8-2.8c0,0,0.4,1.1-0.2,1.6l2.1,2.1l0,0l2.1,2.1c0.5-0.5,1.6-0.2,1.6-0.2L46.9,55.9z"/>
		<path class="st15" d="M73,33.2l-3.4-3.4c-0.2-0.2-0.2-0.4-0.1-0.6l0.9-1.7l4.8,4.8l-1.6,0.9C73.4,33.4,73.2,33.4,73,33.2z"/>
		<g id="Vol_1_">
			<circle cx="61.3" cy="66.5" r="1.2"/>
			<circle cx="57.6" cy="66.5" r="1.2"/>
			<circle cx="57.6" cy="62.9" r="1.2"/>
			<circle cx="61.2" cy="62.9" r="1.2"/>
		</g>
	</g>
</g>
<g id="Trumpet" class="st0">
	<g id="mouthpce" class="st5">
		<rect id="mouthTube" x="106.8" y="11.8" class="st16" width="16.6" height="6"/>
		<ellipse id="mouthPiece" class="st16" cx="131" cy="15.1" rx="3.8" ry="6.3"/>
		<ellipse id="baseMouth" class="st16" cx="126.4" cy="14.8" rx="4.2" ry="4.7"/>
	</g>
	<path id="body_1_" class="st17" d="M109,11.7H71.6c-17.2,0-23.8-11-23.8-11l0.7,24.1c3.4-7.7,23.1-6.9,23.1-6.9h35.1
		c1.3,0,2.3,1,2.3,2.3v8.6c0,1.4-1.1,2.5-2.5,2.5H81.6c-1.4,0-2.5-1.1-2.5-2.5v-11h-6.7v13.5c0,3.4,2.7,6.1,6.1,6.1h0.6H109v0h0.4
		c3.6,0,6.6-2.9,6.6-6.6V17c0-2.9-2.3-5.2-5.2-5.2H109z"/>
	<g id="horn" class="st5">
		<g id="outerRim">
			<ellipse class="st18" cx="38.9" cy="13.5" rx="10.8" ry="23.7"/>
			<path d="M50.2,13.5c0,2.4-0.2,4.7-0.5,7.1c-0.4,2.3-0.9,4.6-1.6,6.9c-0.8,2.2-1.7,4.4-3.2,6.4l-0.5,0.7l-0.6,0.7
				c-0.4,0.5-0.9,0.8-1.4,1.2c-1,0.7-2.2,1.1-3.5,1.2c-1.3,0-2.5-0.5-3.5-1.2c-0.5-0.4-1-0.7-1.4-1.2l-0.6-0.7l-0.5-0.7
				c-1.4-1.9-2.4-4.1-3.1-6.4c-0.7-2.2-1.2-4.6-1.6-6.9c-0.3-2.3-0.4-4.7-0.5-7c0-2.3,0.1-4.7,0.5-7c0.3-2.3,0.8-4.6,1.6-6.9
				c0.7-2.2,1.7-4.4,3.1-6.4l0.5-0.7L34-8.1c0.4-0.5,0.9-0.8,1.4-1.2c1-0.7,2.2-1.1,3.5-1.2c1.3,0,2.5,0.5,3.5,1.2
				c0.5,0.4,1,0.7,1.4,1.2l0.6,0.7l0.5,0.7c1.4,1.9,2.4,4.1,3.2,6.4c0.7,2.2,1.3,4.6,1.6,6.9C50,8.8,50.2,11.2,50.2,13.5z
				 M49.2,13.5c0-2.3-0.1-4.6-0.4-6.9c-0.3-2.3-0.8-4.6-1.5-6.7c-0.7-2.2-1.6-4.3-3-6.2L43.8-7l-0.6-0.6c-0.4-0.4-0.8-0.7-1.3-1.1
				c-0.9-0.6-2-1-3.1-1.1c-1.1,0-2.1,0.4-3.1,1c-0.4,0.4-0.9,0.7-1.3,1.1L34-7l-0.5,0.7c-1.4,1.8-2.3,4-3.1,6.2
				c-0.7,2.2-1.2,4.5-1.6,6.8c-0.3,2.3-0.5,4.6-0.5,6.9c0,2.3,0.2,4.6,0.5,6.9c0.4,2.3,0.9,4.6,1.6,6.8c0.7,2.2,1.7,4.3,3.1,6.2
				l0.5,0.7l0.6,0.6c0.4,0.4,0.8,0.7,1.3,1.1c0.9,0.6,2,1,3.1,1c1.1,0,2.1-0.4,3.1-1.1c0.4-0.4,0.9-0.7,1.3-1.1l0.6-0.6l0.5-0.7
				c1.3-1.8,2.3-4,3-6.2c0.7-2.2,1.2-4.5,1.5-6.7C49.1,18.2,49.2,15.9,49.2,13.5z"/>
		</g>
		<g id="innderRim">
			<ellipse class="st19" cx="42.1" cy="14.6" rx="4.5" ry="13.5"/>
			<path d="M46.6,14.6c0,2.5-0.2,5-0.7,7.5c-0.3,1.2-0.6,2.4-1.2,3.6c-0.3,0.6-0.6,1.1-1,1.6c-0.4,0.5-1,0.9-1.7,0.9
				c-0.7,0-1.3-0.4-1.7-0.9c-0.4-0.5-0.8-1-1-1.6c-0.5-1.1-0.9-2.4-1.2-3.6c-0.6-2.5-0.8-5-0.8-7.5c0-2.5,0.3-5,0.8-7.5
				c0.3-1.2,0.7-2.4,1.2-3.6c0.3-0.6,0.6-1.1,1-1.6c0.4-0.5,1-0.9,1.7-0.9c0.7,0,1.3,0.4,1.7,0.9c0.4,0.5,0.7,1,1,1.6
				c0.5,1.1,0.9,2.4,1.2,3.6C46.4,9.6,46.6,12.1,46.6,14.6z M46.6,14.6c0-2.5-0.3-5-0.8-7.5c-0.3-1.2-0.7-2.4-1.2-3.5
				c-0.3-0.6-0.6-1.1-1-1.6c-0.4-0.5-0.9-0.8-1.5-0.8c-0.6,0-1.1,0.4-1.5,0.9c-0.4,0.5-0.7,1-1,1.6C39,4.8,38.7,6,38.4,7.2
				c-0.5,2.4-0.7,4.9-0.7,7.4c0,2.5,0.2,5,0.7,7.4c0.3,1.2,0.6,2.4,1.1,3.5c0.3,0.6,0.6,1.1,1,1.6c0.4,0.5,0.9,0.9,1.5,0.9
				c0.6,0,1.1-0.4,1.5-0.8c0.4-0.5,0.7-1,1-1.6c0.5-1.1,0.9-2.3,1.2-3.5C46.4,19.7,46.6,17.1,46.6,14.6z"/>
		</g>
		<g id="hole">
			<ellipse cx="44.7" cy="14.6" rx="1.9" ry="6.8"/>
			<path d="M46.6,14.6c0,1.2-0.1,2.5-0.3,3.7c-0.1,0.6-0.2,1.2-0.4,1.8c-0.1,0.3-0.2,0.6-0.4,0.8c-0.2,0.3-0.4,0.5-0.8,0.6
				c-0.4,0-0.6-0.3-0.8-0.5c-0.2-0.3-0.3-0.5-0.4-0.8c-0.2-0.6-0.4-1.2-0.5-1.8c-0.2-1.2-0.3-2.5-0.3-3.7c0-1.2,0.1-2.5,0.3-3.7
				c0.1-0.6,0.3-1.2,0.5-1.8c0.1-0.3,0.3-0.6,0.4-0.8c0.2-0.3,0.4-0.5,0.8-0.5c0.4,0,0.6,0.3,0.8,0.6c0.2,0.3,0.3,0.6,0.4,0.8
				c0.2,0.6,0.3,1.2,0.4,1.8C46.5,12.2,46.6,13.4,46.6,14.6z M46.6,14.6c0-1.2-0.1-2.5-0.3-3.7c-0.1-0.6-0.3-1.2-0.5-1.8
				c-0.1-0.3-0.2-0.6-0.4-0.8c-0.2-0.2-0.4-0.5-0.7-0.5c-0.3,0-0.5,0.2-0.6,0.5c-0.2,0.3-0.3,0.5-0.4,0.8c-0.2,0.6-0.3,1.2-0.4,1.8
				c-0.2,1.2-0.3,2.4-0.3,3.6c0,1.2,0.1,2.4,0.3,3.6c0.1,0.6,0.2,1.2,0.4,1.8c0.1,0.3,0.2,0.6,0.4,0.8c0.2,0.2,0.4,0.5,0.6,0.5
				c0.3,0,0.5-0.2,0.7-0.5c0.2-0.2,0.3-0.5,0.4-0.8c0.2-0.6,0.4-1.2,0.5-1.8C46.5,17.1,46.6,15.9,46.6,14.6z"/>
		</g>
	</g>
	<g id="Valvegrp" class="st5">
		<g id="Valveleft">
			<g id="bodyValve">
				<path class="st20" d="M87.7,10.7c-1.8,0-3.2,0.6-3.2,1.4v19.2c0,0.8,1.4,1.5,3.2,1.5s3.2-0.6,3.2-1.5V12.1
					C90.9,11.3,89.4,10.7,87.7,10.7z"/>
				<ellipse class="st20" cx="87.7" cy="12.1" rx="3.2" ry="1.5"/>
			</g>
			<line id="linkValve" class="st21" x1="87.7" y1="12.1" x2="87.7" y2="9.1"/>
			<g id="topValve">
				<path class="st20" d="M87.7,5.7c-1.8,0-3.2,0.6-3.2,1.4V9c0,0.8,1.4,1.4,3.2,1.4s3.2-0.6,3.2-1.4V7.2
					C90.9,6.4,89.4,5.7,87.7,5.7z"/>
				<ellipse class="st20" cx="87.7" cy="7.2" rx="3.2" ry="1.5"/>
			</g>
		</g>
		<g id="Valvemiddle">
			<g id="bodyValve_1_">
				<path class="st20" d="M94.1,10.7c-1.8,0-3.2,0.6-3.2,1.4v19.2c0,0.8,1.4,1.5,3.2,1.5s3.2-0.6,3.2-1.5V12.1
					C97.3,11.3,95.9,10.7,94.1,10.7z"/>
				<ellipse class="st20" cx="94.1" cy="12.1" rx="3.2" ry="1.5"/>
			</g>
			<line id="linkValve_1_" class="st21" x1="94.1" y1="12.1" x2="94.1" y2="9.1"/>
			<g id="topValve_1_">
				<path class="st20" d="M94.1,5.7c-1.8,0-3.2,0.6-3.2,1.4V9c0,0.8,1.4,1.4,3.2,1.4s3.2-0.6,3.2-1.4V7.2
					C97.3,6.4,95.9,5.7,94.1,5.7z"/>
				<ellipse class="st20" cx="94.1" cy="7.2" rx="3.2" ry="1.5"/>
			</g>
		</g>
		<g id="Valveright">
			<g id="bodyValve_2_">
				<path class="st20" d="M100.6,10.7c-1.8,0-3.2,0.6-3.2,1.4v19.2c0,0.8,1.4,1.5,3.2,1.5s3.2-0.6,3.2-1.5V12.1
					C103.8,11.3,102.4,10.7,100.6,10.7z"/>
				<ellipse class="st20" cx="100.6" cy="12.1" rx="3.2" ry="1.5"/>
			</g>
			<line id="linkValve_2_" class="st21" x1="100.6" y1="12.1" x2="100.6" y2="9.1"/>
			<g id="topValve_2_">
				<path class="st20" d="M100.6,5.7c-1.8,0-3.2,0.6-3.2,1.4V9c0,0.8,1.4,1.4,3.2,1.4s3.2-0.6,3.2-1.4V7.2
					C103.8,6.4,102.4,5.7,100.6,5.7z"/>
				<ellipse class="st20" cx="100.6" cy="7.2" rx="3.2" ry="1.5"/>
			</g>
		</g>
	</g>
</g>
<g id="piano">
	<g id="lags">
		<rect id="frontLags" x="20.3" y="26.9" class="st22" width="145.8" height="77.8"/>
		<rect id="bckLags" x="1" y="7.5" class="st22" width="145.8" height="77.8"/>
	</g>
	<g id="Body_2_">
		<path id="body_2_" class="st23" d="M166.4,20.3L147.1,1L1,1.3v6.2l19.3,19.3c0,0,146.4-0.6,146.1-0.3
			C166.4,26.6,166.4,20.3,166.4,20.3z"/>
		<line id="outlineWhiteDown" class="st24" x1="20.3" y1="26.9" x2="20.3" y2="20.3"/>
		<polyline id="outlineWhite" class="st25" points="166.4,20.3 20.1,20.3 1,1.3 		"/>
	</g>
	<g id="keys">
		<polygon id="keysBk" class="st13" points="31.1,20.6 31.1,24.7 156.9,24.7 156.9,20.4 143.3,6.9 17.4,6.9 		"/>
		<g id="keyOutLines">
			<g id="keyOutLine1">
				<polyline class="st26" points="36.1,23.7 36.1,19.9 24.5,8.3 				"/>
				<g>
					<path d="M36.1,20.1L32.7,20c-0.1,0-0.1-0.1-0.1-0.1c0-0.1,0-0.1,0.1-0.1l3.4-0.1c0.1,0,0.3,0.1,0.3,0.2
						C36.4,20,36.3,20.1,36.1,20.1C36.1,20.1,36.1,20.1,36.1,20.1z"/>
				</g>
			</g>
			<g id="keyOutLine1_1_">
				<polyline class="st26" points="41.6,23.7 41.6,19.9 30,8.3 				"/>
				<g>
					<path d="M41.6,20.1L38.2,20c-0.1,0-0.1-0.1-0.1-0.1c0-0.1,0-0.1,0.1-0.1l3.4-0.1c0.1,0,0.3,0.1,0.3,0.2
						C41.9,20,41.8,20.1,41.6,20.1C41.6,20.1,41.6,20.1,41.6,20.1z"/>
				</g>
			</g>
			<g id="keyOutLine1_2_">
				<polyline class="st26" points="34.8,8.3 46.4,19.9 46.4,23.7 				"/>
				<g>
					<path d="M46.4,20.1L43,20c-0.1,0-0.1-0.1-0.1-0.1c0-0.1,0-0.1,0.1-0.1l3.4-0.1c0.1,0,0.3,0.1,0.3,0.2
						C46.6,20,46.5,20.1,46.4,20.1C46.4,20.1,46.4,20.1,46.4,20.1z"/>
				</g>
			</g>
			<g id="keyOutLine1_3_">
				<polyline class="st26" points="39.5,8.3 51.1,19.9 51.1,23.7 				"/>
				<g>
					<path d="M51.1,20.1L47.8,20c-0.1,0-0.1-0.1-0.1-0.1c0-0.1,0-0.1,0.1-0.1l3.4-0.1c0.1,0,0.3,0.1,0.3,0.2
						C51.4,20,51.3,20.1,51.1,20.1C51.2,20.1,51.1,20.1,51.1,20.1z"/>
				</g>
			</g>
			<g id="keyOutLine1_7_">
				<polyline class="st26" points="44.1,8.3 55.7,19.9 55.7,23.7 				"/>
				<g>
					<path d="M55.7,20.1L52.4,20c-0.1,0-0.1-0.1-0.1-0.1c0-0.1,0-0.1,0.1-0.1l3.4-0.1c0.1,0,0.3,0.1,0.3,0.2
						C56,20,55.9,20.1,55.7,20.1C55.7,20.1,55.7,20.1,55.7,20.1z"/>
				</g>
			</g>
			<g id="keyOutLine1_6_">
				<polyline class="st26" points="49.6,8.3 61.2,19.9 61.2,23.7 				"/>
				<g>
					<path d="M61.2,20.1L57.9,20c-0.1,0-0.1-0.1-0.1-0.1c0-0.1,0-0.1,0.1-0.1l3.4-0.1c0.1,0,0.3,0.1,0.3,0.2
						C61.5,20,61.4,20.1,61.2,20.1C61.2,20.1,61.2,20.1,61.2,20.1z"/>
				</g>
			</g>
			<g id="keyOutLine1_5_">
				<polyline class="st26" points="54.4,8.3 66,19.9 66,23.7 				"/>
				<g>
					<path d="M66,20.1L62.6,20c-0.1,0-0.1-0.1-0.1-0.1c0-0.1,0-0.1,0.1-0.1l3.4-0.1c0.1,0,0.3,0.1,0.3,0.2
						C66.3,20,66.2,20.1,66,20.1C66,20.1,66,20.1,66,20.1z"/>
				</g>
			</g>
			<g id="keyOutLine1_4_">
				<polyline class="st26" points="59.1,8.3 70.8,19.9 70.8,23.7 				"/>
				<g>
					<path d="M70.8,20.1L67.4,20c-0.1,0-0.1-0.1-0.1-0.1c0-0.1,0-0.1,0.1-0.1l3.4-0.1c0.1,0,0.3,0.1,0.3,0.2
						C71,20,70.9,20.1,70.8,20.1C70.8,20.1,70.8,20.1,70.8,20.1z"/>
				</g>
			</g>
			<g id="keyOutLine1_11_">
				<polyline class="st26" points="63.9,8.3 75.5,19.9 75.5,23.7 				"/>
				<g>
					<path d="M75.5,20.1L72.2,20c-0.1,0-0.1-0.1-0.1-0.1c0-0.1,0-0.1,0.1-0.1l3.4-0.1c0.1,0,0.3,0.1,0.3,0.2
						C75.8,20,75.7,20.1,75.5,20.1C75.5,20.1,75.5,20.1,75.5,20.1z"/>
				</g>
			</g>
			<g id="keyOutLine1_10_">
				<polyline class="st26" points="69.4,8.3 81,19.9 81,23.7 				"/>
				<g>
					<path d="M81,20.1L77.7,20c-0.1,0-0.1-0.1-0.1-0.1c0-0.1,0-0.1,0.1-0.1l3.4-0.1c0.1,0,0.3,0.1,0.3,0.2
						C81.3,20,81.2,20.1,81,20.1C81.1,20.1,81,20.1,81,20.1z"/>
				</g>
			</g>
			<g id="keyOutLine1_9_">
				<polyline class="st26" points="74.2,8.3 85.8,19.9 85.8,23.7 				"/>
				<g>
					<path d="M85.8,20.1L82.4,20c-0.1,0-0.1-0.1-0.1-0.1c0-0.1,0-0.1,0.1-0.1l3.4-0.1c0.1,0,0.3,0.1,0.3,0.2
						C86.1,20,86,20.1,85.8,20.1C85.8,20.1,85.8,20.1,85.8,20.1z"/>
				</g>
			</g>
			<g id="keyOutLine1_8_">
				<polyline class="st26" points="79,8.3 90.6,19.9 90.6,23.7 				"/>
				<g>
					<path d="M90.6,20.1L87.2,20c-0.1,0-0.1-0.1-0.1-0.1c0-0.1,0-0.1,0.1-0.1l3.4-0.1c0.1,0,0.3,0.1,0.3,0.2
						C90.8,20,90.7,20.1,90.6,20.1C90.6,20.1,90.6,20.1,90.6,20.1z"/>
				</g>
			</g>
			<g id="keyOutLine1_19_">
				<polyline class="st26" points="83.9,8.3 95.5,19.9 95.5,23.7 				"/>
				<g>
					<path d="M95.5,20.1L92.2,20c-0.1,0-0.1-0.1-0.1-0.1c0-0.1,0-0.1,0.1-0.1l3.4-0.1c0.1,0,0.3,0.1,0.3,0.2
						C95.8,20,95.7,20.1,95.5,20.1C95.5,20.1,95.5,20.1,95.5,20.1z"/>
				</g>
			</g>
			<g id="keyOutLine1_18_">
				<polyline class="st26" points="89.4,8.3 101,19.9 101,23.7 				"/>
				<g>
					<path d="M101,20.1L97.7,20c-0.1,0-0.1-0.1-0.1-0.1c0-0.1,0-0.1,0.1-0.1l3.4-0.1c0.1,0,0.3,0.1,0.3,0.2
						C101.3,20,101.2,20.1,101,20.1C101,20.1,101,20.1,101,20.1z"/>
				</g>
			</g>
			<g id="keyOutLine1_17_">
				<polyline class="st26" points="94.2,8.3 105.8,19.9 105.8,23.7 				"/>
				<g>
					<path d="M105.8,20.1l-3.4-0.1c-0.1,0-0.1-0.1-0.1-0.1c0-0.1,0-0.1,0.1-0.1l3.4-0.1c0.1,0,0.3,0.1,0.3,0.2
						C106.1,20,106,20.1,105.8,20.1C105.8,20.1,105.8,20.1,105.8,20.1z"/>
				</g>
			</g>
			<g id="keyOutLine1_16_">
				<polyline class="st26" points="99,8.3 110.6,19.9 110.6,23.7 				"/>
				<g>
					<path d="M110.6,20.1l-3.4-0.1c-0.1,0-0.1-0.1-0.1-0.1c0-0.1,0-0.1,0.1-0.1l3.4-0.1c0.1,0,0.3,0.1,0.3,0.2
						C110.8,20,110.7,20.1,110.6,20.1C110.6,20.1,110.6,20.1,110.6,20.1z"/>
				</g>
			</g>
			<g id="keyOutLine1_15_">
				<polyline class="st26" points="103.7,8.3 115.3,19.9 115.3,23.7 				"/>
				<g>
					<path d="M115.3,20.1L112,20c-0.1,0-0.1-0.1-0.1-0.1c0-0.1,0-0.1,0.1-0.1l3.4-0.1c0.1,0,0.3,0.1,0.3,0.2
						C115.6,20,115.5,20.1,115.3,20.1C115.4,20.1,115.3,20.1,115.3,20.1z"/>
				</g>
			</g>
			<g id="keyOutLine1_14_">
				<polyline class="st26" points="109.2,8.3 120.8,19.9 120.8,23.7 				"/>
				<g>
					<path d="M120.8,20.1l-3.4-0.1c-0.1,0-0.1-0.1-0.1-0.1c0-0.1,0-0.1,0.1-0.1l3.4-0.1c0.1,0,0.3,0.1,0.3,0.2
						C121.1,20,121,20.1,120.8,20.1C120.9,20.1,120.8,20.1,120.8,20.1z"/>
				</g>
			</g>
			<g id="keyOutLine1_13_">
				<polyline class="st26" points="114,8.3 125.6,19.9 125.6,23.7 				"/>
				<g>
					<path d="M125.6,20.1l-3.4-0.1c-0.1,0-0.1-0.1-0.1-0.1c0-0.1,0-0.1,0.1-0.1l3.4-0.1c0.1,0,0.3,0.1,0.3,0.2
						C125.9,20,125.8,20.1,125.6,20.1C125.6,20.1,125.6,20.1,125.6,20.1z"/>
				</g>
			</g>
			<g id="keyOutLine1_12_">
				<polyline class="st26" points="118.8,8.3 130.4,19.9 130.4,23.7 				"/>
				<g>
					<path d="M130.4,20.1L127,20c-0.1,0-0.1-0.1-0.1-0.1c0-0.1,0-0.1,0.1-0.1l3.4-0.1c0.1,0,0.3,0.1,0.3,0.2
						C130.6,20,130.5,20.1,130.4,20.1C130.4,20.1,130.4,20.1,130.4,20.1z"/>
				</g>
			</g>
			<g id="keyOutLine1_27_">
				<polyline class="st26" points="123.7,8.3 135.3,19.9 135.3,23.7 				"/>
				<g>
					<path d="M135.3,20.1L132,20c-0.1,0-0.1-0.1-0.1-0.1c0-0.1,0-0.1,0.1-0.1l3.4-0.1c0.1,0,0.3,0.1,0.3,0.2
						C135.6,20,135.5,20.1,135.3,20.1C135.3,20.1,135.3,20.1,135.3,20.1z"/>
				</g>
			</g>
			<g id="keyOutLine1_26_">
				<polyline class="st26" points="129.2,8.3 140.8,19.9 140.8,23.7 				"/>
				<g>
					<path d="M140.8,20.1l-3.4-0.1c-0.1,0-0.1-0.1-0.1-0.1c0-0.1,0-0.1,0.1-0.1l3.4-0.1c0.1,0,0.3,0.1,0.3,0.2
						C141.1,20,141,20.1,140.8,20.1C140.9,20.1,140.8,20.1,140.8,20.1z"/>
				</g>
			</g>
			<g id="keyOutLine1_25_">
				<polyline class="st26" points="134,8.3 145.6,19.9 145.6,23.7 				"/>
				<g>
					<path d="M145.6,20.1l-3.4-0.1c-0.1,0-0.1-0.1-0.1-0.1c0-0.1,0-0.1,0.1-0.1l3.4-0.1c0.1,0,0.3,0.1,0.3,0.2
						C145.9,20,145.8,20.1,145.6,20.1C145.6,20.1,145.6,20.1,145.6,20.1z"/>
				</g>
			</g>
			<g id="keyOutLine1_24_">
				<polyline class="st26" points="138.8,8.3 150.4,19.9 150.4,23.7 				"/>
				<g>
					<path d="M150.4,20.1L147,20c-0.1,0-0.1-0.1-0.1-0.1c0-0.1,0-0.1,0.1-0.1l3.4-0.1c0.1,0,0.3,0.1,0.3,0.2
						C150.6,20,150.5,20.1,150.4,20.1C150.4,20.1,150.4,20.1,150.4,20.1z"/>
				</g>
			</g>
			<g id="keyOutLine1_23_">
				<polyline class="st26" points="143.5,8.3 155.1,19.9 155.1,23.7 				"/>
				<g>
					<path d="M155.1,20.1l-3.4-0.1c-0.1,0-0.1-0.1-0.1-0.1c0-0.1,0-0.1,0.1-0.1l3.4-0.1c0.1,0,0.3,0.1,0.3,0.2
						C155.4,20,155.3,20.1,155.1,20.1C155.2,20.1,155.2,20.1,155.1,20.1z"/>
				</g>
			</g>
		</g>
		<g id="BlackKeys">
			<g id="BlackKeySet1">
				<g id="twoSet1">
					<polygon id="black_Key" points="31.7,7.8 27.6,7.8 33.3,13.6 37.7,13.6 					"/>
					<polygon id="black_Key_2_" points="36.3,7.8 32.2,7.8 38,13.6 42.4,13.6 					"/>
				</g>
				<g id="treeSet1">
					<polygon id="black_Key_3_" points="46.1,7.8 42,7.8 47.8,13.6 52.2,13.6 					"/>
					<polygon id="black_Key_1_" points="50.8,7.8 46.7,7.8 52.5,13.6 56.8,13.6 					"/>
					<polygon id="black_Key_4_" points="55.5,7.8 51.4,7.8 57.1,13.6 61.5,13.6 					"/>
				</g>
			</g>
			<g id="BlackKeySet2">
				<g id="twoSet1_1_">
					<polygon id="black_Key_9_" points="65.8,7.8 61.7,7.8 67.4,13.6 71.8,13.6 					"/>
					<polygon id="black_Key_8_" points="70.5,7.8 66.3,7.8 72.1,13.6 76.5,13.6 					"/>
				</g>
				<g id="treeSet1_1_">
					<polygon id="black_Key_7_" points="80.3,7.8 76.2,7.8 81.9,13.6 86.3,13.6 					"/>
					<polygon id="black_Key_6_" points="84.9,7.8 80.8,7.8 86.6,13.6 91,13.6 					"/>
					<polygon id="black_Key_5_" points="89.6,7.8 85.5,7.8 91.3,13.6 95.6,13.6 					"/>
				</g>
			</g>
			<g id="BlackKeySet3">
				<g id="twoSet1_2_">
					<polygon id="black_Key_14_" points="101.1,7.8 97,7.8 102.8,13.6 107.1,13.6 					"/>
					<polygon id="black_Key_13_" points="105.8,7.8 101.7,7.8 107.4,13.6 111.8,13.6 					"/>
				</g>
				<g id="twoSet1_3_">
					<polygon id="black_Key_16_" points="135.8,7.8 131.7,7.8 137.5,13.6 141.9,13.6 					"/>
					<polygon id="black_Key_15_" points="140.5,7.8 136.4,7.8 142.2,13.6 146.5,13.6 					"/>
				</g>
				<g id="treeSet1_2_">
					<polygon id="black_Key_12_" points="115.6,7.8 111.5,7.8 117.2,13.6 121.6,13.6 					"/>
					<polygon id="black_Key_11_" points="120.3,7.8 116.2,7.8 121.9,13.6 126.3,13.6 					"/>
					<polygon id="black_Key_10_" points="125,7.8 120.9,7.8 126.6,13.6 131,13.6 					"/>
				</g>
			</g>
		</g>
	</g>
	<g id="Gizmos_1_">
		<polygon id="GizmosBK" class="st27" points="124.6,0.1 129.9,5.3 33.2,5.3 28.1,0.3 		"/>
		<line id="onLight" class="st28" x1="81.6" y1="1.1" x2="85.2" y2="1.1"/>
		
			<ellipse id="button" transform="matrix(0.7071 -0.7071 0.7071 0.7071 24.4954 61.943)" class="st29" cx="87" cy="1.4" rx="0.6" ry="1"/>
	</g>
</g>
<g id="guides" class="st0">
	<rect x="-15.5" y="112.8" class="st30" width="200.7" height="66"/>
</g>
</svg>
