<?xml version="1.0" encoding="utf-8"?>
<!-- Generator: Adobe Illustrator 23.0.2, SVG Export Plug-In . SVG Version: 6.00 Build 0)  -->
<svg version="1.1" xmlns="http://www.w3.org/2000/svg" xmlns:xlink="http://www.w3.org/1999/xlink" x="0px" y="0px"
	 viewBox="0 0 124.4 124.6" style="enable-background:new 0 0 124.4 124.6;" xml:space="preserve">
<style type="text/css">
	.st0{display:none;}
	.st1{display:inline;}
	.st2{fill:#CB2026;}
	.st3{fill:url(#SVGID_1_);}
	.st4{fill:url(#SVGID_2_);}
	.st5{clip-path:url(#SVGID_5_);}
	.st6{clip-path:url(#SVGID_7_);}
	.st7{fill:url(#bkdrop_1_);}
	.st8{fill:url(#SVGID_8_);}
	.st9{fill:url(#SVGID_9_);}
	.st10{fill:none;stroke:#000000;stroke-miterlimit:10;}
	.st11{fill:#FCFAFB;}
	.st12{clip-path:url(#SVGID_11_);}
	.st13{fill:#FFFFFF;}
	.st14{fill:#ED1F24;}
</style>
<g id="Button_Template" class="st0">
	<g id="Button_4_" class="st1">
		<path d="M557.4,61.6h-94.5c-7.9,0-14.3-6.4-14.3-14.3v-94.5c0-7.9,6.4-14.3,14.3-14.3h94.5c7.9,0,14.3,6.4,14.3,14.3v94.5
			C571.7,55.2,565.3,61.6,557.4,61.6z"/>
		<path class="st2" d="M558.7,58.9h-93.4c-7.9,0-14.3-6.4-14.3-14.3v-93.4c0-7.9,6.4-14.3,14.3-14.3h93.4c7.9,0,14.3,6.4,14.3,14.3
			v93.4C573,52.5,566.6,58.9,558.7,58.9z"/>
	</g>
</g>
<g id="Bass">
	<g id="Base_Head">
		<g id="Button">
			<g id="Button_2_">
				<path d="M-31.9,261.4h-94.5c-7.9,0-14.3-6.4-14.3-14.3v-94.5c0-7.9,6.4-14.3,14.3-14.3h94.5c7.9,0,14.3,6.4,14.3,14.3v94.5
					C-17.6,255-24,261.4-31.9,261.4z"/>
				<radialGradient id="SVGID_1_" cx="-77.3192" cy="197.7353" r="74.2678" gradientUnits="userSpaceOnUse">
					<stop  offset="0.1723" style="stop-color:#3068AC"/>
					<stop  offset="0.325" style="stop-color:#2A64A4"/>
					<stop  offset="0.6286" style="stop-color:#1B5B92"/>
					<stop  offset="1" style="stop-color:#004975"/>
				</radialGradient>
				<path class="st3" d="M-30.6,258.8H-124c-7.9,0-14.3-6.4-14.3-14.3V151c0-7.9,6.4-14.3,14.3-14.3h93.4c7.9,0,14.3,6.4,14.3,14.3
					v93.4C-16.3,252.4-22.7,258.8-30.6,258.8z"/>
			</g>
		</g>
		<g id="Layer_7">
		</g>
		<g id="Head">
			<path d="M-79.1,156.3c1.2,1.4,3.2,1.7,5,1.3c1.8-0.3,3.6-1.1,5.3-2c1.7-0.9,3.3-1.9,4.9-3.1c0.8-0.6,1.5-1.1,2.3-1.7
				c0.7-0.6,1.5-1.2,2.1-2l0,0l1.2-1.1l-0.3,1.6l-0.9,4.3l-0.5,2.1c-0.1,0.7-0.2,1.4-0.3,2.2l-0.6,4.3l-0.3,4.4l-0.1,2.2l0,2.2
				c0,1.5,0,2.9,0,4.4l0.3,4.4c0.1,1.5,0.3,2.9,0.4,4.3c0.7,5.8,1.8,11.5,3.4,17.1c1.6,5.6,3.5,11.2,5.9,16.3l0,0l0.4,0.9l-0.6,0.6
				l-19.5,18.4l0,0l0.1-0.4v15.1l0,0l0,0.5l-0.5,0l-18.5-0.2l0,0l-0.3,0l0-0.3l-0.4-15.2l0,0l0,0.2l-13-35.4l-0.1-0.2l0.1-0.2
				c3.5-6.1,6.2-12.7,8.3-19.5c0.3-0.8,0.5-1.7,0.7-2.5l0.7-2.6c0.3-1.7,0.8-3.4,1-5.2l0.4-2.6l0.3-2.6l0.1-1.3c0-0.4,0-0.9,0.1-1.3
				l0.1-2.6c0-1.8-0.1-3.5-0.2-5.3c-0.1-1.8,0-3.7,0.3-5.5c0.3-1.8,0.9-3.6,1.9-5.2c1-1.6,2.6-2.9,4.4-3.5c0.9-0.3,1.9-0.4,2.9-0.3
				c1,0.1,1.9,0.4,2.8,0.8c0.9,0.5,1.6,1.1,2.2,1.8c0.6,0.8,1,1.6,1.3,2.5c0.5,1.8,0.3,3.7-0.3,5.5c-0.1,0.4-0.3,0.9-0.5,1.3
				c-0.2,0.4-0.4,0.8-0.6,1.2c-0.2,0.4-0.4,0.8-0.7,1.2c-0.3,0.4-0.5,0.8-0.9,1c0.1-0.5,0.4-0.8,0.6-1.2c0.2-0.4,0.4-0.8,0.6-1.2
				c0.2-0.4,0.4-0.8,0.5-1.2c0.2-0.4,0.3-0.8,0.4-1.2c0.5-1.7,0.5-3.5,0-5.1c-0.3-0.8-0.7-1.5-1.2-2.1c-0.6-0.6-1.2-1.1-1.9-1.5
				c-0.7-0.3-1.5-0.5-2.4-0.6c-0.8,0-1.6,0.1-2.4,0.3c-1.5,0.5-2.8,1.7-3.7,3.1c-0.9,1.4-1.4,3-1.7,4.7c-0.3,1.7-0.4,3.4-0.2,5.2
				c0.1,1.8,0.2,3.6,0.2,5.4c-0.1,7.2-1.3,14.4-3.5,21.2c-1,3.4-2.3,6.8-3.8,10.1c-1.5,3.3-3,6.5-4.9,9.6l0-0.5l13.2,35.3l0,0.1v0.1
				l0,0l-0.4,15.2l-0.3-0.3l0,0l18.5-0.2l-0.5,0.5l0,0v-15.1v-0.2l0.1-0.1l0,0l18.4-19.5l-0.3,1.5l0,0c-2.4-5.5-4.2-11.2-5.7-16.9
				c-1.4-5.8-2.4-11.6-3-17.5c-0.1-1.5-0.3-2.9-0.3-4.4l-0.2-4.4c0-1.5,0.1-3,0.1-4.4l0.1-2.2l0.2-2.2l0.4-4.4l0.7-4.4
				c0.1-0.7,0.2-1.5,0.4-2.2l0.5-2.2l1.1-4.3l0.8,0.5l0,0c-0.9,0.5-1.6,1.1-2.4,1.7c-0.8,0.6-1.5,1.2-2.3,1.8
				c-1.6,1.1-3.2,2.2-4.9,3.1c-1.7,0.9-3.5,1.7-5.5,2.1c-1,0.2-2,0.2-3,0c-1-0.2-2-0.7-2.7-1.5L-79.1,156.3z"/>
		</g>
		<g id="Tuner">
			<g>
				<path d="M-89,190.8c-0.2-1.5,1-3.2,2.6-3.4c0.8-0.1,1.7,0.1,2.4,0.6c0.7,0.5,1.2,1.4,1.3,2.3c0.1,0.9-0.2,1.8-0.8,2.5
					c-0.6,0.6-1.5,1-2.3,1C-87.6,193.8-88.9,192.4-89,190.8z M-89,190.8c0.1,0.8,0.5,1.5,1.1,1.9c0.6,0.4,1.4,0.6,2.1,0.5
					c1.4-0.2,2.3-1.6,2.2-2.9c-0.1-1.3-1.2-2.5-2.7-2.5c-0.7,0-1.4,0.3-2,0.8C-88.8,189.3-89.1,190.1-89,190.8z"/>
			</g>
			<g>
				<path d="M-73.5,207.1c-1.4-0.6-2.3-2.4-1.7-4c0.3-0.8,0.9-1.5,1.7-1.8c0.8-0.4,1.8-0.4,2.6,0c0.8,0.4,1.5,1.1,1.7,1.9
					c0.3,0.8,0.2,1.8-0.2,2.5C-70.1,207.3-72.1,207.8-73.5,207.1z M-73.5,207.1c0.7,0.3,1.5,0.3,2.2,0c0.7-0.3,1.2-0.9,1.4-1.6
					c0.5-1.4-0.3-2.8-1.4-3.3c-1.1-0.5-2.7-0.1-3.4,1.1c-0.3,0.6-0.5,1.4-0.2,2.1C-74.7,206.2-74.2,206.8-73.5,207.1z"/>
			</g>
			<g>
				<path d="M-80.2,170.8c0,1.5-1.2,3.1-2.9,3.2c-0.8,0.1-1.7-0.2-2.4-0.8c-0.7-0.6-1.1-1.5-1.1-2.4c0-0.9,0.4-1.8,1.1-2.4
					c0.7-0.6,1.5-0.9,2.4-0.8C-81.5,167.8-80.2,169.3-80.2,170.8z M-80.2,170.8c0-0.8-0.3-1.5-0.9-2c-0.6-0.5-1.3-0.7-2-0.7
					c-1.4,0.1-2.5,1.4-2.4,2.7c0,1.3,1,2.6,2.4,2.7c0.7,0.1,1.5-0.2,2-0.7C-80.6,172.4-80.3,171.6-80.2,170.8z"/>
			</g>
			<g>
				<path d="M-67.2,186.8c-1.1,1.1-3,1.3-4.3,0.2c-0.6-0.5-1.1-1.4-1.1-2.2c-0.1-0.9,0.3-1.8,0.9-2.4c0.6-0.6,1.5-1,2.4-0.9
					c0.9,0,1.7,0.5,2.3,1.1C-65.9,183.7-66.1,185.7-67.2,186.8z M-67.2,186.8c0.5-0.5,0.8-1.3,0.8-2.1c0-0.8-0.4-1.4-1-1.9
					c-1.1-0.9-2.7-0.7-3.6,0.2c-0.9,0.9-1.1,2.5-0.2,3.6c0.5,0.5,1.1,0.9,1.9,1C-68.6,187.6-67.8,187.3-67.2,186.8z"/>
			</g>
		</g>
		<g id="Keys">
			<g>
				<path d="M-98.8,186.7c-0.9,0.3-1.6,0-2.1-0.4c-0.6-0.4-1-0.9-1.3-1.5c-0.3-0.6-0.5-1-0.8-1.2c-0.1-0.1-0.2-0.1-0.4-0.1
					c-0.2,0-0.4,0.1-0.6,0.2c-0.8,0.5-1.5,1.3-1.7,2.3c-0.1,0.5-0.2,1.1,0.1,1.3c0.4,0.2,1,0,1.5-0.1c-0.2,0.2-0.5,0.3-0.8,0.4
					c-0.3,0.1-0.6,0.2-1,0.1c-0.4-0.1-0.6-0.5-0.6-0.9c-0.1-0.3-0.1-0.6-0.1-1c0.1-1.3,0.8-2.5,1.9-3.3c0.3-0.2,0.6-0.4,1-0.4
					c0.4-0.1,0.9,0,1.3,0.2c0.7,0.5,1,1.2,1.2,1.6c0.3,0.4,0.6,0.9,0.9,1.2c0.3,0.3,0.8,0.5,1.1,0.5L-98.8,186.7z"/>
			</g>
			<g>
				<path d="M-93.7,170.4c-0.9,0.3-1.7-0.1-2.3-0.5c-0.6-0.5-1-1-1.3-1.6c-0.3-0.6-0.5-0.9-0.8-0.9c-0.2-0.1-0.8,0.1-1.2,0.5
					c-0.4,0.3-0.8,0.8-1,1.3c-0.1,0.2-0.2,0.5-0.3,0.8c0,0.1-0.1,0.3-0.1,0.3c0,0,0,0,0.1,0.1c0.4,0.2,1.1,0,1.7-0.1
					c0.6-0.1,1.2-0.3,1.8-0.6c-0.5,0.4-1.1,0.7-1.7,0.9c-0.6,0.2-1.2,0.5-2,0.4c-0.2,0-0.5-0.2-0.6-0.5c-0.1-0.3,0-0.4,0-0.6
					c0-0.3,0.1-0.7,0.2-1c0.2-0.7,0.6-1.3,1.1-1.8c0.3-0.2,0.5-0.5,0.9-0.7c0.3-0.2,0.8-0.3,1.3-0.3c1.1,0.2,1.5,1.1,1.8,1.6
					c0.3,0.5,0.6,1,0.9,1.3c0.3,0.4,0.8,0.6,1.1,0.6L-93.7,170.4z"/>
			</g>
			<g>
				<path d="M-59.6,184.4c0.7-0.8,1.6-0.8,2.4-0.7c0.8,0.1,1.4,0.5,2,0.9c0.2,0.1,0.5,0.3,0.6,0.3c0.2,0,0.3,0,0.4-0.1
					c0.3-0.2,0.6-0.8,0.8-1.3c0.1-0.6,0.2-1.2,0.1-1.7c0-0.1-0.1-0.3-0.1-0.4c0-0.1,0-0.1,0-0.1c0,0,0,0-0.1-0.1
					c-0.2-0.1-0.5-0.1-0.8-0.1c-0.6,0.1-1.2,0.2-1.8,0.6c-0.5,0.3-1,0.8-1.1,1.5c0-0.7,0.4-1.3,1-1.8c0.5-0.4,1.2-0.7,1.9-0.9
					c0.4-0.1,0.7-0.1,1.2,0c0.1,0,0.2,0.1,0.3,0.2c0.1,0.1,0.2,0.3,0.2,0.3c0.1,0.2,0.2,0.3,0.2,0.5c0.3,0.7,0.4,1.5,0.3,2.2
					c-0.1,0.7-0.3,1.5-1,2.1c-0.4,0.3-1,0.5-1.4,0.4c-0.5-0.1-0.9-0.3-1.2-0.5c-0.5-0.3-1-0.6-1.6-0.8c-0.3-0.1-0.5-0.1-0.8-0.1
					c-0.2,0-0.5,0.1-0.6,0.1L-59.6,184.4z"/>
			</g>
			<g>
				<path d="M-55.8,201.9c0.8-0.4,1.5-0.3,2.1,0c0.6,0.3,1.1,0.7,1.5,1.1c0.4,0.5,0.7,0.9,1.1,1c0.4,0.2,0.8,0,1.1-0.4
					c0.7-0.7,1.2-1.8,1.1-2.9c0-0.5-0.1-1.2-0.6-1.3c-0.5-0.1-1,0.3-1.5,0.6c0.4-0.4,0.8-0.9,1.5-0.8c0.3,0.1,0.6,0.3,0.7,0.6
					c0.1,0.3,0.2,0.6,0.3,0.9c0.2,1.2-0.2,2.5-1,3.4c-0.2,0.2-0.5,0.5-0.8,0.6c-0.3,0.2-0.8,0.2-1.1,0.1c-0.7-0.2-1.1-0.8-1.5-1.2
					c-0.4-0.4-0.8-0.7-1.3-0.9c-0.2-0.1-0.4-0.1-0.7-0.2c-0.2,0-0.5,0-0.5,0.1L-55.8,201.9z"/>
			</g>
		</g>
	</g>
</g>
<g id="Drum">
	<g id="Button_3_">
		<path d="M-36.6,404.6h-94.5c-7.9,0-14.3-6.4-14.3-14.3v-94.5c0-7.9,6.4-14.3,14.3-14.3h94.5c7.9,0,14.3,6.4,14.3,14.3v94.5
			C-22.3,398.2-28.7,404.6-36.6,404.6z"/>
		<g>
			<radialGradient id="SVGID_2_" cx="-81.9837" cy="340.9872" r="61.0169" gradientUnits="userSpaceOnUse">
				<stop  offset="0.421" style="stop-color:#F78E1E"/>
				<stop  offset="0.5255" style="stop-color:#E98F25"/>
				<stop  offset="0.7174" style="stop-color:#CD9138"/>
				<stop  offset="0.8881" style="stop-color:#B08E47"/>
			</radialGradient>
			<path class="st4" d="M-35.3,402h-93.4c-7.9,0-14.3-6.4-14.3-14.3v-93.4c0-7.9,6.4-14.3,14.3-14.3h93.4c7.9,0,14.3,6.4,14.3,14.3
				v93.4C-21,395.6-27.4,402-35.3,402z"/>
		</g>
	</g>
	<g>
		<defs>
			<path id="SVGID_3_" d="M-35.3,402h-93.4c-7.9,0-14.3-6.4-14.3-14.3v-93.4c0-7.9,6.4-14.3,14.3-14.3h93.4
				c7.9,0,14.3,6.4,14.3,14.3v93.4C-21,395.6-27.4,402-35.3,402z"/>
		</defs>
		<radialGradient id="SVGID_4_" cx="-81.9837" cy="340.9872" r="82.2474" gradientUnits="userSpaceOnUse">
			<stop  offset="0.3713" style="stop-color:#F78E1E"/>
			<stop  offset="0.5932" style="stop-color:#F38E1F"/>
			<stop  offset="0.6731" style="stop-color:#EB8F1F"/>
			<stop  offset="0.7299" style="stop-color:#E0921F"/>
			<stop  offset="0.7535" style="stop-color:#D99420"/>
		</radialGradient>
		<use xlink:href="#SVGID_3_"  style="overflow:visible;fill:url(#SVGID_4_);"/>
		<clipPath id="SVGID_5_">
			<use xlink:href="#SVGID_3_"  style="overflow:visible;"/>
		</clipPath>
		<g id="Drum_1_" class="st5">
			<path id="Base_Drum" d="M-98.7,381.9c0-29,23.5-52.6,52.6-52.6c16,0,30.3,7.2,40,18.4c-9.7-13.2-25.3-21.7-42.9-21.7
				c-29.4,0-53.2,23.8-53.2,53.2c0,19.6,10.6,36.7,26.4,46C-89.7,415.8-98.7,399.9-98.7,381.9z"/>
			<g id="Bottom">
				<g id="Hat_1_">
					<path d="M-136.4,316c4.8-0.1,9.3,0,13.8,0.1l13.3,0.4c2.2,0.1,4.4,0.1,6.6,0.1c1.1,0,2.2,0,3.3,0c1.1,0,2.2,0,3.3,0
						c4.5,0.2,8.9,0,13.8,0.4c-4.4,1.4-8.8,2.6-13.4,3.1l-1.7,0.2l-1.7,0.1l-3.4,0.2c-2.3,0-4.6,0.2-6.9,0.1
						c-4.6-0.2-9.2-0.6-13.7-1.4C-127.7,318.7-132.1,317.6-136.4,316z"/>
				</g>
				
					<ellipse id="Cap_of_Hat_1_" transform="matrix(1.795984e-02 -0.9998 0.9998 1.795984e-02 -427.0889 206.3039)" cx="-108.5" cy="320.6" rx="1.6" ry="5.2"/>
			</g>
			<g id="Stand_1_">
				<polygon points="-108.7,306.1 -106,411.9 -111.9,411.9 -109.2,306.1 				"/>
			</g>
			<g id="Top">
				<g id="Stand" class="st0">
					<polygon class="st1" points="-89.6,304.4 -91.6,314.3 -91.6,314.5 -91.9,314.7 -134.2,358.4 -133.6,357 -135.1,426.5 
						-136.1,426.5 -137.6,357 -137.6,356.1 -137,355.6 -93.3,313.2 -93.6,313.7 					"/>
				</g>
				<g>
					<g id="Hat">
						<path d="M-82,315.8c-4.8,0-9.3-0.2-13.8-0.4c-4.5-0.2-8.9-0.4-13.3-0.5c-2.2-0.1-4.4-0.1-6.6-0.2c-1.1,0-2.2,0-3.3,0
							c-1.1,0-2.2,0-3.3-0.1c-4.5-0.1-8.9,0.1-13.8-0.3c4.4-1.4,8.8-2.5,13.4-3l1.7-0.2l1.7-0.1l3.4-0.2c2.3,0,4.6-0.1,6.9,0
							c4.6,0.2,9.2,0.6,13.7,1.5C-90.8,313-86.3,314.1-82,315.8z"/>
					</g>
					
						<ellipse id="Cap_of_Hat" transform="matrix(2.448537e-02 -0.9997 0.9997 2.448537e-02 -417.1487 194.4753)" cx="-108.9" cy="311" rx="1.6" ry="5.2"/>
				</g>
			</g>
		</g>
	</g>
</g>
<g id="Trump_1_">
	<g id="Button_1_">
		<path d="M-31.9,123.9h-94.5c-7.9,0-14.3-6.4-14.3-14.3V15.1c0-7.9,6.4-14.3,14.3-14.3h94.5c7.9,0,14.3,6.4,14.3,14.3v94.5
			C-17.6,117.5-24,123.9-31.9,123.9z"/>
	</g>
	<g>
		<defs>
			<path id="SVGID_6_" d="M-30.6,121.3H-124c-7.9,0-14.3-6.4-14.3-14.3V13.5c0-7.9,6.4-14.3,14.3-14.3h93.4
				c7.9,0,14.3,6.4,14.3,14.3V107C-16.3,114.9-22.7,121.3-30.6,121.3z"/>
		</defs>
		<clipPath id="SVGID_7_">
			<use xlink:href="#SVGID_6_"  style="overflow:visible;"/>
		</clipPath>
		<g class="st6">
			<radialGradient id="bkdrop_1_" cx="-74.0458" cy="65.4413" r="91.8105" gradientUnits="userSpaceOnUse">
				<stop  offset="0.1723" style="stop-color:#F6EC1D"/>
				<stop  offset="0.3757" style="stop-color:#E3DB1B"/>
				<stop  offset="0.7779" style="stop-color:#B9B814"/>
				<stop  offset="1" style="stop-color:#A0A20F"/>
			</radialGradient>
			<rect id="bkdrop" x="-173.7" y="-17.7" class="st7" width="199.4" height="166.4"/>
		</g>
		<g id="TrumpHead" class="st6">
			<path d="M-76.6,19.8C-69,28.6-64,44-64,61.5c0,27.2-12.1,49.3-26.9,49.3c-4.1,0-7.9-1.7-11.4-4.6c4.2,4.8,9.1,7.6,14.4,7.6
				c14.9,0,26.9-22.1,26.9-49.3C-61,44.7-67.4,27.7-76.6,19.8z"/>
			<path d="M-116.2,63.1c0-27.2,12.1-49.3,26.9-49.3c4.1,0,8.1,1.7,11.6,4.8c-4.1-4.7-9-7.4-14.2-7.4c-14.9,0-26.9,22.1-26.9,49.3
				c0,19.7,6.3,36.6,15.4,44.5C-111.1,96.4-116.2,80.8-116.2,63.1z"/>
			<ellipse cx="-84.4" cy="63.8" rx="7.7" ry="17.3"/>
		</g>
		<g id="Body" class="st6">
			<g>
				<path d="M-60.7,45c1.7,1,3.5,1.4,5.4,1.9c0.9,0.2,1.8,0.5,2.8,0.7c0.9,0.2,1.8,0.5,2.8,0.6c1.9,0.4,3.7,0.9,5.6,1.2l2.8,0.6
					c0.9,0.2,1.9,0.3,2.8,0.5c7.5,1.3,15.1,2.2,22.7,3l5.7,0.6c1.9,0.2,3.8,0.3,5.7,0.5C-0.7,54.7,3.2,55,7,55.3
					c3.8,0.2,7.7,0.6,11.5,0.8c3.8,0.2,7.7,0.5,11.5,0.7c-7.7,0.1-15.4,0.1-23-0.1c-3.8-0.1-7.7-0.2-11.5-0.4
					c-3.8-0.2-7.7-0.4-11.5-0.7c-3.8-0.2-7.7-0.7-11.5-1.1c-3.8-0.5-7.7-0.9-11.5-1.6c-1-0.2-1.9-0.3-2.9-0.5l-2.8-0.6
					c-1.9-0.3-3.8-0.8-5.7-1.4c-1.9-0.6-3.7-1.2-5.5-2.1c-0.9-0.4-1.7-0.9-2.6-1.5C-59.3,46.4-60.2,45.8-60.7,45z"/>
			</g>
			<g>
				<path d="M-62.3,85.8c0.6-0.8,1.4-1.4,2.3-1.9c0.9-0.5,1.7-1,2.6-1.3c1.8-0.8,3.7-1.4,5.6-1.9c1.9-0.4,3.8-0.9,5.7-1.1l2.9-0.4
					c1-0.1,1.9-0.2,2.9-0.4c3.8-0.5,7.7-0.8,11.5-1.1c3.8-0.2,7.7-0.5,11.5-0.6c3.8-0.1,7.7-0.2,11.5-0.2c3.8,0,7.7,0,11.5,0.1
					c7.7,0.1,15.4,0.5,23,0.9c-3.8,0.1-7.7,0.2-11.5,0.2c-3.8,0-7.7,0.2-11.5,0.3c-3.8,0.1-7.7,0.2-11.5,0.4
					c-1.9,0.1-3.8,0.1-5.7,0.2l-5.7,0.3c-7.6,0.4-15.3,1-22.8,2c-0.9,0.1-1.9,0.2-2.8,0.4l-2.8,0.5c-1.9,0.3-3.7,0.7-5.6,1
					c-0.9,0.1-1.9,0.4-2.8,0.5c-0.9,0.1-1.8,0.4-2.8,0.6C-58.7,84.6-60.6,84.9-62.3,85.8z"/>
			</g>
		</g>
	</g>
	<g id="Trump">
	</g>
</g>
<g id="Sax">
	<g id="Button_5_">
		<path d="M108.8,124.6H14.3c-7.9,0-14.3-6.4-14.3-14.3V15.8C0,7.9,6.4,1.5,14.3,1.5h94.5c7.9,0,14.3,6.4,14.3,14.3v94.5
			C123.1,118.2,116.7,124.6,108.8,124.6z"/>
		<radialGradient id="SVGID_8_" cx="63.4061" cy="61.0169" r="61.0169" gradientUnits="userSpaceOnUse">
			<stop  offset="0.1723" style="stop-color:#C9D5DB"/>
			<stop  offset="0.3978" style="stop-color:#BAC6CE"/>
			<stop  offset="0.844" style="stop-color:#92A1AA"/>
			<stop  offset="1" style="stop-color:#84949D"/>
		</radialGradient>
		<path class="st8" d="M110.1,122H16.7c-7.9,0-14.3-6.4-14.3-14.3V14.3C2.4,6.4,8.8,0,16.7,0h93.4c7.9,0,14.3,6.4,14.3,14.3v93.4
			C124.4,115.6,118,122,110.1,122z"/>
	</g>
	<g id="Sax_1_">
		<g id="Bellow">
			<g>
				<path d="M40.7,75.8c1.7-0.9,3.9-1.1,5.8,0c1.8,1.1,2.9,3.1,3.5,5c0.6,1.9,1,3.9,1.2,5.9l0.3,2.9c0.1,0.9,0.1,1.9,0.3,2.8
					c0.5,3.7,1.5,7.3,3.2,10.4c1.7,3.2,4,5.9,6.8,8c5.6,4.1,13.3,4.8,19.1,1.6c2.8-1.7,5.3-4,6.9-6.9c1.7-2.9,2.8-6.3,3.3-9.8
					l0.2-1.3c0.1-0.4,0.1-0.9,0.1-1.3c0.1-0.9,0.2-1.8,0.2-2.8c0.1-1.9,0.2-3.9,0.3-5.8l0.6-11.6l1.4-23.1
					c0.5-7.7,1.1-15.4,1.7-23.1l1-11.5L97,9.2l0.3-2.9c0.1-0.9,0.2-1.9,0.5-2.8c-0.3,0.9-0.2,1.9-0.3,2.9l-0.2,2.9L97.1,15
					l-0.4,11.6c-0.2,7.7-0.3,15.4-0.4,23.1c-0.1,7.7-0.1,15.4,0,23.1c0,3.9,0.1,7.7,0.3,11.5l0.2,5.8c0,0.9,0,2,0,3c0,0.5,0,1,0,1.5
					l-0.1,1.5c-0.4,4.1-1.6,8.3-3.7,12.1c-2.2,3.8-5.5,7-9.4,9c-2,0.9-4.1,1.7-6.3,2c-2.2,0.3-4.4,0.4-6.5,0.1
					c-1.1-0.1-2.1-0.4-3.2-0.6c-1-0.4-2.1-0.6-3-1.1c-2-0.8-3.8-2-5.5-3.3c-3.3-2.7-5.8-6.2-7.4-10c-1.6-3.8-2.4-7.9-2.5-11.8
					c0-1,0-2,0-3c0-1,0-1.9,0.1-2.8c0-1.9-0.1-3.7-0.5-5.5c-0.4-1.8-1.1-3.5-2.5-4.7c-0.7-0.5-1.5-0.9-2.5-1
					C42.6,75.3,41.6,75.5,40.7,75.8z"/>
			</g>
			<g>
				<path d="M57.4,35.9c3.4,2.6,6.1,6.1,8.5,9.7c2.3,3.7,4.1,7.7,5.5,11.8c0.6,2.1,1.3,4.1,1.7,6.3c0.2,1.1,0.5,2.1,0.6,3.2l0.4,3.2
					c0.1,0.5,0.2,1.1,0.2,1.6l0.1,1.6l0.2,3.2c0,2.1-0.1,4.3-0.2,6.4c-0.3-2.1-0.4-4.3-0.7-6.4l-0.5-3.2L73,71.8l-0.3-1.6l-0.6-3.1
					c-0.2-1-0.5-2-0.8-3.1c-0.3-1-0.5-2-0.9-3l-0.9-3c-1.4-4-3.1-7.8-5.1-11.5C62.4,42.8,60.1,39.2,57.4,35.9z"/>
			</g>
			<g>
				<path d="M78.2,5.3c0.1,4.6-0.1,9.1-0.3,13.6c-0.2,4.5-0.5,9-0.8,13.5c-0.3,4.5-0.7,9-1.1,13.5c-0.4,4.5-0.9,9-1.6,13.5
					c-0.4-4.5-0.5-9.1-0.5-13.6c0-4.5,0.2-9.1,0.5-13.6c0.3-4.5,0.7-9,1.3-13.5C76.3,14.2,77.1,9.7,78.2,5.3z"/>
			</g>
		</g>
		<g id="outer_Bell">
			<path d="M22.7,44.9C28.4,29.6,40,19.8,48.7,23.1c2,0.7,3.7,2.1,5,3.9c-1.4-3-3.6-5.1-6.3-6.1c-8.7-3.2-20.4,6.5-26.1,21.8
				c-4.4,11.8-3.9,23.4,0.6,29.6C18.7,65.8,18.8,55.4,22.7,44.9z"/>
			<path d="M53.4,26.6c3.5,6.4,3.6,17.1-0.4,27.9c-5.7,15.2-17.4,24.9-26.1,21.7c-2-0.7-3.7-2.1-5-4c1.4,2.6,3.4,4.5,6,5.5
				c8.7,3.2,20.4-6.5,26.1-21.7C58.2,44.2,57.8,32.7,53.4,26.6z"/>
		</g>
		
			<ellipse id="Inner_Bell" transform="matrix(0.4281 -0.9037 0.9037 0.4281 -22.8989 66.7214)" cx="41.3" cy="51.5" rx="18" ry="5.4"/>
		<g id="Slides">
			<g>
				<path d="M89.2,21.4c-0.8,1.2-2.2,2.1-3.6,2.4c-1.5,0.3-3,0-4.3-0.8c-1.3-0.8-2.3-2.2-2.6-3.8c-0.3-1.5,0-3.2,1-4.5
					c0.9-1.3,2.4-2.2,4-2.4c1.6-0.2,3.2,0.2,4.4,1.2c1.2,0.9,2,2.3,2.2,3.8C90.4,18.7,90.1,20.2,89.2,21.4z M89.2,21.4
					c0.8-1.2,1.2-2.7,0.9-4.2c-0.3-1.4-1.2-2.7-2.4-3.4c-1.2-0.8-2.6-1-4-0.7c-1.3,0.3-2.5,1.1-3.3,2.2c-0.8,1.1-1.1,2.5-0.9,3.8
					c0.2,1.3,0.9,2.6,2,3.5c1.1,0.9,2.6,1.3,4,1.1C87,23.5,88.4,22.6,89.2,21.4z"/>
			</g>
			<g>
				<path d="M83.4,67.1c-0.6,0.8-1.4,1.6-2.5,1.9c-1.1,0.3-2.3,0.1-3.2-0.6c-0.9-0.7-1.4-1.8-1.5-2.8c-0.1-1,0-2.2,0.6-3.1
					c0.5-1,1.5-1.7,2.7-1.9c1.1-0.2,2.4,0,3.3,0.7c0.9,0.7,1.6,1.8,1.6,2.9C84.4,65.2,84,66.2,83.4,67.1z M83.3,67
					c0.6-0.8,0.7-1.9,0.4-2.8c-0.3-0.9-0.8-1.6-1.6-2.1c-0.7-0.5-1.6-0.7-2.5-0.6c-0.9,0.1-1.8,0.6-2.4,1.3
					c-0.6,0.7-0.9,1.8-0.7,2.7c0.2,1,0.9,1.8,1.7,2.2c0.8,0.5,1.7,0.7,2.6,0.7C81.7,68.3,82.7,67.9,83.3,67z"/>
			</g>
			<g>
				<path d="M85,57.1c-0.7,0.9-1.7,1.6-2.9,1.7c-1.1,0.2-2.3-0.1-3.2-0.8c-0.9-0.7-1.5-1.7-1.7-2.8c-0.2-1.1,0.1-2.2,0.8-3.1
					c0.6-0.9,1.6-1.5,2.7-1.6c1.1-0.2,2.2,0.1,3,0.7c0.9,0.6,1.4,1.6,1.6,2.6c0.2,1-0.1,2.1-0.7,2.9L85,57.1z M84.6,56.9
					c0.6-0.8,0.8-1.9,0.6-2.9c-0.2-1-0.8-1.9-1.6-2.4c-0.8-0.6-1.9-0.8-2.8-0.6c-1,0.2-1.8,0.8-2.4,1.6c-0.5,0.8-0.7,1.8-0.6,2.7
					c0.2,0.9,0.7,1.8,1.5,2.3c0.8,0.5,1.7,0.7,2.6,0.5c0.9-0.2,1.7-0.7,2.2-1.5L84.6,56.9z"/>
			</g>
			<g>
				<path d="M85.7,46.7c-1.1,1.7-3.7,2.5-5.8,1.3c-1-0.6-1.8-1.6-2.1-2.8c-0.3-1.2,0-2.5,0.7-3.6c0.7-1,1.9-1.7,3.1-1.8
					c1.2-0.1,2.4,0.3,3.3,1C86.8,42.4,86.9,45,85.7,46.7z M85.6,46.6c0.6-0.8,0.8-1.9,0.6-2.9c-0.2-1-0.8-1.9-1.6-2.5
					c-0.8-0.6-1.9-0.8-2.9-0.6c-1,0.2-1.9,0.7-2.5,1.6c-0.6,0.8-0.8,1.9-0.7,2.8c0.2,1,0.7,1.9,1.6,2.5c0.8,0.6,1.9,0.8,2.9,0.7
					C84.1,48,85,47.4,85.6,46.6z"/>
			</g>
			<g>
				<path d="M89.4,32.3c0,1.5-0.4,3-1.5,4.2c-1,1.2-2.6,1.9-4.2,1.8c-1.6-0.1-3-0.9-4.1-1.9c-1-1.1-1.7-2.5-1.8-4.1
					c-0.1-1.5,0.5-3.2,1.6-4.3c1.1-1.2,2.7-1.9,4.3-1.8c1.6,0,3.2,0.7,4.2,1.9C89,29.3,89.4,30.9,89.4,32.3z M89.3,32.3
					c0-1.5-0.8-2.9-1.8-3.7c-1.1-0.9-2.4-1.4-3.7-1.3c-1.3,0-2.6,0.5-3.6,1.4c-1,0.9-1.6,2.2-1.7,3.6c-0.1,1.4,0.4,2.9,1.5,3.8
					c1,1,2.5,1.4,3.8,1.3c1.4-0.1,2.7-0.6,3.7-1.4C88.6,35.2,89.4,33.8,89.3,32.3z"/>
			</g>
		</g>
	</g>
</g>
<g id="_x36__String">
	<g id="Button_6_">
		<path d="M104.5,262.1H10c-7.9,0-14.3-6.4-14.3-14.3v-94.5c0-7.9,6.4-14.3,14.3-14.3h94.5c7.9,0,14.3,6.4,14.3,14.3v94.5
			C118.8,255.7,112.4,262.1,104.5,262.1z"/>
		
			<radialGradient id="SVGID_9_" cx="59.0622" cy="198.5008" r="89.5412" gradientTransform="matrix(1 0 0 1.0069 0 -1.3632)" gradientUnits="userSpaceOnUse">
			<stop  offset="0" style="stop-color:#ED1C24"/>
			<stop  offset="0.1699" style="stop-color:#E91D25"/>
			<stop  offset="0.3145" style="stop-color:#E01F27"/>
			<stop  offset="0.4499" style="stop-color:#D3222C"/>
			<stop  offset="0.5796" style="stop-color:#C12432"/>
			<stop  offset="0.7055" style="stop-color:#AA2337"/>
			<stop  offset="0.8282" style="stop-color:#8F2039"/>
			<stop  offset="0.9465" style="stop-color:#721837"/>
			<stop  offset="0.9699" style="stop-color:#6C1536"/>
			<stop  offset="1" style="stop-color:#631133"/>
		</radialGradient>
		<path class="st9" d="M105.8,259.5H12.3c-7.9,0-14.3-6.4-14.3-14.3v-93.4c0-7.9,6.4-14.3,14.3-14.3h93.4c7.9,0,14.3,6.4,14.3,14.3
			v93.4C120.1,253.1,113.7,259.5,105.8,259.5z"/>
	</g>
	<g id="Head_3_">
		<g>
			<path d="M32.1,219.2l-14.4,17.6l0-0.4c2.9,2.4,6,4.8,8.9,7.2l4.5,3.5c1.5,1.2,3,2.4,4.6,3.5l-1.3,0.1l14.6-18.2l0.7,0.6L35.9,252
				l-0.6,0.8l-0.7-0.7c-1.4-1.3-2.8-2.6-4.2-3.9l-4.3-3.8c-2.9-2.5-5.7-5.1-8.7-7.6l-0.2-0.2l0.2-0.2l14.6-17.4L32.1,219.2z"/>
		</g>
		<g id="Head_1_">
			<path d="M101.4,153.3L101.4,153.3c-3-0.2-6-0.3-9-0.3c-3,0-5.9,0.1-8.9,0.3c-2.9,0.2-5.9,0.5-8.8,1.1c-2.9,0.6-5.7,1.3-8.3,2.5
				l0,0l0.4-0.3c-5.8,6.5-11.2,13.3-16.6,20l-16.4,20.2c-1.2,1.6-2.2,3.4-3,5.4c-0.8,1.9-1.1,4-1.2,6.1c-0.1,2.1,0.2,4.2,0.8,6.2
				c0.6,1.9,1.7,3.8,2.9,5.6c2.4,3.6,5.4,6.7,9,9.1c3.6,2.4,7.6,4.1,11.8,4.9c2.1,0.4,4.3,0.5,6.4,0.5c0.5,0,1.1-0.1,1.6-0.1
				l1.6-0.2c1-0.3,2.1-0.5,3-1c1.9-0.9,3.6-2.2,4.9-3.7c1.2-1.6,2.1-3.5,2.7-5.4c0.3-1,0.5-2,0.7-3c0.1-1,0.3-2,0.4-3.1l0.2-3.1
				c0-1.1,0-2.1,0.1-3.2c0-4.4,0.6-8.8,1.3-13.1c0.7-4.3,1.6-8.6,2.9-12.8c1.3-4.2,3-8.2,5.1-12.1c2-3.9,4.4-7.5,7.1-10.9l2.1-2.5
				c0.7-0.8,1.4-1.6,2.2-2.4c0.7-0.8,1.5-1.6,2.2-2.4l1.1-1.2l0.6-0.6c0.1-0.1,0.1-0.2,0.2-0.2c0.1,0,0.2,0,0.3,0L101.4,153.3z
				 M101.6,153.4c-0.1,0.1-0.1,0.3-0.2,0.4c-0.1,0.2-0.3,0.3-0.4,0.4l-0.6,0.6l-1.1,1.2c-0.8,0.8-1.5,1.6-2.2,2.3
				c-0.7,0.8-1.5,1.6-2.2,2.4l-2.1,2.5c-2.7,3.4-5.1,7-7.1,10.8c-2,3.8-3.6,7.8-4.9,12c-1.2,4.1-2.2,8.4-2.5,12.7
				c-0.4,4.3-0.1,8.6,0.2,12.9c0.1,1.1,0.1,2.2,0.1,3.3c0,1.1-0.1,2.2-0.2,3.4c-0.1,1.1-0.4,2.2-0.6,3.4c-0.1,0.6-0.3,1.1-0.5,1.7
				c-0.2,0.5-0.3,1.1-0.6,1.6c-0.9,2.1-2.2,4.1-3.9,5.7c-1.7,1.6-3.8,2.7-5.9,3.4c-2.1,0.7-4.3,1-6.5,1c-2.2,0.1-4.4-0.1-6.5-0.5
				c-2.2-0.4-4.3-1-6.3-1.8c-2-0.8-4-1.8-5.9-3c-3.7-2.4-7-5.4-9.6-9c-1.3-1.8-2.5-3.7-3.3-5.8c-0.7-2.1-1.1-4.4-1.1-6.7
				c0-2.3,0.3-4.5,1-6.7c0.7-2.2,1.7-4.3,3.1-6.1c5.6-6.8,11.2-13.4,16.7-20.1c5.6-6.7,11.2-13.3,16.5-20.1l0.2-0.2l0.2-0.1l0,0
				c2.9-1.1,5.9-1.7,8.9-2.1c3-0.4,6-0.5,9-0.6c3,0,6,0.1,9,0.2c3,0.2,5.9,0.4,8.9,0.8L101.6,153.4z"/>
		</g>
	</g>
	<g id="Tabs">
		<g>
			<path d="M61.6,180.1c0.2,0.8,0.2,1.8-0.2,2.6c-0.4,0.9-1.3,1.5-2.2,1.6c-1,0.1-1.9-0.2-2.6-0.7c-0.7-0.5-1.3-1.2-1.6-2.1
				c-0.7-1.8,0.7-4.1,2.7-4.4c1-0.2,2,0.1,2.7,0.7C61,178.4,61.4,179.3,61.6,180.1z M61.5,180.2c-0.2-0.8-0.8-1.5-1.5-1.8
				c-0.7-0.3-1.5-0.4-2.2-0.2c-0.7,0.2-1.3,0.5-1.8,1.1c-0.4,0.6-0.6,1.3-0.6,2.1c0.1,0.8,0.5,1.6,1.2,2c0.7,0.4,1.6,0.4,2.3,0.2
				c0.7-0.2,1.3-0.6,1.9-1.2C61.3,181.9,61.7,181,61.5,180.2z"/>
		</g>
		<g>
			<path d="M67,173.4c0.2,0.8,0.2,1.8-0.2,2.6c-0.4,0.9-1.3,1.5-2.2,1.6c-1,0.1-1.9-0.2-2.6-0.7c-0.7-0.5-1.3-1.2-1.6-2.1
				c-0.7-1.8,0.7-4.1,2.7-4.4c1-0.2,2,0.1,2.7,0.7C66.5,171.7,66.9,172.5,67,173.4z M66.9,173.4c-0.2-0.8-0.8-1.5-1.5-1.8
				c-0.7-0.3-1.5-0.4-2.2-0.2c-0.7,0.2-1.3,0.5-1.8,1.1c-0.4,0.6-0.6,1.3-0.6,2.1c0.1,0.8,0.5,1.6,1.2,2c0.7,0.4,1.6,0.4,2.3,0.2
				c0.7-0.2,1.3-0.6,1.9-1.2C66.8,175.1,67.1,174.2,66.9,173.4z"/>
		</g>
		<g>
			<path d="M72.3,166.6c0.2,0.8,0.2,1.8-0.2,2.6c-0.4,0.9-1.3,1.5-2.2,1.6c-1,0.1-1.9-0.2-2.6-0.7c-0.7-0.5-1.3-1.2-1.6-2.1
				c-0.7-1.8,0.7-4.1,2.7-4.4c1-0.2,2,0.1,2.7,0.7C71.7,165,72.1,165.8,72.3,166.6z M72.2,166.7c-0.2-0.8-0.8-1.5-1.5-1.8
				c-0.7-0.3-1.5-0.4-2.2-0.2c-0.7,0.2-1.3,0.5-1.8,1.1c-0.4,0.6-0.6,1.3-0.6,2.1c0.1,0.8,0.5,1.6,1.2,2c0.7,0.4,1.6,0.4,2.3,0.2
				c0.7-0.2,1.3-0.6,1.9-1.2C72,168.4,72.4,167.5,72.2,166.7z"/>
		</g>
		<g>
			<path d="M45.5,200.4c0.2,0.8,0.2,1.8-0.2,2.6c-0.4,0.9-1.3,1.5-2.2,1.6c-1,0.1-1.9-0.2-2.6-0.7c-0.7-0.5-1.3-1.2-1.6-2.1
				c-0.7-1.8,0.7-4.1,2.7-4.4c1-0.2,2,0.1,2.7,0.7C45,198.7,45.4,199.5,45.5,200.4z M45.4,200.4c-0.2-0.8-0.8-1.5-1.5-1.8
				c-0.7-0.3-1.5-0.4-2.2-0.2c-0.7,0.2-1.3,0.5-1.8,1.1c-0.4,0.6-0.6,1.3-0.6,2.1c0.1,0.8,0.5,1.6,1.2,2c0.7,0.4,1.6,0.4,2.3,0.2
				c0.7-0.2,1.3-0.6,1.9-1.2C45.3,202.1,45.6,201.2,45.4,200.4z"/>
		</g>
		<g>
			<path d="M51,193.6c0.2,0.8,0.2,1.8-0.2,2.6c-0.4,0.9-1.3,1.5-2.2,1.6c-1,0.1-1.9-0.2-2.6-0.7c-0.7-0.5-1.3-1.2-1.6-2.1
				c-0.7-1.8,0.7-4.1,2.7-4.4c1-0.2,2,0.1,2.7,0.7C50.4,191.9,50.8,192.8,51,193.6z M50.9,193.6c-0.2-0.8-0.8-1.5-1.5-1.8
				c-0.7-0.3-1.5-0.4-2.2-0.2c-0.7,0.2-1.3,0.5-1.8,1.1c-0.4,0.6-0.6,1.3-0.6,2.1c0.1,0.8,0.5,1.6,1.2,2c0.7,0.4,1.6,0.4,2.3,0.2
				c0.7-0.2,1.3-0.6,1.9-1.2C50.8,195.3,51.1,194.5,50.9,193.6z"/>
		</g>
		<g>
			<path d="M56.2,186.9c0.2,0.8,0.2,1.8-0.2,2.6c-0.4,0.9-1.3,1.5-2.2,1.6c-1,0.1-1.9-0.2-2.6-0.7c-0.7-0.5-1.3-1.2-1.6-2.1
				c-0.7-1.8,0.7-4.1,2.7-4.4c1-0.2,2,0.1,2.7,0.7C55.7,185.2,56,186,56.2,186.9z M56.1,186.9c-0.2-0.8-0.8-1.5-1.5-1.8
				c-0.7-0.3-1.5-0.4-2.2-0.2c-0.7,0.2-1.3,0.5-1.8,1.1c-0.4,0.6-0.6,1.3-0.6,2.1c0.1,0.8,0.5,1.6,1.2,2c0.7,0.4,1.6,0.4,2.3,0.2
				c0.7-0.2,1.3-0.6,1.9-1.2C56,188.6,56.3,187.7,56.1,186.9z"/>
		</g>
	</g>
	<g id="Keys_1_">
		<g>
			<path d="M33.4,188.8c-1.3,1.7-2.8,3.6-4.4,5.5l-0.3,0.3l-0.3-0.3c-1-0.8-1.9-1.6-2.8-2.5l-0.4-0.3l0.3-0.4
				c1.6-1.7,3.2-3.4,4.8-5.1l0.2-0.2l0.2,0.2C31.8,187,32.6,188,33.4,188.8z M33.4,188.8c-1.1-0.8-2.1-1.5-3-2.3l0.4,0
				c-1.5,1.8-3,3.6-4.6,5.3l0-0.7c0.9,0.8,1.8,1.7,2.7,2.6l-0.6,0C29.9,192.1,31.6,190.6,33.4,188.8z"/>
		</g>
		<g>
			<path d="M44.7,177.1c-1.2,1.5-2.6,3.2-4.1,4.8l-0.3,0.3l-0.3-0.3c-0.7-0.6-1.4-1.2-2.1-1.8l-0.3-0.3l0.3-0.4
				c1.2-1.7,2.5-3.4,3.8-5.1l0.2-0.3l0.2,0.2C43.1,175.3,43.9,176.2,44.7,177.1z M44.7,177.1c-1.1-0.8-2.1-1.5-3-2.3l0.5-0.1
				c-1.1,1.8-2.3,3.6-3.5,5.3l-0.1-0.7c0.7,0.6,1.4,1.2,2,1.9l-0.6,0C41.4,179.9,43,178.6,44.7,177.1z"/>
		</g>
		<g>
			<path d="M50.1,170.8c-0.9,0.9-2,1.9-3.2,2.9l-0.3,0.2l-0.3-0.2c-0.7-0.6-1.4-1.2-2.1-1.8l-0.4-0.4l0.4-0.4
				c1.2-1.1,2.5-2.1,3.8-3.1l0.3-0.2l0.2,0.3C49.1,169.1,49.6,170,50.1,170.8z M50.1,170.8c-0.7-0.9-1.4-1.6-2-2.3l0.5,0.1
				c-1.1,1.2-2.3,2.3-3.6,3.3l0-0.7c0.7,0.6,1.4,1.2,2,1.9l-0.6,0C47.5,172.3,48.7,171.6,50.1,170.8z"/>
		</g>
		<g>
			<path d="M54.7,165.8c-1-1-1.9-1.7-2.6-2.5l0.6,0.1c-0.9,0.7-1.8,1.3-2.7,1.9l0.1-0.7c0.9,1.2,1.7,2.3,2.4,3.6l-0.5,0
				C52.8,167.4,53.7,166.7,54.7,165.8z M54.7,165.8c-0.7,0.8-1.4,1.8-2.3,2.7l-0.2,0.2l-0.3-0.3c-1-1.1-1.9-2.2-2.7-3.4l-0.3-0.4
				l0.4-0.3c0.9-0.6,1.8-1.2,2.8-1.8l0.4-0.2l0.2,0.3C53.5,163.8,54.2,164.9,54.7,165.8z"/>
		</g>
		<g>
			<path d="M54.5,160.1c1.4-1.4,2.9-2.9,4.6-4.3l0.3-0.3l0.3,0.3c0.6,0.7,1.2,1.4,1.9,2l0.3,0.3l-0.3,0.3c-1.4,1.6-2.9,3.1-4.4,4.6
				l-0.3,0.3l-0.2-0.3C55.9,162,55.2,161,54.5,160.1z M54.5,160.1c1,1,1.9,1.8,2.7,2.6l-0.5,0c1.3-1.7,2.7-3.3,4.1-4.9l0,0.7
				c-0.6-0.7-1.2-1.4-1.8-2.1l0.6,0.1C58.1,157.6,56.4,158.7,54.5,160.1z"/>
		</g>
		<g>
			<path d="M33.3,185.4l1.9-3.9l0.1-0.3l0.3,0.2l2.9,2.3l0,0.5c-0.1-0.1-0.1,0-0.1,0l0,0l-0.1,0.1l-0.2,0.2l-0.4,0.3l-0.8,0.7
				c-0.5,0.4-1.1,0.9-1.6,1.4l-0.1,0.1l-0.1-0.1L33.3,185.4z M33.3,185.4c0.7,0.4,1.4,0.8,2,1.2l-0.3,0c0.5-0.5,1-0.9,1.5-1.4
				l0.8-0.7l0.4-0.4l0.2-0.2l0.1-0.1l0,0c0,0,0.1,0,0-0.1l0,0.5l-2.8-2.4l0.4-0.1C34.9,182.9,34.1,184.1,33.3,185.4z"/>
		</g>
	</g>
	<g id="Top_Nut">
		<g>
			<path d="M35.5,215.3c1.3,1.4,2.7,2.7,4,4c1.4,1.3,2.8,2.5,4.2,3.8c1.4,1.2,2.9,2.5,4.3,3.6l2.2,1.8c0.8,0.6,1.5,1.1,2.3,1.7
				l-0.7,0.8L34.8,216L35.5,215.3z"/>
		</g>
		<line class="st10" x1="38.1" y1="219.1" x2="48.5" y2="228.1"/>
	</g>
	
		<rect id="spliter" x="68.4" y="193.1" transform="matrix(-0.2777 0.9607 -0.9607 -0.2777 277.8107 183.3895)" width="3.2" height="6"/>
</g>
<g id="piano">
	<path class="st11" d="M103.4,406.2H8.9c-7.9,0-14.3-6.4-14.3-14.3v-94.5c0-7.9,6.4-14.3,14.3-14.3h94.5c7.9,0,14.3,6.4,14.3,14.3
		v94.5C117.7,399.8,111.3,406.2,103.4,406.2z"/>
	<g>
		<defs>
			<path id="SVGID_10_" d="M104.9,403.1H11.4c-7.9,0-14.3-6.4-14.3-14.3v-93.4c0-7.9,6.4-14.3,14.3-14.3h93.4
				c7.9,0,14.3,6.4,14.3,14.3v93.4C119.2,396.7,112.8,403.1,104.9,403.1z"/>
		</defs>
		<clipPath id="SVGID_11_">
			<use xlink:href="#SVGID_10_"  style="overflow:visible;"/>
		</clipPath>
		<g id="keyboard" class="st12">
			<rect id="Base_2_" x="-43" y="276.1" width="167.7" height="127.2"/>
			<g id="Vol">
				<circle class="st13" cx="103" cy="296.1" r="10.5"/>
				<circle class="st13" cx="85.6" cy="306.8" r="4.9"/>
			</g>
			<g id="White_Keys">
				<rect x="98.5" y="339.7" class="st13" width="16.3" height="63.6"/>
				<rect x="79.8" y="339.7" class="st13" width="16.3" height="63.6"/>
				<rect x="61.2" y="339.7" class="st13" width="16.3" height="63.6"/>
				<rect x="42.5" y="339.7" class="st13" width="16.3" height="63.6"/>
				<rect x="23.9" y="339.7" class="st13" width="16.3" height="63.6"/>
				<rect x="5.2" y="339.7" class="st13" width="16.3" height="63.6"/>
				<rect x="-13.4" y="339.7" class="st13" width="16.3" height="63.6"/>
				<rect x="-32.1" y="339.7" class="st13" width="16.3" height="63.6"/>
			</g>
			<rect id="power" x="117" y="282.7" class="st14" width="7.7" height="2.9"/>
			<g id="Black_keys">
				<rect x="-20" y="339.7" width="10.5" height="42.7"/>
				<rect x="-1.4" y="339.7" width="10.5" height="42.7"/>
				<rect x="73.4" y="339.7" width="10.5" height="42.7"/>
				<rect x="54.8" y="339.7" width="10.5" height="42.7"/>
				<rect x="36.1" y="339.7" width="10.5" height="42.7"/>
			</g>
		</g>
	</g>
</g>
</svg>
